<svg xmlns="http://www.w3.org/2000/svg" xmlns:xlink="http://www.w3.org/1999/xlink" width="300" zoomAndPan="magnify" viewBox="0 0 224.87999 56.249996" height="75" preserveAspectRatio="xMidYMid meet" version="1.0"><defs><g/><clipPath id="691610d5bb"><path d="M 6.972656 5.550781 L 51.378906 5.550781 L 51.378906 49.957031 L 6.972656 49.957031 Z M 6.972656 5.550781 " clip-rule="nonzero"/></clipPath></defs><g fill="#a6fbb2" fill-opacity="1"><g transform="translate(90.242886, 31.840304)"><g><path d="M 28.46875 0 L 19.5625 0 L 9.46875 -12.078125 L 9.46875 0 L 1.984375 0 L 1.984375 -17.84375 L 10.890625 -17.84375 L 20.984375 -5.828125 L 20.984375 -17.84375 L 28.46875 -17.84375 Z M 28.46875 0 "/></g></g></g><g fill="#a6fbb2" fill-opacity="1"><g transform="translate(119.153216, 31.840304)"><g><path d="M 17.40625 0 L 9.921875 0 L 9.921875 -8.453125 L 0.1875 -17.84375 L 8.484375 -17.84375 L 13.671875 -12.515625 L 18.84375 -17.84375 L 27.140625 -17.84375 L 17.40625 -8.453125 Z M 17.40625 0 "/></g></g></g><g fill="#a6fbb2" fill-opacity="1"><g transform="translate(144.931498, 31.840304)"><g><path d="M 31.28125 0 L 21.5625 0 L 13.90625 -5.96875 L 9.46875 -2.953125 L 9.46875 0 L 1.984375 0 L 1.984375 -17.84375 L 9.46875 -17.84375 L 9.46875 -9.59375 L 21.484375 -17.84375 L 31.28125 -17.84375 L 18.5 -9.109375 Z M 31.28125 0 "/></g></g></g><g fill="#a6fbb2" fill-opacity="1"><g transform="translate(174.860987, 31.840304)"><g><path d="M 23.484375 0 L 1.984375 0 L 1.984375 -17.84375 L 22.5 -17.84375 L 22.5 -13.4375 L 9.46875 -13.4375 L 9.46875 -10.625 L 20.484375 -10.625 L 20.484375 -7.203125 L 9.46875 -7.203125 L 9.46875 -4.421875 L 23.484375 -4.421875 Z M 23.484375 0 "/></g></g></g><g fill="#4289fa" fill-opacity="1"><g transform="translate(109.620161, 44.186887)"><g><path d="M 3.0625 0 L 0.640625 0 L 0.640625 -5.765625 L 7.265625 -5.765625 L 7.265625 -4.34375 L 3.0625 -4.34375 L 3.0625 -3.4375 L 6.625 -3.4375 L 6.625 -2.328125 L 3.0625 -2.328125 Z M 3.0625 0 "/></g></g></g><g fill="#4289fa" fill-opacity="1"><g transform="translate(118.858394, 44.186887)"><g><path d="M 3.0625 0 L 0.640625 0 L 0.640625 -5.765625 L 3.0625 -5.765625 Z M 3.0625 0 "/></g></g></g><g fill="#4289fa" fill-opacity="1"><g transform="translate(124.210187, 44.186887)"><g><path d="M 9.203125 0 L 6.328125 0 L 3.0625 -3.90625 L 3.0625 0 L 0.640625 0 L 0.640625 -5.765625 L 3.515625 -5.765625 L 6.78125 -1.890625 L 6.78125 -5.765625 L 9.203125 -5.765625 Z M 9.203125 0 "/></g></g></g><g fill="#4289fa" fill-opacity="1"><g transform="translate(135.699099, 44.186887)"><g><path d="M 9.6875 0 L 7.234375 0 L 6.6875 -0.9375 L 3.0625 -0.9375 L 2.515625 0 L 0.0625 0 L 3.75 -5.765625 L 6 -5.765625 Z M 5.875 -2.375 L 4.875 -4.125 L 3.875 -2.375 Z M 5.875 -2.375 "/></g></g></g><g fill="#4289fa" fill-opacity="1"><g transform="translate(147.091555, 44.186887)"><g><path d="M 9.203125 0 L 6.328125 0 L 3.0625 -3.90625 L 3.0625 0 L 0.640625 0 L 0.640625 -5.765625 L 3.515625 -5.765625 L 6.78125 -1.890625 L 6.78125 -5.765625 L 9.203125 -5.765625 Z M 9.203125 0 "/></g></g></g><g fill="#4289fa" fill-opacity="1"><g transform="translate(158.580469, 44.186887)"><g><path d="M 4.359375 0.125 C 2.929688 0.125 1.882812 -0.164062 1.21875 -0.75 C 0.625 -1.269531 0.328125 -1.976562 0.328125 -2.875 C 0.328125 -3.769531 0.625 -4.476562 1.21875 -5 C 1.882812 -5.582031 2.929688 -5.875 4.359375 -5.875 C 5.191406 -5.875 5.878906 -5.78125 6.421875 -5.59375 C 6.972656 -5.40625 7.398438 -5.144531 7.703125 -4.8125 C 8.015625 -4.476562 8.21875 -4.097656 8.3125 -3.671875 L 5.765625 -3.671875 C 5.515625 -4.117188 5.046875 -4.34375 4.359375 -4.34375 C 3.773438 -4.34375 3.347656 -4.171875 3.078125 -3.828125 C 2.847656 -3.554688 2.734375 -3.238281 2.734375 -2.875 C 2.734375 -2.507812 2.847656 -2.191406 3.078125 -1.921875 C 3.347656 -1.585938 3.773438 -1.421875 4.359375 -1.421875 C 5.046875 -1.421875 5.515625 -1.644531 5.765625 -2.09375 L 8.3125 -2.09375 C 8.21875 -1.664062 8.015625 -1.285156 7.703125 -0.953125 C 7.398438 -0.617188 6.972656 -0.351562 6.421875 -0.15625 C 5.878906 0.03125 5.191406 0.125 4.359375 0.125 Z M 4.359375 0.125 "/></g></g></g><g fill="#4289fa" fill-opacity="1"><g transform="translate(168.859642, 44.186887)"><g><path d="M 7.59375 0 L 0.640625 0 L 0.640625 -5.765625 L 7.265625 -5.765625 L 7.265625 -4.34375 L 3.0625 -4.34375 L 3.0625 -3.4375 L 6.625 -3.4375 L 6.625 -2.328125 L 3.0625 -2.328125 L 3.0625 -1.421875 L 7.59375 -1.421875 Z M 7.59375 0 "/></g></g></g><g clip-path="url(#691610d5bb)"><path fill="#4289fa" d="M 51.378906 27.753906 C 51.378906 28.117188 51.371094 28.480469 51.351562 28.84375 C 51.335938 29.207031 51.308594 29.570312 51.273438 29.929688 C 51.238281 30.292969 51.191406 30.652344 51.140625 31.011719 C 51.085938 31.371094 51.023438 31.730469 50.953125 32.085938 C 50.882812 32.441406 50.800781 32.796875 50.714844 33.148438 C 50.625 33.503906 50.527344 33.851562 50.421875 34.199219 C 50.316406 34.546875 50.203125 34.894531 50.082031 35.234375 C 49.957031 35.578125 49.828125 35.917969 49.6875 36.253906 C 49.550781 36.585938 49.402344 36.917969 49.246094 37.25 C 49.09375 37.578125 48.929688 37.902344 48.757812 38.222656 C 48.585938 38.542969 48.40625 38.859375 48.21875 39.171875 C 48.035156 39.480469 47.839844 39.789062 47.636719 40.089844 C 47.433594 40.394531 47.226562 40.691406 47.007812 40.980469 C 46.792969 41.273438 46.570312 41.558594 46.339844 41.839844 C 46.109375 42.121094 45.871094 42.398438 45.628906 42.667969 C 45.382812 42.933594 45.132812 43.199219 44.875 43.457031 C 44.617188 43.710938 44.355469 43.960938 44.085938 44.207031 C 43.816406 44.449219 43.542969 44.6875 43.261719 44.917969 C 42.980469 45.148438 42.695312 45.371094 42.402344 45.589844 C 42.109375 45.804688 41.8125 46.015625 41.511719 46.21875 C 41.207031 46.417969 40.902344 46.613281 40.589844 46.800781 C 40.277344 46.988281 39.960938 47.164062 39.640625 47.335938 C 39.320312 47.507812 38.996094 47.671875 38.667969 47.828125 C 38.339844 47.980469 38.007812 48.128906 37.671875 48.269531 C 37.335938 48.40625 36.996094 48.539062 36.65625 48.660156 C 36.3125 48.785156 35.96875 48.898438 35.621094 49.003906 C 35.273438 49.109375 34.921875 49.203125 34.570312 49.292969 C 34.21875 49.382812 33.863281 49.460938 33.507812 49.53125 C 33.152344 49.601562 32.792969 49.664062 32.433594 49.71875 C 32.074219 49.773438 31.714844 49.816406 31.351562 49.851562 C 30.988281 49.886719 30.628906 49.914062 30.265625 49.933594 C 29.902344 49.949219 29.539062 49.957031 29.175781 49.957031 C 28.8125 49.957031 28.449219 49.949219 28.085938 49.933594 C 27.722656 49.914062 27.359375 49.886719 27 49.851562 C 26.636719 49.816406 26.277344 49.773438 25.917969 49.71875 C 25.558594 49.664062 25.199219 49.601562 24.84375 49.53125 C 24.488281 49.460938 24.132812 49.382812 23.78125 49.292969 C 23.425781 49.203125 23.078125 49.109375 22.730469 49.003906 C 22.382812 48.898438 22.035156 48.785156 21.695312 48.660156 C 21.351562 48.539062 21.015625 48.40625 20.679688 48.269531 C 20.34375 48.128906 20.011719 47.980469 19.683594 47.828125 C 19.351562 47.671875 19.027344 47.507812 18.707031 47.335938 C 18.386719 47.164062 18.070312 46.988281 17.761719 46.800781 C 17.449219 46.613281 17.140625 46.417969 16.839844 46.21875 C 16.539062 46.015625 16.242188 45.804688 15.949219 45.589844 C 15.65625 45.371094 15.371094 45.148438 15.089844 44.917969 C 14.808594 44.6875 14.53125 44.449219 14.265625 44.207031 C 13.996094 43.960938 13.730469 43.710938 13.472656 43.457031 C 13.21875 43.199219 12.96875 42.933594 12.722656 42.667969 C 12.480469 42.398438 12.242188 42.121094 12.011719 41.839844 C 11.78125 41.558594 11.558594 41.273438 11.339844 40.980469 C 11.125 40.691406 10.914062 40.394531 10.714844 40.089844 C 10.511719 39.789062 10.316406 39.480469 10.128906 39.171875 C 9.941406 38.859375 9.765625 38.542969 9.59375 38.222656 C 9.421875 37.902344 9.257812 37.578125 9.101562 37.25 C 8.949219 36.917969 8.800781 36.585938 8.660156 36.253906 C 8.523438 35.917969 8.390625 35.578125 8.269531 35.234375 C 8.148438 34.894531 8.03125 34.546875 7.925781 34.199219 C 7.820312 33.851562 7.726562 33.503906 7.636719 33.148438 C 7.546875 32.796875 7.46875 32.441406 7.398438 32.085938 C 7.328125 31.730469 7.265625 31.371094 7.210938 31.011719 C 7.160156 30.652344 7.113281 30.292969 7.078125 29.929688 C 7.042969 29.570312 7.015625 29.207031 6.996094 28.84375 C 6.980469 28.480469 6.972656 28.117188 6.972656 27.753906 C 6.972656 27.390625 6.980469 27.027344 6.996094 26.664062 C 7.015625 26.300781 7.042969 25.941406 7.078125 25.578125 C 7.113281 25.21875 7.160156 24.855469 7.210938 24.496094 C 7.265625 24.136719 7.328125 23.78125 7.398438 23.421875 C 7.46875 23.066406 7.546875 22.710938 7.636719 22.359375 C 7.726562 22.007812 7.820312 21.65625 7.925781 21.308594 C 8.03125 20.960938 8.148438 20.617188 8.269531 20.273438 C 8.390625 19.933594 8.523438 19.59375 8.660156 19.257812 C 8.800781 18.921875 8.949219 18.589844 9.101562 18.261719 C 9.257812 17.933594 9.421875 17.609375 9.59375 17.289062 C 9.765625 16.96875 9.941406 16.652344 10.128906 16.339844 C 10.316406 16.027344 10.511719 15.722656 10.714844 15.417969 C 10.914062 15.117188 11.125 14.820312 11.339844 14.527344 C 11.558594 14.234375 11.78125 13.949219 12.011719 13.667969 C 12.242188 13.386719 12.480469 13.113281 12.722656 12.84375 C 12.96875 12.574219 13.21875 12.3125 13.472656 12.054688 C 13.730469 11.796875 13.996094 11.546875 14.265625 11.304688 C 14.53125 11.058594 14.808594 10.820312 15.089844 10.589844 C 15.371094 10.359375 15.65625 10.136719 15.949219 9.921875 C 16.242188 9.703125 16.539062 9.496094 16.839844 9.292969 C 17.140625 9.089844 17.449219 8.898438 17.761719 8.710938 C 18.070312 8.523438 18.386719 8.34375 18.707031 8.171875 C 19.027344 8 19.351562 7.839844 19.683594 7.683594 C 20.011719 7.527344 20.34375 7.378906 20.679688 7.242188 C 21.015625 7.101562 21.351562 6.972656 21.695312 6.847656 C 22.035156 6.726562 22.382812 6.613281 22.730469 6.507812 C 23.078125 6.402344 23.425781 6.304688 23.78125 6.214844 C 24.132812 6.128906 24.488281 6.046875 24.84375 5.976562 C 25.199219 5.90625 25.558594 5.84375 25.917969 5.792969 C 26.277344 5.738281 26.636719 5.695312 27 5.65625 C 27.359375 5.621094 27.722656 5.59375 28.085938 5.578125 C 28.449219 5.558594 28.8125 5.550781 29.175781 5.550781 C 29.539062 5.550781 29.902344 5.558594 30.265625 5.578125 C 30.628906 5.59375 30.988281 5.621094 31.351562 5.65625 C 31.714844 5.695312 32.074219 5.738281 32.433594 5.792969 C 32.792969 5.84375 33.152344 5.90625 33.507812 5.976562 C 33.863281 6.046875 34.21875 6.128906 34.570312 6.214844 C 34.921875 6.304688 35.273438 6.402344 35.621094 6.507812 C 35.96875 6.613281 36.3125 6.726562 36.65625 6.847656 C 36.996094 6.972656 37.335938 7.101562 37.671875 7.242188 C 38.007812 7.378906 38.339844 7.527344 38.667969 7.683594 C 38.996094 7.839844 39.320312 8 39.640625 8.171875 C 39.960938 8.34375 40.277344 8.523438 40.589844 8.710938 C 40.902344 8.898438 41.207031 9.089844 41.511719 9.292969 C 41.8125 9.496094 42.109375 9.703125 42.402344 9.921875 C 42.695312 10.136719 42.980469 10.359375 43.261719 10.589844 C 43.542969 10.820312 43.816406 11.058594 44.085938 11.304688 C 44.355469 11.546875 44.617188 11.796875 44.875 12.054688 C 45.132812 12.3125 45.382812 12.574219 45.628906 12.84375 C 45.871094 13.113281 46.109375 13.386719 46.339844 13.667969 C 46.570312 13.949219 46.792969 14.234375 47.007812 14.527344 C 47.226562 14.820312 47.433594 15.117188 47.636719 15.417969 C 47.839844 15.722656 48.035156 16.027344 48.21875 16.339844 C 48.40625 16.652344 48.585938 16.96875 48.757812 17.289062 C 48.929688 17.609375 49.09375 17.933594 49.246094 18.261719 C 49.402344 18.589844 49.550781 18.921875 49.6875 19.257812 C 49.828125 19.59375 49.957031 19.933594 50.082031 20.273438 C 50.203125 20.617188 50.316406 20.960938 50.421875 21.308594 C 50.527344 21.65625 50.625 22.007812 50.714844 22.359375 C 50.800781 22.710938 50.882812 23.066406 50.953125 23.421875 C 51.023438 23.78125 51.085938 24.136719 51.140625 24.496094 C 51.191406 24.855469 51.238281 25.21875 51.273438 25.578125 C 51.308594 25.941406 51.335938 26.300781 51.351562 26.664062 C 51.371094 27.027344 51.378906 27.390625 51.378906 27.753906 Z M 51.378906 27.753906 " fill-opacity="1" fill-rule="nonzero"/></g><path fill="#f0f8ff" d="M 26.5625 15.578125 C 26.5625 15.578125 27.550781 18.03125 27.84375 19.507812 C 28.136719 20.988281 28.710938 21.910156 28.710938 21.910156 L 29.253906 23.046875 L 29.585938 23.992188 L 30.058594 22.683594 C 30.058594 22.683594 30.386719 20.875 29.820312 19.269531 C 29.820312 19.269531 30.996094 21.027344 30.316406 24.445312 C 30.316406 24.445312 31.707031 23.25 31.863281 20.273438 C 31.863281 20.273438 31.15625 16.183594 26.5625 15.578125 " fill-opacity="1" fill-rule="nonzero"/><path fill="#f0f8ff" d="M 31.820312 22.125 C 31.898438 21.894531 31.960938 21.65625 32.003906 21.40625 C 32.046875 21.160156 32.070312 20.902344 32.070312 20.636719 C 32.070312 20.375 32.042969 20.101562 31.992188 19.828125 C 31.96875 19.691406 31.9375 19.554688 31.898438 19.417969 C 31.859375 19.28125 31.8125 19.144531 31.761719 19.007812 C 31.707031 18.875 31.648438 18.738281 31.585938 18.609375 C 31.570312 18.574219 31.554688 18.542969 31.539062 18.507812 L 31.511719 18.457031 L 31.5 18.433594 L 31.484375 18.410156 L 31.460938 18.363281 L 31.433594 18.3125 C 31.414062 18.28125 31.394531 18.25 31.378906 18.214844 C 31.226562 17.960938 31.050781 17.710938 30.859375 17.480469 C 30.664062 17.246094 30.453125 17.027344 30.226562 16.832031 C 30 16.632812 29.757812 16.453125 29.511719 16.292969 C 29.265625 16.132812 29.011719 15.988281 28.75 15.863281 C 28.621094 15.800781 28.492188 15.742188 28.363281 15.6875 C 28.230469 15.632812 28.101562 15.585938 27.96875 15.539062 C 27.707031 15.445312 27.441406 15.363281 27.175781 15.300781 C 27.042969 15.269531 26.910156 15.238281 26.777344 15.214844 C 26.710938 15.203125 26.644531 15.191406 26.578125 15.179688 C 26.542969 15.175781 26.511719 15.171875 26.476562 15.164062 L 26.425781 15.160156 L 26.371094 15.152344 L 25.773438 15.09375 L 26.191406 15.628906 C 26.316406 15.785156 26.429688 15.949219 26.535156 16.113281 C 26.640625 16.28125 26.734375 16.449219 26.816406 16.621094 C 26.898438 16.796875 26.964844 16.972656 27.023438 17.152344 C 27.082031 17.332031 27.128906 17.515625 27.171875 17.707031 C 27.210938 17.894531 27.25 18.085938 27.285156 18.28125 C 27.320312 18.476562 27.359375 18.675781 27.402344 18.878906 C 27.445312 19.082031 27.496094 19.285156 27.558594 19.492188 C 27.566406 19.515625 27.574219 19.542969 27.582031 19.570312 C 27.589844 19.597656 27.597656 19.621094 27.605469 19.644531 L 27.628906 19.722656 C 27.640625 19.746094 27.648438 19.773438 27.65625 19.796875 C 27.691406 19.898438 27.726562 19.996094 27.761719 20.097656 C 27.835938 20.296875 27.917969 20.496094 28.003906 20.695312 C 28.046875 20.792969 28.09375 20.890625 28.136719 20.988281 C 28.183594 21.082031 28.230469 21.179688 28.277344 21.277344 C 28.371094 21.46875 28.464844 21.65625 28.558594 21.839844 C 28.648438 22.023438 28.738281 22.207031 28.8125 22.390625 C 28.890625 22.570312 28.957031 22.75 29.007812 22.933594 C 29.0625 23.113281 29.101562 23.296875 29.128906 23.480469 C 29.152344 23.660156 29.167969 23.84375 29.167969 24.027344 C 29.171875 24.121094 29.171875 24.210938 29.167969 24.300781 C 29.164062 24.394531 29.160156 24.484375 29.152344 24.578125 L 29.078125 25.65625 L 29.574219 24.800781 L 29.585938 24.78125 L 29.59375 24.761719 L 29.617188 24.722656 C 29.628906 24.699219 29.640625 24.675781 29.65625 24.648438 C 29.679688 24.597656 29.703125 24.546875 29.726562 24.496094 C 29.773438 24.394531 29.816406 24.292969 29.855469 24.1875 C 29.898438 24.082031 29.933594 23.976562 29.96875 23.867188 C 30.003906 23.761719 30.039062 23.652344 30.066406 23.542969 C 30.128906 23.320312 30.175781 23.097656 30.214844 22.867188 C 30.234375 22.753906 30.25 22.636719 30.261719 22.523438 C 30.273438 22.40625 30.285156 22.289062 30.292969 22.167969 C 30.300781 22.050781 30.304688 21.933594 30.304688 21.8125 C 30.304688 21.691406 30.304688 21.574219 30.296875 21.453125 C 30.292969 21.332031 30.285156 21.210938 30.269531 21.085938 C 30.265625 21.027344 30.257812 20.964844 30.25 20.90625 C 30.242188 20.84375 30.234375 20.78125 30.222656 20.722656 C 30.207031 20.601562 30.179688 20.476562 30.15625 20.355469 C 30.140625 20.296875 30.128906 20.234375 30.113281 20.171875 C 30.097656 20.113281 30.082031 20.050781 30.066406 19.992188 C 30.058594 19.960938 30.046875 19.929688 30.039062 19.898438 C 30.03125 19.871094 30.023438 19.839844 30.011719 19.808594 C 29.992188 19.75 29.972656 19.6875 29.953125 19.628906 C 29.914062 19.507812 29.867188 19.386719 29.820312 19.269531 C 29.851562 19.390625 29.886719 19.511719 29.914062 19.632812 C 29.925781 19.691406 29.9375 19.75 29.953125 19.8125 C 29.957031 19.839844 29.964844 19.871094 29.96875 19.902344 C 29.972656 19.929688 29.980469 19.960938 29.984375 19.992188 L 30 20.082031 C 30.003906 20.109375 30.007812 20.140625 30.015625 20.171875 C 30.023438 20.230469 30.03125 20.289062 30.039062 20.351562 C 30.050781 20.46875 30.0625 20.585938 30.070312 20.707031 C 30.078125 20.765625 30.078125 20.824219 30.082031 20.882812 C 30.082031 20.941406 30.085938 21 30.085938 21.058594 C 30.085938 21.175781 30.085938 21.289062 30.082031 21.402344 C 30.078125 21.519531 30.070312 21.632812 30.058594 21.746094 C 30.050781 21.859375 30.039062 21.972656 30.023438 22.082031 C 30.007812 22.191406 29.988281 22.304688 29.964844 22.410156 C 29.945312 22.519531 29.921875 22.628906 29.894531 22.734375 C 29.84375 22.949219 29.78125 23.15625 29.710938 23.359375 C 29.6875 23.433594 29.65625 23.511719 29.628906 23.585938 C 29.628906 23.566406 29.625 23.546875 29.625 23.527344 C 29.601562 23.320312 29.566406 23.109375 29.511719 22.902344 C 29.457031 22.691406 29.386719 22.480469 29.308594 22.28125 C 29.230469 22.078125 29.140625 21.878906 29.050781 21.6875 C 28.960938 21.496094 28.871094 21.304688 28.785156 21.121094 C 28.695312 20.933594 28.613281 20.746094 28.535156 20.5625 C 28.457031 20.375 28.386719 20.191406 28.320312 20.003906 C 28.285156 19.910156 28.253906 19.816406 28.222656 19.722656 C 28.214844 19.699219 28.207031 19.675781 28.203125 19.652344 L 28.179688 19.582031 C 28.171875 19.558594 28.164062 19.53125 28.15625 19.511719 L 28.136719 19.441406 C 28.085938 19.257812 28.039062 19.070312 28.003906 18.878906 C 27.960938 18.691406 27.925781 18.5 27.894531 18.300781 C 27.859375 18.105469 27.820312 17.90625 27.777344 17.703125 C 27.734375 17.5 27.679688 17.289062 27.613281 17.082031 C 27.546875 16.871094 27.460938 16.664062 27.367188 16.457031 C 27.269531 16.257812 27.160156 16.0625 27.042969 15.871094 C 27.085938 15.882812 27.128906 15.890625 27.167969 15.902344 C 27.414062 15.957031 27.65625 16.023438 27.898438 16.105469 C 28.019531 16.144531 28.140625 16.191406 28.257812 16.238281 C 28.378906 16.285156 28.496094 16.335938 28.613281 16.386719 C 28.847656 16.496094 29.078125 16.617188 29.300781 16.753906 C 29.414062 16.824219 29.523438 16.898438 29.632812 16.972656 C 29.738281 17.050781 29.84375 17.128906 29.945312 17.214844 C 30.148438 17.382812 30.339844 17.566406 30.519531 17.765625 C 30.695312 17.960938 30.855469 18.175781 31 18.398438 C 31.015625 18.425781 31.035156 18.453125 31.050781 18.484375 L 31.074219 18.523438 L 31.101562 18.570312 L 31.113281 18.589844 L 31.128906 18.613281 L 31.148438 18.65625 C 31.164062 18.683594 31.183594 18.710938 31.199219 18.742188 C 31.257812 18.859375 31.316406 18.976562 31.367188 19.09375 C 31.46875 19.335938 31.550781 19.578125 31.609375 19.824219 C 31.667969 20.074219 31.703125 20.320312 31.714844 20.566406 C 31.730469 20.8125 31.722656 21.058594 31.695312 21.296875 C 31.671875 21.535156 31.628906 21.769531 31.570312 22 C 31.511719 22.226562 31.441406 22.449219 31.355469 22.667969 C 31.269531 22.882812 31.175781 23.09375 31.066406 23.296875 C 30.960938 23.503906 30.84375 23.699219 30.722656 23.894531 C 30.597656 24.085938 30.464844 24.269531 30.316406 24.445312 C 30.402344 24.371094 30.484375 24.289062 30.5625 24.207031 C 30.636719 24.121094 30.714844 24.039062 30.785156 23.949219 C 30.933594 23.773438 31.070312 23.585938 31.195312 23.394531 C 31.324219 23.199219 31.441406 22.996094 31.542969 22.785156 C 31.648438 22.574219 31.742188 22.351562 31.820312 22.125 " fill-opacity="1" fill-rule="nonzero"/><path fill="#f0f8ff" d="M 16.835938 18.691406 C 16.835938 18.691406 19.699219 19.328125 21.277344 20.003906 C 22.855469 20.683594 24.03125 20.726562 24.03125 20.726562 L 25.398438 20.9375 L 26.476562 21.230469 L 25.429688 19.914062 C 25.429688 19.914062 23.828125 18.40625 21.992188 17.914062 C 21.992188 17.914062 24.265625 17.910156 27.265625 20.808594 C 27.265625 20.808594 26.773438 18.667969 23.949219 16.574219 C 23.949219 16.574219 19.628906 14.589844 16.835938 18.691406 " fill-opacity="1" fill-rule="nonzero"/><path fill="#f0f8ff" d="M 25.730469 17.824219 C 25.542969 17.597656 25.339844 17.378906 25.117188 17.175781 C 24.898438 16.972656 24.660156 16.78125 24.402344 16.609375 C 24.144531 16.4375 23.871094 16.28125 23.578125 16.152344 C 23.433594 16.089844 23.285156 16.03125 23.132812 15.980469 C 22.980469 15.929688 22.828125 15.882812 22.671875 15.847656 C 22.515625 15.808594 22.355469 15.777344 22.195312 15.753906 C 22.15625 15.75 22.117188 15.742188 22.074219 15.738281 L 22.015625 15.730469 L 21.953125 15.722656 L 21.898438 15.71875 L 21.835938 15.714844 C 21.796875 15.710938 21.753906 15.707031 21.714844 15.703125 C 21.390625 15.683594 21.066406 15.691406 20.75 15.730469 C 20.429688 15.769531 20.117188 15.835938 19.8125 15.925781 C 19.511719 16.019531 19.222656 16.136719 18.949219 16.273438 C 18.671875 16.410156 18.414062 16.566406 18.167969 16.738281 C 18.042969 16.824219 17.925781 16.914062 17.808594 17.003906 C 17.691406 17.097656 17.582031 17.191406 17.472656 17.292969 C 17.253906 17.488281 17.050781 17.695312 16.863281 17.910156 C 16.765625 18.019531 16.675781 18.132812 16.585938 18.246094 C 16.542969 18.300781 16.5 18.359375 16.457031 18.417969 C 16.4375 18.449219 16.417969 18.476562 16.394531 18.507812 L 16.347656 18.578125 L 16.332031 18.605469 L 15.984375 19.148438 L 16.707031 19.089844 C 16.921875 19.074219 17.136719 19.066406 17.347656 19.070312 C 17.558594 19.074219 17.769531 19.09375 17.976562 19.128906 C 18.183594 19.160156 18.386719 19.210938 18.589844 19.269531 C 18.792969 19.332031 18.996094 19.40625 19.199219 19.488281 C 19.402344 19.570312 19.605469 19.660156 19.8125 19.753906 C 20.023438 19.84375 20.234375 19.9375 20.453125 20.027344 C 20.667969 20.117188 20.894531 20.199219 21.121094 20.273438 C 21.152344 20.285156 21.179688 20.292969 21.210938 20.304688 C 21.242188 20.3125 21.265625 20.320312 21.292969 20.328125 L 21.339844 20.34375 L 21.382812 20.355469 C 21.410156 20.363281 21.4375 20.371094 21.46875 20.378906 C 21.582031 20.410156 21.695312 20.441406 21.8125 20.472656 C 22.042969 20.527344 22.273438 20.578125 22.507812 20.621094 C 22.625 20.644531 22.738281 20.664062 22.855469 20.683594 C 22.972656 20.703125 23.089844 20.722656 23.203125 20.738281 C 23.433594 20.769531 23.664062 20.800781 23.886719 20.832031 C 24.113281 20.863281 24.332031 20.894531 24.542969 20.9375 C 24.757812 20.980469 24.964844 21.035156 25.167969 21.101562 C 25.371094 21.167969 25.566406 21.25 25.753906 21.34375 C 25.945312 21.4375 26.128906 21.546875 26.3125 21.660156 C 26.402344 21.71875 26.488281 21.78125 26.578125 21.84375 C 26.664062 21.90625 26.75 21.96875 26.835938 22.035156 L 27.851562 22.8125 L 27.257812 21.769531 L 27.226562 21.722656 L 27.203125 21.679688 C 27.183594 21.648438 27.164062 21.621094 27.148438 21.589844 C 27.109375 21.535156 27.070312 21.476562 27.035156 21.421875 C 26.957031 21.308594 26.875 21.199219 26.792969 21.089844 C 26.710938 20.984375 26.625 20.878906 26.539062 20.773438 C 26.449219 20.667969 26.359375 20.566406 26.269531 20.464844 C 26.082031 20.261719 25.886719 20.066406 25.683594 19.878906 C 25.582031 19.789062 25.476562 19.695312 25.367188 19.605469 C 25.261719 19.519531 25.152344 19.429688 25.039062 19.347656 C 24.929688 19.261719 24.816406 19.179688 24.699219 19.101562 C 24.582031 19.023438 24.464844 18.945312 24.34375 18.875 C 24.222656 18.800781 24.101562 18.730469 23.976562 18.664062 C 23.917969 18.628906 23.851562 18.597656 23.789062 18.5625 C 23.726562 18.53125 23.664062 18.5 23.597656 18.46875 C 23.472656 18.410156 23.339844 18.351562 23.210938 18.296875 C 23.144531 18.269531 23.078125 18.246094 23.011719 18.21875 C 22.945312 18.195312 22.878906 18.171875 22.8125 18.148438 C 22.777344 18.136719 22.746094 18.125 22.710938 18.113281 C 22.675781 18.101562 22.644531 18.089844 22.609375 18.082031 C 22.542969 18.058594 22.472656 18.039062 22.40625 18.019531 C 22.269531 17.980469 22.128906 17.945312 21.992188 17.914062 C 22.125 17.960938 22.257812 18.011719 22.386719 18.0625 C 22.453125 18.085938 22.519531 18.113281 22.582031 18.140625 C 22.613281 18.15625 22.648438 18.167969 22.679688 18.183594 C 22.710938 18.199219 22.742188 18.210938 22.773438 18.226562 L 22.867188 18.269531 C 22.898438 18.285156 22.929688 18.300781 22.960938 18.316406 C 23.027344 18.34375 23.085938 18.378906 23.148438 18.410156 C 23.269531 18.472656 23.390625 18.539062 23.511719 18.609375 C 23.570312 18.640625 23.628906 18.679688 23.6875 18.714844 C 23.746094 18.75 23.800781 18.785156 23.859375 18.824219 C 23.972656 18.898438 24.085938 18.976562 24.195312 19.054688 C 24.304688 19.132812 24.410156 19.214844 24.515625 19.296875 C 24.621094 19.382812 24.726562 19.46875 24.824219 19.554688 C 24.925781 19.644531 25.023438 19.734375 25.121094 19.824219 C 25.214844 19.917969 25.308594 20.011719 25.402344 20.105469 C 25.582031 20.296875 25.757812 20.492188 25.921875 20.691406 C 25.980469 20.769531 26.042969 20.84375 26.101562 20.921875 C 26.082031 20.910156 26.0625 20.902344 26.042969 20.890625 C 25.832031 20.777344 25.609375 20.675781 25.378906 20.589844 C 25.148438 20.503906 24.910156 20.4375 24.675781 20.382812 C 24.441406 20.328125 24.207031 20.285156 23.976562 20.25 C 23.746094 20.210938 23.519531 20.175781 23.296875 20.140625 C 23.070312 20.101562 22.851562 20.0625 22.632812 20.015625 C 22.414062 19.972656 22.199219 19.921875 21.984375 19.863281 C 21.878906 19.835938 21.773438 19.804688 21.667969 19.773438 C 21.640625 19.765625 21.613281 19.757812 21.585938 19.75 L 21.507812 19.726562 C 21.480469 19.71875 21.453125 19.707031 21.429688 19.699219 L 21.351562 19.675781 C 21.148438 19.605469 20.945312 19.527344 20.742188 19.441406 C 20.539062 19.355469 20.335938 19.265625 20.125 19.171875 C 19.917969 19.078125 19.707031 18.984375 19.488281 18.894531 C 19.269531 18.804688 19.039062 18.71875 18.804688 18.648438 C 18.566406 18.578125 18.324219 18.519531 18.078125 18.484375 C 17.835938 18.445312 17.59375 18.421875 17.355469 18.417969 C 17.382812 18.382812 17.414062 18.347656 17.441406 18.308594 C 17.613281 18.109375 17.796875 17.914062 17.992188 17.730469 C 18.089844 17.640625 18.1875 17.550781 18.292969 17.464844 C 18.394531 17.378906 18.5 17.296875 18.609375 17.214844 C 18.828125 17.054688 19.058594 16.910156 19.296875 16.78125 C 19.417969 16.71875 19.542969 16.65625 19.667969 16.601562 C 19.792969 16.546875 19.921875 16.496094 20.050781 16.453125 C 20.3125 16.363281 20.585938 16.292969 20.863281 16.25 C 21.140625 16.207031 21.425781 16.1875 21.710938 16.195312 C 21.746094 16.195312 21.78125 16.195312 21.816406 16.199219 L 21.867188 16.199219 L 21.925781 16.203125 L 21.953125 16.207031 L 21.980469 16.207031 L 22.03125 16.210938 C 22.066406 16.214844 22.101562 16.21875 22.140625 16.222656 C 22.28125 16.238281 22.425781 16.261719 22.566406 16.289062 C 22.847656 16.34375 23.125 16.425781 23.390625 16.53125 C 23.660156 16.632812 23.917969 16.761719 24.164062 16.910156 C 24.410156 17.054688 24.644531 17.222656 24.863281 17.402344 C 25.085938 17.585938 25.292969 17.78125 25.488281 17.984375 C 25.679688 18.191406 25.863281 18.40625 26.035156 18.632812 C 26.203125 18.855469 26.363281 19.089844 26.511719 19.324219 C 26.660156 19.5625 26.796875 19.804688 26.921875 20.054688 C 27.050781 20.300781 27.167969 20.554688 27.265625 20.808594 C 27.234375 20.679688 27.195312 20.546875 27.152344 20.414062 C 27.109375 20.285156 27.058594 20.15625 27.007812 20.027344 C 26.910156 19.769531 26.792969 19.511719 26.664062 19.261719 C 26.535156 19.011719 26.398438 18.765625 26.242188 18.523438 C 26.085938 18.285156 25.914062 18.050781 25.730469 17.824219 " fill-opacity="1" fill-rule="nonzero"/><path fill="#f0f8ff" d="M 15.203125 30.246094 C 15.203125 30.246094 17.191406 27.863281 18.609375 26.757812 C 20.027344 25.65625 20.632812 24.535156 20.632812 24.535156 L 21.492188 23.335938 L 22.296875 22.472656 L 20.511719 22.636719 C 20.511719 22.636719 18.277344 23.21875 16.917969 24.695312 C 16.917969 24.695312 18.007812 22.464844 22.265625 21.421875 C 22.265625 21.421875 19.945312 20.507812 16.550781 21.902344 C 16.550781 21.902344 12.550781 24.835938 15.203125 30.246094 " fill-opacity="1" fill-rule="nonzero"/><path fill="#f0f8ff" d="M 18.621094 20.976562 C 18.3125 21.011719 18.003906 21.066406 17.699219 21.152344 C 17.394531 21.234375 17.09375 21.34375 16.804688 21.480469 C 16.511719 21.621094 16.230469 21.789062 15.964844 21.992188 C 15.835938 22.089844 15.707031 22.199219 15.582031 22.3125 C 15.460938 22.429688 15.34375 22.550781 15.230469 22.679688 C 15.121094 22.808594 15.015625 22.945312 14.914062 23.085938 C 14.890625 23.121094 14.863281 23.15625 14.839844 23.191406 L 14.804688 23.246094 L 14.785156 23.273438 L 14.769531 23.300781 L 14.738281 23.351562 L 14.699219 23.410156 C 14.679688 23.445312 14.65625 23.484375 14.632812 23.523438 C 14.460938 23.824219 14.3125 24.148438 14.195312 24.484375 C 14.078125 24.820312 13.996094 25.171875 13.941406 25.527344 C 13.886719 25.882812 13.859375 26.242188 13.863281 26.601562 C 13.863281 26.960938 13.890625 27.320312 13.9375 27.671875 C 13.960938 27.847656 13.992188 28.019531 14.027344 28.195312 C 14.058594 28.367188 14.097656 28.539062 14.144531 28.710938 C 14.230469 29.050781 14.335938 29.386719 14.453125 29.714844 C 14.515625 29.878906 14.578125 30.039062 14.648438 30.199219 C 14.679688 30.28125 14.714844 30.359375 14.753906 30.441406 C 14.773438 30.480469 14.792969 30.519531 14.8125 30.558594 L 14.839844 30.621094 L 14.855469 30.652344 L 14.875 30.6875 L 15.238281 31.378906 L 15.527344 30.632812 C 15.613281 30.414062 15.707031 30.199219 15.8125 29.996094 C 15.921875 29.792969 16.039062 29.601562 16.171875 29.417969 C 16.304688 29.238281 16.449219 29.066406 16.605469 28.910156 C 16.761719 28.75 16.929688 28.601562 17.109375 28.453125 C 17.285156 28.3125 17.472656 28.167969 17.660156 28.027344 C 17.851562 27.882812 18.042969 27.738281 18.234375 27.582031 C 18.425781 27.425781 18.617188 27.261719 18.796875 27.085938 C 18.820312 27.066406 18.84375 27.042969 18.867188 27.019531 C 18.890625 26.996094 18.910156 26.976562 18.933594 26.953125 L 18.964844 26.917969 L 19 26.886719 C 19.019531 26.863281 19.042969 26.839844 19.0625 26.816406 C 19.152344 26.726562 19.234375 26.632812 19.320312 26.539062 C 19.484375 26.351562 19.644531 26.160156 19.800781 25.960938 C 19.878906 25.859375 19.953125 25.757812 20.027344 25.65625 C 20.101562 25.554688 20.175781 25.453125 20.246094 25.351562 C 20.390625 25.148438 20.527344 24.941406 20.664062 24.742188 C 20.804688 24.542969 20.941406 24.351562 21.085938 24.171875 C 21.230469 23.988281 21.382812 23.820312 21.542969 23.667969 C 21.703125 23.515625 21.878906 23.375 22.058594 23.25 C 22.242188 23.125 22.4375 23.015625 22.636719 22.914062 C 22.734375 22.863281 22.835938 22.816406 22.941406 22.769531 C 23.042969 22.726562 23.148438 22.683594 23.25 22.644531 L 24.492188 22.15625 L 23.195312 22.058594 L 23.164062 22.058594 L 23.136719 22.054688 L 23.078125 22.054688 C 23.042969 22.050781 23.003906 22.050781 22.96875 22.050781 C 22.894531 22.046875 22.820312 22.046875 22.75 22.050781 C 22.601562 22.050781 22.457031 22.058594 22.3125 22.066406 C 22.167969 22.078125 22.023438 22.09375 21.878906 22.109375 C 21.738281 22.128906 21.59375 22.148438 21.449219 22.171875 C 21.164062 22.222656 20.882812 22.285156 20.601562 22.367188 C 20.460938 22.402344 20.324219 22.449219 20.183594 22.496094 C 20.046875 22.542969 19.910156 22.589844 19.773438 22.644531 C 19.640625 22.699219 19.503906 22.757812 19.375 22.820312 C 19.242188 22.882812 19.109375 22.949219 18.980469 23.019531 C 18.851562 23.085938 18.722656 23.160156 18.597656 23.238281 C 18.535156 23.277344 18.472656 23.316406 18.414062 23.359375 C 18.351562 23.398438 18.289062 23.441406 18.230469 23.484375 C 18.109375 23.566406 17.992188 23.660156 17.875 23.753906 C 17.816406 23.800781 17.761719 23.847656 17.703125 23.894531 C 17.648438 23.941406 17.59375 23.992188 17.539062 24.042969 C 17.511719 24.070312 17.484375 24.09375 17.457031 24.121094 C 17.429688 24.148438 17.402344 24.171875 17.375 24.199219 C 17.324219 24.25 17.269531 24.304688 17.21875 24.359375 C 17.113281 24.464844 17.015625 24.578125 16.917969 24.695312 C 17.027344 24.59375 17.136719 24.496094 17.25 24.402344 C 17.308594 24.355469 17.367188 24.308594 17.421875 24.265625 C 17.449219 24.242188 17.480469 24.21875 17.507812 24.199219 C 17.539062 24.175781 17.566406 24.152344 17.597656 24.132812 L 17.683594 24.066406 C 17.714844 24.046875 17.746094 24.027344 17.773438 24.007812 C 17.832031 23.964844 17.894531 23.925781 17.953125 23.882812 C 18.074219 23.808594 18.195312 23.730469 18.320312 23.660156 C 18.382812 23.625 18.445312 23.589844 18.507812 23.558594 C 18.570312 23.523438 18.632812 23.492188 18.699219 23.460938 C 18.824219 23.398438 18.953125 23.335938 19.082031 23.28125 C 19.214844 23.226562 19.34375 23.175781 19.476562 23.125 C 19.609375 23.078125 19.742188 23.035156 19.875 22.992188 C 20.007812 22.953125 20.144531 22.914062 20.277344 22.878906 C 20.414062 22.847656 20.546875 22.816406 20.683594 22.789062 C 20.957031 22.734375 21.230469 22.691406 21.507812 22.664062 C 21.609375 22.652344 21.710938 22.644531 21.816406 22.636719 C 21.796875 22.648438 21.777344 22.660156 21.757812 22.671875 C 21.542969 22.804688 21.339844 22.957031 21.144531 23.128906 C 20.953125 23.296875 20.773438 23.484375 20.605469 23.679688 C 20.441406 23.875 20.289062 24.078125 20.140625 24.277344 C 19.992188 24.476562 19.851562 24.675781 19.707031 24.871094 C 19.566406 25.066406 19.421875 25.253906 19.273438 25.4375 C 19.125 25.625 18.96875 25.800781 18.8125 25.972656 C 18.734375 26.058594 18.652344 26.144531 18.570312 26.226562 C 18.550781 26.25 18.53125 26.269531 18.507812 26.289062 L 18.480469 26.320312 L 18.449219 26.351562 C 18.425781 26.371094 18.40625 26.394531 18.386719 26.410156 L 18.324219 26.46875 C 18.160156 26.625 17.984375 26.773438 17.804688 26.917969 C 17.625 27.058594 17.4375 27.199219 17.246094 27.339844 C 17.054688 27.484375 16.859375 27.628906 16.667969 27.785156 C 16.476562 27.941406 16.285156 28.109375 16.101562 28.292969 C 15.921875 28.480469 15.75 28.679688 15.59375 28.898438 C 15.441406 29.105469 15.304688 29.332031 15.183594 29.5625 C 15.160156 29.511719 15.140625 29.457031 15.121094 29.40625 C 15.007812 29.105469 14.90625 28.800781 14.820312 28.492188 C 14.777344 28.335938 14.738281 28.179688 14.707031 28.023438 C 14.671875 27.863281 14.640625 27.707031 14.617188 27.546875 C 14.566406 27.230469 14.53125 26.910156 14.523438 26.589844 C 14.519531 26.429688 14.519531 26.269531 14.523438 26.113281 C 14.53125 25.953125 14.542969 25.792969 14.5625 25.636719 C 14.601562 25.324219 14.664062 25.011719 14.757812 24.710938 C 14.847656 24.414062 14.964844 24.121094 15.109375 23.847656 C 15.128906 23.8125 15.144531 23.777344 15.164062 23.746094 L 15.191406 23.695312 L 15.222656 23.644531 L 15.253906 23.589844 L 15.28125 23.542969 C 15.300781 23.511719 15.320312 23.476562 15.34375 23.445312 C 15.425781 23.316406 15.515625 23.191406 15.609375 23.070312 C 15.800781 22.832031 16.011719 22.613281 16.242188 22.417969 C 16.472656 22.222656 16.71875 22.054688 16.980469 21.910156 C 17.242188 21.765625 17.515625 21.644531 17.796875 21.546875 C 18.082031 21.449219 18.371094 21.375 18.664062 21.320312 C 18.957031 21.265625 19.257812 21.226562 19.554688 21.207031 C 19.855469 21.1875 20.15625 21.183594 20.460938 21.191406 C 20.761719 21.203125 21.0625 21.226562 21.367188 21.265625 C 21.667969 21.300781 21.96875 21.351562 22.265625 21.421875 C 22.121094 21.367188 21.976562 21.320312 21.828125 21.277344 C 21.679688 21.234375 21.53125 21.195312 21.378906 21.160156 C 21.078125 21.09375 20.777344 21.039062 20.472656 21 C 20.167969 20.960938 19.859375 20.9375 19.550781 20.933594 C 19.242188 20.929688 18.929688 20.941406 18.621094 20.976562 " fill-opacity="1" fill-rule="nonzero"/><path fill="#f0f8ff" d="M 25.660156 39.394531 C 25.660156 39.394531 24.292969 35.890625 23.902344 33.78125 C 23.507812 31.675781 22.707031 30.351562 22.707031 30.351562 L 21.953125 28.722656 L 21.5 27.371094 L 20.800781 29.226562 C 20.800781 29.226562 20.300781 31.792969 21.082031 34.089844 C 21.082031 34.089844 19.433594 31.570312 20.460938 26.714844 C 20.460938 26.714844 18.457031 28.390625 18.1875 32.625 C 18.1875 32.625 19.121094 38.457031 25.660156 39.394531 " fill-opacity="1" fill-rule="nonzero"/><path fill="#f0f8ff" d="M 18.28125 29.992188 C 18.164062 30.320312 18.074219 30.65625 18.007812 31.007812 C 17.941406 31.363281 17.902344 31.726562 17.898438 32.101562 C 17.894531 32.480469 17.925781 32.863281 17.992188 33.253906 C 18.027344 33.449219 18.070312 33.644531 18.125 33.839844 C 18.175781 34.035156 18.238281 34.230469 18.3125 34.425781 C 18.382812 34.617188 18.464844 34.808594 18.550781 35 C 18.574219 35.046875 18.597656 35.09375 18.621094 35.140625 L 18.65625 35.214844 L 18.675781 35.25 L 18.691406 35.28125 L 18.726562 35.347656 L 18.765625 35.421875 C 18.792969 35.46875 18.816406 35.511719 18.84375 35.558594 C 19.054688 35.925781 19.296875 36.28125 19.570312 36.617188 C 19.84375 36.953125 20.144531 37.261719 20.460938 37.550781 C 20.78125 37.835938 21.121094 38.09375 21.46875 38.328125 C 21.820312 38.558594 22.179688 38.765625 22.546875 38.949219 C 22.730469 39.039062 22.914062 39.125 23.097656 39.207031 C 23.285156 39.285156 23.46875 39.359375 23.65625 39.429688 C 24.03125 39.566406 24.40625 39.683594 24.78125 39.78125 C 24.96875 39.828125 25.160156 39.871094 25.347656 39.910156 C 25.441406 39.925781 25.539062 39.945312 25.632812 39.960938 C 25.679688 39.96875 25.730469 39.976562 25.777344 39.984375 L 25.851562 39.992188 L 25.886719 39.996094 L 25.929688 40.003906 L 26.78125 40.101562 L 26.191406 39.332031 C 26.019531 39.101562 25.855469 38.871094 25.710938 38.632812 C 25.5625 38.394531 25.433594 38.152344 25.320312 37.90625 C 25.207031 37.65625 25.109375 37.40625 25.03125 37.148438 C 24.949219 36.890625 24.886719 36.628906 24.832031 36.359375 C 24.773438 36.089844 24.726562 35.816406 24.679688 35.539062 C 24.628906 35.257812 24.582031 34.972656 24.523438 34.683594 C 24.460938 34.398438 24.394531 34.105469 24.308594 33.8125 C 24.300781 33.773438 24.289062 33.738281 24.277344 33.699219 C 24.265625 33.660156 24.257812 33.628906 24.246094 33.59375 L 24.226562 33.535156 L 24.210938 33.484375 C 24.199219 33.445312 24.1875 33.410156 24.175781 33.375 C 24.128906 33.230469 24.078125 33.089844 24.027344 32.945312 C 23.925781 32.660156 23.8125 32.375 23.695312 32.09375 C 23.632812 31.953125 23.574219 31.8125 23.507812 31.675781 C 23.445312 31.535156 23.382812 31.398438 23.316406 31.261719 C 23.1875 30.988281 23.054688 30.71875 22.925781 30.453125 C 22.796875 30.1875 22.675781 29.925781 22.570312 29.667969 C 22.464844 29.40625 22.371094 29.148438 22.300781 28.890625 C 22.226562 28.632812 22.175781 28.371094 22.140625 28.113281 C 22.109375 27.851562 22.09375 27.589844 22.089844 27.328125 C 22.089844 27.199219 22.09375 27.070312 22.097656 26.9375 C 22.105469 26.808594 22.113281 26.679688 22.125 26.550781 L 22.246094 25.015625 L 21.53125 26.222656 L 21.511719 26.253906 L 21.496094 26.277344 L 21.46875 26.332031 C 21.449219 26.367188 21.429688 26.402344 21.410156 26.4375 C 21.375 26.511719 21.339844 26.582031 21.304688 26.652344 C 21.238281 26.796875 21.171875 26.945312 21.113281 27.09375 C 21.054688 27.242188 21 27.390625 20.945312 27.542969 C 20.894531 27.695312 20.847656 27.851562 20.800781 28.007812 C 20.714844 28.316406 20.640625 28.636719 20.582031 28.960938 C 20.550781 29.125 20.527344 29.289062 20.507812 29.453125 C 20.488281 29.621094 20.46875 29.785156 20.457031 29.953125 C 20.445312 30.121094 20.4375 30.289062 20.433594 30.460938 C 20.433594 30.632812 20.433594 30.804688 20.4375 30.976562 C 20.445312 31.148438 20.453125 31.320312 20.46875 31.492188 C 20.476562 31.578125 20.488281 31.667969 20.496094 31.753906 C 20.507812 31.839844 20.519531 31.925781 20.53125 32.015625 C 20.554688 32.1875 20.589844 32.363281 20.625 32.535156 C 20.640625 32.625 20.660156 32.710938 20.679688 32.796875 C 20.699219 32.882812 20.722656 32.972656 20.746094 33.058594 C 20.753906 33.101562 20.769531 33.144531 20.78125 33.1875 C 20.792969 33.230469 20.804688 33.273438 20.816406 33.316406 C 20.84375 33.402344 20.867188 33.488281 20.898438 33.574219 C 20.953125 33.746094 21.015625 33.917969 21.082031 34.089844 C 21.035156 33.914062 20.992188 33.742188 20.957031 33.570312 C 20.9375 33.484375 20.921875 33.398438 20.902344 33.316406 C 20.894531 33.273438 20.890625 33.230469 20.878906 33.1875 C 20.875 33.144531 20.863281 33.101562 20.859375 33.058594 L 20.839844 32.929688 C 20.832031 32.886719 20.828125 32.84375 20.820312 32.800781 C 20.808594 32.714844 20.800781 32.632812 20.789062 32.546875 C 20.773438 32.378906 20.757812 32.207031 20.75 32.039062 C 20.742188 31.957031 20.742188 31.875 20.738281 31.789062 C 20.734375 31.707031 20.734375 31.621094 20.734375 31.539062 C 20.734375 31.375 20.738281 31.210938 20.746094 31.046875 C 20.753906 30.882812 20.765625 30.722656 20.78125 30.5625 C 20.796875 30.398438 20.820312 30.242188 20.84375 30.082031 C 20.867188 29.925781 20.894531 29.769531 20.925781 29.617188 C 20.960938 29.460938 20.992188 29.308594 21.03125 29.15625 C 21.109375 28.855469 21.203125 28.558594 21.304688 28.269531 C 21.34375 28.164062 21.386719 28.058594 21.429688 27.953125 C 21.429688 27.976562 21.433594 28.003906 21.433594 28.03125 C 21.460938 28.328125 21.511719 28.628906 21.582031 28.925781 C 21.65625 29.226562 21.753906 29.523438 21.863281 29.816406 C 21.972656 30.105469 22.097656 30.386719 22.21875 30.664062 C 22.34375 30.9375 22.472656 31.207031 22.589844 31.472656 C 22.710938 31.742188 22.828125 32.003906 22.933594 32.269531 C 23.042969 32.535156 23.140625 32.804688 23.234375 33.070312 C 23.28125 33.203125 23.324219 33.335938 23.367188 33.472656 C 23.375 33.503906 23.386719 33.539062 23.394531 33.574219 L 23.410156 33.625 L 23.425781 33.671875 C 23.4375 33.707031 23.445312 33.742188 23.457031 33.773438 L 23.480469 33.871094 C 23.554688 34.136719 23.613281 34.402344 23.667969 34.671875 C 23.71875 34.945312 23.765625 35.21875 23.8125 35.496094 C 23.859375 35.777344 23.90625 36.0625 23.96875 36.351562 C 24.027344 36.644531 24.097656 36.941406 24.191406 37.238281 C 24.285156 37.539062 24.398438 37.835938 24.53125 38.132812 C 24.664062 38.417969 24.816406 38.699219 24.984375 38.96875 C 24.925781 38.953125 24.863281 38.941406 24.800781 38.925781 C 24.457031 38.84375 24.109375 38.742188 23.769531 38.621094 C 23.597656 38.5625 23.425781 38.496094 23.257812 38.429688 C 23.085938 38.359375 22.917969 38.285156 22.753906 38.207031 C 22.417969 38.050781 22.09375 37.871094 21.777344 37.671875 C 21.617188 37.574219 21.464844 37.46875 21.3125 37.359375 C 21.160156 37.246094 21.011719 37.132812 20.867188 37.011719 C 20.582031 36.765625 20.308594 36.5 20.0625 36.214844 C 19.8125 35.933594 19.585938 35.625 19.386719 35.308594 C 19.363281 35.265625 19.339844 35.226562 19.316406 35.1875 L 19.28125 35.128906 L 19.226562 35.03125 L 19.207031 35 L 19.175781 34.941406 C 19.152344 34.898438 19.132812 34.855469 19.109375 34.816406 C 19.023438 34.648438 18.945312 34.480469 18.875 34.308594 C 18.730469 33.964844 18.621094 33.617188 18.542969 33.265625 C 18.464844 32.914062 18.417969 32.558594 18.402344 32.207031 C 18.386719 31.859375 18.402344 31.511719 18.441406 31.171875 C 18.480469 30.832031 18.546875 30.5 18.632812 30.175781 C 18.722656 29.851562 18.828125 29.535156 18.953125 29.230469 C 19.078125 28.921875 19.21875 28.625 19.371094 28.335938 C 19.527344 28.046875 19.695312 27.765625 19.875 27.496094 C 20.058594 27.226562 20.25 26.960938 20.460938 26.714844 C 20.339844 26.820312 20.222656 26.9375 20.109375 27.050781 C 20 27.167969 19.890625 27.289062 19.785156 27.414062 C 19.574219 27.664062 19.375 27.925781 19.191406 28.199219 C 19.007812 28.472656 18.835938 28.757812 18.683594 29.058594 C 18.53125 29.355469 18.394531 29.667969 18.28125 29.992188 " fill-opacity="1" fill-rule="nonzero"/><path fill="#f0f8ff" d="M 39.578125 35.132812 C 39.578125 35.132812 35.511719 34.183594 33.273438 33.1875 C 31.035156 32.195312 29.363281 32.117188 29.363281 32.117188 L 27.414062 31.792969 L 25.882812 31.355469 L 27.355469 33.25 C 27.355469 33.25 29.609375 35.417969 32.21875 36.148438 C 32.21875 36.148438 28.976562 36.117188 24.746094 31.941406 C 24.746094 31.941406 25.414062 34.996094 29.402344 38.023438 C 29.402344 38.023438 35.527344 40.917969 39.578125 35.132812 " fill-opacity="1" fill-rule="nonzero"/><path fill="#f0f8ff" d="M 26.890625 36.214844 C 27.152344 36.539062 27.4375 36.851562 27.746094 37.148438 C 28.058594 37.441406 28.394531 37.71875 28.761719 37.96875 C 29.125 38.21875 29.511719 38.441406 29.925781 38.628906 C 30.132812 38.722656 30.34375 38.808594 30.558594 38.882812 C 30.773438 38.957031 30.992188 39.023438 31.214844 39.082031 C 31.4375 39.136719 31.664062 39.183594 31.890625 39.21875 C 31.949219 39.226562 32.003906 39.238281 32.0625 39.246094 L 32.148438 39.257812 L 32.234375 39.265625 L 32.3125 39.277344 L 32.402344 39.285156 C 32.460938 39.289062 32.519531 39.296875 32.574219 39.300781 C 33.035156 39.335938 33.496094 39.328125 33.953125 39.28125 C 34.410156 39.230469 34.859375 39.140625 35.289062 39.015625 C 35.71875 38.886719 36.136719 38.726562 36.53125 38.535156 C 36.921875 38.347656 37.296875 38.128906 37.652344 37.890625 C 37.828125 37.769531 38 37.644531 38.164062 37.515625 C 38.332031 37.386719 38.492188 37.253906 38.652344 37.117188 C 38.964844 36.839844 39.257812 36.546875 39.53125 36.242188 C 39.667969 36.089844 39.800781 35.933594 39.929688 35.773438 C 39.992188 35.691406 40.054688 35.613281 40.117188 35.527344 C 40.144531 35.488281 40.175781 35.445312 40.207031 35.402344 L 40.25 35.335938 L 40.273438 35.304688 L 40.300781 35.265625 L 40.800781 34.496094 L 39.769531 34.570312 C 39.464844 34.589844 39.164062 34.597656 38.859375 34.585938 C 38.558594 34.574219 38.261719 34.542969 37.964844 34.492188 C 37.671875 34.441406 37.378906 34.371094 37.089844 34.28125 C 36.800781 34.191406 36.515625 34.082031 36.226562 33.960938 C 35.9375 33.839844 35.648438 33.707031 35.355469 33.574219 C 35.058594 33.441406 34.757812 33.300781 34.449219 33.171875 C 34.140625 33.039062 33.824219 32.917969 33.496094 32.808594 C 33.457031 32.792969 33.414062 32.78125 33.375 32.765625 C 33.332031 32.75 33.292969 32.742188 33.253906 32.726562 L 33.191406 32.707031 L 33.128906 32.691406 C 33.089844 32.679688 33.050781 32.664062 33.007812 32.652344 C 32.847656 32.605469 32.683594 32.5625 32.519531 32.515625 C 32.191406 32.429688 31.863281 32.355469 31.53125 32.289062 C 31.363281 32.253906 31.199219 32.222656 31.035156 32.195312 C 30.867188 32.167969 30.703125 32.140625 30.539062 32.113281 C 30.210938 32.0625 29.882812 32.015625 29.566406 31.96875 C 29.246094 31.921875 28.933594 31.867188 28.628906 31.804688 C 28.328125 31.738281 28.03125 31.660156 27.746094 31.5625 C 27.460938 31.464844 27.183594 31.34375 26.914062 31.207031 C 26.640625 31.070312 26.378906 30.914062 26.125 30.746094 C 26 30.664062 25.875 30.574219 25.75 30.484375 C 25.625 30.394531 25.503906 30.300781 25.382812 30.207031 L 23.949219 29.082031 L 24.78125 30.574219 L 24.800781 30.609375 L 24.820312 30.640625 L 24.855469 30.707031 C 24.882812 30.746094 24.90625 30.789062 24.933594 30.832031 C 24.984375 30.914062 25.039062 30.996094 25.089844 31.074219 C 25.199219 31.234375 25.3125 31.394531 25.425781 31.546875 C 25.542969 31.703125 25.660156 31.855469 25.785156 32.007812 C 25.910156 32.15625 26.035156 32.304688 26.167969 32.449219 C 26.425781 32.742188 26.703125 33.019531 26.992188 33.289062 C 27.132812 33.425781 27.28125 33.554688 27.433594 33.683594 C 27.585938 33.8125 27.738281 33.9375 27.894531 34.058594 C 28.054688 34.179688 28.214844 34.300781 28.378906 34.414062 C 28.542969 34.527344 28.710938 34.640625 28.878906 34.746094 C 29.050781 34.851562 29.222656 34.957031 29.398438 35.050781 C 29.488281 35.101562 29.578125 35.148438 29.667969 35.195312 C 29.757812 35.242188 29.84375 35.289062 29.9375 35.332031 C 30.117188 35.421875 30.304688 35.503906 30.488281 35.585938 C 30.582031 35.621094 30.675781 35.660156 30.769531 35.699219 C 30.863281 35.734375 30.957031 35.769531 31.054688 35.804688 C 31.101562 35.824219 31.148438 35.839844 31.199219 35.855469 C 31.246094 35.871094 31.292969 35.886719 31.339844 35.902344 C 31.4375 35.933594 31.535156 35.964844 31.632812 35.992188 C 31.824219 36.050781 32.023438 36.101562 32.21875 36.148438 C 32.027344 36.078125 31.839844 36.011719 31.65625 35.933594 C 31.5625 35.898438 31.472656 35.855469 31.378906 35.816406 C 31.335938 35.796875 31.289062 35.777344 31.242188 35.757812 C 31.199219 35.734375 31.152344 35.714844 31.109375 35.695312 L 30.972656 35.628906 C 30.929688 35.609375 30.886719 35.585938 30.839844 35.5625 C 30.753906 35.519531 30.664062 35.472656 30.578125 35.429688 C 30.40625 35.335938 30.234375 35.238281 30.066406 35.136719 C 29.980469 35.089844 29.898438 35.035156 29.816406 34.984375 C 29.734375 34.929688 29.652344 34.878906 29.570312 34.824219 C 29.410156 34.71875 29.253906 34.605469 29.097656 34.492188 C 28.941406 34.378906 28.789062 34.257812 28.640625 34.136719 C 28.492188 34.015625 28.347656 33.894531 28.207031 33.765625 C 28.066406 33.640625 27.925781 33.511719 27.792969 33.378906 C 27.65625 33.246094 27.523438 33.113281 27.398438 32.976562 C 27.140625 32.703125 26.894531 32.421875 26.667969 32.128906 C 26.582031 32.023438 26.496094 31.910156 26.414062 31.800781 C 26.441406 31.816406 26.46875 31.832031 26.496094 31.847656 C 26.796875 32.015625 27.113281 32.160156 27.4375 32.285156 C 27.765625 32.410156 28.101562 32.511719 28.433594 32.59375 C 28.769531 32.675781 29.105469 32.738281 29.429688 32.796875 C 29.757812 32.855469 30.082031 32.90625 30.398438 32.964844 C 30.714844 33.019531 31.03125 33.082031 31.339844 33.148438 C 31.648438 33.214844 31.957031 33.292969 32.261719 33.378906 C 32.414062 33.417969 32.5625 33.464844 32.714844 33.511719 C 32.753906 33.523438 32.789062 33.535156 32.828125 33.546875 L 32.882812 33.5625 L 32.9375 33.582031 C 32.976562 33.59375 33.015625 33.609375 33.050781 33.621094 L 33.160156 33.65625 C 33.449219 33.757812 33.738281 33.875 34.027344 34 C 34.316406 34.125 34.605469 34.257812 34.898438 34.394531 C 35.195312 34.53125 35.492188 34.671875 35.804688 34.800781 C 36.117188 34.933594 36.441406 35.058594 36.777344 35.160156 C 37.109375 35.265625 37.457031 35.351562 37.808594 35.410156 C 38.148438 35.46875 38.496094 35.503906 38.839844 35.515625 C 38.796875 35.566406 38.753906 35.617188 38.710938 35.664062 C 38.464844 35.949219 38.199219 36.222656 37.917969 36.480469 C 37.777344 36.609375 37.632812 36.734375 37.484375 36.855469 C 37.335938 36.976562 37.183594 37.089844 37.027344 37.203125 C 36.714844 37.425781 36.382812 37.628906 36.039062 37.808594 C 35.867188 37.898438 35.691406 37.980469 35.511719 38.058594 C 35.328125 38.132812 35.144531 38.203125 34.957031 38.265625 C 34.582031 38.390625 34.195312 38.480469 33.800781 38.539062 C 33.402344 38.59375 33 38.617188 32.589844 38.601562 C 32.539062 38.601562 32.488281 38.597656 32.4375 38.59375 L 32.367188 38.589844 L 32.285156 38.585938 L 32.242188 38.582031 L 32.207031 38.578125 L 32.132812 38.570312 C 32.082031 38.566406 32.03125 38.558594 31.980469 38.554688 C 31.777344 38.527344 31.574219 38.496094 31.375 38.453125 C 30.972656 38.371094 30.578125 38.25 30.199219 38.097656 C 29.816406 37.945312 29.453125 37.757812 29.105469 37.542969 C 28.757812 37.332031 28.425781 37.089844 28.113281 36.828125 C 27.804688 36.566406 27.511719 36.285156 27.238281 35.988281 C 26.964844 35.691406 26.707031 35.382812 26.46875 35.058594 C 26.230469 34.738281 26.007812 34.40625 25.800781 34.066406 C 25.59375 33.722656 25.402344 33.375 25.226562 33.023438 C 25.050781 32.667969 24.886719 32.308594 24.746094 31.941406 C 24.792969 32.128906 24.847656 32.316406 24.90625 32.503906 C 24.964844 32.691406 25.03125 32.875 25.101562 33.058594 C 25.242188 33.429688 25.402344 33.792969 25.578125 34.152344 C 25.757812 34.511719 25.953125 34.863281 26.171875 35.210938 C 26.390625 35.554688 26.628906 35.890625 26.890625 36.214844 " fill-opacity="1" fill-rule="nonzero"/><path fill="#f0f8ff" d="M 42.109375 18.722656 C 42.109375 18.722656 39.234375 22.082031 37.191406 23.625 C 35.152344 25.171875 34.273438 26.753906 34.273438 26.753906 L 33.023438 28.449219 L 31.863281 29.660156 L 34.410156 29.460938 C 34.410156 29.460938 37.605469 28.667969 39.566406 26.59375 C 39.566406 26.59375 37.980469 29.742188 31.886719 31.15625 C 31.886719 31.15625 35.179688 32.5 40.042969 30.574219 C 40.042969 30.574219 45.796875 26.46875 42.109375 18.722656 " fill-opacity="1" fill-rule="nonzero"/><path fill="#f0f8ff" d="M 37.074219 31.851562 C 37.515625 31.808594 37.957031 31.734375 38.394531 31.621094 C 38.828125 31.507812 39.257812 31.359375 39.675781 31.167969 C 40.09375 30.972656 40.496094 30.738281 40.878906 30.457031 C 41.070312 30.316406 41.253906 30.164062 41.429688 30.003906 C 41.605469 29.84375 41.777344 29.671875 41.9375 29.488281 C 42.101562 29.308594 42.253906 29.117188 42.398438 28.917969 C 42.433594 28.867188 42.46875 28.820312 42.503906 28.769531 L 42.558594 28.691406 L 42.582031 28.652344 L 42.609375 28.613281 L 42.65625 28.542969 L 42.707031 28.460938 C 42.738281 28.40625 42.773438 28.355469 42.804688 28.300781 C 43.058594 27.875 43.273438 27.417969 43.445312 26.9375 C 43.617188 26.460938 43.746094 25.964844 43.828125 25.457031 C 43.914062 24.953125 43.953125 24.441406 43.957031 23.933594 C 43.960938 23.421875 43.929688 22.914062 43.867188 22.410156 C 43.835938 22.160156 43.796875 21.910156 43.75 21.664062 C 43.707031 21.417969 43.652344 21.171875 43.59375 20.929688 C 43.476562 20.441406 43.332031 19.964844 43.167969 19.496094 C 43.085938 19.261719 42.996094 19.027344 42.902344 18.800781 C 42.851562 18.683594 42.804688 18.570312 42.753906 18.457031 C 42.726562 18.398438 42.699219 18.34375 42.671875 18.285156 L 42.632812 18.199219 L 42.609375 18.15625 L 42.585938 18.105469 L 42.078125 17.113281 L 41.652344 18.167969 C 41.527344 18.480469 41.390625 18.78125 41.234375 19.070312 C 41.078125 19.359375 40.902344 19.628906 40.714844 19.886719 C 40.523438 20.140625 40.3125 20.378906 40.085938 20.605469 C 39.859375 20.828125 39.617188 21.039062 39.363281 21.242188 C 39.105469 21.445312 38.839844 21.640625 38.566406 21.839844 C 38.292969 22.042969 38.015625 22.246094 37.742188 22.464844 C 37.464844 22.679688 37.191406 22.910156 36.929688 23.15625 C 36.894531 23.1875 36.863281 23.21875 36.828125 23.253906 C 36.796875 23.285156 36.765625 23.316406 36.734375 23.34375 L 36.6875 23.394531 L 36.640625 23.441406 C 36.609375 23.472656 36.578125 23.503906 36.546875 23.535156 C 36.421875 23.664062 36.296875 23.792969 36.179688 23.925781 C 35.9375 24.191406 35.703125 24.464844 35.480469 24.746094 C 35.367188 24.886719 35.257812 25.027344 35.152344 25.171875 C 35.042969 25.3125 34.9375 25.457031 34.835938 25.601562 C 34.628906 25.890625 34.425781 26.179688 34.226562 26.460938 C 34.027344 26.742188 33.824219 27.011719 33.617188 27.265625 C 33.410156 27.523438 33.191406 27.757812 32.957031 27.972656 C 32.722656 28.191406 32.476562 28.386719 32.210938 28.558594 C 31.949219 28.734375 31.671875 28.890625 31.386719 29.027344 C 31.242188 29.097656 31.097656 29.164062 30.949219 29.226562 C 30.804688 29.289062 30.65625 29.34375 30.503906 29.402344 L 28.726562 30.070312 L 30.574219 30.234375 L 30.617188 30.238281 L 30.660156 30.238281 L 30.738281 30.246094 C 30.792969 30.246094 30.84375 30.25 30.898438 30.25 C 31 30.253906 31.105469 30.257812 31.210938 30.253906 C 31.417969 30.253906 31.625 30.25 31.832031 30.238281 C 32.039062 30.222656 32.246094 30.207031 32.449219 30.183594 C 32.65625 30.160156 32.859375 30.132812 33.0625 30.101562 C 33.472656 30.035156 33.875 29.949219 34.277344 29.84375 C 34.476562 29.789062 34.675781 29.730469 34.871094 29.667969 C 35.070312 29.601562 35.265625 29.535156 35.460938 29.457031 C 35.652344 29.382812 35.847656 29.304688 36.035156 29.21875 C 36.226562 29.132812 36.414062 29.039062 36.597656 28.941406 C 36.785156 28.847656 36.96875 28.746094 37.148438 28.636719 C 37.238281 28.582031 37.324219 28.523438 37.414062 28.46875 C 37.503906 28.410156 37.589844 28.355469 37.675781 28.292969 C 37.851562 28.175781 38.019531 28.046875 38.1875 27.917969 C 38.269531 27.851562 38.351562 27.785156 38.433594 27.71875 C 38.515625 27.648438 38.59375 27.578125 38.671875 27.507812 C 38.714844 27.472656 38.75 27.4375 38.792969 27.398438 C 38.828125 27.363281 38.871094 27.328125 38.90625 27.292969 C 38.984375 27.21875 39.058594 27.144531 39.132812 27.066406 C 39.285156 26.914062 39.425781 26.753906 39.566406 26.59375 C 39.410156 26.734375 39.25 26.871094 39.085938 27.003906 C 39.007812 27.070312 38.921875 27.132812 38.839844 27.195312 C 38.800781 27.230469 38.757812 27.257812 38.71875 27.289062 C 38.675781 27.320312 38.632812 27.351562 38.589844 27.382812 L 38.464844 27.472656 C 38.421875 27.5 38.378906 27.527344 38.335938 27.558594 C 38.25 27.617188 38.164062 27.671875 38.078125 27.726562 C 37.902344 27.835938 37.726562 27.941406 37.550781 28.039062 C 37.460938 28.089844 37.371094 28.136719 37.28125 28.183594 C 37.191406 28.230469 37.101562 28.277344 37.007812 28.320312 C 36.828125 28.40625 36.640625 28.488281 36.457031 28.566406 C 36.269531 28.644531 36.082031 28.714844 35.894531 28.78125 C 35.707031 28.847656 35.515625 28.90625 35.324219 28.964844 C 35.132812 29.019531 34.941406 29.070312 34.746094 29.117188 C 34.554688 29.164062 34.359375 29.203125 34.164062 29.238281 C 33.777344 29.3125 33.382812 29.367188 32.992188 29.402344 C 32.84375 29.417969 32.699219 29.425781 32.550781 29.433594 C 32.578125 29.417969 32.609375 29.402344 32.636719 29.386719 C 32.941406 29.199219 33.238281 28.988281 33.515625 28.75 C 33.792969 28.511719 34.050781 28.246094 34.292969 27.972656 C 34.53125 27.699219 34.753906 27.414062 34.96875 27.132812 C 35.179688 26.847656 35.386719 26.566406 35.59375 26.292969 C 35.800781 26.019531 36.011719 25.753906 36.226562 25.492188 C 36.441406 25.234375 36.664062 24.984375 36.890625 24.742188 C 37.003906 24.621094 37.121094 24.5 37.238281 24.382812 C 37.265625 24.355469 37.296875 24.324219 37.328125 24.296875 L 37.414062 24.210938 C 37.445312 24.183594 37.476562 24.152344 37.503906 24.125 L 37.59375 24.042969 C 37.832031 23.824219 38.082031 23.617188 38.34375 23.417969 C 38.605469 23.21875 38.871094 23.023438 39.144531 22.824219 C 39.421875 22.625 39.699219 22.421875 39.976562 22.203125 C 40.253906 21.980469 40.53125 21.746094 40.792969 21.488281 C 41.054688 21.226562 41.304688 20.945312 41.53125 20.640625 C 41.75 20.34375 41.949219 20.027344 42.125 19.699219 C 42.15625 19.773438 42.183594 19.847656 42.210938 19.921875 C 42.371094 20.351562 42.507812 20.785156 42.625 21.230469 C 42.679688 21.453125 42.734375 21.675781 42.78125 21.898438 C 42.828125 22.121094 42.867188 22.347656 42.898438 22.574219 C 42.964844 23.027344 43.007812 23.480469 43.015625 23.9375 C 43.019531 24.164062 43.015625 24.390625 43.003906 24.617188 C 42.992188 24.84375 42.972656 25.070312 42.941406 25.292969 C 42.882812 25.738281 42.785156 26.179688 42.648438 26.605469 C 42.515625 27.03125 42.339844 27.441406 42.132812 27.832031 C 42.105469 27.878906 42.078125 27.925781 42.054688 27.976562 L 42.011719 28.042969 L 41.96875 28.121094 L 41.945312 28.15625 L 41.925781 28.191406 L 41.882812 28.257812 C 41.851562 28.304688 41.824219 28.351562 41.792969 28.398438 C 41.671875 28.582031 41.542969 28.757812 41.402344 28.925781 C 41.128906 29.261719 40.824219 29.570312 40.492188 29.84375 C 40.160156 30.113281 39.804688 30.351562 39.429688 30.554688 C 39.054688 30.753906 38.664062 30.921875 38.257812 31.054688 C 37.855469 31.1875 37.441406 31.289062 37.019531 31.363281 C 36.601562 31.4375 36.175781 31.488281 35.746094 31.507812 C 35.320312 31.53125 34.890625 31.535156 34.460938 31.515625 C 34.027344 31.496094 33.597656 31.453125 33.167969 31.394531 C 32.738281 31.335938 32.3125 31.261719 31.886719 31.15625 C 32.09375 31.238281 32.300781 31.304688 32.511719 31.367188 C 32.722656 31.433594 32.933594 31.488281 33.148438 31.542969 C 33.574219 31.644531 34.003906 31.726562 34.4375 31.789062 C 34.875 31.847656 35.3125 31.886719 35.75 31.898438 C 36.191406 31.910156 36.632812 31.898438 37.074219 31.851562 " fill-opacity="1" fill-rule="nonzero"/></svg>