<svg xmlns="http://www.w3.org/2000/svg" xmlns:xlink="http://www.w3.org/1999/xlink" width="500" zoomAndPan="magnify" viewBox="0 0 375 374.999991" height="500" preserveAspectRatio="xMidYMid meet" version="1.0"><defs><clipPath id="7275ada287"><path d="M 35 33 L 205.441406 33 L 205.441406 342 L 35 342 Z M 35 33 " clip-rule="nonzero"/></clipPath><clipPath id="79e28c2dc7"><path d="M 187.5 39 L 358 39 L 358 347 L 187.5 347 Z M 187.5 39 " clip-rule="nonzero"/></clipPath></defs><g clip-path="url(#7275ada287)"><path fill="#b3e5f9" d="M 492.550781 336.039062 C 490.84375 337.394531 490.140625 339.402344 491.046875 340.507812 C 491.898438 341.660156 494.058594 341.609375 495.8125 340.507812 C 534.671875 310.6875 560.472656 267.011719 568.054688 218.617188 C 575.636719 170.21875 564.289062 120.769531 536.378906 80.507812 C 563.136719 120.671875 573.476562 169.519531 565.292969 217.007812 C 557.109375 264.550781 531.007812 307.121094 492.402344 335.988281 Z M 519.761719 258.324219 C 512.28125 273.4375 512.429688 292.261719 523.976562 302.300781 C 537.332031 285.234375 533.367188 264.601562 519.660156 258.324219 Z M 531.007812 229.257812 C 526.6875 245.324219 531.007812 263.34375 544.109375 270.726562 C 553.546875 252 545.566406 232.722656 530.90625 229.257812 Z M 536.277344 198.835938 C 535.171875 215.351562 542.550781 232.019531 557.3125 236.539062 C 562.734375 216.605469 551.238281 199.386719 536.226562 198.835938 Z M 535.523438 168.0625 C 537.683594 184.425781 548.476562 199.488281 563.488281 200.84375 C 564.941406 180.3125 550.285156 165.851562 535.472656 168.0625 Z M 528.796875 137.890625 C 534.117188 153.652344 547.621094 166.054688 562.582031 164.699219 C 560.074219 144.214844 542.804688 132.570312 528.746094 137.890625 Z M 516.246094 109.226562 C 524.730469 123.933594 540.292969 133.574219 554.851562 129.253906 C 548.226562 109.273438 528.796875 101.242188 516.046875 109.273438 Z M 497.371094 83.21875 C 509.066406 96.222656 526.335938 102.75 539.792969 95.769531 C 529.300781 77.398438 508.265625 72.878906 497.371094 83.21875 Z M 546.117188 40.195312 C 535.171875 50.589844 538.484375 72.125 548.777344 90.449219 C 562.082031 83.671875 563.285156 59.777344 546.117188 40.195312 Z M 572.523438 76.996094 C 559.972656 84.976562 558.164062 106.210938 564.539062 125.992188 C 578.898438 121.875 585.023438 98.984375 572.523438 76.996094 Z M 590.445312 117.457031 C 576.238281 122.679688 570.515625 142.910156 572.824219 163.441406 C 587.785156 162.1875 598.226562 141.101562 590.445312 117.457031 Z M 599.984375 159.980469 C 584.972656 162.339844 575.433594 180.914062 573.777344 201.546875 C 588.4375 203.554688 602.945312 184.679688 599.984375 160.128906 Z M 600.988281 203.554688 C 585.875 202.902344 572.925781 219.269531 567.25 239.25 C 581.558594 243.96875 599.179688 228.304688 600.988281 203.554688 Z M 593.558594 246.628906 C 578.796875 243.113281 562.882812 256.71875 553.296875 275.445312 C 566.398438 282.773438 586.980469 270.675781 593.558594 246.628906 Z M 577.644531 287.792969 C 563.886719 281.519531 545.566406 291.757812 532.011719 308.578125 C 543.40625 318.417969 566.347656 310.335938 577.644531 287.792969 Z M 490.996094 33.921875 C 498.324219 52.09375 512.933594 66.402344 531.257812 73.378906 C 531.207031 54.65625 510.773438 34.421875 490.996094 33.921875 Z M 144.25 335.988281 C 105.644531 307.121094 79.589844 264.550781 71.40625 217.007812 C 63.222656 169.519531 73.5625 120.671875 100.273438 80.507812 C 72.511719 120.769531 61.214844 170.121094 68.746094 218.464844 C 76.324219 266.757812 102.128906 310.335938 140.886719 340.203125 C 142.640625 341.558594 144.75 341.710938 145.65625 340.203125 C 146.507812 338.699219 145.65625 337.042969 144.148438 335.738281 Z M 112.871094 302.152344 C 124.367188 292.261719 124.519531 273.4375 117.039062 258.175781 C 103.132812 264.601562 99.167969 285.234375 112.621094 302.152344 Z M 92.691406 270.726562 C 105.945312 263.34375 110.113281 245.574219 105.792969 229.257812 C 90.933594 232.722656 82.953125 252 92.441406 270.726562 Z M 79.488281 236.585938 C 93.945312 232.019531 101.675781 215.351562 100.523438 198.886719 C 85.261719 199.386719 73.765625 216.605469 79.488281 236.585938 Z M 73.210938 200.84375 C 88.222656 199.238281 99.015625 184.425781 101.175781 168.0625 C 86.214844 165.851562 71.554688 180.3125 73.210938 200.84375 Z M 73.964844 164.699219 C 89.027344 166.054688 102.429688 153.652344 107.75 137.890625 C 93.695312 132.570312 76.425781 144.214844 73.964844 164.699219 Z M 81.796875 129.253906 C 96.40625 133.574219 111.96875 123.933594 120.453125 109.226562 C 107.703125 101.242188 88.273438 109.324219 81.796875 129.253906 Z M 96.707031 95.621094 C 110.160156 102.648438 127.429688 96.121094 139.128906 83.019531 C 128.234375 72.878906 107.199219 77.398438 96.707031 95.71875 Z M 87.722656 90.449219 C 98.011719 72.023438 101.375 50.539062 90.382812 40.195312 C 73.210938 59.777344 74.417969 83.671875 87.722656 90.449219 Z M 72.207031 125.742188 C 78.484375 105.960938 77.128906 84.726562 64.226562 76.742188 C 51.476562 98.984375 57.550781 121.875 71.957031 125.992188 Z M 63.925781 163.441406 C 66.234375 142.910156 60.511719 122.679688 46.304688 117.457031 C 38.273438 141.101562 48.714844 162.1875 63.675781 163.441406 Z M 62.972656 201.648438 C 61.316406 181.0625 51.777344 162.4375 36.765625 160.128906 C 33.554688 184.679688 48.0625 203.554688 62.71875 201.648438 Z M 69.246094 239.347656 C 63.574219 219.367188 50.421875 203.050781 35.511719 203.65625 C 37.316406 228.304688 54.9375 243.96875 69.246094 239.347656 Z M 83.203125 275.445312 C 73.5625 256.566406 57.699219 243.113281 42.941406 246.679688 C 49.515625 270.675781 70.050781 282.773438 83.203125 275.445312 Z M 104.640625 308.628906 C 90.933594 291.507812 72.609375 281.417969 58.804688 287.792969 C 70.152344 310.382812 93.144531 318.417969 104.640625 308.628906 Z M 145.554688 33.921875 C 138.222656 52.09375 123.617188 66.402344 105.242188 73.378906 C 105.292969 54.65625 125.722656 34.421875 145.554688 33.921875 " fill-opacity="1" fill-rule="nonzero"/></g><g clip-path="url(#79e28c2dc7)"><path fill="#b3e5f9" d="M -99.925781 341.183594 C -98.21875 342.539062 -97.515625 344.546875 -98.421875 345.652344 C -99.273438 346.804688 -101.433594 346.753906 -103.191406 345.652344 C -142.046875 315.832031 -167.851562 272.15625 -175.429688 223.761719 C -183.011719 175.363281 -171.664062 125.914062 -143.753906 85.652344 C -170.511719 125.816406 -180.851562 174.664062 -172.667969 222.152344 C -164.488281 269.695312 -138.382812 312.265625 -99.777344 341.132812 Z M -127.136719 263.46875 C -119.65625 278.582031 -119.808594 297.40625 -131.351562 307.445312 C -144.707031 290.378906 -140.742188 269.746094 -127.035156 263.46875 Z M -138.382812 234.402344 C -134.0625 250.46875 -138.382812 268.488281 -151.484375 275.871094 C -160.921875 257.144531 -152.941406 237.867188 -138.28125 234.402344 Z M -143.652344 203.980469 C -142.546875 220.496094 -149.929688 237.164062 -164.6875 241.683594 C -170.109375 221.75 -158.613281 204.53125 -143.601562 203.980469 Z M -142.898438 173.207031 C -145.058594 189.570312 -155.851562 204.632812 -170.863281 205.988281 C -172.316406 185.457031 -157.660156 170.996094 -142.847656 173.207031 Z M -136.171875 143.035156 C -141.492188 158.796875 -155 171.199219 -169.957031 169.84375 C -167.449219 149.359375 -150.179688 137.714844 -136.121094 143.035156 Z M -123.621094 114.371094 C -132.105469 129.078125 -147.667969 138.71875 -162.226562 134.398438 C -155.601562 114.417969 -136.171875 106.386719 -123.421875 114.417969 Z M -104.746094 88.363281 C -116.441406 101.367188 -133.710938 107.894531 -147.167969 100.914062 C -136.675781 82.542969 -115.640625 78.023438 -104.746094 88.363281 Z M -153.492188 45.339844 C -142.546875 55.734375 -145.863281 77.269531 -156.152344 95.59375 C -169.457031 88.816406 -170.660156 64.921875 -153.492188 45.339844 Z M -179.898438 82.140625 C -167.347656 90.121094 -165.539062 111.355469 -171.917969 131.136719 C -186.273438 127.019531 -192.398438 104.128906 -179.898438 82.140625 Z M -197.820312 122.601562 C -183.613281 127.824219 -177.890625 148.054688 -180.199219 168.585938 C -195.160156 167.332031 -205.601562 146.246094 -197.820312 122.601562 Z M -207.359375 165.125 C -192.347656 167.484375 -182.808594 186.058594 -181.152344 206.691406 C -195.8125 208.699219 -210.320312 189.824219 -207.359375 165.273438 Z M -208.363281 208.699219 C -193.253906 208.046875 -180.300781 224.414062 -174.628906 244.394531 C -188.933594 249.113281 -206.554688 233.449219 -208.363281 208.699219 Z M -200.933594 251.773438 C -186.175781 248.257812 -170.261719 261.863281 -160.671875 280.589844 C -173.773438 287.917969 -194.355469 275.820312 -200.933594 251.773438 Z M -185.019531 292.9375 C -171.265625 286.664062 -152.941406 296.902344 -139.386719 313.722656 C -150.78125 323.5625 -173.722656 315.480469 -185.019531 292.9375 Z M -98.371094 39.066406 C -105.699219 57.238281 -120.308594 71.546875 -138.632812 78.523438 C -138.582031 59.800781 -118.148438 39.566406 -98.371094 39.066406 Z M 248.375 341.132812 C 286.980469 312.265625 313.035156 269.695312 321.21875 222.152344 C 329.402344 174.664062 319.058594 125.816406 292.351562 85.652344 C 320.113281 125.914062 331.410156 175.265625 323.878906 223.609375 C 316.300781 271.902344 290.496094 315.480469 251.738281 345.347656 C 249.980469 346.703125 247.875 346.855469 246.96875 345.347656 C 246.117188 343.84375 246.96875 342.1875 248.476562 340.882812 Z M 279.75 307.296875 C 268.253906 297.40625 268.105469 278.582031 275.585938 263.320312 C 289.492188 269.746094 293.457031 290.378906 280.003906 307.296875 Z M 299.933594 275.871094 C 286.679688 268.488281 282.511719 250.71875 286.832031 234.402344 C 301.691406 237.867188 309.671875 257.144531 300.183594 275.871094 Z M 313.136719 241.730469 C 298.679688 237.164062 290.945312 220.496094 292.101562 204.03125 C 307.363281 204.53125 318.859375 221.75 313.136719 241.730469 Z M 319.410156 205.988281 C 304.402344 204.382812 293.609375 189.570312 291.449219 173.207031 C 306.410156 170.996094 321.066406 185.457031 319.410156 205.988281 Z M 318.660156 169.84375 C 303.597656 171.199219 290.195312 158.796875 284.871094 143.035156 C 298.929688 137.714844 316.199219 149.359375 318.660156 169.84375 Z M 310.828125 134.398438 C 296.21875 138.71875 280.65625 129.078125 272.171875 114.371094 C 284.921875 106.386719 304.351562 114.46875 310.828125 134.398438 Z M 295.917969 100.765625 C 282.460938 107.792969 265.191406 101.265625 253.496094 88.164062 C 264.390625 78.023438 285.425781 82.542969 295.917969 100.863281 Z M 304.902344 95.59375 C 294.613281 77.167969 291.25 55.683594 302.242188 45.339844 C 319.410156 64.921875 318.207031 88.816406 304.902344 95.59375 Z M 320.414062 130.886719 C 314.140625 111.105469 315.496094 89.871094 328.398438 81.886719 C 341.148438 104.128906 335.074219 127.019531 320.667969 131.136719 Z M 328.699219 168.585938 C 326.390625 148.054688 332.113281 127.824219 346.320312 122.601562 C 354.351562 146.246094 343.910156 167.332031 328.949219 168.585938 Z M 329.652344 206.792969 C 331.308594 186.207031 340.847656 167.582031 355.859375 165.273438 C 359.070312 189.824219 344.5625 208.699219 329.902344 206.792969 Z M 323.378906 244.492188 C 329.050781 224.511719 342.203125 208.195312 357.113281 208.800781 C 355.304688 233.449219 337.683594 249.113281 323.378906 244.492188 Z M 309.421875 280.589844 C 319.058594 261.710938 334.925781 248.257812 349.683594 251.824219 C 343.105469 275.820312 322.574219 287.917969 309.421875 280.589844 Z M 287.984375 313.773438 C 301.691406 296.652344 320.015625 286.5625 333.820312 292.9375 C 322.472656 315.527344 299.480469 323.5625 287.984375 313.773438 Z M 247.070312 39.066406 C 254.398438 57.238281 269.007812 71.546875 287.382812 78.523438 C 287.332031 59.800781 266.898438 39.566406 247.070312 39.066406 " fill-opacity="1" fill-rule="nonzero"/></g></svg>