<svg xmlns="http://www.w3.org/2000/svg" xmlns:xlink="http://www.w3.org/1999/xlink" width="500" zoomAndPan="magnify" viewBox="0 0 375 374.999991" height="500" preserveAspectRatio="xMidYMid meet" version="1.0"><defs><clipPath id="7aae257c28"><path d="M 16.453125 28.945312 L 350.203125 28.945312 L 350.203125 346.195312 L 16.453125 346.195312 Z M 16.453125 28.945312 " clip-rule="nonzero"/></clipPath><clipPath id="0648321904"><path d="M 100 108.113281 L 187.140625 108.113281 L 187.140625 267 L 100 267 Z M 100 108.113281 " clip-rule="nonzero"/></clipPath><clipPath id="f1beeea6d9"><path d="M 187.5 108.113281 L 275 108.113281 L 275 267 L 187.5 267 Z M 187.5 108.113281 " clip-rule="nonzero"/></clipPath></defs><g clip-path="url(#7aae257c28)"><path fill="#0624ba" d="M 16.640625 187.570312 C 16.640625 99.964844 91.269531 28.945312 183.328125 28.945312 C 275.386719 28.945312 350.011719 99.964844 350.011719 187.570312 C 350.011719 275.175781 275.386719 346.195312 183.328125 346.195312 C 91.269531 346.195312 16.640625 275.175781 16.640625 187.570312 Z M 16.640625 187.570312 " fill-opacity="1" fill-rule="evenodd"/></g><g clip-path="url(#0648321904)"><path fill="#ffffff" d="M 334.574219 263.503906 C 333.703125 264.195312 333.34375 265.222656 333.804688 265.789062 C 334.242188 266.378906 335.347656 266.351562 336.246094 265.789062 C 356.128906 250.53125 369.332031 228.179688 373.210938 203.417969 C 377.089844 178.652344 371.285156 153.351562 357 132.746094 C 370.695312 153.296875 375.984375 178.292969 371.796875 202.59375 C 367.609375 226.921875 354.253906 248.707031 334.5 263.476562 Z M 348.5 223.734375 C 344.671875 231.46875 344.75 241.101562 350.65625 246.238281 C 357.488281 237.503906 355.460938 226.949219 348.445312 223.734375 Z M 354.253906 208.863281 C 352.042969 217.082031 354.253906 226.304688 360.957031 230.082031 C 365.785156 220.5 361.703125 210.636719 354.203125 208.863281 Z M 356.949219 193.296875 C 356.386719 201.746094 360.160156 210.277344 367.714844 212.585938 C 370.488281 202.390625 364.605469 193.578125 356.925781 193.296875 Z M 356.566406 177.546875 C 357.667969 185.921875 363.191406 193.628906 370.875 194.324219 C 371.617188 183.816406 364.117188 176.417969 356.539062 177.546875 Z M 353.121094 162.109375 C 355.84375 170.175781 362.753906 176.519531 370.410156 175.828125 C 369.125 165.347656 360.289062 159.386719 353.097656 162.109375 Z M 346.699219 147.441406 C 351.042969 154.96875 359.003906 159.898438 366.453125 157.691406 C 363.0625 147.46875 353.121094 143.355469 346.597656 147.46875 Z M 337.042969 134.136719 C 343.027344 140.789062 351.863281 144.128906 358.75 140.558594 C 353.378906 131.15625 342.617188 128.84375 337.042969 134.136719 Z M 361.984375 112.121094 C 356.386719 117.4375 358.082031 128.457031 363.347656 137.832031 C 370.152344 134.367188 370.769531 122.136719 361.984375 112.121094 Z M 375.496094 130.949219 C 369.074219 135.035156 368.148438 145.898438 371.414062 156.019531 C 378.757812 153.914062 381.894531 142.199219 375.496094 130.949219 Z M 384.667969 151.65625 C 377.398438 154.324219 374.46875 164.679688 375.652344 175.183594 C 383.304688 174.542969 388.648438 163.753906 384.667969 151.65625 Z M 389.546875 173.414062 C 381.867188 174.621094 376.988281 184.125 376.140625 194.683594 C 383.640625 195.710938 391.0625 186.050781 389.546875 173.488281 Z M 390.0625 195.710938 C 382.332031 195.375 375.703125 203.75 372.800781 213.976562 C 380.121094 216.390625 389.136719 208.375 390.0625 195.710938 Z M 386.261719 217.75 C 378.707031 215.953125 370.566406 222.914062 365.660156 232.496094 C 372.363281 236.246094 382.894531 230.054688 386.261719 217.75 Z M 378.117188 238.816406 C 371.078125 235.605469 361.703125 240.84375 354.765625 249.449219 C 360.597656 254.484375 372.335938 250.347656 378.117188 238.816406 Z M 333.777344 108.910156 C 337.53125 118.207031 345.003906 125.527344 354.382812 129.101562 C 354.355469 119.519531 343.898438 109.164062 333.777344 108.910156 Z M 156.347656 263.476562 C 136.59375 248.707031 123.261719 226.921875 119.074219 202.59375 C 114.886719 178.292969 120.179688 153.296875 133.84375 132.746094 C 119.640625 153.351562 113.859375 178.601562 117.714844 203.339844 C 121.59375 228.050781 134.796875 250.347656 154.628906 265.632812 C 155.527344 266.328125 156.605469 266.40625 157.066406 265.632812 C 157.503906 264.863281 157.066406 264.015625 156.296875 263.347656 Z M 140.292969 246.164062 C 146.175781 241.101562 146.253906 231.46875 142.425781 223.660156 C 135.308594 226.949219 133.28125 237.503906 140.164062 246.164062 Z M 129.964844 230.082031 C 136.75 226.304688 138.878906 217.210938 136.671875 208.863281 C 129.066406 210.636719 124.984375 220.5 129.839844 230.082031 Z M 123.210938 212.613281 C 130.609375 210.277344 134.566406 201.746094 133.972656 193.320312 C 126.164062 193.578125 120.28125 202.390625 123.210938 212.613281 Z M 120 194.324219 C 127.679688 193.5 133.203125 185.921875 134.308594 177.546875 C 126.652344 176.417969 119.152344 183.816406 120 194.324219 Z M 120.382812 175.828125 C 128.089844 176.519531 134.949219 170.175781 137.671875 162.109375 C 130.480469 159.386719 121.644531 165.347656 120.382812 175.828125 Z M 124.390625 157.691406 C 131.867188 159.898438 139.832031 154.96875 144.171875 147.441406 C 137.648438 143.355469 127.707031 147.492188 124.390625 157.691406 Z M 132.023438 140.480469 C 138.90625 144.078125 147.742188 140.738281 153.726562 134.03125 C 148.152344 128.84375 137.390625 131.15625 132.023438 140.53125 Z M 127.421875 137.832031 C 132.691406 128.40625 134.410156 117.410156 128.785156 112.121094 C 120 122.136719 120.617188 134.367188 127.421875 137.832031 Z M 119.484375 155.894531 C 122.695312 145.773438 122.003906 134.90625 115.402344 130.820312 C 108.875 142.199219 111.984375 153.914062 119.355469 156.019531 Z M 115.246094 175.183594 C 116.429688 164.679688 113.5 154.324219 106.230469 151.65625 C 102.121094 163.753906 107.464844 174.542969 115.117188 175.183594 Z M 114.757812 194.734375 C 113.910156 184.203125 109.03125 174.671875 101.347656 173.488281 C 99.707031 186.050781 107.128906 195.710938 114.628906 194.734375 Z M 117.96875 214.027344 C 115.066406 203.800781 108.335938 195.453125 100.707031 195.761719 C 101.632812 208.375 110.648438 216.390625 117.96875 214.027344 Z M 125.113281 232.496094 C 120.179688 222.835938 112.0625 215.953125 104.507812 217.777344 C 107.875 230.054688 118.382812 236.246094 125.113281 232.496094 Z M 136.082031 249.476562 C 129.066406 240.714844 119.691406 235.554688 112.625 238.816406 C 118.433594 250.375 130.199219 254.484375 136.082031 249.476562 Z M 157.015625 108.910156 C 153.265625 118.207031 145.789062 125.527344 136.386719 129.101562 C 136.414062 119.519531 146.871094 109.164062 157.015625 108.910156 " fill-opacity="1" fill-rule="nonzero"/></g><g clip-path="url(#f1beeea6d9)"><path fill="#ffffff" d="M 40.417969 263.503906 C 41.292969 264.195312 41.652344 265.222656 41.1875 265.789062 C 40.753906 266.378906 39.648438 266.351562 38.75 265.789062 C 18.867188 250.53125 5.660156 228.179688 1.78125 203.417969 C -2.097656 178.652344 3.710938 153.351562 17.992188 132.746094 C 4.300781 153.296875 -0.992188 178.292969 3.195312 202.59375 C 7.382812 226.921875 20.742188 248.707031 40.496094 263.476562 Z M 26.496094 223.734375 C 30.324219 231.46875 30.246094 241.101562 24.335938 246.238281 C 17.503906 237.503906 19.535156 226.949219 26.546875 223.734375 Z M 20.742188 208.863281 C 22.949219 217.082031 20.742188 226.304688 14.035156 230.082031 C 9.207031 220.5 13.292969 210.636719 20.792969 208.863281 Z M 18.042969 193.296875 C 18.609375 201.746094 14.832031 210.277344 7.28125 212.585938 C 4.503906 202.390625 10.386719 193.578125 18.070312 193.296875 Z M 18.429688 177.546875 C 17.324219 185.921875 11.800781 193.628906 4.121094 194.324219 C 3.375 183.816406 10.875 176.417969 18.453125 177.546875 Z M 21.871094 162.109375 C 19.148438 170.175781 12.238281 176.519531 4.582031 175.828125 C 5.867188 165.347656 14.703125 159.386719 21.898438 162.109375 Z M 28.292969 147.441406 C 23.953125 154.96875 15.988281 159.898438 8.539062 157.691406 C 11.929688 147.46875 21.871094 143.355469 28.394531 147.46875 Z M 37.953125 134.136719 C 31.964844 140.789062 23.128906 144.128906 16.246094 140.558594 C 21.613281 131.15625 32.378906 128.84375 37.953125 134.136719 Z M 13.007812 112.121094 C 18.609375 117.4375 16.914062 128.457031 11.648438 137.832031 C 4.839844 134.367188 4.222656 122.136719 13.007812 112.121094 Z M -0.503906 130.949219 C 5.917969 135.035156 6.84375 145.898438 3.582031 156.019531 C -3.765625 153.914062 -6.898438 142.199219 -0.503906 130.949219 Z M -9.675781 151.65625 C -2.40625 154.324219 0.523438 164.679688 -0.65625 175.183594 C -8.3125 174.542969 -13.65625 163.753906 -9.675781 151.65625 Z M -14.554688 173.414062 C -6.875 174.621094 -1.992188 184.125 -1.144531 194.683594 C -8.648438 195.710938 -16.070312 186.050781 -14.554688 173.488281 Z M -15.070312 195.710938 C -7.335938 195.375 -0.710938 203.75 2.195312 213.976562 C -5.128906 216.390625 -14.144531 208.375 -15.070312 195.710938 Z M -11.265625 217.75 C -3.714844 215.953125 4.429688 222.914062 9.335938 232.496094 C 2.628906 236.246094 -7.902344 230.054688 -11.265625 217.75 Z M -3.125 238.816406 C 3.914062 235.605469 13.292969 240.84375 20.226562 249.449219 C 14.394531 254.484375 2.65625 250.347656 -3.125 238.816406 Z M 41.214844 108.910156 C 37.464844 118.207031 29.988281 125.527344 20.613281 129.101562 C 20.636719 119.519531 31.09375 109.164062 41.214844 108.910156 Z M 218.644531 263.476562 C 238.398438 248.707031 251.730469 226.921875 255.917969 202.59375 C 260.105469 178.292969 254.8125 153.296875 241.148438 132.746094 C 255.355469 153.351562 261.132812 178.601562 257.28125 203.339844 C 253.402344 228.050781 240.199219 250.347656 220.367188 265.632812 C 219.46875 266.328125 218.386719 266.40625 217.925781 265.632812 C 217.488281 264.863281 217.925781 264.015625 218.695312 263.347656 Z M 234.699219 246.164062 C 228.816406 241.101562 228.742188 231.46875 232.566406 223.660156 C 239.683594 226.949219 241.714844 237.503906 234.828125 246.164062 Z M 245.027344 230.082031 C 238.246094 226.304688 236.113281 217.210938 238.324219 208.863281 C 245.925781 210.636719 250.011719 220.5 245.15625 230.082031 Z M 251.78125 212.613281 C 244.386719 210.277344 240.429688 201.746094 241.019531 193.320312 C 248.828125 193.578125 254.710938 202.390625 251.78125 212.613281 Z M 254.996094 194.324219 C 247.3125 193.5 241.789062 185.921875 240.6875 177.546875 C 248.339844 176.417969 255.84375 183.816406 254.996094 194.324219 Z M 254.609375 175.828125 C 246.902344 176.519531 240.042969 170.175781 237.320312 162.109375 C 244.511719 159.386719 253.351562 165.347656 254.609375 175.828125 Z M 250.601562 157.691406 C 243.125 159.898438 235.164062 154.96875 230.820312 147.441406 C 237.347656 143.355469 247.289062 147.492188 250.601562 157.691406 Z M 242.972656 140.480469 C 236.085938 144.078125 227.25 140.738281 221.265625 134.03125 C 226.839844 128.84375 237.601562 131.15625 242.972656 140.53125 Z M 247.570312 137.832031 C 242.304688 128.40625 240.582031 117.410156 246.207031 112.121094 C 254.996094 122.136719 254.378906 134.367188 247.570312 137.832031 Z M 255.507812 155.894531 C 252.296875 145.773438 252.992188 134.90625 259.59375 130.820312 C 266.117188 142.199219 263.007812 153.914062 255.636719 156.019531 Z M 259.746094 175.183594 C 258.566406 164.679688 261.492188 154.324219 268.761719 151.65625 C 272.875 163.753906 267.53125 174.542969 259.875 175.183594 Z M 260.234375 194.734375 C 261.082031 184.203125 265.964844 174.671875 273.644531 173.488281 C 275.289062 186.050781 267.863281 195.710938 260.363281 194.734375 Z M 257.023438 214.027344 C 259.925781 203.800781 266.65625 195.453125 274.285156 195.761719 C 273.363281 208.375 264.34375 216.390625 257.023438 214.027344 Z M 249.882812 232.496094 C 254.8125 222.835938 262.933594 215.953125 270.484375 217.777344 C 267.121094 230.054688 256.613281 236.246094 249.882812 232.496094 Z M 238.914062 249.476562 C 245.925781 240.714844 255.300781 235.554688 262.367188 238.816406 C 256.5625 250.375 244.796875 254.484375 238.914062 249.476562 Z M 217.976562 108.910156 C 221.726562 118.207031 229.203125 125.527344 238.605469 129.101562 C 238.578125 119.519531 228.125 109.164062 217.976562 108.910156 " fill-opacity="1" fill-rule="nonzero"/></g></svg>