<svg xmlns="http://www.w3.org/2000/svg" xmlns:xlink="http://www.w3.org/1999/xlink" width="1080" zoomAndPan="magnify" viewBox="0 0 810 809.999993" height="1080" preserveAspectRatio="xMidYMid meet" version="1.0"><path fill="#4289fa" d="M 810 405 C 810 411.628906 809.835938 418.253906 809.511719 424.871094 C 809.1875 431.492188 808.699219 438.101562 808.050781 444.695312 C 807.398438 451.292969 806.589844 457.871094 805.617188 464.425781 C 804.644531 470.980469 803.511719 477.511719 802.21875 484.011719 C 800.925781 490.511719 799.472656 496.976562 797.863281 503.40625 C 796.25 509.835938 794.484375 516.222656 792.5625 522.566406 C 790.636719 528.90625 788.558594 535.199219 786.324219 541.441406 C 784.09375 547.679688 781.707031 553.863281 779.171875 559.988281 C 776.632812 566.109375 773.949219 572.167969 771.117188 578.160156 C 768.28125 584.152344 765.300781 590.070312 762.179688 595.914062 C 759.054688 601.761719 755.789062 607.527344 752.378906 613.210938 C 748.972656 618.898438 745.425781 624.496094 741.746094 630.003906 C 738.0625 635.515625 734.246094 640.933594 730.296875 646.257812 C 726.351562 651.582031 722.273438 656.804688 718.070312 661.929688 C 713.863281 667.054688 709.535156 672.070312 705.085938 676.980469 C 700.632812 681.890625 696.066406 686.691406 691.378906 691.378906 C 686.691406 696.066406 681.890625 700.632812 676.980469 705.085938 C 672.070312 709.535156 667.054688 713.863281 661.929688 718.070312 C 656.804688 722.273438 651.582031 726.351562 646.257812 730.300781 C 640.933594 734.246094 635.515625 738.0625 630.003906 741.746094 C 624.496094 745.425781 618.898438 748.972656 613.210938 752.378906 C 607.527344 755.789062 601.761719 759.054688 595.914062 762.179688 C 590.070312 765.300781 584.152344 768.28125 578.160156 771.117188 C 572.167969 773.949219 566.109375 776.632812 559.988281 779.171875 C 553.863281 781.707031 547.679688 784.09375 541.441406 786.324219 C 535.199219 788.558594 528.90625 790.636719 522.566406 792.5625 C 516.222656 794.484375 509.835938 796.25 503.40625 797.863281 C 496.976562 799.472656 490.511719 800.925781 484.011719 802.21875 C 477.511719 803.511719 470.980469 804.644531 464.425781 805.617188 C 457.871094 806.589844 451.292969 807.398438 444.695312 808.050781 C 438.101562 808.699219 431.492188 809.1875 424.871094 809.511719 C 418.253906 809.835938 411.628906 810 405 810 C 398.371094 810 391.746094 809.835938 385.128906 809.511719 C 378.507812 809.1875 371.898438 808.699219 365.304688 808.050781 C 358.707031 807.398438 352.128906 806.589844 345.574219 805.617188 C 339.019531 804.644531 332.488281 803.511719 325.988281 802.21875 C 319.488281 800.925781 313.023438 799.472656 306.59375 797.863281 C 300.164062 796.25 293.777344 794.484375 287.433594 792.5625 C 281.09375 790.636719 274.800781 788.558594 268.558594 786.324219 C 262.320312 784.09375 256.136719 781.707031 250.011719 779.171875 C 243.890625 776.632812 237.832031 773.949219 231.839844 771.117188 C 225.847656 768.28125 219.929688 765.300781 214.085938 762.179688 C 208.238281 759.054688 202.472656 755.789062 196.789062 752.378906 C 191.101562 748.972656 185.503906 745.425781 179.992188 741.746094 C 174.484375 738.0625 169.066406 734.246094 163.742188 730.300781 C 158.417969 726.351562 153.195312 722.273438 148.070312 718.070312 C 142.945312 713.863281 137.929688 709.535156 133.019531 705.085938 C 128.109375 700.632812 123.308594 696.066406 118.621094 691.378906 C 113.933594 686.691406 109.367188 681.890625 104.914062 676.980469 C 100.464844 672.070312 96.136719 667.054688 91.929688 661.929688 C 87.726562 656.804688 83.648438 651.582031 79.699219 646.257812 C 75.753906 640.933594 71.9375 635.515625 68.253906 630.003906 C 64.574219 624.496094 61.027344 618.898438 57.621094 613.210938 C 54.210938 607.527344 50.945312 601.761719 47.820312 595.914062 C 44.699219 590.070312 41.71875 584.152344 38.882812 578.160156 C 36.050781 572.167969 33.363281 566.109375 30.828125 559.988281 C 28.292969 553.863281 25.90625 547.679688 23.675781 541.441406 C 21.441406 535.199219 19.363281 528.90625 17.4375 522.566406 C 15.515625 516.222656 13.746094 509.835938 12.136719 503.40625 C 10.527344 496.976562 9.074219 490.511719 7.78125 484.011719 C 6.488281 477.511719 5.355469 470.980469 4.382812 464.425781 C 3.410156 457.871094 2.601562 451.292969 1.949219 444.695312 C 1.300781 438.101562 0.8125 431.492188 0.488281 424.871094 C 0.164062 418.253906 0 411.628906 0 405 C 0 398.371094 0.164062 391.746094 0.488281 385.128906 C 0.8125 378.507812 1.300781 371.898438 1.949219 365.304688 C 2.601562 358.707031 3.410156 352.128906 4.382812 345.574219 C 5.355469 339.019531 6.488281 332.488281 7.78125 325.988281 C 9.074219 319.488281 10.527344 313.023438 12.136719 306.59375 C 13.746094 300.164062 15.515625 293.777344 17.4375 287.433594 C 19.363281 281.09375 21.441406 274.800781 23.675781 268.558594 C 25.90625 262.320312 28.292969 256.136719 30.828125 250.011719 C 33.363281 243.890625 36.050781 237.832031 38.882812 231.839844 C 41.71875 225.847656 44.699219 219.929688 47.820312 214.085938 C 50.945312 208.238281 54.210938 202.472656 57.621094 196.789062 C 61.027344 191.101562 64.574219 185.503906 68.253906 179.992188 C 71.9375 174.484375 75.753906 169.066406 79.699219 163.742188 C 83.648438 158.417969 87.726562 153.195312 91.929688 148.070312 C 96.136719 142.945312 100.464844 137.929688 104.914062 133.019531 C 109.367188 128.109375 113.933594 123.308594 118.621094 118.621094 C 123.308594 113.933594 128.109375 109.367188 133.019531 104.914062 C 137.929688 100.464844 142.945312 96.136719 148.070312 91.929688 C 153.195312 87.726562 158.417969 83.648438 163.742188 79.699219 C 169.066406 75.753906 174.484375 71.9375 179.992188 68.253906 C 185.503906 64.574219 191.101562 61.027344 196.789062 57.621094 C 202.472656 54.210938 208.238281 50.945312 214.085938 47.820312 C 219.929688 44.699219 225.847656 41.71875 231.839844 38.882812 C 237.832031 36.050781 243.890625 33.367188 250.011719 30.828125 C 256.136719 28.292969 262.320312 25.90625 268.558594 23.675781 C 274.800781 21.441406 281.09375 19.363281 287.433594 17.4375 C 293.777344 15.515625 300.164062 13.746094 306.59375 12.136719 C 313.023438 10.527344 319.488281 9.074219 325.988281 7.78125 C 332.488281 6.488281 339.019531 5.355469 345.574219 4.382812 C 352.128906 3.410156 358.707031 2.601562 365.304688 1.949219 C 371.898438 1.300781 378.507812 0.8125 385.128906 0.488281 C 391.746094 0.164062 398.371094 0 405 0 C 411.628906 0 418.253906 0.164062 424.871094 0.488281 C 431.492188 0.8125 438.101562 1.300781 444.695312 1.949219 C 451.292969 2.601562 457.871094 3.410156 464.425781 4.382812 C 470.980469 5.355469 477.511719 6.488281 484.011719 7.78125 C 490.511719 9.074219 496.976562 10.527344 503.40625 12.136719 C 509.835938 13.746094 516.222656 15.515625 522.566406 17.4375 C 528.90625 19.363281 535.199219 21.441406 541.441406 23.675781 C 547.679688 25.90625 553.863281 28.292969 559.988281 30.828125 C 566.109375 33.367188 572.167969 36.050781 578.160156 38.882812 C 584.152344 41.71875 590.070312 44.699219 595.914062 47.820312 C 601.761719 50.945312 607.527344 54.210938 613.210938 57.621094 C 618.898438 61.027344 624.496094 64.574219 630.003906 68.253906 C 635.515625 71.9375 640.933594 75.753906 646.257812 79.699219 C 651.582031 83.648438 656.804688 87.726562 661.929688 91.929688 C 667.054688 96.136719 672.070312 100.464844 676.980469 104.914062 C 681.890625 109.367188 686.691406 113.933594 691.378906 118.621094 C 696.066406 123.308594 700.632812 128.109375 705.085938 133.019531 C 709.535156 137.929688 713.863281 142.945312 718.070312 148.070312 C 722.273438 153.195312 726.351562 158.417969 730.300781 163.742188 C 734.246094 169.066406 738.0625 174.484375 741.746094 179.992188 C 745.425781 185.503906 748.972656 191.101562 752.378906 196.789062 C 755.789062 202.472656 759.054688 208.238281 762.179688 214.085938 C 765.300781 219.929688 768.28125 225.847656 771.117188 231.839844 C 773.949219 237.832031 776.632812 243.890625 779.171875 250.011719 C 781.707031 256.136719 784.09375 262.320312 786.324219 268.558594 C 788.558594 274.800781 790.636719 281.09375 792.5625 287.433594 C 794.484375 293.777344 796.253906 300.164062 797.863281 306.59375 C 799.472656 313.023438 800.925781 319.488281 802.21875 325.988281 C 803.511719 332.488281 804.644531 339.019531 805.617188 345.574219 C 806.589844 352.128906 807.398438 358.707031 808.050781 365.304688 C 808.699219 371.898438 809.1875 378.507812 809.511719 385.128906 C 809.835938 391.746094 810 398.371094 810 405 Z M 810 405 " fill-opacity="1" fill-rule="nonzero"/><path fill="#f0f8ff" d="M 357.371094 182.878906 C 357.371094 182.878906 375.402344 227.609375 380.742188 254.578125 C 386.082031 281.550781 396.546875 298.382812 396.546875 298.382812 L 406.460938 319.144531 L 412.464844 336.382812 L 421.117188 312.492188 C 421.117188 312.492188 427.132812 279.5 416.773438 250.21875 C 416.773438 250.21875 438.21875 282.261719 425.839844 344.640625 C 425.839844 344.640625 451.214844 322.855469 454.019531 268.546875 C 454.019531 268.546875 441.160156 193.921875 357.371094 182.878906 " fill-opacity="1" fill-rule="nonzero"/><path fill="#f0f8ff" d="M 453.234375 302.285156 C 454.648438 298.09375 455.78125 293.730469 456.570312 289.210938 C 457.351562 284.683594 457.792969 279.992188 457.785156 275.171875 C 457.785156 270.355469 457.335938 265.410156 456.410156 260.425781 C 455.945312 257.929688 455.355469 255.429688 454.648438 252.9375 C 453.941406 250.441406 453.109375 247.953125 452.164062 245.480469 C 451.214844 243.007812 450.144531 240.5625 448.988281 238.152344 C 448.6875 237.542969 448.398438 236.953125 448.085938 236.339844 L 447.609375 235.417969 L 447.371094 234.96875 L 447.144531 234.542969 L 446.691406 233.707031 L 446.179688 232.777344 C 445.851562 232.1875 445.507812 231.601562 445.164062 231.011719 C 442.429688 226.324219 439.246094 221.800781 435.714844 217.566406 C 432.175781 213.324219 428.285156 209.363281 424.152344 205.75 C 420.011719 202.136719 415.648438 198.863281 411.132812 195.933594 C 406.625 193.003906 401.984375 190.40625 397.277344 188.121094 C 394.921875 186.984375 392.550781 185.910156 390.167969 184.917969 C 387.789062 183.925781 385.394531 183.003906 382.996094 182.148438 C 378.199219 180.441406 373.375 179.003906 368.542969 177.828125 C 366.125 177.238281 363.710938 176.710938 361.28125 176.261719 C 360.070312 176.035156 358.855469 175.828125 357.632812 175.644531 C 357.023438 175.550781 356.40625 175.460938 355.789062 175.375 L 354.851562 175.261719 L 354.371094 175.203125 L 353.832031 175.148438 L 342.945312 174.027344 L 350.578125 183.804688 C 352.835938 186.699219 354.949219 189.652344 356.863281 192.671875 C 358.78125 195.695312 360.480469 198.792969 361.96875 201.945312 C 363.457031 205.101562 364.714844 208.328125 365.773438 211.617188 C 366.835938 214.902344 367.699219 218.261719 368.457031 221.695312 C 369.207031 225.121094 369.859375 228.621094 370.523438 232.191406 C 371.191406 235.765625 371.859375 239.40625 372.667969 243.09375 C 373.472656 246.789062 374.398438 250.527344 375.507812 254.273438 C 375.640625 254.734375 375.792969 255.222656 375.9375 255.695312 C 376.089844 256.195312 376.226562 256.617188 376.371094 257.070312 L 376.601562 257.773438 L 376.828125 258.464844 C 376.984375 258.929688 377.132812 259.386719 377.289062 259.84375 C 377.910156 261.679688 378.566406 263.503906 379.242188 265.335938 C 380.597656 268.980469 382.078125 272.613281 383.660156 276.203125 C 384.445312 277.996094 385.253906 279.78125 386.082031 281.550781 C 386.910156 283.320312 387.757812 285.074219 388.613281 286.824219 C 390.324219 290.308594 392.058594 293.742188 393.734375 297.117188 C 395.40625 300.492188 396.996094 303.828125 398.402344 307.132812 C 399.816406 310.4375 401.019531 313.730469 401.980469 317.035156 C 402.941406 320.34375 403.648438 323.664062 404.125 327 C 404.609375 330.339844 404.835938 333.683594 404.898438 337.03125 C 404.933594 338.699219 404.917969 340.371094 404.863281 342.03125 C 404.816406 343.699219 404.714844 345.363281 404.597656 347.023438 L 403.261719 366.707031 L 412.25 351.128906 L 412.472656 350.75 L 412.667969 350.398438 L 413.035156 349.714844 C 413.28125 349.257812 413.511719 348.800781 413.746094 348.335938 C 414.203125 347.421875 414.640625 346.496094 415.0625 345.570312 C 415.914062 343.710938 416.695312 341.824219 417.4375 339.914062 C 418.171875 338 418.867188 336.066406 419.503906 334.101562 C 420.148438 332.140625 420.738281 330.160156 421.28125 328.152344 C 422.371094 324.140625 423.265625 320.039062 423.957031 315.859375 C 424.304688 313.777344 424.59375 311.664062 424.828125 309.546875 C 425.066406 307.421875 425.265625 305.277344 425.386719 303.121094 C 425.511719 300.964844 425.605469 298.800781 425.605469 296.613281 C 425.617188 294.421875 425.589844 292.238281 425.480469 290.03125 C 425.375 287.824219 425.222656 285.613281 424.984375 283.390625 C 424.882812 282.285156 424.734375 281.167969 424.605469 280.0625 C 424.441406 278.945312 424.308594 277.832031 424.125 276.722656 C 423.789062 274.5 423.339844 272.265625 422.875 270.042969 C 422.625 268.929688 422.378906 267.820312 422.101562 266.707031 C 421.84375 265.597656 421.53125 264.484375 421.234375 263.378906 C 421.089844 262.820312 420.917969 262.273438 420.757812 261.714844 C 420.59375 261.167969 420.441406 260.609375 420.269531 260.0625 C 419.921875 258.960938 419.578125 257.859375 419.195312 256.761719 C 418.46875 254.570312 417.632812 252.386719 416.773438 250.21875 C 417.367188 252.425781 417.957031 254.625 418.445312 256.820312 C 418.710938 257.917969 418.917969 259.015625 419.15625 260.113281 C 419.277344 260.660156 419.371094 261.207031 419.476562 261.757812 C 419.574219 262.300781 419.691406 262.851562 419.777344 263.398438 L 420.050781 265.035156 C 420.148438 265.578125 420.210938 266.128906 420.296875 266.671875 C 420.46875 267.761719 420.601562 268.847656 420.742188 269.9375 C 420.996094 272.109375 421.207031 274.269531 421.351562 276.421875 C 421.4375 277.496094 421.472656 278.5625 421.53125 279.636719 C 421.558594 280.703125 421.613281 281.769531 421.613281 282.835938 C 421.644531 284.960938 421.617188 287.066406 421.542969 289.160156 C 421.472656 291.257812 421.324219 293.335938 421.140625 295.398438 C 420.957031 297.457031 420.722656 299.503906 420.4375 301.527344 C 420.152344 303.546875 419.816406 305.554688 419.433594 307.542969 C 419.046875 309.523438 418.628906 311.488281 418.15625 313.433594 C 417.199219 317.320312 416.089844 321.121094 414.792969 324.828125 C 414.3125 326.210938 413.808594 327.582031 413.28125 328.945312 C 413.25 328.601562 413.21875 328.261719 413.183594 327.914062 C 412.796875 324.140625 412.117188 320.289062 411.140625 316.460938 C 410.167969 312.632812 408.878906 308.820312 407.433594 305.128906 C 405.980469 301.421875 404.359375 297.828125 402.726562 294.320312 C 401.09375 290.804688 399.441406 287.378906 397.859375 283.976562 C 396.277344 280.566406 394.761719 277.1875 393.34375 273.796875 C 391.921875 270.414062 390.613281 267.015625 389.394531 263.605469 C 388.785156 261.898438 388.199219 260.191406 387.648438 258.476562 C 387.503906 258.046875 387.375 257.613281 387.238281 257.183594 L 387.035156 256.542969 L 386.839844 255.921875 C 386.707031 255.480469 386.5625 255.015625 386.449219 254.621094 L 386.089844 253.375 C 385.125 249.992188 384.3125 246.585938 383.601562 243.125 C 382.886719 239.664062 382.246094 236.160156 381.609375 232.582031 C 380.96875 229.007812 380.308594 225.363281 379.496094 221.644531 C 378.6875 217.925781 377.730469 214.132812 376.496094 210.3125 C 375.265625 206.503906 373.761719 202.667969 371.988281 198.925781 C 370.261719 195.273438 368.261719 191.699219 366.078125 188.269531 C 366.859375 188.429688 367.640625 188.605469 368.421875 188.777344 C 372.859375 189.789062 377.300781 191.046875 381.703125 192.515625 C 383.902344 193.25 386.097656 194.054688 388.273438 194.914062 C 390.453125 195.769531 392.617188 196.691406 394.757812 197.675781 C 399.046875 199.648438 403.253906 201.871094 407.324219 204.371094 C 409.355469 205.628906 411.359375 206.949219 413.316406 208.339844 C 415.273438 209.734375 417.1875 211.191406 419.046875 212.734375 C 422.769531 215.792969 426.273438 219.15625 429.488281 222.769531 C 432.714844 226.386719 435.644531 230.257812 438.25 234.335938 C 438.566406 234.84375 438.890625 235.355469 439.203125 235.871094 L 439.65625 236.613281 L 440.136719 237.4375 L 440.378906 237.855469 L 440.601562 238.246094 L 441.027344 239.007812 C 441.308594 239.523438 441.597656 240.058594 441.882812 240.585938 C 443.007812 242.710938 444.046875 244.867188 444.980469 247.046875 C 446.851562 251.414062 448.332031 255.882812 449.386719 260.378906 C 450.445312 264.882812 451.082031 269.410156 451.335938 273.898438 C 451.585938 278.382812 451.457031 282.832031 450.992188 287.195312 C 450.527344 291.554688 449.734375 295.824219 448.675781 300 C 447.613281 304.167969 446.300781 308.238281 444.757812 312.1875 C 443.210938 316.132812 441.46875 319.984375 439.519531 323.707031 C 437.601562 327.445312 435.46875 331.050781 433.199219 334.550781 C 430.914062 338.042969 428.507812 341.453125 425.839844 344.640625 C 427.382812 343.265625 428.847656 341.785156 430.273438 340.265625 C 431.691406 338.75 433.066406 337.1875 434.398438 335.578125 C 437.066406 332.367188 439.550781 328.972656 441.871094 325.445312 C 444.175781 321.898438 446.320312 318.21875 448.222656 314.355469 C 450.121094 310.488281 451.824219 306.476562 453.234375 302.285156 " fill-opacity="1" fill-rule="nonzero"/><path fill="#f0f8ff" d="M 179.960938 239.695312 C 179.960938 239.695312 232.132812 251.261719 260.9375 263.648438 C 289.742188 276.03125 311.144531 276.785156 311.144531 276.785156 L 336.097656 280.640625 L 355.75 286.023438 L 336.660156 261.949219 C 336.660156 261.949219 307.445312 234.507812 273.984375 225.53125 C 273.984375 225.53125 315.449219 225.460938 370.203125 278.324219 C 370.203125 278.324219 361.183594 239.25 309.691406 201.042969 C 309.691406 201.042969 230.910156 164.886719 179.960938 239.695312 " fill-opacity="1" fill-rule="nonzero"/><path fill="#f0f8ff" d="M 342.140625 223.839844 C 338.738281 219.71875 335.039062 215.761719 331.011719 212.039062 C 326.984375 208.3125 322.628906 204.824219 317.941406 201.679688 C 313.253906 198.539062 308.222656 195.742188 302.929688 193.394531 C 300.28125 192.222656 297.5625 191.160156 294.796875 190.230469 C 292.027344 189.289062 289.207031 188.484375 286.351562 187.792969 C 283.496094 187.105469 280.601562 186.554688 277.691406 186.113281 C 276.964844 186.011719 276.246094 185.910156 275.5 185.8125 L 274.378906 185.679688 L 273.824219 185.617188 L 273.304688 185.566406 L 272.265625 185.460938 L 271.125 185.355469 C 270.386719 185.289062 269.65625 185.238281 268.921875 185.1875 C 263.039062 184.8125 257.117188 184.976562 251.292969 185.664062 C 245.472656 186.355469 239.753906 187.582031 234.253906 189.261719 C 228.757812 190.960938 223.46875 193.089844 218.457031 195.597656 C 213.445312 198.097656 208.6875 200.941406 204.210938 204.058594 C 201.96875 205.621094 199.789062 207.246094 197.679688 208.921875 C 195.570312 210.605469 193.527344 212.351562 191.542969 214.140625 C 187.578125 217.714844 183.871094 221.5 180.40625 225.460938 C 178.675781 227.441406 177 229.46875 175.398438 231.546875 C 174.597656 232.589844 173.8125 233.640625 173.042969 234.710938 C 172.660156 235.25 172.28125 235.796875 171.902344 236.34375 L 171.335938 237.191406 L 171.050781 237.625 L 170.738281 238.109375 L 164.425781 248.039062 L 177.601562 246.953125 C 181.496094 246.632812 185.382812 246.488281 189.246094 246.589844 C 193.105469 246.691406 196.933594 247.046875 200.71875 247.652344 C 204.503906 248.253906 208.242188 249.125 211.949219 250.246094 C 215.660156 251.347656 219.34375 252.699219 223.042969 254.199219 C 226.742188 255.703125 230.460938 257.347656 234.253906 259.03125 C 238.046875 260.710938 241.914062 262.429688 245.890625 264.050781 C 249.863281 265.675781 253.949219 267.210938 258.125 268.570312 C 258.640625 268.746094 259.1875 268.914062 259.722656 269.082031 C 260.277344 269.261719 260.753906 269.398438 261.261719 269.550781 L 262.0625 269.785156 L 262.84375 270.019531 C 263.363281 270.164062 263.878906 270.320312 264.402344 270.464844 C 266.484375 271.054688 268.582031 271.609375 270.683594 272.136719 C 274.886719 273.195312 279.125 274.117188 283.375 274.914062 C 285.496094 275.316406 287.621094 275.6875 289.742188 276.03125 C 291.863281 276.382812 293.976562 276.699219 296.085938 277 C 300.296875 277.601562 304.46875 278.148438 308.558594 278.714844 C 312.648438 279.273438 316.648438 279.898438 320.542969 280.683594 C 324.441406 281.457031 328.222656 282.429688 331.898438 283.652344 C 335.578125 284.867188 339.148438 286.34375 342.621094 288.0625 C 346.101562 289.765625 349.46875 291.734375 352.75 293.84375 C 354.394531 294.90625 356.007812 296.015625 357.605469 297.152344 C 359.203125 298.292969 360.765625 299.476562 362.328125 300.671875 L 380.839844 314.828125 L 369.996094 295.859375 L 369.734375 295.398438 L 369.488281 294.980469 L 368.996094 294.171875 C 368.667969 293.632812 368.332031 293.105469 368 292.578125 C 367.328125 291.527344 366.640625 290.5 365.9375 289.476562 C 364.542969 287.433594 363.078125 285.433594 361.574219 283.460938 C 360.0625 281.488281 358.515625 279.546875 356.910156 277.644531 C 355.3125 275.730469 353.664062 273.855469 351.976562 272.015625 C 348.589844 268.335938 345.03125 264.773438 341.296875 261.375 C 339.4375 259.667969 337.519531 258.003906 335.570312 256.386719 C 333.617188 254.765625 331.628906 253.179688 329.589844 251.652344 C 327.550781 250.117188 325.488281 248.613281 323.359375 247.179688 C 321.238281 245.746094 319.09375 244.34375 316.894531 243.011719 C 314.699219 241.675781 312.476562 240.375 310.199219 239.15625 C 309.074219 238.535156 307.917969 237.953125 306.773438 237.351562 C 305.613281 236.785156 304.46875 236.1875 303.292969 235.644531 C 300.96875 234.523438 298.585938 233.503906 296.195312 232.507812 C 294.992188 232.019531 293.796875 231.535156 292.582031 231.082031 C 291.375 230.613281 290.148438 230.191406 288.925781 229.757812 C 288.320312 229.535156 287.699219 229.347656 287.085938 229.136719 C 286.46875 228.941406 285.859375 228.726562 285.238281 228.542969 C 284 228.160156 282.765625 227.773438 281.511719 227.429688 C 279.023438 226.710938 276.503906 226.101562 273.984375 225.53125 C 276.417969 226.386719 278.835938 227.25 281.207031 228.207031 C 282.402344 228.664062 283.574219 229.171875 284.753906 229.660156 C 285.34375 229.894531 285.917969 230.167969 286.503906 230.417969 C 287.082031 230.679688 287.671875 230.925781 288.242188 231.199219 L 289.972656 231.996094 C 290.546875 232.261719 291.109375 232.550781 291.683594 232.824219 C 292.828125 233.367188 293.949219 233.949219 295.074219 234.523438 C 297.308594 235.691406 299.511719 236.894531 301.671875 238.164062 C 302.761719 238.78125 303.820312 239.441406 304.890625 240.085938 C 305.941406 240.757812 307.003906 241.402344 308.039062 242.09375 C 310.121094 243.449219 312.160156 244.855469 314.164062 246.296875 C 316.171875 247.738281 318.121094 249.238281 320.039062 250.757812 C 321.953125 252.285156 323.828125 253.855469 325.660156 255.453125 C 327.496094 257.058594 329.285156 258.695312 331.03125 260.363281 C 332.777344 262.035156 334.492188 263.730469 336.152344 265.46875 C 339.476562 268.9375 342.644531 272.515625 345.625 276.195312 C 346.746094 277.574219 347.835938 278.964844 348.90625 280.363281 C 348.554688 280.171875 348.210938 279.976562 347.859375 279.789062 C 343.996094 277.703125 339.929688 275.855469 335.734375 274.308594 C 331.535156 272.757812 327.21875 271.53125 322.925781 270.535156 C 318.628906 269.539062 314.351562 268.78125 310.15625 268.078125 C 305.957031 267.386719 301.824219 266.765625 297.753906 266.085938 C 293.679688 265.410156 289.660156 264.6875 285.683594 263.863281 C 281.707031 263.042969 277.773438 262.105469 273.867188 261.074219 C 271.917969 260.554688 269.972656 260.007812 268.039062 259.429688 C 267.554688 259.292969 267.074219 259.140625 266.589844 258.992188 L 265.867188 258.769531 L 265.167969 258.558594 C 264.675781 258.402344 264.152344 258.230469 263.714844 258.085938 L 262.332031 257.628906 C 258.582031 256.363281 254.871094 254.929688 251.164062 253.371094 C 247.453125 251.808594 243.738281 250.144531 239.953125 248.4375 C 236.167969 246.730469 232.304688 244.996094 228.292969 243.355469 C 224.289062 241.722656 220.136719 240.183594 215.832031 238.898438 C 211.527344 237.613281 207.082031 236.574219 202.585938 235.871094 C 198.203125 235.175781 193.769531 234.796875 189.382812 234.695312 C 189.914062 234.039062 190.453125 233.378906 191.003906 232.734375 C 194.117188 229.050781 197.464844 225.523438 201.007812 222.171875 C 202.785156 220.5 204.613281 218.878906 206.496094 217.3125 C 208.378906 215.734375 210.308594 214.21875 212.296875 212.761719 C 216.269531 209.855469 220.453125 207.1875 224.84375 204.835938 C 227.039062 203.667969 229.285156 202.574219 231.574219 201.5625 C 233.871094 200.558594 236.210938 199.636719 238.597656 198.820312 C 243.367188 197.183594 248.316406 195.945312 253.378906 195.15625 C 258.441406 194.355469 263.621094 194.023438 268.832031 194.136719 C 269.480469 194.15625 270.132812 194.171875 270.785156 194.203125 L 271.71875 194.25 L 272.757812 194.316406 L 273.277344 194.351562 L 273.761719 194.386719 L 274.710938 194.46875 C 275.347656 194.527344 276.011719 194.589844 276.660156 194.65625 C 279.265625 194.949219 281.859375 195.335938 284.429688 195.851562 C 289.574219 196.871094 294.632812 198.335938 299.519531 200.246094 C 304.40625 202.144531 309.117188 204.476562 313.605469 207.15625 C 318.089844 209.847656 322.355469 212.878906 326.375 216.179688 C 330.394531 219.488281 334.175781 223.054688 337.726562 226.8125 C 341.273438 230.574219 344.601562 234.515625 347.699219 238.609375 C 350.804688 242.703125 353.710938 246.921875 356.402344 251.257812 C 359.113281 255.582031 361.605469 260.019531 363.925781 264.53125 C 366.222656 269.046875 368.382812 273.632812 370.203125 278.324219 C 369.605469 275.914062 368.871094 273.515625 368.074219 271.128906 C 367.285156 268.75 366.417969 266.378906 365.492188 264.027344 C 363.652344 259.316406 361.539062 254.671875 359.21875 250.09375 C 356.878906 245.519531 354.316406 241.019531 351.476562 236.632812 C 348.628906 232.246094 345.539062 227.960938 342.140625 223.839844 " fill-opacity="1" fill-rule="nonzero"/><path fill="#f0f8ff" d="M 150.121094 450.46875 C 150.121094 450.46875 186.40625 406.953125 212.28125 386.84375 C 238.152344 366.738281 249.152344 346.28125 249.152344 346.28125 L 264.871094 324.371094 L 279.539062 308.648438 L 246.957031 311.613281 C 246.957031 311.613281 206.242188 322.292969 181.453125 349.175781 C 181.453125 349.175781 201.277344 308.542969 278.984375 289.476562 C 278.984375 289.476562 236.640625 272.785156 174.757812 298.238281 C 174.757812 298.238281 101.777344 351.742188 150.121094 450.46875 " fill-opacity="1" fill-rule="nonzero"/><path fill="#f0f8ff" d="M 212.507812 281.359375 C 206.867188 281.996094 201.238281 283.03125 195.683594 284.542969 C 190.128906 286.054688 184.644531 288.039062 179.335938 290.574219 C 174.023438 293.109375 168.898438 296.207031 164.070312 299.855469 C 161.660156 301.683594 159.324219 303.652344 157.085938 305.753906 C 154.84375 307.84375 152.703125 310.082031 150.664062 312.429688 C 148.625 314.773438 146.699219 317.246094 144.878906 319.808594 C 144.425781 320.449219 143.980469 321.09375 143.535156 321.753906 L 142.867188 322.765625 L 142.539062 323.269531 L 142.238281 323.746094 L 141.636719 324.6875 L 140.984375 325.742188 C 140.570312 326.421875 140.171875 327.105469 139.769531 327.792969 C 136.578125 333.296875 133.894531 339.203125 131.773438 345.355469 C 129.648438 351.503906 128.097656 357.898438 127.101562 364.382812 C 126.109375 370.875 125.648438 377.441406 125.683594 383.984375 C 125.707031 390.527344 126.195312 397.039062 127.082031 403.457031 C 127.523438 406.671875 128.058594 409.859375 128.679688 413.027344 C 129.304688 416.195312 130.019531 419.332031 130.808594 422.441406 C 132.390625 428.660156 134.296875 434.757812 136.484375 440.738281 C 137.582031 443.726562 138.746094 446.691406 140.003906 449.613281 C 140.632812 451.078125 141.277344 452.53125 141.957031 453.988281 C 142.292969 454.710938 142.640625 455.441406 142.996094 456.171875 L 143.542969 457.273438 L 143.828125 457.832031 L 144.15625 458.464844 L 150.785156 471.125 L 156.050781 457.515625 C 157.605469 453.5 159.332031 449.59375 161.285156 445.882812 C 163.234375 442.167969 165.417969 438.65625 167.820312 435.34375 C 170.222656 432.03125 172.867188 428.949219 175.730469 426.046875 C 178.585938 423.132812 181.667969 420.410156 184.898438 417.769531 C 188.136719 415.136719 191.527344 412.566406 194.980469 409.949219 C 198.4375 407.335938 201.964844 404.675781 205.449219 401.835938 C 208.941406 399.007812 212.390625 396.015625 215.722656 392.8125 C 216.132812 392.417969 216.5625 392.003906 216.984375 391.585938 C 217.421875 391.15625 217.785156 390.78125 218.175781 390.386719 L 218.792969 389.757812 L 219.390625 389.140625 C 219.78125 388.730469 220.183594 388.324219 220.574219 387.902344 C 222.148438 386.253906 223.691406 384.5625 225.214844 382.855469 C 228.261719 379.429688 231.191406 375.878906 234.007812 372.246094 C 235.414062 370.429688 236.796875 368.589844 238.152344 366.738281 C 239.503906 364.890625 240.828125 363.027344 242.136719 361.160156 C 244.746094 357.429688 247.273438 353.703125 249.785156 350.066406 C 252.296875 346.4375 254.820312 342.921875 257.453125 339.625 C 260.078125 336.320312 262.835938 333.25 265.789062 330.449219 C 268.738281 327.640625 271.890625 325.113281 275.226562 322.828125 C 278.554688 320.539062 282.082031 318.523438 285.714844 316.695312 C 287.535156 315.78125 289.386719 314.921875 291.261719 314.101562 C 293.132812 313.277344 295.039062 312.519531 296.949219 311.773438 L 319.609375 302.90625 L 295.949219 301.128906 L 295.371094 301.082031 L 294.847656 301.054688 L 293.820312 301 C 293.140625 300.972656 292.46875 300.953125 291.796875 300.941406 C 290.453125 300.914062 289.121094 300.914062 287.792969 300.933594 C 285.128906 300.964844 282.480469 301.09375 279.839844 301.273438 C 277.199219 301.464844 274.566406 301.710938 271.941406 302.039062 C 269.320312 302.355469 266.703125 302.742188 264.101562 303.195312 C 258.890625 304.105469 253.726562 305.265625 248.625 306.699219 C 246.070312 307.402344 243.539062 308.195312 241.023438 309.046875 C 238.507812 309.898438 236.011719 310.808594 233.542969 311.808594 C 231.074219 312.804688 228.621094 313.839844 226.210938 314.988281 C 223.792969 316.128906 221.398438 317.316406 219.046875 318.59375 C 216.691406 319.867188 214.359375 321.191406 212.085938 322.628906 C 210.9375 323.324219 209.816406 324.074219 208.6875 324.804688 C 207.574219 325.570312 206.449219 326.304688 205.355469 327.097656 C 203.144531 328.636719 201.007812 330.304688 198.894531 331.996094 C 197.847656 332.855469 196.796875 333.710938 195.773438 334.601562 C 194.738281 335.472656 193.738281 336.398438 192.734375 337.3125 C 192.226562 337.765625 191.742188 338.246094 191.246094 338.714844 C 190.757812 339.183594 190.257812 339.644531 189.777344 340.128906 C 188.808594 341.09375 187.84375 342.050781 186.910156 343.050781 C 185.015625 345.011719 183.21875 347.085938 181.453125 349.175781 C 183.453125 347.359375 185.449219 345.550781 187.515625 343.855469 C 188.535156 342.988281 189.59375 342.171875 190.632812 341.339844 C 191.152344 340.914062 191.6875 340.527344 192.214844 340.117188 C 192.746094 339.71875 193.265625 339.304688 193.804688 338.921875 L 195.414062 337.753906 C 195.945312 337.359375 196.5 337 197.039062 336.621094 C 198.117188 335.855469 199.21875 335.136719 200.316406 334.40625 C 202.523438 332.984375 204.757812 331.613281 207.023438 330.328125 C 208.148438 329.667969 209.300781 329.0625 210.4375 328.433594 C 211.59375 327.839844 212.738281 327.222656 213.902344 326.664062 C 216.222656 325.511719 218.570312 324.429688 220.933594 323.410156 C 223.296875 322.382812 225.691406 321.460938 228.09375 320.578125 C 230.5 319.699219 232.925781 318.886719 235.359375 318.140625 C 237.796875 317.390625 240.25 316.707031 242.714844 316.085938 C 245.179688 315.472656 247.652344 314.898438 250.136719 314.410156 C 255.105469 313.417969 260.105469 312.652344 265.121094 312.136719 C 266.996094 311.941406 268.871094 311.777344 270.746094 311.652344 C 270.394531 311.867188 270.039062 312.078125 269.691406 312.300781 C 265.804688 314.722656 262.058594 317.492188 258.539062 320.589844 C 255.019531 323.6875 251.75 327.109375 248.71875 330.664062 C 245.6875 334.21875 242.898438 337.910156 240.207031 341.566406 C 237.515625 345.214844 234.929688 348.859375 232.316406 352.40625 C 229.707031 355.949219 227.074219 359.402344 224.363281 362.761719 C 221.65625 366.125 218.855469 369.363281 215.976562 372.507812 C 214.535156 374.074219 213.074219 375.625 211.582031 377.140625 C 211.214844 377.523438 210.835938 377.894531 210.460938 378.269531 L 209.898438 378.835938 L 209.351562 379.375 C 208.960938 379.757812 208.554688 380.164062 208.199219 380.496094 L 207.089844 381.546875 C 204.058594 384.394531 200.882812 387.085938 197.589844 389.703125 C 194.289062 392.316406 190.886719 394.867188 187.40625 397.453125 C 183.933594 400.042969 180.386719 402.691406 176.871094 405.546875 C 173.359375 408.402344 169.867188 411.457031 166.550781 414.839844 C 163.238281 418.207031 160.101562 421.886719 157.253906 425.828125 C 154.46875 429.660156 151.984375 433.753906 149.777344 437.984375 C 149.390625 437.027344 149.011719 436.074219 148.644531 435.113281 C 146.558594 429.660156 144.730469 424.078125 143.171875 418.421875 C 142.394531 415.59375 141.695312 412.738281 141.070312 409.875 C 140.441406 407.007812 139.890625 404.125 139.429688 401.222656 C 138.507812 395.433594 137.917969 389.597656 137.738281 383.769531 C 137.652344 380.851562 137.660156 377.941406 137.78125 375.039062 C 137.90625 372.136719 138.132812 369.246094 138.488281 366.375 C 139.175781 360.640625 140.347656 354.988281 142.007812 349.511719 C 143.660156 344.035156 145.820312 338.75 148.429688 333.71875 C 148.761719 333.09375 149.089844 332.46875 149.433594 331.851562 L 149.921875 330.964844 L 150.488281 329.992188 L 150.773438 329.503906 L 151.042969 329.058594 L 151.574219 328.179688 C 151.933594 327.59375 152.316406 326.984375 152.695312 326.394531 C 154.226562 324.035156 155.847656 321.75 157.582031 319.566406 C 161.042969 315.199219 164.898438 311.207031 169.097656 307.671875 C 173.292969 304.125 177.824219 301.042969 182.585938 298.398438 C 187.355469 295.761719 192.347656 293.570312 197.492188 291.792969 C 202.636719 290.015625 207.921875 288.640625 213.28125 287.621094 C 218.640625 286.605469 224.078125 285.921875 229.546875 285.5625 C 235.015625 285.199219 240.519531 285.105469 246.023438 285.304688 C 251.535156 285.476562 257.046875 285.9375 262.550781 286.609375 C 268.046875 287.308594 273.546875 288.1875 278.984375 289.476562 C 276.347656 288.480469 273.664062 287.640625 270.964844 286.859375 C 268.265625 286.078125 265.546875 285.375 262.8125 284.746094 C 257.34375 283.472656 251.8125 282.503906 246.246094 281.78125 C 240.675781 281.09375 235.066406 280.660156 229.433594 280.578125 C 223.800781 280.496094 218.148438 280.726562 212.507812 281.359375 " fill-opacity="1" fill-rule="nonzero"/><path fill="#f0f8ff" d="M 340.886719 617.339844 C 340.886719 617.339844 315.953125 553.398438 308.804688 514.941406 C 301.65625 476.484375 287.027344 452.351562 287.027344 452.351562 L 273.25 422.65625 L 264.992188 398.027344 L 252.242188 431.859375 C 252.242188 431.859375 243.097656 478.683594 257.363281 520.515625 C 257.363281 520.515625 227.339844 474.570312 246.066406 386.046875 C 246.066406 386.046875 209.511719 416.597656 204.585938 493.800781 C 204.585938 493.800781 221.628906 600.183594 340.886719 617.339844 " fill-opacity="1" fill-rule="nonzero"/><path fill="#f0f8ff" d="M 206.277344 445.820312 C 204.1875 451.761719 202.496094 457.945312 201.300781 464.367188 C 200.109375 470.796875 199.402344 477.460938 199.328125 484.3125 C 199.242188 491.167969 199.800781 498.210938 201.03125 505.320312 C 201.652344 508.875 202.449219 512.441406 203.421875 516 C 204.378906 519.566406 205.527344 523.121094 206.832031 526.652344 C 208.136719 530.175781 209.621094 533.679688 211.238281 537.136719 C 211.648438 538 212.054688 538.847656 212.488281 539.722656 L 213.152344 541.039062 L 213.484375 541.6875 L 213.796875 542.289062 L 214.429688 543.496094 L 215.144531 544.816406 C 215.601562 545.667969 216.078125 546.507812 216.554688 547.347656 C 220.382812 554.070312 224.839844 560.550781 229.804688 566.648438 C 234.773438 572.742188 240.25 578.4375 246.082031 583.648438 C 251.914062 588.859375 258.089844 593.601562 264.46875 597.839844 C 270.847656 602.082031 277.417969 605.863281 284.09375 609.191406 C 287.429688 610.851562 290.789062 612.414062 294.167969 613.875 C 297.546875 615.324219 300.941406 616.675781 304.347656 617.929688 C 311.15625 620.449219 318.007812 622.566406 324.875 624.328125 C 328.308594 625.207031 331.75 626 335.199219 626.683594 C 336.925781 627.023438 338.652344 627.34375 340.390625 627.625 C 341.261719 627.769531 342.132812 627.910156 343.015625 628.039062 L 344.351562 628.222656 L 345.035156 628.3125 L 345.800781 628.398438 L 361.304688 630.179688 L 350.589844 616.136719 C 347.421875 611.984375 344.457031 607.753906 341.78125 603.417969 C 339.105469 599.082031 336.730469 594.648438 334.664062 590.140625 C 332.59375 585.625 330.855469 581.015625 329.410156 576.316406 C 327.949219 571.617188 326.773438 566.828125 325.757812 561.9375 C 324.746094 557.042969 323.871094 552.054688 322.984375 546.960938 C 322.097656 541.871094 321.203125 536.675781 320.117188 531.414062 C 319.035156 526.152344 317.777344 520.816406 316.261719 515.46875 C 316.078125 514.808594 315.875 514.113281 315.671875 513.429688 C 315.464844 512.71875 315.273438 512.117188 315.078125 511.472656 L 314.761719 510.460938 L 314.449219 509.476562 C 314.238281 508.824219 314.035156 508.167969 313.816406 507.515625 C 312.964844 504.890625 312.058594 502.28125 311.128906 499.667969 C 309.253906 494.449219 307.207031 489.261719 305.019531 484.132812 C 303.925781 481.566406 302.804688 479.015625 301.65625 476.484375 C 300.503906 473.949219 299.324219 471.4375 298.140625 468.941406 C 295.761719 463.945312 293.34375 459.039062 291.011719 454.203125 C 288.683594 449.371094 286.480469 444.605469 284.53125 439.882812 C 282.574219 435.152344 280.914062 430.445312 279.601562 425.726562 C 278.285156 421.003906 277.335938 416.269531 276.71875 411.511719 C 276.085938 406.757812 275.820312 401.992188 275.78125 397.234375 C 275.761719 394.855469 275.820312 392.480469 275.917969 390.113281 C 276.015625 387.746094 276.195312 385.386719 276.386719 383.023438 L 278.628906 355.050781 L 265.542969 377.054688 L 265.222656 377.585938 L 264.941406 378.078125 L 264.402344 379.050781 C 264.046875 379.703125 263.707031 380.34375 263.371094 380.992188 C 262.703125 382.289062 262.058594 383.597656 261.4375 384.910156 C 260.195312 387.539062 259.046875 390.214844 257.957031 392.917969 C 256.875 395.625 255.851562 398.363281 254.910156 401.144531 C 253.964844 403.921875 253.085938 406.734375 252.273438 409.578125 C 250.660156 415.273438 249.3125 421.085938 248.257812 427.019531 C 247.71875 429.976562 247.277344 432.976562 246.898438 435.992188 C 246.519531 439.007812 246.207031 442.046875 245.992188 445.117188 C 245.78125 448.183594 245.609375 451.257812 245.570312 454.371094 C 245.519531 457.480469 245.523438 460.601562 245.640625 463.738281 C 245.753906 466.875 245.921875 470.023438 246.226562 473.183594 C 246.351562 474.765625 246.546875 476.351562 246.710938 477.933594 C 246.921875 479.523438 247.097656 481.105469 247.347656 482.691406 C 247.78125 485.863281 248.382812 489.042969 249.011719 492.214844 C 249.347656 493.804688 249.671875 495.386719 250.050781 496.972656 C 250.40625 498.558594 250.824219 500.140625 251.234375 501.726562 C 251.425781 502.511719 251.664062 503.296875 251.878906 504.09375 C 252.105469 504.878906 252.308594 505.667969 252.550781 506.457031 C 253.027344 508.03125 253.496094 509.601562 254.019531 511.164062 C 255.023438 514.308594 256.175781 517.417969 257.363281 520.515625 C 256.550781 517.367188 255.75 514.234375 255.09375 511.097656 C 254.734375 509.53125 254.453125 507.964844 254.136719 506.40625 C 253.976562 505.625 253.855469 504.84375 253.710938 504.0625 C 253.578125 503.28125 253.425781 502.5 253.3125 501.726562 L 252.945312 499.386719 C 252.820312 498.609375 252.734375 497.828125 252.621094 497.054688 C 252.394531 495.5 252.222656 493.949219 252.042969 492.402344 C 251.71875 489.3125 251.453125 486.234375 251.289062 483.171875 C 251.183594 481.636719 251.152344 480.117188 251.085938 478.59375 C 251.0625 477.070312 251.011719 475.546875 251.023438 474.042969 C 251.015625 471.019531 251.09375 468.015625 251.234375 465.035156 C 251.371094 462.054688 251.617188 459.105469 251.914062 456.179688 C 252.210938 453.25 252.585938 450.347656 253.027344 447.472656 C 253.46875 444.59375 253.976562 441.75 254.558594 438.933594 C 255.140625 436.121094 255.773438 433.324219 256.484375 430.574219 C 257.910156 425.0625 259.5625 419.667969 261.46875 414.421875 C 262.175781 412.460938 262.917969 410.515625 263.695312 408.59375 C 263.734375 409.078125 263.773438 409.566406 263.816406 410.058594 C 264.304688 415.4375 265.210938 420.917969 266.535156 426.386719 C 267.859375 431.851562 269.617188 437.289062 271.625 442.574219 C 273.628906 447.867188 275.882812 453.003906 278.144531 458.027344 C 280.40625 463.050781 282.710938 467.960938 284.90625 472.832031 C 287.101562 477.699219 289.203125 482.535156 291.171875 487.378906 C 293.140625 492.226562 294.945312 497.082031 296.628906 501.957031 C 297.460938 504.394531 298.269531 506.832031 299.027344 509.28125 C 299.222656 509.894531 299.402344 510.507812 299.589844 511.121094 L 299.867188 512.035156 L 300.132812 512.925781 C 300.316406 513.558594 300.515625 514.222656 300.667969 514.785156 L 301.160156 516.558594 C 302.472656 521.382812 303.574219 526.253906 304.535156 531.183594 C 305.492188 536.125 306.34375 541.117188 307.191406 546.214844 C 308.042969 551.304688 308.917969 556.503906 310.011719 561.8125 C 311.105469 567.117188 312.40625 572.527344 314.097656 577.980469 C 315.789062 583.429688 317.859375 588.898438 320.328125 594.261719 C 322.726562 599.488281 325.515625 604.601562 328.570312 609.519531 C 327.460938 609.277344 326.347656 609.023438 325.238281 608.757812 C 318.929688 607.238281 312.621094 605.378906 306.371094 603.210938 C 303.242188 602.121094 300.132812 600.945312 297.042969 599.683594 C 293.949219 598.429688 290.882812 597.078125 287.84375 595.644531 C 281.765625 592.765625 275.804688 589.53125 270.042969 585.894531 C 267.167969 584.078125 264.335938 582.167969 261.570312 580.152344 C 258.808594 578.136719 256.101562 576.027344 253.480469 573.808594 C 248.226562 569.378906 243.292969 564.542969 238.761719 559.34375 C 234.226562 554.148438 230.121094 548.582031 226.480469 542.746094 C 226.027344 542.011719 225.578125 541.28125 225.140625 540.539062 L 224.511719 539.480469 L 223.503906 537.699219 L 223.199219 537.140625 L 222.597656 536.046875 C 222.199219 535.3125 221.792969 534.542969 221.398438 533.789062 C 219.835938 530.742188 218.390625 527.664062 217.097656 524.539062 C 214.507812 518.296875 212.472656 511.917969 211.046875 505.5 C 209.613281 499.078125 208.78125 492.628906 208.496094 486.238281 C 208.222656 479.855469 208.480469 473.527344 209.222656 467.332031 C 209.957031 461.140625 211.160156 455.066406 212.742188 449.15625 C 214.320312 443.246094 216.265625 437.480469 218.542969 431.886719 C 220.808594 426.296875 223.359375 420.847656 226.195312 415.585938 C 229.003906 410.308594 232.097656 405.214844 235.394531 400.261719 C 238.714844 395.335938 242.207031 390.53125 246.066406 386.046875 C 243.835938 387.980469 241.726562 390.058594 239.671875 392.1875 C 237.617188 394.316406 235.632812 396.523438 233.707031 398.792969 C 229.84375 403.3125 226.246094 408.097656 222.875 413.074219 C 219.53125 418.074219 216.417969 423.285156 213.632812 428.746094 C 210.855469 434.203125 208.367188 439.886719 206.277344 445.820312 " fill-opacity="1" fill-rule="nonzero"/><path fill="#f0f8ff" d="M 594.78125 539.582031 C 594.78125 539.582031 520.601562 522.230469 479.753906 504.109375 C 438.902344 485.992188 408.40625 484.550781 408.40625 484.550781 L 372.898438 478.640625 L 344.972656 470.644531 L 371.773438 505.214844 C 371.773438 505.214844 412.949219 544.753906 460.496094 558.101562 C 460.496094 558.101562 401.382812 557.492188 324.234375 481.339844 C 324.234375 481.339844 336.421875 537.078125 409.175781 592.320312 C 409.175781 592.320312 520.867188 645.117188 594.78125 539.582031 " fill-opacity="1" fill-rule="nonzero"/><path fill="#f0f8ff" d="M 363.308594 559.335938 C 368.085938 565.25 373.289062 570.949219 378.964844 576.320312 C 384.648438 581.683594 390.789062 586.722656 397.425781 591.273438 C 404.054688 595.828125 411.171875 599.886719 418.679688 603.328125 C 422.441406 605.035156 426.289062 606.589844 430.226562 607.96875 C 434.152344 609.351562 438.164062 610.550781 442.21875 611.582031 C 446.285156 612.605469 450.394531 613.4375 454.535156 614.109375 C 455.574219 614.277344 456.59375 614.433594 457.652344 614.578125 L 459.25 614.785156 L 460.042969 614.890625 L 460.78125 614.972656 L 462.257812 615.148438 L 463.886719 615.308594 C 464.929688 615.414062 465.976562 615.496094 467.023438 615.582031 C 475.402344 616.222656 483.847656 616.089844 492.160156 615.210938 C 500.472656 614.332031 508.648438 612.6875 516.511719 610.382812 C 524.378906 608.074219 531.953125 605.125 539.140625 601.652344 C 546.332031 598.179688 553.164062 594.214844 559.601562 589.855469 C 562.820312 587.679688 565.953125 585.410156 568.992188 583.050781 C 572.03125 580.699219 574.96875 578.253906 577.832031 575.742188 C 583.542969 570.71875 588.894531 565.394531 593.902344 559.820312 C 596.398438 557.039062 598.828125 554.1875 601.140625 551.253906 C 602.308594 549.789062 603.441406 548.304688 604.558594 546.792969 C 605.113281 546.03125 605.664062 545.269531 606.214844 544.488281 L 607.03125 543.300781 L 607.445312 542.6875 L 607.898438 542 L 617.070312 527.984375 L 598.265625 529.304688 C 592.707031 529.691406 587.167969 529.824219 581.664062 529.617188 C 576.164062 529.40625 570.710938 528.835938 565.324219 527.910156 C 559.945312 526.988281 554.621094 525.679688 549.359375 524.03125 C 544.085938 522.390625 538.859375 520.40625 533.617188 518.210938 C 528.371094 516.007812 523.097656 513.597656 517.710938 511.144531 C 512.335938 508.691406 506.851562 506.171875 501.214844 503.796875 C 495.570312 501.417969 489.777344 499.167969 483.847656 497.15625 C 483.113281 496.902344 482.34375 496.652344 481.578125 496.402344 C 480.792969 496.144531 480.109375 495.9375 479.390625 495.710938 L 478.253906 495.355469 L 477.144531 495.023438 C 476.410156 494.796875 475.675781 494.570312 474.933594 494.355469 C 471.976562 493.476562 468.992188 492.65625 466.003906 491.867188 C 460.035156 490.285156 454 488.902344 447.960938 487.695312 C 444.941406 487.089844 441.917969 486.523438 438.902344 485.992188 C 435.886719 485.464844 432.878906 484.976562 429.875 484.511719 C 423.878906 483.574219 417.941406 482.730469 412.125 481.855469 C 406.300781 480.984375 400.609375 480.027344 395.070312 478.851562 C 389.53125 477.679688 384.15625 476.230469 378.9375 474.429688 C 373.714844 472.636719 368.644531 470.472656 363.722656 467.972656 C 358.792969 465.484375 354.027344 462.632812 349.382812 459.566406 C 347.058594 458.03125 344.777344 456.421875 342.519531 454.777344 C 340.261719 453.132812 338.050781 451.421875 335.847656 449.695312 L 309.703125 429.226562 L 324.832031 456.402344 L 325.199219 457.066406 L 325.542969 457.660156 L 326.230469 458.828125 C 326.691406 459.59375 327.15625 460.351562 327.625 461.105469 C 328.5625 462.605469 329.527344 464.085938 330.507812 465.554688 C 332.464844 468.484375 334.519531 471.355469 336.628906 474.195312 C 338.746094 477.019531 340.917969 479.808594 343.171875 482.546875 C 345.421875 485.289062 347.734375 487.984375 350.113281 490.640625 C 354.875 495.9375 359.890625 501.054688 365.152344 505.957031 C 367.773438 508.417969 370.476562 510.808594 373.230469 513.148438 C 375.984375 515.492188 378.792969 517.78125 381.675781 519.992188 C 384.558594 522.207031 387.472656 524.382812 390.476562 526.453125 C 393.480469 528.53125 396.515625 530.566406 399.628906 532.5 C 402.734375 534.4375 405.878906 536.332031 409.101562 538.101562 C 410.699219 539.003906 412.339844 539.851562 413.953125 540.726562 C 415.605469 541.558594 417.222656 542.414062 418.882812 543.214844 C 422.183594 544.851562 425.566406 546.347656 428.953125 547.804688 C 430.660156 548.511719 432.355469 549.226562 434.082031 549.886719 C 435.792969 550.578125 437.535156 551.199219 439.269531 551.832031 C 440.128906 552.160156 441.015625 552.441406 441.882812 552.75 C 442.757812 553.042969 443.625 553.355469 444.507812 553.636719 C 446.265625 554.199219 448.019531 554.769531 449.796875 555.273438 C 453.335938 556.34375 456.917969 557.246094 460.496094 558.101562 C 457.046875 556.847656 453.605469 555.578125 450.246094 554.179688 C 448.554688 553.507812 446.890625 552.761719 445.21875 552.054688 C 444.378906 551.703125 443.5625 551.304688 442.734375 550.9375 C 441.914062 550.558594 441.078125 550.199219 440.269531 549.800781 L 437.820312 548.632812 C 436.996094 548.246094 436.207031 547.820312 435.394531 547.429688 C 433.773438 546.636719 432.179688 545.789062 430.589844 544.957031 C 427.421875 543.253906 424.304688 541.5 421.246094 539.660156 C 419.699219 538.761719 418.207031 537.800781 416.691406 536.871094 C 415.203125 535.902344 413.699219 534.960938 412.234375 533.957031 C 409.289062 531.996094 406.40625 529.957031 403.574219 527.875 C 400.734375 525.796875 397.988281 523.625 395.277344 521.425781 C 392.574219 519.21875 389.929688 516.953125 387.34375 514.644531 C 384.757812 512.335938 382.230469 509.980469 379.769531 507.574219 C 377.3125 505.164062 374.898438 502.71875 372.558594 500.226562 C 367.882812 495.234375 363.425781 490.089844 359.238281 484.800781 C 357.667969 482.824219 356.132812 480.824219 354.636719 478.8125 C 355.128906 479.089844 355.617188 479.375 356.113281 479.644531 C 361.585938 482.683594 367.355469 485.382812 373.308594 487.652344 C 379.265625 489.929688 385.398438 491.757812 391.5 493.246094 C 397.609375 494.738281 403.695312 495.890625 409.664062 496.957031 C 415.636719 498.019531 421.519531 498.96875 427.3125 500 C 433.109375 501.035156 438.824219 502.136719 444.476562 503.375 C 450.132812 504.609375 455.726562 506.015625 461.277344 507.546875 C 464.050781 508.324219 466.808594 509.128906 469.554688 509.984375 C 470.242188 510.195312 470.925781 510.417969 471.617188 510.632812 L 472.640625 510.964844 L 473.636719 511.285156 C 474.332031 511.515625 475.078125 511.757812 475.699219 511.972656 L 477.660156 512.648438 C 482.984375 514.519531 488.253906 516.621094 493.507812 518.902344 C 498.773438 521.1875 504.039062 523.617188 509.40625 526.113281 C 514.773438 528.609375 520.25 531.144531 525.9375 533.542969 C 531.625 535.929688 537.515625 538.203125 543.636719 540.097656 C 549.742188 542.003906 556.0625 543.550781 562.460938 544.632812 C 568.703125 545.703125 575.011719 546.3125 581.261719 546.53125 C 580.496094 547.457031 579.710938 548.382812 578.917969 549.296875 C 574.417969 554.480469 569.582031 559.441406 564.46875 564.148438 C 561.910156 566.492188 559.277344 568.773438 556.566406 570.972656 C 553.859375 573.175781 551.078125 575.300781 548.222656 577.339844 C 542.507812 581.40625 536.5 585.132812 530.199219 588.394531 C 527.042969 590.023438 523.828125 591.546875 520.542969 592.941406 C 517.253906 594.324219 513.902344 595.597656 510.484375 596.710938 C 503.65625 598.96875 496.582031 600.632812 489.351562 601.675781 C 482.121094 602.71875 474.730469 603.105469 467.308594 602.855469 C 466.375 602.824219 465.453125 602.789062 464.519531 602.730469 L 463.191406 602.65625 L 461.710938 602.53125 L 460.96875 602.472656 L 460.28125 602.410156 L 458.933594 602.285156 C 458.019531 602.191406 457.082031 602.085938 456.152344 601.984375 C 452.449219 601.523438 448.75 600.921875 445.097656 600.152344 C 437.78125 598.613281 430.589844 596.4375 423.660156 593.640625 C 416.730469 590.851562 410.050781 587.453125 403.699219 583.554688 C 397.351562 579.65625 391.320312 575.265625 385.652344 570.496094 C 379.976562 565.734375 374.648438 560.59375 369.652344 555.1875 C 364.65625 549.773438 359.984375 544.105469 355.632812 538.230469 C 351.28125 532.355469 347.207031 526.296875 343.449219 520.085938 C 339.65625 513.886719 336.183594 507.53125 332.949219 501.074219 C 329.75 494.609375 326.75 488.050781 324.234375 481.339844 C 325.046875 484.785156 326.058594 488.207031 327.144531 491.613281 C 328.234375 495.015625 329.425781 498.402344 330.707031 501.765625 C 333.253906 508.496094 336.179688 515.144531 339.40625 521.695312 C 342.671875 528.238281 346.242188 534.6875 350.21875 540.972656 C 354.199219 547.261719 358.535156 553.414062 363.308594 559.335938 " fill-opacity="1" fill-rule="nonzero"/><path fill="#f0f8ff" d="M 640.941406 240.261719 C 640.941406 240.261719 588.464844 301.542969 551.234375 329.699219 C 514.007812 357.851562 497.972656 386.761719 497.972656 386.761719 L 475.1875 417.664062 L 454.007812 439.773438 L 500.507812 436.121094 C 500.507812 436.121094 558.734375 421.632812 594.53125 383.816406 C 594.53125 383.816406 565.574219 441.277344 454.46875 467.0625 C 454.46875 467.0625 514.546875 491.535156 603.203125 456.398438 C 603.203125 456.398438 708.164062 381.546875 640.941406 240.261719 " fill-opacity="1" fill-rule="nonzero"/><path fill="#f0f8ff" d="M 549.101562 479.75 C 557.152344 478.945312 565.191406 477.566406 573.140625 475.519531 C 581.085938 473.457031 588.933594 470.734375 596.546875 467.21875 C 604.164062 463.703125 611.527344 459.382812 618.46875 454.277344 C 621.9375 451.722656 625.300781 448.964844 628.523438 446.011719 C 631.761719 443.070312 634.851562 439.929688 637.796875 436.628906 C 640.742188 433.324219 643.527344 429.839844 646.167969 426.230469 C 646.828125 425.316406 647.472656 424.421875 648.117188 423.480469 L 649.09375 422.054688 L 649.566406 421.34375 L 650.007812 420.671875 L 650.882812 419.34375 L 651.816406 417.855469 C 652.425781 416.898438 653.003906 415.933594 653.589844 414.960938 C 658.234375 407.179688 662.164062 398.828125 665.296875 390.113281 C 668.421875 381.402344 670.75 372.332031 672.28125 363.121094 C 673.804688 353.910156 674.574219 344.574219 674.644531 335.273438 C 674.714844 325.960938 674.132812 316.6875 672.976562 307.535156 C 672.40625 302.960938 671.695312 298.414062 670.863281 293.902344 C 670.027344 289.386719 669.066406 284.914062 667.992188 280.476562 C 665.84375 271.597656 663.234375 262.886719 660.210938 254.347656 C 658.699219 250.074219 657.097656 245.84375 655.355469 241.664062 C 654.480469 239.570312 653.582031 237.484375 652.644531 235.40625 C 652.175781 234.363281 651.699219 233.324219 651.199219 232.28125 L 650.441406 230.699219 L 650.039062 229.902344 L 649.582031 229.003906 L 640.351562 210.875 L 632.609375 230.140625 C 630.324219 235.835938 627.792969 241.351562 624.953125 246.597656 C 622.109375 251.847656 618.933594 256.808594 615.453125 261.472656 C 611.96875 266.144531 608.148438 270.492188 604.015625 274.570312 C 599.890625 278.664062 595.457031 282.480469 590.796875 286.1875 C 586.136719 289.878906 581.261719 293.46875 576.289062 297.136719 C 571.324219 300.792969 566.246094 304.515625 561.226562 308.492188 C 556.207031 312.457031 551.234375 316.660156 546.433594 321.152344 C 545.835938 321.703125 545.21875 322.292969 544.613281 322.878906 C 543.984375 323.480469 543.457031 324.011719 542.890625 324.5625 L 542 325.445312 L 541.140625 326.308594 C 540.574219 326.890625 539.996094 327.460938 539.433594 328.046875 C 537.15625 330.367188 534.929688 332.746094 532.730469 335.15625 C 528.328125 339.976562 524.085938 344.972656 520.011719 350.097656 C 517.972656 352.660156 515.972656 355.246094 514.007812 357.851562 C 512.046875 360.457031 510.128906 363.09375 508.238281 365.71875 C 504.449219 370.980469 500.78125 376.242188 497.140625 381.367188 C 493.492188 386.496094 489.832031 391.445312 486.027344 396.097656 C 482.226562 400.75 478.242188 405.070312 473.984375 409 C 469.734375 412.945312 465.195312 416.492188 460.402344 419.675781 C 455.613281 422.878906 450.554688 425.683594 445.339844 428.222656 C 442.734375 429.496094 440.078125 430.675781 437.390625 431.816406 C 434.707031 432.953125 431.980469 433.996094 429.242188 435.027344 L 396.785156 447.25 L 430.492188 450.191406 L 431.308594 450.261719 L 432.054688 450.320312 L 433.511719 450.40625 C 434.484375 450.460938 435.441406 450.492188 436.402344 450.527344 C 438.3125 450.585938 440.21875 450.617188 442.109375 450.609375 C 445.90625 450.609375 449.6875 450.476562 453.457031 450.261719 C 457.21875 450.035156 460.980469 449.730469 464.726562 449.3125 C 468.472656 448.902344 472.207031 448.398438 475.929688 447.800781 C 483.367188 446.597656 490.75 445.035156 498.046875 443.089844 C 501.699219 442.121094 505.324219 441.042969 508.925781 439.875 C 512.519531 438.707031 516.097656 437.457031 519.632812 436.078125 C 523.167969 434.699219 526.683594 433.269531 530.140625 431.6875 C 533.605469 430.097656 537.042969 428.453125 540.417969 426.671875 C 543.796875 424.898438 547.144531 423.058594 550.40625 421.054688 C 552.058594 420.082031 553.667969 419.035156 555.289062 418.015625 C 556.890625 416.953125 558.507812 415.925781 560.082031 414.816406 C 563.257812 412.660156 566.335938 410.332031 569.375 407.964844 C 570.882812 406.753906 572.394531 405.558594 573.863281 404.304688 C 575.359375 403.082031 576.800781 401.78125 578.246094 400.5 C 578.976562 399.863281 579.679688 399.1875 580.394531 398.53125 C 581.101562 397.867188 581.820312 397.230469 582.515625 396.546875 C 583.910156 395.191406 585.304688 393.84375 586.648438 392.4375 C 589.386719 389.675781 591.984375 386.757812 594.53125 383.816406 C 591.652344 386.371094 588.777344 388.90625 585.796875 391.285156 C 584.332031 392.507812 582.808594 393.640625 581.316406 394.816406 C 580.570312 395.40625 579.792969 395.949219 579.039062 396.519531 C 578.277344 397.074219 577.53125 397.660156 576.746094 398.191406 L 574.4375 399.824219 C 573.667969 400.375 572.875 400.875 572.101562 401.414062 C 570.554688 402.480469 568.96875 403.488281 567.390625 404.5 C 564.21875 406.488281 561.011719 408.398438 557.753906 410.191406 C 556.144531 411.109375 554.488281 411.953125 552.855469 412.824219 C 551.195312 413.648438 549.558594 414.507812 547.882812 415.285156 C 544.5625 416.886719 541.199219 418.375 537.804688 419.789062 C 534.425781 421.207031 530.992188 422.480469 527.554688 423.695312 C 524.109375 424.90625 520.636719 426.011719 517.152344 427.035156 C 513.667969 428.0625 510.160156 428.992188 506.632812 429.832031 C 503.105469 430.667969 499.578125 431.429688 496.023438 432.089844 C 488.921875 433.410156 481.78125 434.410156 474.621094 435.058594 C 471.945312 435.304688 469.269531 435.5 466.589844 435.648438 C 467.101562 435.355469 467.609375 435.054688 468.113281 434.753906 C 473.6875 431.378906 479.082031 427.492188 484.15625 423.148438 C 489.226562 418.804688 493.945312 413.992188 498.320312 408.988281 C 502.703125 403.984375 506.742188 398.78125 510.644531 393.636719 C 514.546875 388.476562 518.289062 383.34375 522.078125 378.347656 C 525.863281 373.347656 529.679688 368.476562 533.597656 363.746094 C 537.511719 359.015625 541.5625 354.460938 545.71875 350.035156 C 547.804688 347.828125 549.910156 345.644531 552.0625 343.519531 C 552.597656 342.984375 553.140625 342.457031 553.679688 341.929688 L 554.488281 341.136719 L 555.285156 340.378906 C 555.84375 339.839844 556.433594 339.273438 556.941406 338.800781 L 558.542969 337.328125 C 562.914062 333.332031 567.484375 329.554688 572.230469 325.894531 C 576.980469 322.234375 581.871094 318.664062 586.875 315.039062 C 591.875 311.421875 596.976562 307.714844 602.03125 303.710938 C 607.085938 299.703125 612.121094 295.421875 616.90625 290.675781 C 621.691406 285.9375 626.226562 280.757812 630.347656 275.203125 C 634.382812 269.792969 638 264.015625 641.21875 258.035156 C 641.75 259.394531 642.277344 260.761719 642.78125 262.136719 C 645.664062 269.933594 648.175781 277.902344 650.300781 285.976562 C 651.355469 290.019531 652.3125 294.082031 653.148438 298.175781 C 653.996094 302.261719 654.730469 306.378906 655.339844 310.5 C 656.554688 318.753906 657.292969 327.066406 657.449219 335.363281 C 657.519531 339.515625 657.457031 343.660156 657.234375 347.789062 C 657.011719 351.90625 656.640625 356.019531 656.085938 360.09375 C 655 368.25 653.230469 376.269531 650.777344 384.023438 C 648.320312 391.785156 645.15625 399.269531 641.34375 406.375 C 640.867188 407.261719 640.382812 408.148438 639.886719 409.019531 L 639.171875 410.273438 L 638.347656 411.644531 L 637.9375 412.335938 L 637.542969 412.957031 L 636.773438 414.203125 C 636.246094 415.03125 635.691406 415.886719 635.140625 416.722656 C 632.917969 420.050781 630.566406 423.273438 628.054688 426.355469 C 623.046875 432.507812 617.484375 438.121094 611.4375 443.078125 C 605.398438 448.042969 598.886719 452.355469 592.046875 456.039062 C 585.203125 459.695312 578.046875 462.734375 570.679688 465.171875 C 563.324219 467.617188 555.761719 469.46875 548.105469 470.828125 C 540.445312 472.191406 532.683594 473.0625 524.878906 473.480469 C 517.078125 473.90625 509.230469 473.9375 501.382812 473.5625 C 493.53125 473.226562 485.683594 472.472656 477.851562 471.417969 C 470.023438 470.332031 462.203125 468.984375 454.46875 467.0625 C 458.207031 468.519531 462.023438 469.765625 465.855469 470.921875 C 469.6875 472.078125 473.554688 473.121094 477.445312 474.066406 C 485.214844 475.976562 493.085938 477.445312 501.011719 478.570312 C 508.9375 479.640625 516.933594 480.359375 524.953125 480.574219 C 532.984375 480.78125 541.046875 480.554688 549.101562 479.75 " fill-opacity="1" fill-rule="nonzero"/></svg>