<svg xmlns="http://www.w3.org/2000/svg" xmlns:xlink="http://www.w3.org/1999/xlink" width="300" zoomAndPan="magnify" viewBox="0 0 224.87999 56.249996" height="75" preserveAspectRatio="xMidYMid meet" version="1.0"><defs><g/><clipPath id="c724d4d34f"><path d="M 1.421875 0 L 223.339844 0 L 223.339844 55.511719 L 1.421875 55.511719 Z M 1.421875 0 " clip-rule="nonzero"/></clipPath><clipPath id="b8cb7ffe2f"><path d="M 5 1.277344 L 59.738281 1.277344 L 59.738281 53.085938 L 5 53.085938 Z M 5 1.277344 " clip-rule="nonzero"/></clipPath><clipPath id="c29365cccb"><path d="M 14.246094 9.820312 L 33.488281 9.820312 L 33.488281 44.605469 L 14.246094 44.605469 Z M 14.246094 9.820312 " clip-rule="nonzero"/></clipPath><clipPath id="09c0e0fa07"><path d="M 32.371094 9.820312 L 51.613281 9.820312 L 51.613281 44.605469 L 32.371094 44.605469 Z M 32.371094 9.820312 " clip-rule="nonzero"/></clipPath></defs><g clip-path="url(#c724d4d34f)"><path fill="#ffffff" d="M 1.421875 0 L 223.460938 0 L 223.460938 55.511719 L 1.421875 55.511719 Z M 1.421875 0 " fill-opacity="1" fill-rule="nonzero"/><path fill="#d9d9d9" d="M 1.421875 0 L 223.460938 0 L 223.460938 55.511719 L 1.421875 55.511719 Z M 1.421875 0 " fill-opacity="1" fill-rule="nonzero"/></g><g clip-path="url(#b8cb7ffe2f)"><path fill="#0847f7" d="M 5 27.28125 C 5 12.917969 17.25 1.277344 32.367188 1.277344 C 47.480469 1.277344 59.734375 12.917969 59.734375 27.28125 C 59.734375 41.640625 47.480469 53.285156 32.367188 53.285156 C 17.25 53.285156 5 41.640625 5 27.28125 Z M 5 27.28125 " fill-opacity="1" fill-rule="evenodd"/></g><g clip-path="url(#c29365cccb)"><path fill="#f0f8ff" d="M 65.984375 44.003906 C 65.792969 44.15625 65.710938 44.382812 65.816406 44.503906 C 65.910156 44.636719 66.152344 44.628906 66.351562 44.503906 C 70.726562 41.148438 73.628906 36.230469 74.484375 30.785156 C 75.335938 25.335938 74.058594 19.769531 70.917969 15.238281 C 73.929688 19.757812 75.09375 25.257812 74.171875 30.601562 C 73.25 35.957031 70.3125 40.746094 65.96875 43.996094 Z M 69.046875 35.253906 C 68.203125 36.957031 68.222656 39.074219 69.523438 40.203125 C 71.023438 38.285156 70.578125 35.960938 69.035156 35.253906 Z M 70.3125 31.980469 C 69.828125 33.789062 70.3125 35.820312 71.789062 36.648438 C 72.851562 34.542969 71.953125 32.371094 70.300781 31.980469 Z M 70.90625 28.558594 C 70.78125 30.417969 71.613281 32.292969 73.273438 32.800781 C 73.882812 30.558594 72.589844 28.621094 70.902344 28.558594 Z M 70.820312 25.09375 C 71.066406 26.9375 72.28125 28.632812 73.96875 28.785156 C 74.132812 26.472656 72.484375 24.84375 70.816406 25.09375 Z M 70.0625 21.695312 C 70.664062 23.472656 72.183594 24.867188 73.867188 24.714844 C 73.585938 22.410156 71.640625 21.097656 70.058594 21.695312 Z M 68.652344 18.46875 C 69.605469 20.125 71.359375 21.210938 72.996094 20.726562 C 72.25 18.476562 70.0625 17.570312 68.628906 18.476562 Z M 66.527344 15.542969 C 67.84375 17.007812 69.789062 17.742188 71.300781 16.957031 C 70.121094 14.886719 67.753906 14.378906 66.527344 15.542969 Z M 72.015625 10.699219 C 70.78125 11.867188 71.15625 14.292969 72.3125 16.355469 C 73.8125 15.59375 73.945312 12.902344 72.015625 10.699219 Z M 74.988281 14.839844 C 73.574219 15.742188 73.371094 18.128906 74.089844 20.359375 C 75.703125 19.894531 76.394531 17.316406 74.988281 14.839844 Z M 77.003906 19.398438 C 75.40625 19.984375 74.761719 22.261719 75.019531 24.574219 C 76.703125 24.433594 77.878906 22.058594 77.003906 19.398438 Z M 78.078125 24.183594 C 76.386719 24.449219 75.3125 26.539062 75.128906 28.863281 C 76.777344 29.089844 78.410156 26.964844 78.078125 24.199219 Z M 78.191406 29.089844 C 76.488281 29.015625 75.03125 30.859375 74.394531 33.105469 C 76.003906 33.636719 77.988281 31.875 78.191406 29.089844 Z M 77.355469 33.9375 C 75.691406 33.542969 73.902344 35.074219 72.820312 37.179688 C 74.296875 38.007812 76.613281 36.644531 77.355469 33.9375 Z M 75.5625 38.570312 C 74.015625 37.867188 71.953125 39.019531 70.425781 40.910156 C 71.707031 42.019531 74.292969 41.109375 75.5625 38.570312 Z M 65.808594 9.992188 C 66.632812 12.039062 68.277344 13.648438 70.339844 14.433594 C 70.335938 12.328125 68.035156 10.050781 65.808594 9.992188 Z M 26.773438 43.996094 C 22.429688 40.746094 19.496094 35.957031 18.574219 30.601562 C 17.652344 25.257812 18.816406 19.757812 21.824219 15.238281 C 18.699219 19.769531 17.425781 25.324219 18.277344 30.765625 C 19.128906 36.203125 22.035156 41.109375 26.394531 44.472656 C 26.59375 44.625 26.832031 44.640625 26.933594 44.472656 C 27.03125 44.300781 26.933594 44.117188 26.765625 43.96875 Z M 23.242188 40.1875 C 24.539062 39.074219 24.554688 36.957031 23.710938 35.238281 C 22.148438 35.960938 21.699219 38.285156 23.214844 40.1875 Z M 20.972656 36.648438 C 22.464844 35.820312 22.933594 33.820312 22.445312 31.980469 C 20.773438 32.371094 19.875 34.542969 20.941406 36.648438 Z M 19.484375 32.808594 C 21.113281 32.292969 21.984375 30.417969 21.851562 28.5625 C 20.132812 28.621094 18.839844 30.558594 19.484375 32.808594 Z M 18.777344 28.785156 C 20.46875 28.601562 21.683594 26.9375 21.925781 25.09375 C 20.242188 24.84375 18.59375 26.472656 18.777344 28.785156 Z M 18.863281 24.714844 C 20.558594 24.867188 22.066406 23.472656 22.667969 21.695312 C 21.085938 21.097656 19.140625 22.410156 18.863281 24.714844 Z M 19.746094 20.726562 C 21.390625 21.210938 23.140625 20.125 24.097656 18.46875 C 22.660156 17.570312 20.472656 18.480469 19.746094 20.726562 Z M 21.421875 16.9375 C 22.9375 17.730469 24.882812 16.996094 26.199219 15.519531 C 24.972656 14.378906 22.605469 14.886719 21.421875 16.949219 Z M 20.410156 16.355469 C 21.570312 14.28125 21.949219 11.863281 20.710938 10.699219 C 18.777344 12.902344 18.914062 15.59375 20.410156 16.355469 Z M 18.664062 20.328125 C 19.371094 18.101562 19.21875 15.710938 17.765625 14.8125 C 16.332031 17.316406 17.015625 19.894531 18.636719 20.359375 Z M 17.734375 24.574219 C 17.992188 22.261719 17.347656 19.984375 15.75 19.398438 C 14.84375 22.058594 16.019531 24.433594 17.703125 24.574219 Z M 17.625 28.875 C 17.4375 26.558594 16.367188 24.460938 14.675781 24.199219 C 14.3125 26.964844 15.945312 29.089844 17.597656 28.875 Z M 18.332031 33.117188 C 17.691406 30.867188 16.210938 29.03125 14.535156 29.101562 C 14.738281 31.875 16.722656 33.636719 18.332031 33.117188 Z M 19.902344 37.179688 C 18.816406 35.054688 17.03125 33.542969 15.371094 33.941406 C 16.109375 36.644531 18.421875 38.007812 19.902344 37.179688 Z M 22.316406 40.917969 C 20.773438 38.988281 18.710938 37.855469 17.15625 38.570312 C 18.433594 41.113281 21.023438 42.019531 22.316406 40.917969 Z M 26.921875 9.992188 C 26.097656 12.039062 24.453125 13.648438 22.382812 14.433594 C 22.390625 12.328125 24.691406 10.050781 26.921875 9.992188 " fill-opacity="1" fill-rule="nonzero"/></g><g clip-path="url(#09c0e0fa07)"><path fill="#f0f8ff" d="M 0.0117188 44.003906 C 0.207031 44.15625 0.285156 44.382812 0.183594 44.503906 C 0.0859375 44.636719 -0.15625 44.628906 -0.355469 44.503906 C -4.726562 41.148438 -7.632812 36.230469 -8.488281 30.785156 C -9.339844 25.335938 -8.0625 19.769531 -4.921875 15.238281 C -7.933594 19.757812 -9.097656 25.257812 -8.175781 30.601562 C -7.253906 35.957031 -4.316406 40.746094 0.03125 43.996094 Z M -3.050781 35.253906 C -2.207031 36.957031 -2.226562 39.074219 -3.523438 40.203125 C -5.027344 38.285156 -4.582031 35.960938 -3.039062 35.253906 Z M -4.316406 31.980469 C -3.828125 33.789062 -4.316406 35.820312 -5.789062 36.648438 C -6.851562 34.542969 -5.953125 32.371094 -4.304688 31.980469 Z M -4.910156 28.558594 C -4.785156 30.417969 -5.617188 32.292969 -7.277344 32.800781 C -7.886719 30.558594 -6.59375 28.621094 -4.902344 28.558594 Z M -4.824219 25.09375 C -5.066406 26.9375 -6.28125 28.632812 -7.972656 28.785156 C -8.136719 26.472656 -6.484375 24.84375 -4.820312 25.09375 Z M -4.066406 21.695312 C -4.667969 23.472656 -6.1875 24.867188 -7.871094 24.714844 C -7.585938 22.410156 -5.644531 21.097656 -4.0625 21.695312 Z M -2.652344 18.46875 C -3.609375 20.125 -5.359375 21.210938 -7 20.726562 C -6.253906 18.476562 -4.066406 17.570312 -2.632812 18.476562 Z M -0.53125 15.542969 C -1.847656 17.007812 -3.789062 17.742188 -5.304688 16.957031 C -4.125 14.886719 -1.753906 14.378906 -0.53125 15.542969 Z M -6.015625 10.699219 C -4.785156 11.867188 -5.15625 14.292969 -6.316406 16.355469 C -7.8125 15.59375 -7.949219 12.902344 -6.015625 10.699219 Z M -8.988281 14.839844 C -7.578125 15.742188 -7.375 18.128906 -8.089844 20.359375 C -9.707031 19.894531 -10.398438 17.316406 -8.988281 14.839844 Z M -11.007812 19.398438 C -9.40625 19.984375 -8.761719 22.261719 -9.023438 24.574219 C -10.707031 24.433594 -11.882812 22.058594 -11.007812 19.398438 Z M -12.082031 24.183594 C -10.390625 24.449219 -9.316406 26.539062 -9.128906 28.863281 C -10.78125 29.089844 -12.414062 26.964844 -12.082031 24.199219 Z M -12.195312 29.089844 C -10.492188 29.015625 -9.035156 30.859375 -8.394531 33.105469 C -10.007812 33.636719 -11.992188 31.875 -12.195312 29.089844 Z M -11.355469 33.9375 C -9.695312 33.542969 -7.90625 35.074219 -6.824219 37.179688 C -8.300781 38.007812 -10.617188 36.644531 -11.355469 33.9375 Z M -9.566406 38.570312 C -8.015625 37.867188 -5.953125 39.019531 -4.429688 40.910156 C -5.710938 42.019531 -8.292969 41.109375 -9.566406 38.570312 Z M 0.1875 9.992188 C -0.636719 12.039062 -2.28125 13.648438 -4.34375 14.433594 C -4.339844 12.328125 -2.039062 10.050781 0.1875 9.992188 Z M 39.222656 43.996094 C 43.566406 40.746094 46.5 35.957031 47.421875 30.601562 C 48.34375 25.257812 47.179688 19.757812 44.171875 15.238281 C 47.296875 19.769531 48.570312 25.324219 47.722656 30.765625 C 46.867188 36.203125 43.964844 41.109375 39.601562 44.472656 C 39.402344 44.625 39.164062 44.640625 39.0625 44.472656 C 38.96875 44.300781 39.0625 44.117188 39.234375 43.96875 Z M 42.753906 40.1875 C 41.460938 39.074219 41.441406 36.957031 42.285156 35.238281 C 43.851562 35.960938 44.296875 38.285156 42.78125 40.1875 Z M 45.027344 36.648438 C 43.535156 35.820312 43.066406 33.820312 43.550781 31.980469 C 45.222656 32.371094 46.121094 34.542969 45.054688 36.648438 Z M 46.511719 32.808594 C 44.886719 32.292969 44.015625 30.417969 44.144531 28.5625 C 45.863281 28.621094 47.15625 30.558594 46.511719 32.808594 Z M 47.21875 28.785156 C 45.527344 28.601562 44.3125 26.9375 44.070312 25.09375 C 45.753906 24.84375 47.40625 26.472656 47.21875 28.785156 Z M 47.132812 24.714844 C 45.4375 24.867188 43.929688 23.472656 43.332031 21.695312 C 44.914062 21.097656 46.855469 22.410156 47.132812 24.714844 Z M 46.253906 20.726562 C 44.609375 21.210938 42.855469 20.125 41.902344 18.46875 C 43.335938 17.570312 45.523438 18.480469 46.253906 20.726562 Z M 44.574219 16.9375 C 43.058594 17.730469 41.117188 16.996094 39.796875 15.519531 C 41.023438 14.378906 43.394531 14.886719 44.574219 16.949219 Z M 45.585938 16.355469 C 44.425781 14.28125 44.046875 11.863281 45.285156 10.699219 C 47.21875 12.902344 47.082031 15.59375 45.585938 16.355469 Z M 47.332031 20.328125 C 46.625 18.101562 46.777344 15.710938 48.230469 14.8125 C 49.664062 17.316406 48.980469 19.894531 47.359375 20.359375 Z M 48.265625 24.574219 C 48.003906 22.261719 48.648438 19.984375 50.246094 19.398438 C 51.152344 22.058594 49.976562 24.433594 48.292969 24.574219 Z M 48.371094 28.875 C 48.558594 26.558594 49.632812 24.460938 51.320312 24.199219 C 51.683594 26.964844 50.050781 29.089844 48.398438 28.875 Z M 47.664062 33.117188 C 48.304688 30.867188 49.785156 29.03125 51.464844 29.101562 C 51.257812 31.875 49.277344 33.636719 47.664062 33.117188 Z M 46.09375 37.179688 C 47.179688 35.054688 48.964844 33.542969 50.625 33.941406 C 49.886719 36.644531 47.574219 38.007812 46.09375 37.179688 Z M 43.679688 40.917969 C 45.222656 38.988281 47.285156 37.855469 48.839844 38.570312 C 47.5625 41.113281 44.976562 42.019531 43.679688 40.917969 Z M 39.074219 9.992188 C 39.898438 12.039062 41.542969 13.648438 43.613281 14.433594 C 43.609375 12.328125 41.308594 10.050781 39.074219 9.992188 " fill-opacity="1" fill-rule="nonzero"/></g><g fill="#0847f7" fill-opacity="1"><g transform="translate(89.468626, 31.840304)"><g><path d="M 28.46875 0 L 19.5625 0 L 9.46875 -12.078125 L 9.46875 0 L 1.984375 0 L 1.984375 -17.84375 L 10.890625 -17.84375 L 20.984375 -5.828125 L 20.984375 -17.84375 L 28.46875 -17.84375 Z M 28.46875 0 "/></g></g></g><g fill="#0847f7" fill-opacity="1"><g transform="translate(118.888195, 31.840304)"><g><path d="M 17.40625 0 L 9.921875 0 L 9.921875 -8.453125 L 0.1875 -17.84375 L 8.484375 -17.84375 L 13.671875 -12.515625 L 18.84375 -17.84375 L 27.140625 -17.84375 L 17.40625 -8.453125 Z M 17.40625 0 "/></g></g></g><g fill="#0847f7" fill-opacity="1"><g transform="translate(145.175716, 31.840304)"><g><path d="M 31.28125 0 L 21.5625 0 L 13.90625 -5.96875 L 9.46875 -2.953125 L 9.46875 0 L 1.984375 0 L 1.984375 -17.84375 L 9.46875 -17.84375 L 9.46875 -9.59375 L 21.484375 -17.84375 L 31.28125 -17.84375 L 18.5 -9.109375 Z M 31.28125 0 "/></g></g></g><g fill="#0847f7" fill-opacity="1"><g transform="translate(175.614445, 31.840304)"><g><path d="M 23.484375 0 L 1.984375 0 L 1.984375 -17.84375 L 22.5 -17.84375 L 22.5 -13.4375 L 9.46875 -13.4375 L 9.46875 -10.625 L 20.484375 -10.625 L 20.484375 -7.203125 L 9.46875 -7.203125 L 9.46875 -4.421875 L 23.484375 -4.421875 Z M 23.484375 0 "/></g></g></g><g fill="#000000" fill-opacity="1"><g transform="translate(109.874783, 44.186887)"><g><path d="M 3.0625 0 L 0.640625 0 L 0.640625 -5.765625 L 7.265625 -5.765625 L 7.265625 -4.34375 L 3.0625 -4.34375 L 3.0625 -3.4375 L 6.625 -3.4375 L 6.625 -2.328125 L 3.0625 -2.328125 Z M 3.0625 0 "/></g></g></g><g fill="#000000" fill-opacity="1"><g transform="translate(119.113016, 44.186887)"><g><path d="M 3.0625 0 L 0.640625 0 L 0.640625 -5.765625 L 3.0625 -5.765625 Z M 3.0625 0 "/></g></g></g><g fill="#000000" fill-opacity="1"><g transform="translate(124.464809, 44.186887)"><g><path d="M 9.203125 0 L 6.328125 0 L 3.0625 -3.90625 L 3.0625 0 L 0.640625 0 L 0.640625 -5.765625 L 3.515625 -5.765625 L 6.78125 -1.890625 L 6.78125 -5.765625 L 9.203125 -5.765625 Z M 9.203125 0 "/></g></g></g><g fill="#000000" fill-opacity="1"><g transform="translate(135.95372, 44.186887)"><g><path d="M 9.6875 0 L 7.234375 0 L 6.6875 -0.9375 L 3.0625 -0.9375 L 2.515625 0 L 0.0625 0 L 3.75 -5.765625 L 6 -5.765625 Z M 5.875 -2.375 L 4.875 -4.125 L 3.875 -2.375 Z M 5.875 -2.375 "/></g></g></g><g fill="#000000" fill-opacity="1"><g transform="translate(147.346177, 44.186887)"><g><path d="M 9.203125 0 L 6.328125 0 L 3.0625 -3.90625 L 3.0625 0 L 0.640625 0 L 0.640625 -5.765625 L 3.515625 -5.765625 L 6.78125 -1.890625 L 6.78125 -5.765625 L 9.203125 -5.765625 Z M 9.203125 0 "/></g></g></g><g fill="#000000" fill-opacity="1"><g transform="translate(158.83509, 44.186887)"><g><path d="M 4.359375 0.125 C 2.929688 0.125 1.882812 -0.164062 1.21875 -0.75 C 0.625 -1.269531 0.328125 -1.976562 0.328125 -2.875 C 0.328125 -3.769531 0.625 -4.476562 1.21875 -5 C 1.882812 -5.582031 2.929688 -5.875 4.359375 -5.875 C 5.191406 -5.875 5.878906 -5.78125 6.421875 -5.59375 C 6.972656 -5.40625 7.398438 -5.144531 7.703125 -4.8125 C 8.015625 -4.476562 8.21875 -4.097656 8.3125 -3.671875 L 5.765625 -3.671875 C 5.515625 -4.117188 5.046875 -4.34375 4.359375 -4.34375 C 3.773438 -4.34375 3.347656 -4.171875 3.078125 -3.828125 C 2.847656 -3.554688 2.734375 -3.238281 2.734375 -2.875 C 2.734375 -2.507812 2.847656 -2.191406 3.078125 -1.921875 C 3.347656 -1.585938 3.773438 -1.421875 4.359375 -1.421875 C 5.046875 -1.421875 5.515625 -1.644531 5.765625 -2.09375 L 8.3125 -2.09375 C 8.21875 -1.664062 8.015625 -1.285156 7.703125 -0.953125 C 7.398438 -0.617188 6.972656 -0.351562 6.421875 -0.15625 C 5.878906 0.03125 5.191406 0.125 4.359375 0.125 Z M 4.359375 0.125 "/></g></g></g><g fill="#000000" fill-opacity="1"><g transform="translate(169.114264, 44.186887)"><g><path d="M 7.59375 0 L 0.640625 0 L 0.640625 -5.765625 L 7.265625 -5.765625 L 7.265625 -4.34375 L 3.0625 -4.34375 L 3.0625 -3.4375 L 6.625 -3.4375 L 6.625 -2.328125 L 3.0625 -2.328125 L 3.0625 -1.421875 L 7.59375 -1.421875 Z M 7.59375 0 "/></g></g></g></svg>