<svg xmlns="http://www.w3.org/2000/svg" xmlns:xlink="http://www.w3.org/1999/xlink" width="500" zoomAndPan="magnify" viewBox="0 0 375 374.999991" height="500" preserveAspectRatio="xMidYMid meet" version="1.0"><defs><clipPath id="f495baa03d"><path d="M 187.5 0 C 83.945312 0 0 83.945312 0 187.5 C 0 291.054688 83.945312 375 187.5 375 C 291.054688 375 375 291.054688 375 187.5 C 375 83.945312 291.054688 0 187.5 0 Z M 187.5 0 " clip-rule="nonzero"/></clipPath><clipPath id="0b4ca43c5e"><path d="M 66 39 L 195.574219 39 L 195.574219 337 L 66 337 Z M 66 39 " clip-rule="nonzero"/></clipPath><clipPath id="f37a2475d6"><path d="M 187.5 39 L 317 39 L 317 337 L 187.5 337 Z M 187.5 39 " clip-rule="nonzero"/></clipPath></defs><g clip-path="url(#f495baa03d)"><rect x="-37.5" width="450" fill="#250ee4" y="-37.499999" height="449.999989" fill-opacity="1"/></g><g clip-path="url(#0b4ca43c5e)"><path fill="#f0f8ff" d="M 508.695312 331.113281 C 507.046875 332.421875 506.367188 334.363281 507.238281 335.433594 C 508.0625 336.546875 510.152344 336.5 511.851562 335.433594 C 549.417969 306.601562 574.367188 264.375 581.695312 217.582031 C 589.023438 170.792969 578.054688 122.984375 551.070312 84.058594 C 576.9375 122.886719 586.9375 170.113281 579.027344 216.03125 C 571.113281 261.996094 545.875 303.15625 508.550781 331.0625 Z M 535.003906 255.976562 C 527.769531 270.585938 527.917969 288.789062 539.078125 298.496094 C 551.992188 281.992188 548.15625 262.042969 534.90625 255.976562 Z M 545.875 227.875 C 541.699219 243.40625 545.875 260.832031 558.542969 267.964844 C 567.667969 249.859375 559.949219 231.222656 545.777344 227.875 Z M 550.972656 198.460938 C 549.902344 214.429688 557.039062 230.542969 571.308594 234.910156 C 576.550781 215.640625 565.4375 198.992188 550.921875 198.460938 Z M 550.242188 168.707031 C 552.332031 184.53125 562.765625 199.089844 577.277344 200.402344 C 578.6875 180.550781 564.511719 166.570312 550.195312 168.707031 Z M 543.738281 139.535156 C 548.882812 154.777344 561.941406 166.765625 576.40625 165.453125 C 573.976562 145.652344 557.28125 134.390625 543.691406 139.535156 Z M 531.605469 111.820312 C 539.808594 126.042969 554.855469 135.359375 568.929688 131.1875 C 562.523438 111.867188 543.738281 104.101562 531.410156 111.867188 Z M 513.355469 86.679688 C 524.664062 99.25 541.359375 105.558594 554.367188 98.8125 C 544.226562 81.046875 523.886719 76.679688 513.355469 86.679688 Z M 560.484375 45.082031 C 549.902344 55.128906 553.105469 75.953125 563.058594 93.667969 C 575.917969 87.113281 577.085938 64.011719 560.484375 45.082031 Z M 586.015625 80.660156 C 573.882812 88.375 572.132812 108.910156 578.296875 128.03125 C 592.179688 124.050781 598.101562 101.917969 586.015625 80.660156 Z M 603.34375 119.78125 C 589.605469 124.828125 584.074219 144.390625 586.308594 164.242188 C 600.769531 163.027344 610.867188 142.640625 603.34375 119.78125 Z M 612.566406 160.890625 C 598.050781 163.171875 588.832031 181.132812 587.230469 201.082031 C 601.402344 203.023438 615.429688 184.773438 612.566406 161.039062 Z M 613.535156 203.023438 C 598.925781 202.390625 586.402344 218.214844 580.917969 237.53125 C 594.753906 242.09375 611.789062 226.953125 613.535156 203.023438 Z M 606.351562 244.667969 C 592.082031 241.269531 576.695312 254.421875 567.425781 272.527344 C 580.09375 279.613281 599.996094 267.917969 606.351562 244.667969 Z M 590.964844 284.46875 C 577.667969 278.402344 559.949219 288.300781 546.847656 304.5625 C 557.863281 314.074219 580.046875 306.261719 590.964844 284.46875 Z M 507.191406 39.015625 C 514.277344 56.585938 528.402344 70.417969 546.117188 77.164062 C 546.070312 59.058594 526.3125 39.5 507.191406 39.015625 Z M 171.941406 331.0625 C 134.617188 303.15625 109.425781 261.996094 101.515625 216.03125 C 93.601562 170.113281 103.601562 122.886719 129.425781 84.058594 C 102.582031 122.984375 91.660156 170.695312 98.941406 217.4375 C 106.273438 264.128906 131.21875 306.261719 168.691406 335.140625 C 170.390625 336.453125 172.429688 336.597656 173.300781 335.140625 C 174.125 333.683594 173.300781 332.082031 171.84375 330.820312 Z M 141.605469 298.351562 C 152.722656 288.789062 152.867188 270.585938 145.636719 255.832031 C 132.191406 262.042969 128.355469 281.992188 141.363281 298.351562 Z M 122.09375 267.964844 C 134.910156 260.832031 138.9375 243.648438 134.761719 227.875 C 120.394531 231.222656 112.679688 249.859375 121.851562 267.964844 Z M 109.328125 234.960938 C 123.308594 230.542969 130.78125 214.429688 129.667969 198.507812 C 114.910156 198.992188 103.796875 215.640625 109.328125 234.960938 Z M 103.261719 200.402344 C 117.773438 198.847656 128.210938 184.53125 130.296875 168.707031 C 115.832031 166.570312 101.660156 180.550781 103.261719 200.402344 Z M 103.992188 165.453125 C 118.550781 166.765625 131.511719 154.777344 136.65625 139.535156 C 123.066406 134.390625 106.367188 145.652344 103.992188 165.453125 Z M 111.5625 131.1875 C 125.6875 135.359375 140.734375 126.042969 148.9375 111.820312 C 136.609375 104.101562 117.824219 111.917969 111.5625 131.1875 Z M 125.976562 98.667969 C 138.984375 105.460938 155.683594 99.152344 166.992188 86.484375 C 156.460938 76.679688 136.121094 81.046875 125.976562 98.765625 Z M 117.289062 93.667969 C 127.238281 75.855469 130.492188 55.082031 119.863281 45.082031 C 103.261719 64.011719 104.425781 87.113281 117.289062 93.667969 Z M 102.292969 127.789062 C 108.359375 108.664062 107.046875 88.132812 94.574219 80.417969 C 82.246094 101.917969 88.117188 124.050781 102.050781 128.03125 Z M 94.28125 164.242188 C 96.515625 144.390625 90.980469 124.828125 77.246094 119.78125 C 69.480469 142.640625 79.574219 163.027344 94.039062 164.242188 Z M 93.359375 201.179688 C 91.757812 181.277344 82.535156 163.269531 68.023438 161.039062 C 64.917969 184.773438 78.945312 203.023438 93.117188 201.179688 Z M 99.429688 237.628906 C 93.941406 218.3125 81.226562 202.535156 66.8125 203.121094 C 68.558594 226.953125 85.59375 242.09375 99.429688 237.628906 Z M 112.921875 272.527344 C 103.601562 254.277344 88.265625 241.269531 73.996094 244.714844 C 80.351562 267.917969 100.203125 279.613281 112.921875 272.527344 Z M 133.648438 304.609375 C 120.394531 288.058594 102.679688 278.304688 89.332031 284.46875 C 100.300781 306.308594 122.53125 314.074219 133.648438 304.609375 Z M 173.203125 39.015625 C 166.117188 56.585938 151.992188 70.417969 134.230469 77.164062 C 134.277344 59.058594 154.03125 39.5 173.203125 39.015625 " fill-opacity="1" fill-rule="nonzero"/></g><g clip-path="url(#f37a2475d6)"><path fill="#f0f8ff" d="M -125.703125 331.113281 C -124.050781 332.421875 -123.371094 334.363281 -124.246094 335.433594 C -125.070312 336.546875 -127.15625 336.5 -128.855469 335.433594 C -166.425781 306.601562 -191.371094 264.375 -198.703125 217.582031 C -206.03125 170.792969 -195.0625 122.984375 -168.074219 84.058594 C -193.945312 122.886719 -203.945312 170.113281 -196.03125 216.03125 C -188.121094 261.996094 -162.882812 303.15625 -125.554688 331.0625 Z M -152.007812 255.976562 C -144.777344 270.585938 -144.921875 288.789062 -156.085938 298.496094 C -168.996094 281.992188 -165.164062 262.042969 -151.910156 255.976562 Z M -162.882812 227.875 C -158.707031 243.40625 -162.882812 260.832031 -175.550781 267.964844 C -184.675781 249.859375 -176.957031 231.222656 -162.785156 227.875 Z M -167.976562 198.460938 C -166.910156 214.429688 -174.046875 230.542969 -188.316406 234.910156 C -193.558594 215.640625 -182.441406 198.992188 -167.929688 198.460938 Z M -167.25 168.707031 C -169.335938 184.53125 -179.773438 199.089844 -194.285156 200.402344 C -195.691406 180.550781 -181.519531 166.570312 -167.203125 168.707031 Z M -160.746094 139.535156 C -165.890625 154.777344 -178.949219 166.765625 -193.410156 165.453125 C -190.984375 145.652344 -174.289062 134.390625 -160.695312 139.535156 Z M -148.613281 111.820312 C -156.8125 126.042969 -171.859375 135.359375 -185.9375 131.1875 C -179.53125 111.867188 -160.746094 104.101562 -148.417969 111.867188 Z M -130.363281 86.679688 C -141.671875 99.25 -158.367188 105.558594 -171.375 98.8125 C -161.230469 81.046875 -140.894531 76.679688 -130.363281 86.679688 Z M -177.492188 45.082031 C -166.910156 55.128906 -170.113281 75.953125 -180.0625 93.667969 C -192.925781 87.113281 -194.089844 64.011719 -177.492188 45.082031 Z M -203.023438 80.660156 C -190.886719 88.375 -189.140625 108.910156 -195.304688 128.03125 C -209.1875 124.050781 -215.109375 101.917969 -203.023438 80.660156 Z M -220.351562 119.78125 C -206.613281 124.828125 -201.082031 144.390625 -203.3125 164.242188 C -217.777344 163.027344 -227.871094 142.640625 -220.351562 119.78125 Z M -229.570312 160.890625 C -215.058594 163.171875 -205.835938 181.132812 -204.234375 201.082031 C -218.410156 203.023438 -232.433594 184.773438 -229.570312 161.039062 Z M -230.542969 203.023438 C -215.933594 202.390625 -203.410156 218.214844 -197.925781 237.53125 C -211.757812 242.09375 -228.796875 226.953125 -230.542969 203.023438 Z M -223.359375 244.667969 C -209.089844 241.269531 -193.703125 254.421875 -184.433594 272.527344 C -197.101562 279.613281 -217 267.917969 -223.359375 244.667969 Z M -207.972656 284.46875 C -194.671875 278.402344 -176.957031 288.300781 -163.851562 304.5625 C -174.871094 314.074219 -197.050781 306.261719 -207.972656 284.46875 Z M -124.195312 39.015625 C -131.285156 56.585938 -145.40625 70.417969 -163.125 77.164062 C -163.074219 59.058594 -143.320312 39.5 -124.195312 39.015625 Z M 211.050781 331.0625 C 248.375 303.15625 273.566406 261.996094 281.480469 216.03125 C 289.390625 170.113281 279.390625 122.886719 253.570312 84.058594 C 280.410156 122.984375 291.332031 170.695312 284.050781 217.4375 C 276.722656 264.128906 251.773438 306.261719 214.304688 335.140625 C 212.605469 336.453125 210.566406 336.597656 209.691406 335.140625 C 208.867188 333.683594 209.691406 332.082031 211.148438 330.820312 Z M 241.386719 298.351562 C 230.273438 288.789062 230.125 270.585938 237.359375 255.832031 C 250.804688 262.042969 254.636719 281.992188 241.628906 298.351562 Z M 260.898438 267.964844 C 248.085938 260.832031 244.054688 243.648438 248.230469 227.875 C 262.597656 231.222656 270.316406 249.859375 261.140625 267.964844 Z M 273.664062 234.960938 C 259.683594 230.542969 252.210938 214.429688 253.328125 198.507812 C 268.082031 198.992188 279.199219 215.640625 273.664062 234.960938 Z M 279.730469 200.402344 C 265.21875 198.847656 254.78125 184.53125 252.695312 168.707031 C 267.160156 166.570312 281.332031 180.550781 279.730469 200.402344 Z M 279.003906 165.453125 C 264.441406 166.765625 251.484375 154.777344 246.335938 139.535156 C 259.929688 134.390625 276.625 145.652344 279.003906 165.453125 Z M 271.429688 131.1875 C 257.308594 135.359375 242.261719 126.042969 234.058594 111.820312 C 246.386719 104.101562 265.171875 111.917969 271.429688 131.1875 Z M 257.015625 98.667969 C 244.007812 105.460938 227.3125 99.152344 216 86.484375 C 226.535156 76.679688 246.871094 81.046875 257.015625 98.765625 Z M 265.703125 93.667969 C 255.753906 75.855469 252.5 55.082031 263.132812 45.082031 C 279.730469 64.011719 278.566406 87.113281 265.703125 93.667969 Z M 280.703125 127.789062 C 274.636719 108.664062 275.945312 88.132812 288.417969 80.417969 C 300.746094 101.917969 294.875 124.050781 280.945312 128.03125 Z M 288.710938 164.242188 C 286.476562 144.390625 292.011719 124.828125 305.746094 119.78125 C 313.511719 142.640625 303.417969 163.027344 288.953125 164.242188 Z M 289.632812 201.179688 C 291.234375 181.277344 300.457031 163.269531 314.96875 161.039062 C 318.074219 184.773438 304.046875 203.023438 289.875 201.179688 Z M 283.566406 237.628906 C 289.050781 218.3125 301.765625 202.535156 316.183594 203.121094 C 314.433594 226.953125 297.398438 242.09375 283.566406 237.628906 Z M 270.074219 272.527344 C 279.390625 254.277344 294.730469 241.269531 309 244.714844 C 302.640625 267.917969 282.789062 279.613281 270.074219 272.527344 Z M 249.347656 304.609375 C 262.597656 288.058594 280.3125 278.304688 293.660156 284.46875 C 282.691406 306.308594 260.460938 314.074219 249.347656 304.609375 Z M 209.789062 39.015625 C 216.875 56.585938 231 70.417969 248.765625 77.164062 C 248.714844 59.058594 228.960938 39.5 209.789062 39.015625 " fill-opacity="1" fill-rule="nonzero"/></g></svg>