<svg xmlns="http://www.w3.org/2000/svg" xmlns:xlink="http://www.w3.org/1999/xlink" width="300" zoomAndPan="magnify" viewBox="0 0 224.87999 56.249996" height="75" preserveAspectRatio="xMidYMid meet" version="1.0"><defs><g/><clipPath id="580449424c"><path d="M 7 3.085938 L 33.617188 3.085938 L 33.617188 51.195312 L 7 51.195312 Z M 7 3.085938 " clip-rule="nonzero"/></clipPath><clipPath id="c649afa2b8"><path d="M 36.539062 3.085938 L 63 3.085938 L 63 51.195312 L 36.539062 51.195312 Z M 36.539062 3.085938 " clip-rule="nonzero"/></clipPath><clipPath id="2527bf86af"><path d="M 63.394531 24.589844 L 85.601562 24.589844 L 85.601562 46.792969 L 63.394531 46.792969 Z M 63.394531 24.589844 " clip-rule="nonzero"/></clipPath></defs><g clip-path="url(#580449424c)"><path fill="#a6fbb2" d="M 78.652344 50.445312 C 78.386719 50.65625 78.277344 50.96875 78.417969 51.140625 C 78.550781 51.320312 78.886719 51.3125 79.160156 51.140625 C 85.222656 46.492188 89.246094 39.679688 90.425781 32.132812 C 91.609375 24.585938 89.839844 16.871094 85.488281 10.59375 C 89.660156 16.855469 91.273438 24.472656 89.996094 31.882812 C 88.71875 39.296875 84.648438 45.933594 78.628906 50.4375 Z M 82.894531 38.324219 C 81.730469 40.679688 81.753906 43.617188 83.554688 45.183594 C 85.636719 42.523438 85.015625 39.304688 82.878906 38.324219 Z M 84.648438 33.792969 C 83.976562 36.296875 84.648438 39.109375 86.691406 40.257812 C 88.164062 37.339844 86.917969 34.332031 84.632812 33.792969 Z M 85.472656 29.046875 C 85.300781 31.621094 86.449219 34.222656 88.75 34.925781 C 89.597656 31.820312 87.804688 29.132812 85.464844 29.046875 Z M 85.355469 24.246094 C 85.691406 26.800781 87.375 29.148438 89.714844 29.359375 C 89.941406 26.15625 87.65625 23.902344 85.347656 24.246094 Z M 84.304688 19.542969 C 85.132812 22 87.242188 23.933594 89.574219 23.722656 C 89.183594 20.527344 86.488281 18.710938 84.296875 19.542969 Z M 82.347656 15.070312 C 83.671875 17.367188 86.097656 18.867188 88.367188 18.195312 C 87.335938 15.078125 84.304688 13.828125 82.316406 15.078125 Z M 79.402344 11.015625 C 81.226562 13.042969 83.921875 14.0625 86.019531 12.972656 C 84.382812 10.109375 81.101562 9.402344 79.402344 11.015625 Z M 87.003906 4.304688 C 85.300781 5.925781 85.816406 9.285156 87.421875 12.144531 C 89.496094 11.085938 89.683594 7.359375 87.003906 4.304688 Z M 91.125 10.042969 C 89.167969 11.289062 88.886719 14.601562 89.878906 17.6875 C 92.117188 17.042969 93.074219 13.472656 91.125 10.042969 Z M 93.917969 16.355469 C 91.703125 17.167969 90.8125 20.324219 91.171875 23.527344 C 93.503906 23.332031 95.132812 20.042969 93.917969 16.355469 Z M 95.40625 22.988281 C 93.066406 23.355469 91.578125 26.25 91.320312 29.46875 C 93.605469 29.78125 95.867188 26.839844 95.40625 23.011719 Z M 95.5625 29.78125 C 93.207031 29.679688 91.1875 32.234375 90.300781 35.351562 C 92.535156 36.085938 95.28125 33.644531 95.5625 29.78125 Z M 94.40625 36.5 C 92.101562 35.953125 89.621094 38.074219 88.125 40.996094 C 90.167969 42.136719 93.378906 40.25 94.40625 36.5 Z M 91.921875 42.921875 C 89.777344 41.941406 86.917969 43.539062 84.804688 46.164062 C 86.582031 47.695312 90.160156 46.4375 91.921875 42.921875 Z M 78.410156 3.328125 C 79.550781 6.160156 81.832031 8.394531 84.6875 9.480469 C 84.679688 6.5625 81.492188 3.40625 78.410156 3.328125 Z M 24.332031 50.4375 C 18.308594 45.933594 14.246094 39.296875 12.96875 31.882812 C 11.695312 24.472656 13.308594 16.855469 17.472656 10.59375 C 13.140625 16.871094 11.378906 24.570312 12.554688 32.109375 C 13.738281 39.640625 17.761719 46.4375 23.804688 51.09375 C 24.082031 51.304688 24.410156 51.328125 24.550781 51.09375 C 24.683594 50.859375 24.550781 50.601562 24.316406 50.398438 Z M 19.4375 45.160156 C 21.230469 43.617188 21.253906 40.679688 20.085938 38.300781 C 17.917969 39.304688 17.300781 42.523438 19.398438 45.160156 Z M 16.289062 40.257812 C 18.355469 39.109375 19.007812 36.335938 18.332031 33.792969 C 16.015625 34.332031 14.769531 37.339844 16.25 40.257812 Z M 14.230469 34.933594 C 16.484375 34.222656 17.691406 31.621094 17.511719 29.054688 C 15.132812 29.132812 13.339844 31.820312 14.230469 34.933594 Z M 13.253906 29.359375 C 15.59375 29.109375 17.277344 26.800781 17.613281 24.246094 C 15.28125 23.902344 12.992188 26.15625 13.253906 29.359375 Z M 13.371094 23.722656 C 15.71875 23.933594 17.808594 22 18.640625 19.542969 C 16.445312 18.710938 13.753906 20.527344 13.371094 23.722656 Z M 14.589844 18.195312 C 16.871094 18.867188 19.296875 17.367188 20.621094 15.070312 C 18.632812 13.828125 15.601562 15.085938 14.589844 18.195312 Z M 16.917969 12.949219 C 19.015625 14.046875 21.707031 13.027344 23.53125 10.984375 C 21.832031 9.402344 18.550781 10.109375 16.917969 12.964844 Z M 15.515625 12.144531 C 17.121094 9.269531 17.644531 5.917969 15.929688 4.304688 C 13.253906 7.359375 13.441406 11.085938 15.515625 12.144531 Z M 13.09375 17.648438 C 14.074219 14.5625 13.863281 11.25 11.851562 10.003906 C 9.863281 13.472656 10.808594 17.042969 13.054688 17.6875 Z M 11.804688 23.527344 C 12.164062 20.324219 11.269531 17.167969 9.054688 16.355469 C 7.804688 20.042969 9.429688 23.332031 11.765625 23.527344 Z M 11.65625 29.484375 C 11.394531 26.273438 9.910156 23.371094 7.566406 23.011719 C 7.066406 26.839844 9.328125 29.78125 11.617188 29.484375 Z M 12.632812 35.367188 C 11.75 32.25 9.699219 29.703125 7.371094 29.796875 C 7.652344 33.644531 10.402344 36.085938 12.632812 35.367188 Z M 14.808594 40.996094 C 13.308594 38.050781 10.832031 35.953125 8.53125 36.507812 C 9.554688 40.25 12.757812 42.136719 14.808594 40.996094 Z M 18.152344 46.171875 C 16.015625 43.5 13.15625 41.925781 11.003906 42.921875 C 12.773438 46.445312 16.359375 47.695312 18.152344 46.171875 Z M 24.535156 3.328125 C 23.390625 6.160156 21.113281 8.394531 18.246094 9.480469 C 18.253906 6.5625 21.441406 3.40625 24.535156 3.328125 " fill-opacity="1" fill-rule="nonzero"/></g><g fill="#a6fbb2" fill-opacity="1"><g transform="translate(90.242886, 31.840304)"><g><path d="M 28.46875 0 L 19.5625 0 L 9.46875 -12.078125 L 9.46875 0 L 1.984375 0 L 1.984375 -17.84375 L 10.890625 -17.84375 L 20.984375 -5.828125 L 20.984375 -17.84375 L 28.46875 -17.84375 Z M 28.46875 0 "/></g></g></g><g fill="#a6fbb2" fill-opacity="1"><g transform="translate(119.153216, 31.840304)"><g><path d="M 17.40625 0 L 9.921875 0 L 9.921875 -8.453125 L 0.1875 -17.84375 L 8.484375 -17.84375 L 13.671875 -12.515625 L 18.84375 -17.84375 L 27.140625 -17.84375 L 17.40625 -8.453125 Z M 17.40625 0 "/></g></g></g><g fill="#a6fbb2" fill-opacity="1"><g transform="translate(144.931498, 31.840304)"><g><path d="M 31.28125 0 L 21.5625 0 L 13.90625 -5.96875 L 9.46875 -2.953125 L 9.46875 0 L 1.984375 0 L 1.984375 -17.84375 L 9.46875 -17.84375 L 9.46875 -9.59375 L 21.484375 -17.84375 L 31.28125 -17.84375 L 18.5 -9.109375 Z M 31.28125 0 "/></g></g></g><g fill="#a6fbb2" fill-opacity="1"><g transform="translate(174.860987, 31.840304)"><g><path d="M 23.484375 0 L 1.984375 0 L 1.984375 -17.84375 L 22.5 -17.84375 L 22.5 -13.4375 L 9.46875 -13.4375 L 9.46875 -10.625 L 20.484375 -10.625 L 20.484375 -7.203125 L 9.46875 -7.203125 L 9.46875 -4.421875 L 23.484375 -4.421875 Z M 23.484375 0 "/></g></g></g><g fill="#b3e5f9" fill-opacity="1"><g transform="translate(109.620161, 44.186887)"><g><path d="M 3.0625 0 L 0.640625 0 L 0.640625 -5.765625 L 7.265625 -5.765625 L 7.265625 -4.34375 L 3.0625 -4.34375 L 3.0625 -3.4375 L 6.625 -3.4375 L 6.625 -2.328125 L 3.0625 -2.328125 Z M 3.0625 0 "/></g></g></g><g fill="#b3e5f9" fill-opacity="1"><g transform="translate(118.858394, 44.186887)"><g><path d="M 3.0625 0 L 0.640625 0 L 0.640625 -5.765625 L 3.0625 -5.765625 Z M 3.0625 0 "/></g></g></g><g fill="#b3e5f9" fill-opacity="1"><g transform="translate(124.210187, 44.186887)"><g><path d="M 9.203125 0 L 6.328125 0 L 3.0625 -3.90625 L 3.0625 0 L 0.640625 0 L 0.640625 -5.765625 L 3.515625 -5.765625 L 6.78125 -1.890625 L 6.78125 -5.765625 L 9.203125 -5.765625 Z M 9.203125 0 "/></g></g></g><g fill="#b3e5f9" fill-opacity="1"><g transform="translate(135.699099, 44.186887)"><g><path d="M 9.6875 0 L 7.234375 0 L 6.6875 -0.9375 L 3.0625 -0.9375 L 2.515625 0 L 0.0625 0 L 3.75 -5.765625 L 6 -5.765625 Z M 5.875 -2.375 L 4.875 -4.125 L 3.875 -2.375 Z M 5.875 -2.375 "/></g></g></g><g fill="#b3e5f9" fill-opacity="1"><g transform="translate(147.091555, 44.186887)"><g><path d="M 9.203125 0 L 6.328125 0 L 3.0625 -3.90625 L 3.0625 0 L 0.640625 0 L 0.640625 -5.765625 L 3.515625 -5.765625 L 6.78125 -1.890625 L 6.78125 -5.765625 L 9.203125 -5.765625 Z M 9.203125 0 "/></g></g></g><g fill="#b3e5f9" fill-opacity="1"><g transform="translate(158.580469, 44.186887)"><g><path d="M 4.359375 0.125 C 2.929688 0.125 1.882812 -0.164062 1.21875 -0.75 C 0.625 -1.269531 0.328125 -1.976562 0.328125 -2.875 C 0.328125 -3.769531 0.625 -4.476562 1.21875 -5 C 1.882812 -5.582031 2.929688 -5.875 4.359375 -5.875 C 5.191406 -5.875 5.878906 -5.78125 6.421875 -5.59375 C 6.972656 -5.40625 7.398438 -5.144531 7.703125 -4.8125 C 8.015625 -4.476562 8.21875 -4.097656 8.3125 -3.671875 L 5.765625 -3.671875 C 5.515625 -4.117188 5.046875 -4.34375 4.359375 -4.34375 C 3.773438 -4.34375 3.347656 -4.171875 3.078125 -3.828125 C 2.847656 -3.554688 2.734375 -3.238281 2.734375 -2.875 C 2.734375 -2.507812 2.847656 -2.191406 3.078125 -1.921875 C 3.347656 -1.585938 3.773438 -1.421875 4.359375 -1.421875 C 5.046875 -1.421875 5.515625 -1.644531 5.765625 -2.09375 L 8.3125 -2.09375 C 8.21875 -1.664062 8.015625 -1.285156 7.703125 -0.953125 C 7.398438 -0.617188 6.972656 -0.351562 6.421875 -0.15625 C 5.878906 0.03125 5.191406 0.125 4.359375 0.125 Z M 4.359375 0.125 "/></g></g></g><g fill="#b3e5f9" fill-opacity="1"><g transform="translate(168.859642, 44.186887)"><g><path d="M 7.59375 0 L 0.640625 0 L 0.640625 -5.765625 L 7.265625 -5.765625 L 7.265625 -4.34375 L 3.0625 -4.34375 L 3.0625 -3.4375 L 6.625 -3.4375 L 6.625 -2.328125 L 3.0625 -2.328125 L 3.0625 -1.421875 L 7.59375 -1.421875 Z M 7.59375 0 "/></g></g></g><g clip-path="url(#c649afa2b8)"><path fill="#a6fbb2" d="M -8.285156 50.445312 C -8.019531 50.65625 -7.910156 50.96875 -8.050781 51.140625 C -8.183594 51.320312 -8.523438 51.3125 -8.796875 51.140625 C -14.855469 46.492188 -18.878906 39.679688 -20.0625 32.132812 C -21.246094 24.585938 -19.476562 16.871094 -15.121094 10.59375 C -19.296875 16.855469 -20.90625 24.472656 -19.632812 31.882812 C -18.355469 39.296875 -14.285156 45.933594 -8.261719 50.4375 Z M -12.53125 38.324219 C -11.363281 40.679688 -11.386719 43.617188 -13.1875 45.183594 C -15.269531 42.523438 -14.652344 39.304688 -12.515625 38.324219 Z M -14.285156 33.792969 C -13.609375 36.296875 -14.285156 39.109375 -16.328125 40.257812 C -17.800781 37.339844 -16.554688 34.332031 -14.269531 33.792969 Z M -15.105469 29.046875 C -14.933594 31.621094 -16.085938 34.222656 -18.386719 34.925781 C -19.234375 31.820312 -17.441406 29.132812 -15.097656 29.046875 Z M -14.988281 24.246094 C -15.324219 26.800781 -17.007812 29.148438 -19.351562 29.359375 C -19.578125 26.15625 -17.289062 23.902344 -14.980469 24.246094 Z M -13.941406 19.542969 C -14.769531 22 -16.875 23.933594 -19.210938 23.722656 C -18.816406 20.527344 -16.125 18.710938 -13.933594 19.542969 Z M -11.984375 15.070312 C -13.304688 17.367188 -15.734375 18.867188 -18.003906 18.195312 C -16.96875 15.078125 -13.941406 13.828125 -11.953125 15.078125 Z M -9.039062 11.015625 C -10.863281 13.042969 -13.554688 14.0625 -15.65625 12.972656 C -14.019531 10.109375 -10.738281 9.402344 -9.039062 11.015625 Z M -16.640625 4.304688 C -14.933594 5.925781 -15.449219 9.285156 -17.054688 12.144531 C -19.132812 11.085938 -19.320312 7.359375 -16.640625 4.304688 Z M -20.757812 10.042969 C -18.800781 11.289062 -18.519531 14.601562 -19.515625 17.6875 C -21.753906 17.042969 -22.707031 13.472656 -20.757812 10.042969 Z M -23.554688 16.355469 C -21.339844 17.167969 -20.445312 20.324219 -20.804688 23.527344 C -23.140625 23.332031 -24.769531 20.042969 -23.554688 16.355469 Z M -25.042969 22.988281 C -22.699219 23.355469 -21.214844 26.25 -20.957031 29.46875 C -23.242188 29.78125 -25.503906 26.839844 -25.042969 23.011719 Z M -25.199219 29.78125 C -22.84375 29.679688 -20.820312 32.234375 -19.9375 35.351562 C -22.167969 36.085938 -24.917969 33.644531 -25.199219 29.78125 Z M -24.039062 36.5 C -21.738281 35.953125 -19.257812 38.074219 -17.761719 40.996094 C -19.804688 42.136719 -23.015625 40.25 -24.039062 36.5 Z M -21.558594 42.921875 C -19.414062 41.941406 -16.554688 43.539062 -14.441406 46.164062 C -16.21875 47.695312 -19.796875 46.4375 -21.558594 42.921875 Z M -8.042969 3.328125 C -9.1875 6.160156 -11.464844 8.394531 -14.324219 9.480469 C -14.316406 6.5625 -11.128906 3.40625 -8.042969 3.328125 Z M 46.035156 50.4375 C 52.054688 45.933594 56.117188 39.296875 57.394531 31.882812 C 58.671875 24.472656 57.058594 16.855469 52.894531 10.59375 C 57.222656 16.871094 58.984375 24.570312 57.808594 32.109375 C 56.628906 39.640625 52.601562 46.4375 46.558594 51.09375 C 46.285156 51.304688 45.957031 51.328125 45.816406 51.09375 C 45.679688 50.859375 45.816406 50.601562 46.050781 50.398438 Z M 50.925781 45.160156 C 49.132812 43.617188 49.109375 40.679688 50.277344 38.300781 C 52.445312 39.304688 53.066406 42.523438 50.964844 45.160156 Z M 54.074219 40.257812 C 52.007812 39.109375 51.359375 36.335938 52.03125 33.792969 C 54.347656 34.332031 55.59375 37.339844 54.113281 40.257812 Z M 56.132812 34.933594 C 53.878906 34.222656 52.671875 31.621094 52.851562 29.054688 C 55.234375 29.132812 57.027344 31.820312 56.132812 34.933594 Z M 57.113281 29.359375 C 54.773438 29.109375 53.089844 26.800781 52.75 24.246094 C 55.085938 23.902344 57.371094 26.15625 57.113281 29.359375 Z M 56.996094 23.722656 C 54.644531 23.933594 52.554688 22 51.726562 19.542969 C 53.917969 18.710938 56.613281 20.527344 56.996094 23.722656 Z M 55.773438 18.195312 C 53.496094 18.867188 51.066406 17.367188 49.746094 15.070312 C 51.734375 13.828125 54.765625 15.085938 55.773438 18.195312 Z M 53.449219 12.949219 C 51.351562 14.046875 48.65625 13.027344 46.832031 10.984375 C 48.53125 9.402344 51.8125 10.109375 53.449219 12.964844 Z M 54.851562 12.144531 C 53.246094 9.269531 52.71875 5.917969 54.433594 4.304688 C 57.113281 7.359375 56.925781 11.085938 54.851562 12.144531 Z M 57.269531 17.648438 C 56.289062 14.5625 56.503906 11.25 58.515625 10.003906 C 60.503906 13.472656 59.554688 17.042969 57.308594 17.6875 Z M 58.5625 23.527344 C 58.199219 20.324219 59.09375 17.167969 61.308594 16.355469 C 62.5625 20.042969 60.933594 23.332031 58.601562 23.527344 Z M 58.710938 29.484375 C 58.96875 26.273438 60.457031 23.371094 62.796875 23.011719 C 63.296875 26.839844 61.035156 29.78125 58.75 29.484375 Z M 57.730469 35.367188 C 58.617188 32.25 60.667969 29.703125 62.992188 29.796875 C 62.710938 33.644531 59.960938 36.085938 57.730469 35.367188 Z M 55.554688 40.996094 C 57.058594 38.050781 59.53125 35.953125 61.832031 36.507812 C 60.808594 40.25 57.605469 42.136719 55.554688 40.996094 Z M 52.210938 46.171875 C 54.347656 43.5 57.207031 41.925781 59.359375 42.921875 C 57.589844 46.445312 54.003906 47.695312 52.210938 46.171875 Z M 45.832031 3.328125 C 46.972656 6.160156 49.25 8.394531 52.117188 9.480469 C 52.109375 6.5625 48.921875 3.40625 45.832031 3.328125 " fill-opacity="1" fill-rule="nonzero"/></g><g clip-path="url(#2527bf86af)"><path fill="#4289fa" d="M 85.601562 35.691406 C 85.601562 35.875 85.59375 36.054688 85.585938 36.234375 C 85.578125 36.417969 85.566406 36.597656 85.546875 36.78125 C 85.527344 36.960938 85.507812 37.140625 85.480469 37.320312 C 85.453125 37.5 85.421875 37.679688 85.386719 37.855469 C 85.351562 38.035156 85.3125 38.210938 85.265625 38.390625 C 85.222656 38.566406 85.175781 38.742188 85.121094 38.914062 C 85.070312 39.089844 85.011719 39.261719 84.949219 39.429688 C 84.890625 39.601562 84.824219 39.773438 84.753906 39.941406 C 84.683594 40.109375 84.613281 40.273438 84.535156 40.4375 C 84.457031 40.601562 84.375 40.765625 84.289062 40.925781 C 84.203125 41.085938 84.113281 41.242188 84.019531 41.398438 C 83.925781 41.554688 83.828125 41.707031 83.730469 41.859375 C 83.628906 42.011719 83.523438 42.160156 83.414062 42.304688 C 83.308594 42.449219 83.195312 42.59375 83.082031 42.734375 C 82.964844 42.875 82.847656 43.011719 82.722656 43.148438 C 82.601562 43.28125 82.476562 43.414062 82.347656 43.542969 C 82.21875 43.671875 82.089844 43.796875 81.953125 43.917969 C 81.820312 44.039062 81.683594 44.15625 81.542969 44.273438 C 81.402344 44.386719 81.257812 44.5 81.113281 44.609375 C 80.964844 44.71875 80.816406 44.820312 80.667969 44.921875 C 80.515625 45.023438 80.363281 45.121094 80.207031 45.214844 C 80.050781 45.308594 79.890625 45.398438 79.730469 45.484375 C 79.570312 45.566406 79.410156 45.648438 79.246094 45.726562 C 79.082031 45.804688 78.914062 45.878906 78.746094 45.949219 C 78.578125 46.019531 78.410156 46.082031 78.238281 46.144531 C 78.066406 46.207031 77.894531 46.261719 77.722656 46.316406 C 77.546875 46.367188 77.371094 46.417969 77.195312 46.460938 C 77.019531 46.503906 76.84375 46.542969 76.664062 46.582031 C 76.484375 46.617188 76.308594 46.648438 76.128906 46.671875 C 75.949219 46.699219 75.765625 46.722656 75.585938 46.738281 C 75.40625 46.757812 75.222656 46.769531 75.042969 46.78125 C 74.863281 46.789062 74.679688 46.792969 74.5 46.792969 C 74.316406 46.792969 74.136719 46.789062 73.953125 46.78125 C 73.773438 46.769531 73.589844 46.757812 73.410156 46.738281 C 73.230469 46.722656 73.050781 46.699219 72.871094 46.671875 C 72.691406 46.648438 72.511719 46.617188 72.332031 46.582031 C 72.152344 46.542969 71.976562 46.503906 71.800781 46.460938 C 71.625 46.417969 71.449219 46.367188 71.277344 46.316406 C 71.101562 46.261719 70.929688 46.207031 70.757812 46.144531 C 70.585938 46.082031 70.417969 46.019531 70.25 45.949219 C 70.082031 45.878906 69.914062 45.804688 69.75 45.726562 C 69.585938 45.648438 69.425781 45.566406 69.265625 45.484375 C 69.105469 45.398438 68.945312 45.308594 68.789062 45.214844 C 68.632812 45.121094 68.480469 45.023438 68.332031 44.921875 C 68.179688 44.820312 68.03125 44.71875 67.886719 44.609375 C 67.738281 44.5 67.59375 44.386719 67.457031 44.273438 C 67.316406 44.15625 67.175781 44.039062 67.042969 43.917969 C 66.90625 43.796875 66.777344 43.671875 66.648438 43.542969 C 66.519531 43.414062 66.394531 43.28125 66.273438 43.148438 C 66.148438 43.011719 66.03125 42.875 65.917969 42.734375 C 65.800781 42.59375 65.6875 42.449219 65.582031 42.304688 C 65.472656 42.160156 65.367188 42.011719 65.265625 41.859375 C 65.167969 41.707031 65.070312 41.554688 64.976562 41.398438 C 64.882812 41.242188 64.792969 41.085938 64.707031 40.925781 C 64.621094 40.765625 64.539062 40.601562 64.460938 40.4375 C 64.382812 40.273438 64.3125 40.109375 64.242188 39.941406 C 64.171875 39.773438 64.105469 39.601562 64.046875 39.429688 C 63.984375 39.261719 63.925781 39.089844 63.875 38.914062 C 63.820312 38.742188 63.773438 38.566406 63.730469 38.390625 C 63.683594 38.210938 63.644531 38.035156 63.609375 37.855469 C 63.574219 37.679688 63.542969 37.5 63.515625 37.320312 C 63.488281 37.140625 63.46875 36.960938 63.449219 36.78125 C 63.433594 36.597656 63.417969 36.417969 63.410156 36.234375 C 63.402344 36.054688 63.394531 35.875 63.394531 35.691406 C 63.394531 35.507812 63.402344 35.328125 63.410156 35.148438 C 63.417969 34.964844 63.433594 34.785156 63.449219 34.601562 C 63.46875 34.421875 63.488281 34.242188 63.515625 34.0625 C 63.542969 33.882812 63.574219 33.703125 63.609375 33.527344 C 63.644531 33.347656 63.683594 33.171875 63.730469 32.992188 C 63.773438 32.816406 63.820312 32.640625 63.875 32.46875 C 63.925781 32.292969 63.984375 32.121094 64.046875 31.953125 C 64.105469 31.78125 64.171875 31.609375 64.242188 31.441406 C 64.3125 31.273438 64.382812 31.109375 64.460938 30.945312 C 64.539062 30.78125 64.621094 30.617188 64.707031 30.457031 C 64.792969 30.296875 64.882812 30.140625 64.976562 29.984375 C 65.070312 29.828125 65.167969 29.675781 65.265625 29.523438 C 65.367188 29.371094 65.472656 29.222656 65.582031 29.078125 C 65.6875 28.933594 65.800781 28.789062 65.917969 28.648438 C 66.03125 28.507812 66.148438 28.371094 66.273438 28.234375 C 66.394531 28.101562 66.519531 27.96875 66.648438 27.839844 C 66.777344 27.710938 66.90625 27.585938 67.042969 27.464844 C 67.175781 27.34375 67.316406 27.226562 67.457031 27.109375 C 67.59375 26.996094 67.738281 26.882812 67.886719 26.773438 C 68.03125 26.667969 68.179688 26.5625 68.332031 26.460938 C 68.480469 26.359375 68.632812 26.261719 68.789062 26.167969 C 68.945312 26.074219 69.105469 25.984375 69.265625 25.898438 C 69.425781 25.816406 69.585938 25.734375 69.75 25.65625 C 69.914062 25.578125 70.082031 25.503906 70.25 25.433594 C 70.417969 25.363281 70.585938 25.300781 70.757812 25.238281 C 70.929688 25.175781 71.101562 25.121094 71.277344 25.066406 C 71.449219 25.015625 71.625 24.964844 71.800781 24.921875 C 71.976562 24.878906 72.152344 24.839844 72.332031 24.804688 C 72.511719 24.765625 72.691406 24.734375 72.871094 24.710938 C 73.050781 24.683594 73.230469 24.660156 73.410156 24.644531 C 73.589844 24.625 73.773438 24.613281 73.953125 24.601562 C 74.136719 24.59375 74.316406 24.589844 74.5 24.589844 C 74.679688 24.589844 74.863281 24.59375 75.042969 24.601562 C 75.222656 24.613281 75.40625 24.625 75.585938 24.644531 C 75.765625 24.660156 75.949219 24.683594 76.128906 24.710938 C 76.308594 24.734375 76.484375 24.765625 76.664062 24.804688 C 76.84375 24.839844 77.019531 24.878906 77.195312 24.921875 C 77.371094 24.964844 77.546875 25.015625 77.722656 25.066406 C 77.894531 25.121094 78.066406 25.175781 78.238281 25.238281 C 78.410156 25.300781 78.578125 25.363281 78.746094 25.433594 C 78.914062 25.503906 79.082031 25.578125 79.246094 25.65625 C 79.410156 25.734375 79.570312 25.816406 79.730469 25.898438 C 79.890625 25.984375 80.050781 26.074219 80.207031 26.167969 C 80.363281 26.261719 80.515625 26.359375 80.667969 26.460938 C 80.816406 26.5625 80.964844 26.667969 81.113281 26.773438 C 81.257812 26.882812 81.402344 26.996094 81.542969 27.109375 C 81.683594 27.226562 81.820312 27.34375 81.953125 27.464844 C 82.089844 27.585938 82.21875 27.710938 82.347656 27.839844 C 82.476562 27.96875 82.601562 28.101562 82.722656 28.234375 C 82.847656 28.371094 82.964844 28.507812 83.082031 28.648438 C 83.195312 28.789062 83.308594 28.933594 83.414062 29.078125 C 83.523438 29.222656 83.628906 29.371094 83.730469 29.523438 C 83.828125 29.675781 83.925781 29.828125 84.019531 29.984375 C 84.113281 30.140625 84.203125 30.296875 84.289062 30.457031 C 84.375 30.617188 84.457031 30.78125 84.535156 30.945312 C 84.613281 31.109375 84.683594 31.273438 84.753906 31.441406 C 84.824219 31.609375 84.890625 31.78125 84.949219 31.953125 C 85.011719 32.121094 85.070312 32.292969 85.121094 32.46875 C 85.175781 32.640625 85.222656 32.816406 85.265625 32.992188 C 85.3125 33.171875 85.351562 33.347656 85.386719 33.527344 C 85.421875 33.703125 85.453125 33.882812 85.480469 34.0625 C 85.507812 34.242188 85.527344 34.421875 85.546875 34.601562 C 85.566406 34.785156 85.578125 34.964844 85.585938 35.148438 C 85.59375 35.328125 85.601562 35.507812 85.601562 35.691406 Z M 85.601562 35.691406 " fill-opacity="1" fill-rule="nonzero"/></g><path fill="#f0f8ff" d="M 73.191406 29.601562 C 73.191406 29.601562 73.6875 30.828125 73.832031 31.566406 C 73.980469 32.308594 74.265625 32.769531 74.265625 32.769531 L 74.539062 33.339844 L 74.703125 33.808594 L 74.941406 33.15625 C 74.941406 33.15625 75.105469 32.25 74.820312 31.449219 C 74.820312 31.449219 75.410156 32.328125 75.070312 34.035156 C 75.070312 34.035156 75.765625 33.441406 75.84375 31.949219 C 75.84375 31.949219 75.488281 29.90625 73.191406 29.601562 " fill-opacity="1" fill-rule="nonzero"/><path fill="#f0f8ff" d="M 75.820312 32.875 C 75.859375 32.761719 75.890625 32.640625 75.910156 32.515625 C 75.933594 32.394531 75.945312 32.265625 75.945312 32.132812 C 75.945312 32 75.933594 31.863281 75.90625 31.726562 C 75.894531 31.660156 75.878906 31.589844 75.859375 31.523438 C 75.839844 31.453125 75.816406 31.386719 75.792969 31.320312 C 75.765625 31.25 75.734375 31.183594 75.703125 31.117188 C 75.695312 31.101562 75.6875 31.085938 75.679688 31.066406 L 75.667969 31.042969 L 75.652344 31.019531 L 75.640625 30.996094 L 75.628906 30.96875 C 75.617188 30.953125 75.609375 30.9375 75.597656 30.921875 C 75.523438 30.792969 75.4375 30.667969 75.339844 30.554688 C 75.242188 30.4375 75.136719 30.328125 75.023438 30.230469 C 74.910156 30.128906 74.789062 30.039062 74.667969 29.960938 C 74.542969 29.878906 74.414062 29.808594 74.285156 29.746094 C 74.222656 29.714844 74.15625 29.6875 74.089844 29.660156 C 74.027344 29.632812 73.960938 29.605469 73.894531 29.582031 C 73.761719 29.535156 73.632812 29.496094 73.5 29.464844 C 73.433594 29.449219 73.367188 29.433594 73.300781 29.421875 C 73.265625 29.414062 73.234375 29.410156 73.199219 29.402344 C 73.183594 29.402344 73.167969 29.398438 73.148438 29.398438 L 73.125 29.394531 L 73.109375 29.390625 L 73.09375 29.390625 L 72.796875 29.359375 L 73.007812 29.628906 C 73.066406 29.707031 73.125 29.789062 73.179688 29.871094 C 73.230469 29.953125 73.277344 30.039062 73.320312 30.125 C 73.359375 30.210938 73.394531 30.300781 73.421875 30.390625 C 73.453125 30.480469 73.476562 30.574219 73.496094 30.667969 C 73.515625 30.761719 73.535156 30.855469 73.554688 30.953125 C 73.570312 31.050781 73.589844 31.152344 73.613281 31.253906 C 73.632812 31.355469 73.660156 31.457031 73.691406 31.558594 C 73.695312 31.574219 73.699219 31.585938 73.703125 31.597656 C 73.707031 31.613281 73.710938 31.625 73.714844 31.636719 L 73.71875 31.65625 L 73.726562 31.675781 C 73.730469 31.6875 73.734375 31.699219 73.738281 31.710938 C 73.753906 31.761719 73.773438 31.8125 73.792969 31.863281 C 73.828125 31.960938 73.871094 32.0625 73.914062 32.160156 C 73.933594 32.210938 73.957031 32.257812 73.980469 32.308594 C 74.003906 32.355469 74.027344 32.402344 74.050781 32.453125 C 74.097656 32.546875 74.144531 32.640625 74.1875 32.734375 C 74.234375 32.828125 74.277344 32.917969 74.316406 33.007812 C 74.355469 33.097656 74.390625 33.191406 74.414062 33.28125 C 74.441406 33.371094 74.460938 33.460938 74.472656 33.554688 C 74.488281 33.644531 74.492188 33.738281 74.496094 33.828125 C 74.496094 33.875 74.496094 33.917969 74.496094 33.964844 C 74.492188 34.011719 74.492188 34.054688 74.488281 34.101562 L 74.449219 34.640625 L 74.695312 34.214844 L 74.703125 34.203125 L 74.707031 34.195312 L 74.71875 34.175781 C 74.726562 34.164062 74.730469 34.152344 74.738281 34.136719 C 74.75 34.113281 74.761719 34.085938 74.773438 34.0625 C 74.796875 34.011719 74.820312 33.960938 74.839844 33.90625 C 74.859375 33.855469 74.878906 33.800781 74.894531 33.746094 C 74.914062 33.695312 74.929688 33.640625 74.945312 33.585938 C 74.972656 33.476562 75 33.363281 75.019531 33.246094 C 75.027344 33.191406 75.035156 33.132812 75.042969 33.074219 C 75.046875 33.015625 75.054688 32.957031 75.058594 32.898438 C 75.058594 32.839844 75.0625 32.78125 75.0625 32.71875 C 75.0625 32.660156 75.0625 32.601562 75.058594 32.539062 C 75.058594 32.480469 75.050781 32.417969 75.046875 32.359375 C 75.042969 32.328125 75.039062 32.296875 75.035156 32.265625 C 75.03125 32.234375 75.027344 32.207031 75.023438 32.175781 C 75.011719 32.113281 75 32.054688 74.988281 31.992188 C 74.980469 31.960938 74.972656 31.929688 74.96875 31.902344 C 74.960938 31.871094 74.953125 31.839844 74.941406 31.808594 C 74.9375 31.792969 74.933594 31.777344 74.929688 31.761719 C 74.925781 31.75 74.921875 31.734375 74.917969 31.71875 C 74.90625 31.6875 74.898438 31.65625 74.886719 31.628906 C 74.867188 31.566406 74.84375 31.507812 74.820312 31.449219 C 74.835938 31.507812 74.851562 31.570312 74.867188 31.628906 C 74.875 31.660156 74.878906 31.691406 74.886719 31.71875 C 74.890625 31.734375 74.890625 31.75 74.894531 31.765625 C 74.898438 31.78125 74.902344 31.792969 74.902344 31.808594 L 74.910156 31.855469 C 74.914062 31.871094 74.914062 31.882812 74.917969 31.898438 C 74.921875 31.929688 74.925781 31.960938 74.929688 31.988281 C 74.9375 32.046875 74.941406 32.109375 74.945312 32.167969 C 74.949219 32.195312 74.949219 32.226562 74.953125 32.253906 C 74.953125 32.285156 74.953125 32.3125 74.953125 32.34375 C 74.953125 32.402344 74.953125 32.457031 74.953125 32.515625 C 74.949219 32.574219 74.945312 32.628906 74.941406 32.6875 C 74.9375 32.742188 74.929688 32.800781 74.921875 32.855469 C 74.914062 32.910156 74.90625 32.964844 74.894531 33.019531 C 74.882812 33.074219 74.871094 33.128906 74.859375 33.179688 C 74.832031 33.289062 74.800781 33.390625 74.765625 33.492188 C 74.753906 33.53125 74.738281 33.570312 74.726562 33.605469 C 74.722656 33.597656 74.722656 33.585938 74.722656 33.578125 C 74.710938 33.476562 74.691406 33.371094 74.667969 33.265625 C 74.640625 33.160156 74.605469 33.054688 74.566406 32.953125 C 74.523438 32.851562 74.480469 32.753906 74.4375 32.65625 C 74.390625 32.5625 74.347656 32.46875 74.300781 32.375 C 74.257812 32.28125 74.21875 32.1875 74.179688 32.09375 C 74.140625 32.003906 74.105469 31.910156 74.070312 31.816406 C 74.054688 31.769531 74.039062 31.722656 74.023438 31.675781 C 74.019531 31.664062 74.015625 31.652344 74.011719 31.640625 L 74.003906 31.621094 L 74 31.605469 C 73.996094 31.59375 73.992188 31.578125 73.988281 31.570312 L 73.980469 31.535156 C 73.953125 31.441406 73.929688 31.347656 73.910156 31.253906 C 73.890625 31.160156 73.875 31.0625 73.855469 30.964844 C 73.839844 30.867188 73.820312 30.765625 73.800781 30.664062 C 73.777344 30.5625 73.75 30.460938 73.71875 30.355469 C 73.683594 30.25 73.640625 30.144531 73.59375 30.042969 C 73.546875 29.941406 73.492188 29.84375 73.429688 29.75 C 73.453125 29.753906 73.472656 29.757812 73.496094 29.765625 C 73.617188 29.792969 73.738281 29.828125 73.859375 29.867188 C 73.917969 29.886719 73.980469 29.910156 74.039062 29.933594 C 74.097656 29.957031 74.160156 29.980469 74.21875 30.007812 C 74.335938 30.0625 74.449219 30.125 74.5625 30.191406 C 74.617188 30.226562 74.671875 30.261719 74.726562 30.300781 C 74.78125 30.339844 74.832031 30.378906 74.882812 30.421875 C 74.984375 30.503906 75.082031 30.597656 75.167969 30.695312 C 75.257812 30.796875 75.339844 30.902344 75.410156 31.011719 C 75.417969 31.027344 75.425781 31.042969 75.4375 31.054688 L 75.449219 31.074219 L 75.460938 31.097656 L 75.46875 31.109375 L 75.472656 31.121094 L 75.484375 31.140625 C 75.492188 31.15625 75.5 31.171875 75.507812 31.183594 C 75.539062 31.242188 75.570312 31.300781 75.59375 31.363281 C 75.644531 31.480469 75.6875 31.605469 75.714844 31.726562 C 75.742188 31.851562 75.761719 31.972656 75.769531 32.097656 C 75.773438 32.21875 75.773438 32.34375 75.757812 32.460938 C 75.746094 32.582031 75.722656 32.699219 75.695312 32.8125 C 75.667969 32.925781 75.628906 33.039062 75.589844 33.148438 C 75.546875 33.253906 75.496094 33.359375 75.445312 33.464844 C 75.390625 33.566406 75.332031 33.664062 75.269531 33.761719 C 75.207031 33.855469 75.144531 33.949219 75.070312 34.035156 C 75.113281 34 75.152344 33.957031 75.191406 33.917969 C 75.230469 33.875 75.265625 33.832031 75.304688 33.789062 C 75.378906 33.699219 75.445312 33.605469 75.507812 33.511719 C 75.570312 33.414062 75.632812 33.3125 75.683594 33.207031 C 75.734375 33.101562 75.78125 32.992188 75.820312 32.875 " fill-opacity="1" fill-rule="nonzero"/><path fill="#f0f8ff" d="M 68.328125 31.160156 C 68.328125 31.160156 69.757812 31.476562 70.550781 31.816406 C 71.339844 32.15625 71.925781 32.175781 71.925781 32.175781 L 72.609375 32.28125 L 73.148438 32.429688 L 72.625 31.769531 C 72.625 31.769531 71.824219 31.019531 70.90625 30.773438 C 70.90625 30.773438 72.042969 30.769531 73.542969 32.21875 C 73.542969 32.21875 73.296875 31.148438 71.886719 30.101562 C 71.886719 30.101562 69.726562 29.109375 68.328125 31.160156 " fill-opacity="1" fill-rule="nonzero"/><path fill="#f0f8ff" d="M 72.773438 30.726562 C 72.683594 30.613281 72.582031 30.503906 72.46875 30.402344 C 72.359375 30.300781 72.238281 30.203125 72.113281 30.117188 C 71.984375 30.03125 71.84375 29.957031 71.699219 29.890625 C 71.628906 29.859375 71.554688 29.828125 71.476562 29.804688 C 71.402344 29.777344 71.324219 29.757812 71.246094 29.738281 C 71.167969 29.71875 71.089844 29.703125 71.007812 29.691406 C 70.988281 29.6875 70.96875 29.6875 70.949219 29.683594 L 70.917969 29.679688 L 70.902344 29.675781 L 70.886719 29.675781 L 70.859375 29.671875 L 70.828125 29.671875 C 70.808594 29.667969 70.789062 29.667969 70.769531 29.664062 C 70.605469 29.65625 70.445312 29.660156 70.285156 29.679688 C 70.125 29.699219 69.96875 29.730469 69.816406 29.777344 C 69.667969 29.824219 69.523438 29.882812 69.382812 29.953125 C 69.246094 30.019531 69.117188 30.097656 68.992188 30.183594 C 68.933594 30.226562 68.871094 30.269531 68.816406 30.316406 C 68.757812 30.363281 68.703125 30.410156 68.648438 30.460938 C 68.539062 30.558594 68.4375 30.660156 68.339844 30.769531 C 68.292969 30.824219 68.25 30.878906 68.203125 30.9375 C 68.183594 30.964844 68.160156 30.992188 68.140625 31.023438 C 68.128906 31.039062 68.117188 31.054688 68.109375 31.066406 L 68.085938 31.101562 L 68.078125 31.117188 L 67.902344 31.390625 L 68.265625 31.359375 C 68.371094 31.351562 68.476562 31.347656 68.582031 31.347656 C 68.691406 31.351562 68.792969 31.363281 68.898438 31.378906 C 69.003906 31.394531 69.105469 31.417969 69.207031 31.449219 C 69.308594 31.480469 69.410156 31.515625 69.511719 31.558594 C 69.613281 31.597656 69.714844 31.644531 69.816406 31.691406 C 69.921875 31.734375 70.027344 31.785156 70.136719 31.828125 C 70.246094 31.871094 70.359375 31.914062 70.472656 31.953125 C 70.484375 31.957031 70.5 31.960938 70.515625 31.964844 C 70.53125 31.96875 70.542969 31.972656 70.558594 31.976562 L 70.578125 31.984375 L 70.601562 31.992188 C 70.617188 31.996094 70.628906 32 70.644531 32.003906 C 70.703125 32.019531 70.757812 32.035156 70.816406 32.050781 C 70.929688 32.078125 71.046875 32.105469 71.164062 32.125 C 71.222656 32.136719 71.28125 32.148438 71.339844 32.15625 C 71.398438 32.164062 71.453125 32.175781 71.511719 32.183594 C 71.628906 32.199219 71.742188 32.214844 71.855469 32.230469 C 71.964844 32.246094 72.078125 32.261719 72.183594 32.285156 C 72.289062 32.304688 72.394531 32.332031 72.496094 32.363281 C 72.59375 32.398438 72.691406 32.4375 72.789062 32.484375 C 72.882812 32.53125 72.976562 32.585938 73.066406 32.644531 C 73.109375 32.671875 73.15625 32.703125 73.199219 32.734375 C 73.242188 32.765625 73.285156 32.796875 73.328125 32.832031 L 73.835938 33.21875 L 73.539062 32.699219 L 73.523438 32.675781 L 73.511719 32.652344 C 73.503906 32.636719 73.492188 32.625 73.484375 32.609375 C 73.464844 32.582031 73.445312 32.550781 73.425781 32.523438 C 73.390625 32.46875 73.347656 32.414062 73.308594 32.359375 C 73.265625 32.304688 73.222656 32.253906 73.179688 32.199219 C 73.136719 32.148438 73.089844 32.097656 73.042969 32.046875 C 72.953125 31.945312 72.855469 31.847656 72.753906 31.753906 C 72.699219 31.707031 72.648438 31.660156 72.59375 31.617188 C 72.542969 31.574219 72.488281 31.53125 72.429688 31.488281 C 72.375 31.445312 72.320312 31.40625 72.261719 31.363281 C 72.203125 31.324219 72.144531 31.289062 72.082031 31.25 C 72.023438 31.214844 71.960938 31.179688 71.898438 31.144531 C 71.867188 31.128906 71.835938 31.113281 71.804688 31.097656 C 71.773438 31.082031 71.742188 31.0625 71.710938 31.050781 C 71.644531 31.019531 71.582031 30.992188 71.515625 30.964844 C 71.484375 30.949219 71.449219 30.9375 71.417969 30.925781 C 71.382812 30.910156 71.351562 30.898438 71.316406 30.886719 C 71.300781 30.882812 71.28125 30.875 71.265625 30.871094 C 71.25 30.867188 71.230469 30.859375 71.214844 30.855469 C 71.179688 30.84375 71.148438 30.832031 71.113281 30.824219 C 71.042969 30.804688 70.976562 30.789062 70.90625 30.773438 C 70.972656 30.796875 71.039062 30.820312 71.105469 30.84375 C 71.136719 30.859375 71.167969 30.871094 71.203125 30.886719 C 71.21875 30.890625 71.234375 30.898438 71.25 30.90625 C 71.265625 30.914062 71.28125 30.917969 71.296875 30.925781 L 71.34375 30.949219 C 71.359375 30.957031 71.375 30.964844 71.390625 30.972656 C 71.421875 30.988281 71.453125 31.003906 71.484375 31.019531 C 71.546875 31.050781 71.605469 31.082031 71.664062 31.117188 C 71.695312 31.136719 71.726562 31.152344 71.753906 31.171875 C 71.78125 31.1875 71.8125 31.207031 71.839844 31.226562 C 71.898438 31.261719 71.953125 31.300781 72.007812 31.339844 C 72.0625 31.378906 72.117188 31.421875 72.167969 31.464844 C 72.222656 31.503906 72.273438 31.546875 72.324219 31.59375 C 72.375 31.636719 72.421875 31.679688 72.46875 31.726562 C 72.519531 31.773438 72.566406 31.820312 72.609375 31.867188 C 72.703125 31.960938 72.789062 32.058594 72.871094 32.160156 C 72.902344 32.199219 72.929688 32.238281 72.960938 32.273438 C 72.949219 32.269531 72.941406 32.265625 72.933594 32.257812 C 72.824219 32.203125 72.714844 32.152344 72.597656 32.109375 C 72.484375 32.066406 72.367188 32.03125 72.25 32.003906 C 72.128906 31.976562 72.011719 31.957031 71.898438 31.9375 C 71.785156 31.917969 71.667969 31.902344 71.558594 31.882812 C 71.445312 31.863281 71.335938 31.84375 71.226562 31.824219 C 71.117188 31.800781 71.011719 31.773438 70.902344 31.746094 C 70.851562 31.730469 70.796875 31.71875 70.742188 31.699219 C 70.730469 31.695312 70.71875 31.691406 70.703125 31.6875 L 70.683594 31.683594 L 70.664062 31.675781 C 70.652344 31.671875 70.636719 31.667969 70.625 31.664062 L 70.585938 31.652344 C 70.484375 31.617188 70.382812 31.578125 70.28125 31.535156 C 70.179688 31.492188 70.078125 31.445312 69.972656 31.398438 C 69.871094 31.351562 69.765625 31.304688 69.652344 31.261719 C 69.542969 31.214844 69.429688 31.171875 69.3125 31.136719 C 69.195312 31.101562 69.074219 31.074219 68.949219 31.054688 C 68.828125 31.035156 68.707031 31.027344 68.585938 31.023438 C 68.601562 31.003906 68.617188 30.988281 68.632812 30.96875 C 68.71875 30.867188 68.808594 30.773438 68.90625 30.679688 C 68.953125 30.632812 69.003906 30.589844 69.058594 30.546875 C 69.109375 30.503906 69.160156 30.460938 69.214844 30.421875 C 69.324219 30.34375 69.4375 30.269531 69.558594 30.203125 C 69.621094 30.171875 69.679688 30.140625 69.746094 30.113281 C 69.808594 30.085938 69.871094 30.0625 69.9375 30.039062 C 70.066406 29.996094 70.203125 29.960938 70.34375 29.9375 C 70.480469 29.917969 70.621094 29.90625 70.765625 29.910156 C 70.785156 29.910156 70.800781 29.914062 70.820312 29.914062 L 70.84375 29.914062 L 70.875 29.917969 L 70.902344 29.917969 L 70.925781 29.921875 C 70.945312 29.921875 70.960938 29.921875 70.980469 29.925781 C 71.050781 29.933594 71.121094 29.945312 71.191406 29.957031 C 71.335938 29.984375 71.472656 30.027344 71.605469 30.078125 C 71.742188 30.128906 71.871094 30.195312 71.992188 30.269531 C 72.117188 30.34375 72.234375 30.425781 72.34375 30.515625 C 72.453125 30.605469 72.558594 30.703125 72.652344 30.808594 C 72.75 30.910156 72.84375 31.019531 72.925781 31.128906 C 73.011719 31.242188 73.09375 31.359375 73.167969 31.476562 C 73.242188 31.59375 73.308594 31.71875 73.371094 31.839844 C 73.433594 31.964844 73.496094 32.089844 73.542969 32.21875 C 73.527344 32.152344 73.507812 32.085938 73.484375 32.023438 C 73.464844 31.957031 73.441406 31.890625 73.414062 31.828125 C 73.363281 31.699219 73.308594 31.570312 73.242188 31.445312 C 73.179688 31.320312 73.109375 31.195312 73.03125 31.074219 C 72.953125 30.957031 72.867188 30.839844 72.773438 30.726562 " fill-opacity="1" fill-rule="nonzero"/><path fill="#f0f8ff" d="M 67.511719 36.9375 C 67.511719 36.9375 68.507812 35.746094 69.214844 35.195312 C 69.925781 34.640625 70.226562 34.082031 70.226562 34.082031 L 70.65625 33.480469 L 71.058594 33.050781 L 70.164062 33.132812 C 70.164062 33.132812 69.050781 33.425781 68.371094 34.160156 C 68.371094 34.160156 68.914062 33.046875 71.042969 32.523438 C 71.042969 32.523438 69.882812 32.066406 68.1875 32.765625 C 68.1875 32.765625 66.1875 34.230469 67.511719 36.9375 " fill-opacity="1" fill-rule="nonzero"/><path fill="#f0f8ff" d="M 69.222656 32.300781 C 69.066406 32.320312 68.914062 32.347656 68.761719 32.390625 C 68.609375 32.429688 68.457031 32.484375 68.3125 32.554688 C 68.167969 32.625 68.027344 32.710938 67.894531 32.808594 C 67.828125 32.859375 67.761719 32.914062 67.703125 32.972656 C 67.640625 33.027344 67.582031 33.089844 67.527344 33.152344 C 67.46875 33.21875 67.417969 33.285156 67.367188 33.355469 C 67.355469 33.375 67.34375 33.390625 67.332031 33.410156 L 67.3125 33.4375 L 67.304688 33.449219 L 67.296875 33.464844 L 67.277344 33.488281 L 67.261719 33.519531 C 67.25 33.539062 67.238281 33.554688 67.226562 33.574219 C 67.140625 33.726562 67.066406 33.886719 67.007812 34.054688 C 66.949219 34.226562 66.90625 34.398438 66.878906 34.578125 C 66.851562 34.757812 66.839844 34.9375 66.839844 35.117188 C 66.84375 35.292969 66.855469 35.472656 66.878906 35.648438 C 66.890625 35.738281 66.90625 35.824219 66.921875 35.910156 C 66.941406 36 66.960938 36.085938 66.980469 36.167969 C 67.023438 36.339844 67.078125 36.507812 67.136719 36.671875 C 67.167969 36.753906 67.199219 36.835938 67.234375 36.914062 C 67.25 36.953125 67.269531 36.996094 67.289062 37.035156 C 67.296875 37.054688 67.304688 37.074219 67.316406 37.09375 L 67.347656 37.15625 L 67.53125 37.503906 L 67.675781 37.132812 C 67.714844 37.019531 67.765625 36.914062 67.816406 36.8125 C 67.871094 36.710938 67.929688 36.613281 67.996094 36.523438 C 68.0625 36.433594 68.136719 36.347656 68.214844 36.269531 C 68.292969 36.1875 68.375 36.113281 68.464844 36.042969 C 68.554688 35.96875 68.644531 35.898438 68.742188 35.828125 C 68.835938 35.753906 68.933594 35.683594 69.027344 35.605469 C 69.125 35.527344 69.21875 35.445312 69.308594 35.355469 C 69.320312 35.347656 69.332031 35.335938 69.34375 35.324219 C 69.355469 35.3125 69.367188 35.300781 69.375 35.289062 L 69.394531 35.273438 L 69.410156 35.257812 C 69.421875 35.246094 69.433594 35.234375 69.441406 35.222656 C 69.484375 35.175781 69.527344 35.132812 69.570312 35.085938 C 69.652344 34.992188 69.734375 34.894531 69.8125 34.792969 C 69.847656 34.742188 69.886719 34.691406 69.925781 34.640625 C 69.960938 34.59375 69.996094 34.539062 70.035156 34.488281 C 70.105469 34.386719 70.175781 34.285156 70.242188 34.1875 C 70.3125 34.085938 70.382812 33.988281 70.453125 33.898438 C 70.527344 33.808594 70.601562 33.722656 70.683594 33.648438 C 70.761719 33.570312 70.847656 33.5 70.941406 33.4375 C 71.03125 33.375 71.128906 33.320312 71.226562 33.269531 C 71.277344 33.246094 71.328125 33.222656 71.378906 33.199219 C 71.433594 33.175781 71.484375 33.15625 71.535156 33.136719 L 72.15625 32.894531 L 71.507812 32.84375 L 71.480469 32.84375 L 71.449219 32.839844 C 71.433594 32.839844 71.414062 32.839844 71.394531 32.839844 C 71.359375 32.839844 71.320312 32.839844 71.285156 32.839844 C 71.210938 32.839844 71.140625 32.84375 71.066406 32.847656 C 70.996094 32.851562 70.921875 32.859375 70.851562 32.867188 C 70.777344 32.878906 70.707031 32.886719 70.636719 32.902344 C 70.492188 32.925781 70.351562 32.957031 70.210938 32.996094 C 70.140625 33.015625 70.070312 33.039062 70.003906 33.0625 C 69.933594 33.085938 69.867188 33.109375 69.796875 33.136719 C 69.730469 33.164062 69.664062 33.191406 69.597656 33.222656 C 69.53125 33.253906 69.464844 33.289062 69.402344 33.324219 C 69.335938 33.359375 69.273438 33.394531 69.210938 33.433594 C 69.179688 33.453125 69.148438 33.472656 69.117188 33.492188 C 69.085938 33.515625 69.054688 33.535156 69.027344 33.554688 C 68.964844 33.597656 68.90625 33.644531 68.847656 33.691406 C 68.820312 33.714844 68.789062 33.738281 68.761719 33.761719 C 68.734375 33.785156 68.707031 33.8125 68.679688 33.835938 C 68.664062 33.847656 68.652344 33.863281 68.640625 33.875 C 68.625 33.886719 68.613281 33.898438 68.597656 33.914062 C 68.570312 33.941406 68.546875 33.964844 68.519531 33.992188 C 68.46875 34.046875 68.417969 34.105469 68.371094 34.160156 C 68.425781 34.113281 68.480469 34.0625 68.535156 34.015625 C 68.5625 33.992188 68.59375 33.96875 68.621094 33.945312 C 68.636719 33.933594 68.652344 33.925781 68.664062 33.914062 C 68.679688 33.902344 68.695312 33.890625 68.707031 33.878906 L 68.753906 33.847656 C 68.765625 33.835938 68.78125 33.828125 68.796875 33.816406 C 68.828125 33.796875 68.855469 33.777344 68.886719 33.757812 C 68.949219 33.71875 69.007812 33.679688 69.070312 33.644531 C 69.101562 33.625 69.132812 33.609375 69.164062 33.59375 C 69.195312 33.578125 69.226562 33.558594 69.261719 33.542969 C 69.324219 33.511719 69.386719 33.484375 69.453125 33.453125 C 69.515625 33.425781 69.582031 33.402344 69.648438 33.378906 C 69.714844 33.351562 69.78125 33.332031 69.847656 33.308594 C 69.914062 33.289062 69.980469 33.269531 70.050781 33.253906 C 70.117188 33.238281 70.183594 33.222656 70.253906 33.207031 C 70.390625 33.179688 70.527344 33.160156 70.664062 33.144531 C 70.714844 33.140625 70.765625 33.136719 70.816406 33.132812 C 70.808594 33.136719 70.796875 33.144531 70.789062 33.148438 C 70.683594 33.214844 70.578125 33.292969 70.484375 33.378906 C 70.386719 33.460938 70.296875 33.554688 70.214844 33.652344 C 70.132812 33.75 70.054688 33.851562 69.980469 33.953125 C 69.90625 34.050781 69.835938 34.152344 69.765625 34.25 C 69.691406 34.347656 69.621094 34.441406 69.546875 34.535156 C 69.472656 34.625 69.394531 34.714844 69.316406 34.800781 C 69.277344 34.84375 69.238281 34.886719 69.195312 34.925781 C 69.1875 34.9375 69.175781 34.949219 69.164062 34.957031 L 69.148438 34.972656 L 69.136719 34.988281 C 69.125 35 69.113281 35.011719 69.101562 35.019531 L 69.074219 35.046875 C 68.988281 35.125 68.902344 35.199219 68.8125 35.273438 C 68.722656 35.34375 68.628906 35.414062 68.535156 35.484375 C 68.4375 35.554688 68.339844 35.628906 68.246094 35.707031 C 68.148438 35.785156 68.050781 35.867188 67.960938 35.960938 C 67.871094 36.054688 67.785156 36.15625 67.707031 36.261719 C 67.628906 36.367188 67.5625 36.480469 67.503906 36.59375 C 67.492188 36.570312 67.480469 36.542969 67.472656 36.515625 C 67.414062 36.367188 67.363281 36.214844 67.320312 36.058594 C 67.300781 35.980469 67.28125 35.902344 67.261719 35.824219 C 67.246094 35.746094 67.230469 35.667969 67.21875 35.585938 C 67.191406 35.429688 67.175781 35.269531 67.171875 35.109375 C 67.167969 35.03125 67.167969 34.949219 67.171875 34.871094 C 67.175781 34.789062 67.183594 34.710938 67.191406 34.632812 C 67.210938 34.476562 67.242188 34.320312 67.289062 34.171875 C 67.335938 34.019531 67.394531 33.875 67.464844 33.738281 C 67.472656 33.71875 67.484375 33.703125 67.492188 33.6875 L 67.507812 33.660156 L 67.527344 33.621094 L 67.550781 33.585938 C 67.5625 33.570312 67.570312 33.554688 67.582031 33.535156 C 67.625 33.472656 67.667969 33.410156 67.714844 33.347656 C 67.8125 33.230469 67.917969 33.121094 68.03125 33.023438 C 68.148438 32.925781 68.269531 32.839844 68.402344 32.769531 C 68.53125 32.695312 68.667969 32.636719 68.808594 32.589844 C 68.949219 32.539062 69.097656 32.5 69.242188 32.472656 C 69.390625 32.445312 69.539062 32.425781 69.6875 32.417969 C 69.839844 32.40625 69.988281 32.40625 70.140625 32.410156 C 70.292969 32.414062 70.441406 32.425781 70.59375 32.445312 C 70.742188 32.464844 70.894531 32.488281 71.042969 32.523438 C 70.972656 32.496094 70.898438 32.472656 70.824219 32.453125 C 70.75 32.429688 70.675781 32.414062 70.601562 32.394531 C 70.449219 32.359375 70.300781 32.332031 70.144531 32.3125 C 69.992188 32.292969 69.839844 32.28125 69.683594 32.28125 C 69.53125 32.277344 69.375 32.285156 69.222656 32.300781 " fill-opacity="1" fill-rule="nonzero"/><path fill="#f0f8ff" d="M 72.742188 41.511719 C 72.742188 41.511719 72.058594 39.757812 71.859375 38.707031 C 71.664062 37.652344 71.265625 36.988281 71.265625 36.988281 L 70.886719 36.175781 L 70.660156 35.5 L 70.3125 36.425781 C 70.3125 36.425781 70.058594 37.710938 70.449219 38.859375 C 70.449219 38.859375 69.628906 37.597656 70.140625 35.171875 C 70.140625 35.171875 69.140625 36.007812 69.003906 38.125 C 69.003906 38.125 69.472656 41.042969 72.742188 41.511719 " fill-opacity="1" fill-rule="nonzero"/><path fill="#f0f8ff" d="M 69.050781 36.808594 C 68.992188 36.972656 68.945312 37.144531 68.914062 37.320312 C 68.882812 37.496094 68.863281 37.675781 68.859375 37.867188 C 68.859375 38.054688 68.875 38.246094 68.90625 38.441406 C 68.925781 38.539062 68.945312 38.636719 68.972656 38.734375 C 69 38.832031 69.03125 38.929688 69.066406 39.027344 C 69.101562 39.121094 69.140625 39.21875 69.1875 39.3125 C 69.199219 39.335938 69.210938 39.359375 69.222656 39.382812 L 69.238281 39.421875 L 69.25 39.4375 L 69.257812 39.453125 L 69.273438 39.488281 L 69.292969 39.523438 C 69.304688 39.546875 69.320312 39.570312 69.332031 39.59375 C 69.4375 39.777344 69.558594 39.957031 69.695312 40.121094 C 69.832031 40.289062 69.980469 40.445312 70.140625 40.589844 C 70.300781 40.730469 70.472656 40.863281 70.644531 40.976562 C 70.820312 41.09375 71 41.199219 71.183594 41.289062 C 71.273438 41.335938 71.367188 41.378906 71.460938 41.417969 C 71.550781 41.457031 71.644531 41.492188 71.738281 41.527344 C 71.925781 41.597656 72.113281 41.65625 72.300781 41.703125 C 72.394531 41.726562 72.492188 41.75 72.585938 41.769531 C 72.632812 41.777344 72.679688 41.785156 72.726562 41.792969 C 72.75 41.796875 72.773438 41.800781 72.800781 41.804688 L 72.835938 41.808594 L 72.875 41.816406 L 73.300781 41.863281 L 73.007812 41.480469 C 72.917969 41.367188 72.839844 41.25 72.765625 41.128906 C 72.691406 41.011719 72.625 40.890625 72.570312 40.765625 C 72.511719 40.644531 72.464844 40.515625 72.425781 40.386719 C 72.386719 40.257812 72.355469 40.128906 72.324219 39.992188 C 72.296875 39.859375 72.273438 39.722656 72.25 39.582031 C 72.226562 39.445312 72.199219 39.300781 72.171875 39.15625 C 72.140625 39.011719 72.105469 38.867188 72.066406 38.71875 C 72.0625 38.703125 72.054688 38.683594 72.050781 38.664062 C 72.042969 38.644531 72.039062 38.628906 72.035156 38.609375 L 72.023438 38.582031 L 72.015625 38.554688 C 72.011719 38.539062 72.003906 38.519531 72 38.5 C 71.976562 38.429688 71.949219 38.359375 71.925781 38.285156 C 71.875 38.144531 71.816406 38 71.757812 37.859375 C 71.726562 37.789062 71.695312 37.71875 71.664062 37.652344 C 71.632812 37.582031 71.601562 37.511719 71.570312 37.445312 C 71.503906 37.308594 71.4375 37.171875 71.375 37.039062 C 71.308594 36.90625 71.25 36.777344 71.195312 36.648438 C 71.140625 36.519531 71.097656 36.390625 71.0625 36.257812 C 71.023438 36.128906 71 36 70.980469 35.871094 C 70.964844 35.738281 70.957031 35.609375 70.957031 35.480469 C 70.957031 35.414062 70.957031 35.347656 70.960938 35.285156 C 70.960938 35.21875 70.96875 35.152344 70.972656 35.089844 L 71.035156 34.320312 L 70.675781 34.925781 L 70.667969 34.941406 L 70.660156 34.953125 L 70.644531 34.980469 C 70.632812 34.996094 70.625 35.015625 70.617188 35.035156 C 70.597656 35.070312 70.578125 35.105469 70.5625 35.140625 C 70.527344 35.210938 70.496094 35.285156 70.46875 35.359375 C 70.4375 35.433594 70.410156 35.507812 70.382812 35.585938 C 70.359375 35.660156 70.332031 35.738281 70.3125 35.816406 C 70.265625 35.972656 70.230469 36.132812 70.203125 36.296875 C 70.1875 36.375 70.175781 36.457031 70.164062 36.539062 C 70.152344 36.625 70.144531 36.707031 70.140625 36.792969 C 70.132812 36.875 70.128906 36.960938 70.128906 37.042969 C 70.125 37.128906 70.125 37.214844 70.128906 37.300781 C 70.132812 37.386719 70.136719 37.472656 70.144531 37.558594 C 70.148438 37.605469 70.15625 37.648438 70.160156 37.691406 C 70.164062 37.734375 70.167969 37.777344 70.175781 37.820312 C 70.1875 37.90625 70.203125 37.996094 70.222656 38.082031 C 70.230469 38.125 70.242188 38.167969 70.25 38.210938 C 70.261719 38.257812 70.273438 38.300781 70.28125 38.34375 C 70.289062 38.363281 70.292969 38.386719 70.300781 38.40625 C 70.308594 38.429688 70.3125 38.449219 70.320312 38.472656 C 70.332031 38.515625 70.34375 38.558594 70.359375 38.601562 C 70.386719 38.6875 70.417969 38.773438 70.449219 38.859375 C 70.429688 38.773438 70.40625 38.6875 70.390625 38.601562 C 70.378906 38.558594 70.371094 38.515625 70.363281 38.472656 C 70.359375 38.449219 70.355469 38.429688 70.351562 38.40625 C 70.347656 38.386719 70.34375 38.363281 70.339844 38.34375 L 70.328125 38.277344 C 70.328125 38.257812 70.324219 38.234375 70.320312 38.214844 C 70.316406 38.171875 70.308594 38.128906 70.304688 38.085938 C 70.296875 38.003906 70.289062 37.917969 70.285156 37.835938 C 70.28125 37.792969 70.28125 37.75 70.277344 37.707031 C 70.277344 37.667969 70.277344 37.625 70.277344 37.585938 C 70.277344 37.5 70.277344 37.417969 70.28125 37.335938 C 70.285156 37.253906 70.292969 37.175781 70.300781 37.09375 C 70.308594 37.015625 70.320312 36.933594 70.332031 36.855469 C 70.34375 36.777344 70.359375 36.699219 70.375 36.621094 C 70.390625 36.542969 70.40625 36.46875 70.425781 36.390625 C 70.464844 36.242188 70.511719 36.09375 70.5625 35.949219 C 70.582031 35.894531 70.601562 35.84375 70.625 35.789062 C 70.625 35.804688 70.625 35.816406 70.628906 35.832031 C 70.640625 35.976562 70.667969 36.128906 70.703125 36.277344 C 70.738281 36.425781 70.785156 36.578125 70.84375 36.722656 C 70.898438 36.867188 70.957031 37.007812 71.019531 37.144531 C 71.082031 37.28125 71.144531 37.417969 71.207031 37.550781 C 71.265625 37.683594 71.324219 37.816406 71.378906 37.949219 C 71.433594 38.082031 71.480469 38.214844 71.527344 38.347656 C 71.550781 38.417969 71.574219 38.484375 71.59375 38.550781 C 71.597656 38.566406 71.605469 38.582031 71.609375 38.601562 L 71.625 38.648438 C 71.628906 38.667969 71.632812 38.683594 71.636719 38.699219 L 71.652344 38.75 C 71.6875 38.882812 71.71875 39.015625 71.746094 39.152344 C 71.769531 39.285156 71.792969 39.421875 71.816406 39.5625 C 71.839844 39.703125 71.863281 39.84375 71.894531 39.988281 C 71.925781 40.136719 71.960938 40.285156 72.007812 40.433594 C 72.050781 40.582031 72.109375 40.734375 72.175781 40.878906 C 72.242188 41.023438 72.320312 41.164062 72.402344 41.296875 C 72.371094 41.292969 72.34375 41.285156 72.3125 41.277344 C 72.140625 41.234375 71.964844 41.183594 71.792969 41.125 C 71.707031 41.09375 71.625 41.0625 71.539062 41.027344 C 71.453125 40.992188 71.371094 40.957031 71.285156 40.917969 C 71.121094 40.839844 70.957031 40.75 70.796875 40.648438 C 70.71875 40.601562 70.640625 40.546875 70.566406 40.492188 C 70.492188 40.4375 70.417969 40.378906 70.34375 40.320312 C 70.199219 40.199219 70.066406 40.066406 69.941406 39.921875 C 69.816406 39.78125 69.703125 39.628906 69.605469 39.46875 C 69.59375 39.445312 69.578125 39.425781 69.566406 39.40625 L 69.550781 39.378906 L 69.523438 39.328125 L 69.515625 39.3125 L 69.5 39.285156 C 69.488281 39.261719 69.476562 39.242188 69.464844 39.222656 C 69.421875 39.136719 69.382812 39.054688 69.347656 38.96875 C 69.277344 38.796875 69.21875 38.621094 69.179688 38.445312 C 69.140625 38.269531 69.121094 38.09375 69.113281 37.917969 C 69.105469 37.742188 69.109375 37.570312 69.132812 37.398438 C 69.152344 37.230469 69.183594 37.0625 69.226562 36.902344 C 69.269531 36.738281 69.324219 36.582031 69.386719 36.429688 C 69.449219 36.273438 69.519531 36.125 69.597656 35.980469 C 69.671875 35.835938 69.757812 35.699219 69.847656 35.5625 C 69.941406 35.425781 70.035156 35.292969 70.140625 35.171875 C 70.082031 35.226562 70.023438 35.28125 69.964844 35.339844 C 69.910156 35.398438 69.855469 35.460938 69.800781 35.519531 C 69.695312 35.644531 69.597656 35.777344 69.503906 35.914062 C 69.414062 36.050781 69.328125 36.191406 69.253906 36.34375 C 69.175781 36.492188 69.109375 36.648438 69.050781 36.808594 " fill-opacity="1" fill-rule="nonzero"/><path fill="#f0f8ff" d="M 79.699219 39.378906 C 79.699219 39.378906 77.667969 38.90625 76.546875 38.410156 C 75.425781 37.910156 74.589844 37.871094 74.589844 37.871094 L 73.617188 37.710938 L 72.851562 37.492188 L 73.585938 38.4375 C 73.585938 38.4375 74.714844 39.523438 76.019531 39.886719 C 76.019531 39.886719 74.398438 39.871094 72.285156 37.785156 C 72.285156 37.785156 72.617188 39.3125 74.613281 40.828125 C 74.613281 40.828125 77.675781 42.273438 79.699219 39.378906 " fill-opacity="1" fill-rule="nonzero"/><path fill="#f0f8ff" d="M 73.355469 39.921875 C 73.484375 40.085938 73.628906 40.242188 73.785156 40.386719 C 73.941406 40.535156 74.109375 40.671875 74.289062 40.796875 C 74.472656 40.921875 74.667969 41.035156 74.875 41.128906 C 74.976562 41.175781 75.082031 41.21875 75.191406 41.253906 C 75.296875 41.292969 75.40625 41.324219 75.519531 41.355469 C 75.628906 41.382812 75.742188 41.40625 75.855469 41.421875 C 75.882812 41.429688 75.914062 41.433594 75.941406 41.4375 L 75.984375 41.441406 L 76.007812 41.445312 L 76.027344 41.445312 L 76.066406 41.453125 L 76.113281 41.457031 C 76.140625 41.460938 76.167969 41.460938 76.199219 41.464844 C 76.429688 41.480469 76.660156 41.476562 76.886719 41.453125 C 77.117188 41.429688 77.339844 41.382812 77.554688 41.320312 C 77.769531 41.257812 77.976562 41.175781 78.175781 41.082031 C 78.371094 40.988281 78.558594 40.878906 78.734375 40.757812 C 78.824219 40.699219 78.910156 40.636719 78.992188 40.570312 C 79.078125 40.507812 79.15625 40.441406 79.234375 40.371094 C 79.390625 40.234375 79.539062 40.089844 79.675781 39.933594 C 79.746094 39.859375 79.8125 39.78125 79.875 39.699219 C 79.90625 39.660156 79.9375 39.621094 79.96875 39.578125 C 79.984375 39.558594 80 39.535156 80.015625 39.515625 L 80.035156 39.484375 L 80.058594 39.445312 L 80.3125 39.0625 L 79.796875 39.097656 C 79.644531 39.109375 79.492188 39.113281 79.339844 39.109375 C 79.191406 39.101562 79.039062 39.085938 78.894531 39.0625 C 78.746094 39.035156 78.601562 39 78.457031 38.953125 C 78.3125 38.910156 78.167969 38.855469 78.023438 38.792969 C 77.878906 38.734375 77.734375 38.667969 77.585938 38.601562 C 77.441406 38.535156 77.289062 38.464844 77.136719 38.398438 C 76.980469 38.335938 76.820312 38.273438 76.660156 38.21875 C 76.640625 38.210938 76.617188 38.203125 76.597656 38.195312 C 76.574219 38.191406 76.558594 38.183594 76.539062 38.179688 L 76.507812 38.167969 L 76.476562 38.160156 C 76.457031 38.152344 76.4375 38.148438 76.414062 38.140625 C 76.335938 38.117188 76.253906 38.09375 76.171875 38.074219 C 76.007812 38.027344 75.839844 37.992188 75.675781 37.957031 C 75.59375 37.941406 75.511719 37.925781 75.425781 37.910156 C 75.34375 37.898438 75.261719 37.882812 75.179688 37.871094 C 75.015625 37.84375 74.851562 37.820312 74.695312 37.796875 C 74.535156 37.773438 74.378906 37.75 74.226562 37.714844 C 74.074219 37.683594 73.925781 37.644531 73.785156 37.59375 C 73.640625 37.546875 73.5 37.484375 73.367188 37.417969 C 73.230469 37.347656 73.101562 37.269531 72.972656 37.1875 C 72.910156 37.144531 72.847656 37.101562 72.785156 37.054688 C 72.722656 37.011719 72.664062 36.964844 72.601562 36.917969 L 71.886719 36.355469 L 72.300781 37.101562 L 72.3125 37.117188 L 72.320312 37.136719 L 72.339844 37.167969 C 72.351562 37.1875 72.363281 37.207031 72.378906 37.230469 C 72.402344 37.269531 72.429688 37.3125 72.457031 37.351562 C 72.511719 37.433594 72.566406 37.511719 72.625 37.589844 C 72.683594 37.664062 72.742188 37.742188 72.804688 37.816406 C 72.863281 37.890625 72.929688 37.964844 72.992188 38.039062 C 73.125 38.183594 73.261719 38.324219 73.40625 38.457031 C 73.476562 38.527344 73.550781 38.59375 73.628906 38.65625 C 73.703125 38.71875 73.78125 38.78125 73.859375 38.84375 C 73.9375 38.90625 74.019531 38.964844 74.101562 39.019531 C 74.183594 39.078125 74.265625 39.132812 74.351562 39.1875 C 74.4375 39.238281 74.523438 39.292969 74.609375 39.339844 C 74.65625 39.363281 74.699219 39.386719 74.742188 39.410156 C 74.789062 39.433594 74.832031 39.457031 74.878906 39.480469 C 74.96875 39.523438 75.0625 39.566406 75.15625 39.605469 C 75.203125 39.625 75.25 39.644531 75.296875 39.664062 C 75.34375 39.683594 75.390625 39.699219 75.4375 39.714844 C 75.460938 39.726562 75.484375 39.734375 75.507812 39.742188 C 75.535156 39.75 75.558594 39.757812 75.582031 39.765625 C 75.628906 39.78125 75.675781 39.796875 75.726562 39.8125 C 75.824219 39.839844 75.921875 39.863281 76.019531 39.886719 C 75.925781 39.855469 75.832031 39.820312 75.738281 39.78125 C 75.691406 39.761719 75.648438 39.742188 75.601562 39.722656 C 75.578125 39.710938 75.554688 39.703125 75.53125 39.691406 C 75.511719 39.679688 75.488281 39.671875 75.464844 39.660156 L 75.398438 39.628906 C 75.375 39.617188 75.355469 39.605469 75.332031 39.597656 C 75.285156 39.574219 75.242188 39.550781 75.199219 39.527344 C 75.113281 39.480469 75.027344 39.433594 74.945312 39.382812 C 74.902344 39.359375 74.859375 39.332031 74.820312 39.304688 C 74.777344 39.28125 74.738281 39.253906 74.695312 39.226562 C 74.617188 39.171875 74.535156 39.117188 74.460938 39.058594 C 74.382812 39.003906 74.304688 38.941406 74.230469 38.882812 C 74.15625 38.824219 74.085938 38.761719 74.015625 38.695312 C 73.941406 38.632812 73.875 38.570312 73.804688 38.503906 C 73.738281 38.4375 73.671875 38.371094 73.609375 38.300781 C 73.480469 38.164062 73.359375 38.023438 73.242188 37.878906 C 73.199219 37.824219 73.160156 37.769531 73.117188 37.714844 C 73.132812 37.722656 73.144531 37.730469 73.15625 37.738281 C 73.308594 37.820312 73.464844 37.894531 73.628906 37.957031 C 73.792969 38.019531 73.960938 38.070312 74.128906 38.109375 C 74.296875 38.152344 74.460938 38.183594 74.625 38.210938 C 74.789062 38.242188 74.949219 38.265625 75.109375 38.296875 C 75.269531 38.324219 75.425781 38.355469 75.582031 38.386719 C 75.734375 38.421875 75.890625 38.460938 76.039062 38.503906 C 76.117188 38.523438 76.191406 38.546875 76.269531 38.570312 C 76.285156 38.574219 76.304688 38.582031 76.324219 38.585938 L 76.351562 38.597656 L 76.378906 38.605469 C 76.398438 38.609375 76.417969 38.617188 76.4375 38.625 L 76.488281 38.640625 C 76.636719 38.695312 76.78125 38.75 76.925781 38.8125 C 77.070312 38.875 77.214844 38.941406 77.359375 39.011719 C 77.507812 39.078125 77.65625 39.148438 77.8125 39.214844 C 77.96875 39.28125 78.128906 39.34375 78.296875 39.394531 C 78.464844 39.445312 78.640625 39.488281 78.816406 39.519531 C 78.984375 39.546875 79.160156 39.566406 79.328125 39.570312 C 79.308594 39.597656 79.289062 39.621094 79.265625 39.648438 C 79.140625 39.789062 79.011719 39.925781 78.871094 40.054688 C 78.800781 40.117188 78.726562 40.179688 78.652344 40.242188 C 78.578125 40.300781 78.503906 40.359375 78.425781 40.414062 C 78.269531 40.527344 78.101562 40.628906 77.929688 40.71875 C 77.84375 40.761719 77.753906 40.804688 77.664062 40.84375 C 77.574219 40.882812 77.484375 40.917969 77.390625 40.945312 C 77.203125 41.007812 77.007812 41.054688 76.808594 41.082031 C 76.613281 41.113281 76.410156 41.121094 76.207031 41.113281 C 76.179688 41.113281 76.15625 41.113281 76.128906 41.113281 L 76.09375 41.109375 L 76.054688 41.105469 L 76.03125 41.105469 L 76.011719 41.101562 L 75.976562 41.097656 C 75.953125 41.097656 75.925781 41.09375 75.902344 41.089844 C 75.800781 41.078125 75.699219 41.0625 75.597656 41.039062 C 75.398438 41 75.199219 40.9375 75.007812 40.863281 C 74.820312 40.785156 74.636719 40.691406 74.460938 40.585938 C 74.289062 40.480469 74.125 40.359375 73.96875 40.226562 C 73.8125 40.097656 73.667969 39.957031 73.527344 39.808594 C 73.390625 39.660156 73.265625 39.503906 73.144531 39.34375 C 73.027344 39.183594 72.914062 39.015625 72.8125 38.847656 C 72.707031 38.675781 72.613281 38.503906 72.523438 38.324219 C 72.433594 38.148438 72.351562 37.96875 72.285156 37.785156 C 72.304688 37.878906 72.335938 37.972656 72.363281 38.066406 C 72.394531 38.160156 72.425781 38.25 72.460938 38.34375 C 72.53125 38.527344 72.613281 38.710938 72.699219 38.890625 C 72.789062 39.070312 72.886719 39.246094 72.996094 39.417969 C 73.105469 39.589844 73.222656 39.761719 73.355469 39.921875 " fill-opacity="1" fill-rule="nonzero"/><path fill="#f0f8ff" d="M 80.964844 31.175781 C 80.964844 31.175781 79.527344 32.855469 78.507812 33.628906 C 77.488281 34.398438 77.046875 35.191406 77.046875 35.191406 L 76.421875 36.039062 L 75.839844 36.644531 L 77.117188 36.542969 C 77.117188 36.542969 78.710938 36.148438 79.695312 35.109375 C 79.695312 35.109375 78.898438 36.6875 75.855469 37.394531 C 75.855469 37.394531 77.5 38.0625 79.929688 37.101562 C 79.929688 37.101562 82.808594 35.046875 80.964844 31.175781 " fill-opacity="1" fill-rule="nonzero"/><path fill="#f0f8ff" d="M 78.449219 37.742188 C 78.667969 37.71875 78.890625 37.679688 79.105469 37.625 C 79.324219 37.566406 79.539062 37.492188 79.75 37.398438 C 79.957031 37.300781 80.160156 37.183594 80.351562 37.042969 C 80.445312 36.972656 80.539062 36.898438 80.625 36.816406 C 80.714844 36.734375 80.800781 36.648438 80.878906 36.558594 C 80.960938 36.46875 81.035156 36.371094 81.109375 36.273438 C 81.128906 36.25 81.144531 36.222656 81.164062 36.199219 L 81.1875 36.160156 L 81.203125 36.140625 L 81.214844 36.121094 L 81.238281 36.085938 L 81.265625 36.042969 C 81.28125 36.015625 81.296875 35.992188 81.3125 35.964844 C 81.441406 35.75 81.546875 35.523438 81.632812 35.285156 C 81.71875 35.042969 81.78125 34.796875 81.824219 34.542969 C 81.867188 34.289062 81.886719 34.035156 81.890625 33.78125 C 81.890625 33.523438 81.875 33.269531 81.84375 33.019531 C 81.828125 32.894531 81.808594 32.769531 81.785156 32.644531 C 81.761719 32.523438 81.738281 32.398438 81.707031 32.277344 C 81.648438 32.035156 81.578125 31.796875 81.492188 31.5625 C 81.453125 31.445312 81.410156 31.328125 81.359375 31.214844 C 81.335938 31.15625 81.3125 31.097656 81.285156 31.042969 C 81.273438 31.015625 81.261719 30.984375 81.246094 30.957031 L 81.226562 30.914062 L 81.203125 30.867188 L 80.949219 30.371094 L 80.738281 30.898438 C 80.675781 31.054688 80.605469 31.207031 80.527344 31.347656 C 80.449219 31.492188 80.363281 31.628906 80.265625 31.757812 C 80.171875 31.886719 80.066406 32.003906 79.953125 32.117188 C 79.839844 32.226562 79.71875 32.332031 79.589844 32.433594 C 79.464844 32.535156 79.328125 32.632812 79.195312 32.734375 C 79.058594 32.835938 78.917969 32.9375 78.78125 33.046875 C 78.644531 33.15625 78.507812 33.269531 78.375 33.394531 C 78.359375 33.40625 78.34375 33.425781 78.324219 33.441406 C 78.308594 33.457031 78.292969 33.472656 78.277344 33.488281 L 78.230469 33.535156 C 78.214844 33.550781 78.199219 33.566406 78.183594 33.582031 C 78.121094 33.644531 78.058594 33.710938 78 33.777344 C 77.878906 33.910156 77.761719 34.046875 77.652344 34.1875 C 77.59375 34.257812 77.539062 34.328125 77.488281 34.398438 C 77.433594 34.46875 77.378906 34.542969 77.328125 34.613281 C 77.222656 34.757812 77.125 34.902344 77.023438 35.042969 C 76.925781 35.183594 76.824219 35.320312 76.71875 35.449219 C 76.613281 35.574219 76.507812 35.691406 76.390625 35.800781 C 76.273438 35.910156 76.148438 36.007812 76.015625 36.09375 C 75.886719 36.179688 75.746094 36.257812 75.605469 36.328125 C 75.53125 36.363281 75.460938 36.394531 75.386719 36.425781 C 75.3125 36.457031 75.238281 36.484375 75.164062 36.515625 L 74.273438 36.847656 L 75.195312 36.929688 L 75.21875 36.933594 L 75.238281 36.933594 L 75.28125 36.9375 C 75.304688 36.9375 75.332031 36.9375 75.359375 36.9375 C 75.410156 36.941406 75.464844 36.941406 75.515625 36.941406 C 75.621094 36.941406 75.722656 36.9375 75.828125 36.933594 C 75.929688 36.925781 76.03125 36.917969 76.136719 36.90625 C 76.238281 36.894531 76.339844 36.882812 76.441406 36.863281 C 76.644531 36.832031 76.847656 36.789062 77.050781 36.734375 C 77.148438 36.710938 77.25 36.679688 77.347656 36.648438 C 77.445312 36.617188 77.542969 36.582031 77.640625 36.542969 C 77.738281 36.503906 77.832031 36.464844 77.929688 36.421875 C 78.023438 36.378906 78.117188 36.335938 78.210938 36.285156 C 78.304688 36.238281 78.394531 36.1875 78.484375 36.132812 C 78.53125 36.105469 78.574219 36.074219 78.617188 36.046875 C 78.660156 36.019531 78.707031 35.992188 78.75 35.960938 C 78.835938 35.902344 78.921875 35.835938 79.003906 35.773438 C 79.046875 35.738281 79.085938 35.707031 79.128906 35.671875 C 79.167969 35.640625 79.207031 35.601562 79.246094 35.566406 C 79.265625 35.550781 79.285156 35.53125 79.304688 35.515625 C 79.324219 35.496094 79.34375 35.476562 79.363281 35.460938 C 79.402344 35.421875 79.441406 35.386719 79.476562 35.347656 C 79.550781 35.269531 79.625 35.191406 79.695312 35.109375 C 79.613281 35.179688 79.535156 35.25 79.453125 35.316406 C 79.414062 35.347656 79.371094 35.378906 79.332031 35.414062 C 79.3125 35.429688 79.289062 35.441406 79.269531 35.457031 C 79.25 35.472656 79.226562 35.488281 79.207031 35.503906 L 79.144531 35.550781 C 79.121094 35.566406 79.101562 35.578125 79.078125 35.59375 C 79.035156 35.621094 78.992188 35.648438 78.949219 35.675781 C 78.863281 35.730469 78.773438 35.785156 78.683594 35.832031 C 78.640625 35.859375 78.597656 35.882812 78.550781 35.90625 C 78.503906 35.929688 78.460938 35.953125 78.414062 35.972656 C 78.324219 36.015625 78.230469 36.058594 78.140625 36.097656 C 78.046875 36.136719 77.953125 36.171875 77.859375 36.203125 C 77.761719 36.238281 77.667969 36.265625 77.574219 36.296875 C 77.476562 36.324219 77.382812 36.347656 77.285156 36.371094 C 77.1875 36.394531 77.089844 36.414062 76.992188 36.433594 C 76.796875 36.46875 76.601562 36.496094 76.40625 36.515625 C 76.332031 36.523438 76.261719 36.527344 76.1875 36.53125 C 76.199219 36.523438 76.214844 36.515625 76.226562 36.507812 C 76.382812 36.414062 76.527344 36.308594 76.667969 36.1875 C 76.808594 36.070312 76.9375 35.9375 77.054688 35.800781 C 77.175781 35.664062 77.289062 35.519531 77.394531 35.378906 C 77.5 35.238281 77.605469 35.097656 77.707031 34.960938 C 77.8125 34.824219 77.914062 34.691406 78.023438 34.5625 C 78.128906 34.429688 78.242188 34.304688 78.355469 34.183594 C 78.414062 34.125 78.46875 34.0625 78.53125 34.007812 C 78.542969 33.992188 78.558594 33.976562 78.574219 33.960938 L 78.597656 33.941406 L 78.617188 33.921875 C 78.632812 33.90625 78.648438 33.890625 78.664062 33.875 L 78.707031 33.835938 C 78.828125 33.726562 78.953125 33.625 79.082031 33.523438 C 79.210938 33.421875 79.347656 33.324219 79.484375 33.226562 C 79.621094 33.125 79.761719 33.023438 79.898438 32.914062 C 80.039062 32.804688 80.175781 32.6875 80.308594 32.558594 C 80.4375 32.425781 80.5625 32.285156 80.675781 32.132812 C 80.785156 31.984375 80.886719 31.828125 80.972656 31.664062 C 80.988281 31.699219 81.003906 31.738281 81.015625 31.773438 C 81.09375 31.988281 81.164062 32.207031 81.222656 32.429688 C 81.25 32.539062 81.277344 32.652344 81.300781 32.761719 C 81.324219 32.875 81.34375 32.988281 81.359375 33.101562 C 81.394531 33.328125 81.414062 33.554688 81.417969 33.78125 C 81.421875 33.894531 81.417969 34.011719 81.414062 34.125 C 81.40625 34.234375 81.394531 34.347656 81.382812 34.460938 C 81.351562 34.683594 81.304688 34.902344 81.234375 35.117188 C 81.167969 35.328125 81.082031 35.535156 80.976562 35.730469 C 80.964844 35.753906 80.949219 35.777344 80.9375 35.800781 L 80.917969 35.835938 L 80.894531 35.875 L 80.882812 35.890625 L 80.871094 35.910156 L 80.851562 35.945312 C 80.835938 35.964844 80.820312 35.988281 80.808594 36.011719 C 80.746094 36.105469 80.679688 36.191406 80.613281 36.277344 C 80.476562 36.445312 80.324219 36.597656 80.15625 36.734375 C 79.992188 36.871094 79.8125 36.988281 79.625 37.089844 C 79.4375 37.191406 79.242188 37.273438 79.039062 37.339844 C 78.839844 37.40625 78.632812 37.457031 78.421875 37.496094 C 78.210938 37.535156 78 37.558594 77.785156 37.570312 C 77.570312 37.582031 77.355469 37.582031 77.140625 37.570312 C 76.925781 37.5625 76.710938 37.539062 76.496094 37.511719 C 76.28125 37.480469 76.066406 37.445312 75.855469 37.394531 C 75.957031 37.433594 76.0625 37.464844 76.167969 37.5 C 76.269531 37.53125 76.378906 37.558594 76.484375 37.585938 C 76.695312 37.636719 76.914062 37.675781 77.128906 37.707031 C 77.347656 37.738281 77.566406 37.757812 77.785156 37.761719 C 78.007812 37.769531 78.226562 37.761719 78.449219 37.742188 " fill-opacity="1" fill-rule="nonzero"/></svg>