<svg xmlns="http://www.w3.org/2000/svg" xmlns:xlink="http://www.w3.org/1999/xlink" width="500" zoomAndPan="magnify" viewBox="0 0 375 374.999991" height="500" preserveAspectRatio="xMidYMid meet" version="1.0"><defs><clipPath id="2aac9c4a03"><path d="M 187.5 452.664062 L -77.664062 187.5 L 187.5 -77.664062 L 452.664062 187.5 Z M 187.5 452.664062 " clip-rule="nonzero"/></clipPath><clipPath id="093ea2a008"><path d="M 187.5 452.664062 L -77.664062 187.5 L 187.5 -77.664062 L 452.664062 187.5 Z M 187.5 452.664062 " clip-rule="nonzero"/></clipPath><clipPath id="3217d50fe2"><path d="M 54.917969 54.917969 C 57.085938 52.746094 59.308594 50.632812 61.582031 48.570312 C 63.855469 46.511719 66.179688 44.507812 68.550781 42.5625 C 70.921875 40.613281 73.339844 38.726562 75.804688 36.898438 C 78.269531 35.070312 80.777344 33.304688 83.332031 31.597656 C 85.882812 29.894531 88.472656 28.253906 91.105469 26.675781 C 93.738281 25.097656 96.40625 23.585938 99.113281 22.140625 C 101.820312 20.691406 104.558594 19.3125 107.332031 18.003906 C 110.105469 16.691406 112.910156 15.445312 115.746094 14.273438 C 118.582031 13.097656 121.445312 11.996094 124.332031 10.960938 C 127.222656 9.925781 130.136719 8.964844 133.070312 8.074219 C 136.007812 7.183594 138.964844 6.363281 141.941406 5.621094 C 144.917969 4.875 147.910156 4.203125 150.921875 3.601562 C 153.929688 3.003906 156.953125 2.480469 159.988281 2.03125 C 163.023438 1.578125 166.066406 1.203125 169.121094 0.902344 C 172.175781 0.601562 175.234375 0.375 178.300781 0.226562 C 181.363281 0.0742188 184.429688 0 187.5 0 C 190.570312 0 193.636719 0.0742188 196.699219 0.226562 C 199.765625 0.375 202.824219 0.601562 205.878906 0.902344 C 208.933594 1.203125 211.976562 1.578125 215.011719 2.03125 C 218.046875 2.480469 221.070312 3.003906 224.078125 3.601562 C 227.089844 4.203125 230.082031 4.875 233.058594 5.621094 C 236.035156 6.363281 238.992188 7.183594 241.929688 8.074219 C 244.863281 8.964844 247.777344 9.925781 250.667969 10.960938 C 253.554688 11.996094 256.417969 13.097656 259.253906 14.273438 C 262.089844 15.445312 264.894531 16.691406 267.667969 18.003906 C 270.441406 19.3125 273.179688 20.691406 275.886719 22.140625 C 278.59375 23.585938 281.261719 25.097656 283.894531 26.675781 C 286.527344 28.253906 289.117188 29.894531 291.667969 31.597656 C 294.222656 33.304688 296.730469 35.070312 299.195312 36.898438 C 301.660156 38.726562 304.078125 40.613281 306.449219 42.5625 C 308.820312 44.507812 311.144531 46.511719 313.417969 48.570312 C 315.691406 50.632812 317.914062 52.746094 320.082031 54.917969 C 322.253906 57.085938 324.367188 59.308594 326.429688 61.582031 C 328.488281 63.855469 330.492188 66.179688 332.4375 68.550781 C 334.386719 70.921875 336.273438 73.339844 338.101562 75.804688 C 339.929688 78.269531 341.695312 80.777344 343.402344 83.332031 C 345.105469 85.882812 346.746094 88.472656 348.324219 91.105469 C 349.902344 93.738281 351.414062 96.40625 352.859375 99.113281 C 354.308594 101.820312 355.6875 104.558594 356.996094 107.332031 C 358.308594 110.109375 359.554688 112.910156 360.726562 115.746094 C 361.902344 118.582031 363.003906 121.445312 364.039062 124.332031 C 365.074219 127.222656 366.035156 130.136719 366.925781 133.070312 C 367.816406 136.007812 368.636719 138.964844 369.378906 141.941406 C 370.125 144.917969 370.796875 147.910156 371.398438 150.921875 C 371.996094 153.929688 372.519531 156.953125 372.96875 159.988281 C 373.421875 163.023438 373.796875 166.066406 374.097656 169.121094 C 374.398438 172.175781 374.625 175.234375 374.773438 178.300781 C 374.925781 181.363281 375 184.429688 375 187.5 C 375 190.570312 374.925781 193.636719 374.773438 196.699219 C 374.625 199.765625 374.398438 202.824219 374.097656 205.878906 C 373.796875 208.933594 373.421875 211.976562 372.96875 215.011719 C 372.519531 218.046875 371.996094 221.070312 371.398438 224.078125 C 370.796875 227.089844 370.125 230.082031 369.378906 233.058594 C 368.636719 236.035156 367.816406 238.992188 366.925781 241.929688 C 366.035156 244.863281 365.074219 247.777344 364.039062 250.667969 C 363.003906 253.554688 361.902344 256.417969 360.726562 259.253906 C 359.554688 262.089844 358.308594 264.894531 356.996094 267.667969 C 355.6875 270.441406 354.308594 273.179688 352.859375 275.886719 C 351.414062 278.59375 349.902344 281.261719 348.324219 283.894531 C 346.746094 286.527344 345.105469 289.117188 343.402344 291.667969 C 341.695312 294.222656 339.929688 296.730469 338.101562 299.195312 C 336.273438 301.660156 334.386719 304.078125 332.4375 306.449219 C 330.492188 308.820312 328.488281 311.144531 326.429688 313.417969 C 324.367188 315.691406 322.253906 317.914062 320.082031 320.082031 C 317.914062 322.253906 315.691406 324.367188 313.417969 326.429688 C 311.144531 328.488281 308.820312 330.492188 306.449219 332.4375 C 304.078125 334.386719 301.660156 336.273438 299.195312 338.101562 C 296.730469 339.929688 294.222656 341.695312 291.667969 343.402344 C 289.117188 345.105469 286.527344 346.746094 283.894531 348.324219 C 281.261719 349.902344 278.59375 351.414062 275.886719 352.859375 C 273.179688 354.308594 270.441406 355.6875 267.667969 356.996094 C 264.894531 358.308594 262.089844 359.554688 259.253906 360.726562 C 256.417969 361.902344 253.554688 363.003906 250.667969 364.039062 C 247.777344 365.074219 244.863281 366.035156 241.929688 366.925781 C 238.992188 367.816406 236.035156 368.636719 233.058594 369.382812 C 230.082031 370.125 227.089844 370.796875 224.078125 371.398438 C 221.070312 371.996094 218.046875 372.519531 215.011719 372.96875 C 211.976562 373.421875 208.933594 373.796875 205.878906 374.097656 C 202.824219 374.398438 199.765625 374.625 196.699219 374.773438 C 193.636719 374.925781 190.570312 375 187.5 375 C 184.429688 375 181.363281 374.925781 178.300781 374.773438 C 175.234375 374.625 172.175781 374.398438 169.121094 374.097656 C 166.066406 373.796875 163.023438 373.421875 159.988281 372.96875 C 156.953125 372.519531 153.929688 371.996094 150.921875 371.398438 C 147.910156 370.796875 144.917969 370.125 141.941406 369.382812 C 138.964844 368.636719 136.007812 367.816406 133.070312 366.925781 C 130.136719 366.035156 127.222656 365.074219 124.332031 364.039062 C 121.445312 363.003906 118.582031 361.902344 115.746094 360.726562 C 112.910156 359.554688 110.105469 358.308594 107.332031 356.996094 C 104.558594 355.6875 101.820312 354.308594 99.113281 352.859375 C 96.40625 351.414062 93.738281 349.902344 91.105469 348.324219 C 88.472656 346.746094 85.882812 345.105469 83.332031 343.402344 C 80.777344 341.695312 78.269531 339.929688 75.804688 338.101562 C 73.339844 336.273438 70.921875 334.386719 68.550781 332.4375 C 66.179688 330.492188 63.855469 328.488281 61.582031 326.429688 C 59.308594 324.367188 57.085938 322.253906 54.917969 320.082031 C 52.746094 317.914062 50.632812 315.691406 48.570312 313.417969 C 46.511719 311.144531 44.507812 308.820312 42.5625 306.449219 C 40.613281 304.078125 38.726562 301.660156 36.898438 299.195312 C 35.070312 296.730469 33.304688 294.222656 31.597656 291.667969 C 29.894531 289.117188 28.253906 286.527344 26.675781 283.894531 C 25.097656 281.261719 23.585938 278.59375 22.140625 275.886719 C 20.691406 273.179688 19.3125 270.441406 18.003906 267.667969 C 16.691406 264.894531 15.445312 262.089844 14.273438 259.253906 C 13.097656 256.417969 11.996094 253.554688 10.960938 250.667969 C 9.925781 247.777344 8.964844 244.863281 8.074219 241.929688 C 7.183594 238.992188 6.363281 236.035156 5.621094 233.058594 C 4.875 230.082031 4.203125 227.089844 3.601562 224.078125 C 3.003906 221.070312 2.480469 218.046875 2.03125 215.011719 C 1.578125 211.976562 1.203125 208.933594 0.902344 205.878906 C 0.601562 202.824219 0.375 199.765625 0.226562 196.699219 C 0.0742188 193.636719 0 190.570312 0 187.5 C 0 184.429688 0.0742188 181.363281 0.226562 178.300781 C 0.375 175.234375 0.601562 172.175781 0.902344 169.121094 C 1.203125 166.066406 1.578125 163.023438 2.03125 159.988281 C 2.480469 156.953125 3.003906 153.929688 3.601562 150.921875 C 4.203125 147.910156 4.875 144.917969 5.621094 141.941406 C 6.363281 138.964844 7.183594 136.007812 8.074219 133.070312 C 8.964844 130.136719 9.925781 127.222656 10.960938 124.332031 C 11.996094 121.445312 13.097656 118.582031 14.273438 115.746094 C 15.445312 112.910156 16.691406 110.109375 18.003906 107.332031 C 19.3125 104.558594 20.691406 101.820312 22.140625 99.113281 C 23.585938 96.40625 25.097656 93.738281 26.675781 91.105469 C 28.253906 88.472656 29.894531 85.882812 31.597656 83.332031 C 33.304688 80.777344 35.070312 78.269531 36.898438 75.804688 C 38.726562 73.339844 40.613281 70.921875 42.558594 68.550781 C 44.507812 66.179688 46.511719 63.855469 48.570312 61.582031 C 50.632812 59.308594 52.746094 57.085938 54.917969 54.917969 Z M 54.917969 54.917969 " clip-rule="nonzero"/></clipPath><linearGradient x1="1744.354262" gradientTransform="matrix(2.066758, -2.066758, 2.066758, 2.066758, -4111.170297, 3474.145397)" y1="244.834" x2="1925.797835" gradientUnits="userSpaceOnUse" y2="244.834" id="1ab91a827c"><stop stop-opacity="1" stop-color="rgb(14.498901%, 5.499268%, 89.399719%)" offset="0"/><stop stop-opacity="1" stop-color="rgb(14.498901%, 5.499268%, 89.399719%)" offset="0.125"/><stop stop-opacity="1" stop-color="rgb(14.498901%, 5.499268%, 89.399719%)" offset="0.140625"/><stop stop-opacity="1" stop-color="rgb(14.588928%, 5.558777%, 89.422607%)" offset="0.148438"/><stop stop-opacity="1" stop-color="rgb(15.029907%, 5.85022%, 89.537048%)" offset="0.152344"/><stop stop-opacity="1" stop-color="rgb(15.380859%, 6.082153%, 89.630127%)" offset="0.15625"/><stop stop-opacity="1" stop-color="rgb(15.731812%, 6.314087%, 89.72168%)" offset="0.160156"/><stop stop-opacity="1" stop-color="rgb(16.08429%, 6.546021%, 89.814758%)" offset="0.164062"/><stop stop-opacity="1" stop-color="rgb(16.435242%, 6.777954%, 89.906311%)" offset="0.167969"/><stop stop-opacity="1" stop-color="rgb(16.78772%, 7.011414%, 89.99939%)" offset="0.171875"/><stop stop-opacity="1" stop-color="rgb(17.138672%, 7.243347%, 90.090942%)" offset="0.175781"/><stop stop-opacity="1" stop-color="rgb(17.489624%, 7.475281%, 90.184021%)" offset="0.179687"/><stop stop-opacity="1" stop-color="rgb(17.840576%, 7.707214%, 90.275574%)" offset="0.183594"/><stop stop-opacity="1" stop-color="rgb(18.193054%, 7.940674%, 90.368652%)" offset="0.1875"/><stop stop-opacity="1" stop-color="rgb(18.544006%, 8.172607%, 90.460205%)" offset="0.191406"/><stop stop-opacity="1" stop-color="rgb(18.896484%, 8.404541%, 90.553284%)" offset="0.195312"/><stop stop-opacity="1" stop-color="rgb(19.247437%, 8.636475%, 90.644836%)" offset="0.199219"/><stop stop-opacity="1" stop-color="rgb(19.598389%, 8.869934%, 90.737915%)" offset="0.203125"/><stop stop-opacity="1" stop-color="rgb(19.949341%, 9.101868%, 90.829468%)" offset="0.207031"/><stop stop-opacity="1" stop-color="rgb(20.301819%, 9.333801%, 90.921021%)" offset="0.210937"/><stop stop-opacity="1" stop-color="rgb(20.652771%, 9.565735%, 91.012573%)" offset="0.214844"/><stop stop-opacity="1" stop-color="rgb(21.005249%, 9.799194%, 91.105652%)" offset="0.21875"/><stop stop-opacity="1" stop-color="rgb(21.356201%, 10.031128%, 91.197205%)" offset="0.222656"/><stop stop-opacity="1" stop-color="rgb(21.707153%, 10.263062%, 91.290283%)" offset="0.226562"/><stop stop-opacity="1" stop-color="rgb(22.058105%, 10.494995%, 91.381836%)" offset="0.230469"/><stop stop-opacity="1" stop-color="rgb(22.410583%, 10.728455%, 91.474915%)" offset="0.234375"/><stop stop-opacity="1" stop-color="rgb(22.761536%, 10.960388%, 91.566467%)" offset="0.238281"/><stop stop-opacity="1" stop-color="rgb(23.114014%, 11.192322%, 91.659546%)" offset="0.242188"/><stop stop-opacity="1" stop-color="rgb(23.464966%, 11.424255%, 91.751099%)" offset="0.246094"/><stop stop-opacity="1" stop-color="rgb(23.815918%, 11.656189%, 91.844177%)" offset="0.25"/><stop stop-opacity="1" stop-color="rgb(24.16687%, 11.888123%, 91.93573%)" offset="0.253906"/><stop stop-opacity="1" stop-color="rgb(24.519348%, 12.121582%, 92.028809%)" offset="0.257812"/><stop stop-opacity="1" stop-color="rgb(24.8703%, 12.353516%, 92.120361%)" offset="0.261719"/><stop stop-opacity="1" stop-color="rgb(25.222778%, 12.585449%, 92.21344%)" offset="0.265625"/><stop stop-opacity="1" stop-color="rgb(25.57373%, 12.817383%, 92.304993%)" offset="0.269531"/><stop stop-opacity="1" stop-color="rgb(25.924683%, 13.050842%, 92.396545%)" offset="0.273438"/><stop stop-opacity="1" stop-color="rgb(26.275635%, 13.282776%, 92.488098%)" offset="0.277344"/><stop stop-opacity="1" stop-color="rgb(26.628113%, 13.514709%, 92.581177%)" offset="0.28125"/><stop stop-opacity="1" stop-color="rgb(26.979065%, 13.746643%, 92.672729%)" offset="0.285156"/><stop stop-opacity="1" stop-color="rgb(27.331543%, 13.980103%, 92.765808%)" offset="0.289062"/><stop stop-opacity="1" stop-color="rgb(27.682495%, 14.212036%, 92.857361%)" offset="0.292969"/><stop stop-opacity="1" stop-color="rgb(28.033447%, 14.44397%, 92.950439%)" offset="0.296875"/><stop stop-opacity="1" stop-color="rgb(28.384399%, 14.675903%, 93.041992%)" offset="0.300781"/><stop stop-opacity="1" stop-color="rgb(28.736877%, 14.909363%, 93.135071%)" offset="0.304687"/><stop stop-opacity="1" stop-color="rgb(29.08783%, 15.141296%, 93.226624%)" offset="0.308594"/><stop stop-opacity="1" stop-color="rgb(29.440308%, 15.37323%, 93.319702%)" offset="0.3125"/><stop stop-opacity="1" stop-color="rgb(29.79126%, 15.605164%, 93.411255%)" offset="0.316406"/><stop stop-opacity="1" stop-color="rgb(30.142212%, 15.838623%, 93.504333%)" offset="0.320312"/><stop stop-opacity="1" stop-color="rgb(30.493164%, 16.070557%, 93.595886%)" offset="0.324219"/><stop stop-opacity="1" stop-color="rgb(30.845642%, 16.30249%, 93.687439%)" offset="0.328125"/><stop stop-opacity="1" stop-color="rgb(31.196594%, 16.534424%, 93.778992%)" offset="0.332031"/><stop stop-opacity="1" stop-color="rgb(31.549072%, 16.766357%, 93.87207%)" offset="0.335937"/><stop stop-opacity="1" stop-color="rgb(31.900024%, 16.998291%, 93.963623%)" offset="0.339844"/><stop stop-opacity="1" stop-color="rgb(32.250977%, 17.23175%, 94.056702%)" offset="0.34375"/><stop stop-opacity="1" stop-color="rgb(32.601929%, 17.463684%, 94.148254%)" offset="0.347656"/><stop stop-opacity="1" stop-color="rgb(32.954407%, 17.695618%, 94.241333%)" offset="0.351562"/><stop stop-opacity="1" stop-color="rgb(33.305359%, 17.927551%, 94.332886%)" offset="0.355469"/><stop stop-opacity="1" stop-color="rgb(33.657837%, 18.161011%, 94.425964%)" offset="0.359375"/><stop stop-opacity="1" stop-color="rgb(34.008789%, 18.392944%, 94.517517%)" offset="0.363281"/><stop stop-opacity="1" stop-color="rgb(34.359741%, 18.624878%, 94.610596%)" offset="0.367188"/><stop stop-opacity="1" stop-color="rgb(34.710693%, 18.856812%, 94.702148%)" offset="0.371094"/><stop stop-opacity="1" stop-color="rgb(35.063171%, 19.090271%, 94.795227%)" offset="0.375"/><stop stop-opacity="1" stop-color="rgb(35.414124%, 19.322205%, 94.88678%)" offset="0.378906"/><stop stop-opacity="1" stop-color="rgb(35.766602%, 19.554138%, 94.979858%)" offset="0.382812"/><stop stop-opacity="1" stop-color="rgb(36.117554%, 19.786072%, 95.071411%)" offset="0.386719"/><stop stop-opacity="1" stop-color="rgb(36.468506%, 20.019531%, 95.162964%)" offset="0.390625"/><stop stop-opacity="1" stop-color="rgb(36.819458%, 20.251465%, 95.254517%)" offset="0.394531"/><stop stop-opacity="1" stop-color="rgb(37.171936%, 20.483398%, 95.347595%)" offset="0.398437"/><stop stop-opacity="1" stop-color="rgb(37.522888%, 20.715332%, 95.439148%)" offset="0.402344"/><stop stop-opacity="1" stop-color="rgb(37.875366%, 20.948792%, 95.532227%)" offset="0.40625"/><stop stop-opacity="1" stop-color="rgb(38.226318%, 21.180725%, 95.623779%)" offset="0.410156"/><stop stop-opacity="1" stop-color="rgb(38.578796%, 21.412659%, 95.716858%)" offset="0.414062"/><stop stop-opacity="1" stop-color="rgb(38.929749%, 21.644592%, 95.808411%)" offset="0.417969"/><stop stop-opacity="1" stop-color="rgb(39.280701%, 21.876526%, 95.901489%)" offset="0.421875"/><stop stop-opacity="1" stop-color="rgb(39.631653%, 22.108459%, 95.993042%)" offset="0.425781"/><stop stop-opacity="1" stop-color="rgb(39.984131%, 22.341919%, 96.086121%)" offset="0.429688"/><stop stop-opacity="1" stop-color="rgb(40.335083%, 22.573853%, 96.177673%)" offset="0.433594"/><stop stop-opacity="1" stop-color="rgb(40.687561%, 22.805786%, 96.270752%)" offset="0.4375"/><stop stop-opacity="1" stop-color="rgb(41.038513%, 23.03772%, 96.362305%)" offset="0.441406"/><stop stop-opacity="1" stop-color="rgb(41.389465%, 23.271179%, 96.455383%)" offset="0.445312"/><stop stop-opacity="1" stop-color="rgb(41.740417%, 23.503113%, 96.546936%)" offset="0.449219"/><stop stop-opacity="1" stop-color="rgb(42.092896%, 23.735046%, 96.638489%)" offset="0.453125"/><stop stop-opacity="1" stop-color="rgb(42.443848%, 23.96698%, 96.730042%)" offset="0.457031"/><stop stop-opacity="1" stop-color="rgb(42.796326%, 24.200439%, 96.82312%)" offset="0.460938"/><stop stop-opacity="1" stop-color="rgb(43.147278%, 24.432373%, 96.914673%)" offset="0.464844"/><stop stop-opacity="1" stop-color="rgb(43.49823%, 24.664307%, 97.007751%)" offset="0.46875"/><stop stop-opacity="1" stop-color="rgb(43.849182%, 24.89624%, 97.099304%)" offset="0.472656"/><stop stop-opacity="1" stop-color="rgb(44.20166%, 25.1297%, 97.192383%)" offset="0.476562"/><stop stop-opacity="1" stop-color="rgb(44.552612%, 25.361633%, 97.283936%)" offset="0.480469"/><stop stop-opacity="1" stop-color="rgb(44.90509%, 25.593567%, 97.377014%)" offset="0.484375"/><stop stop-opacity="1" stop-color="rgb(45.256042%, 25.8255%, 97.468567%)" offset="0.488281"/><stop stop-opacity="1" stop-color="rgb(45.606995%, 26.05896%, 97.561646%)" offset="0.492187"/><stop stop-opacity="1" stop-color="rgb(45.957947%, 26.290894%, 97.653198%)" offset="0.496094"/><stop stop-opacity="1" stop-color="rgb(46.310425%, 26.522827%, 97.746277%)" offset="0.5"/><stop stop-opacity="1" stop-color="rgb(46.661377%, 26.754761%, 97.83783%)" offset="0.503906"/><stop stop-opacity="1" stop-color="rgb(47.013855%, 26.986694%, 97.929382%)" offset="0.507812"/><stop stop-opacity="1" stop-color="rgb(47.364807%, 27.218628%, 98.020935%)" offset="0.511719"/><stop stop-opacity="1" stop-color="rgb(47.715759%, 27.452087%, 98.114014%)" offset="0.515625"/><stop stop-opacity="1" stop-color="rgb(48.066711%, 27.684021%, 98.205566%)" offset="0.519531"/><stop stop-opacity="1" stop-color="rgb(48.419189%, 27.915955%, 98.298645%)" offset="0.523438"/><stop stop-opacity="1" stop-color="rgb(48.770142%, 28.147888%, 98.390198%)" offset="0.527344"/><stop stop-opacity="1" stop-color="rgb(49.12262%, 28.381348%, 98.483276%)" offset="0.53125"/><stop stop-opacity="1" stop-color="rgb(49.473572%, 28.613281%, 98.574829%)" offset="0.535156"/><stop stop-opacity="1" stop-color="rgb(49.824524%, 28.845215%, 98.667908%)" offset="0.539062"/><stop stop-opacity="1" stop-color="rgb(50.175476%, 29.077148%, 98.75946%)" offset="0.542969"/><stop stop-opacity="1" stop-color="rgb(50.527954%, 29.310608%, 98.852539%)" offset="0.546875"/><stop stop-opacity="1" stop-color="rgb(50.878906%, 29.542542%, 98.944092%)" offset="0.550781"/><stop stop-opacity="1" stop-color="rgb(51.231384%, 29.774475%, 99.03717%)" offset="0.554688"/><stop stop-opacity="1" stop-color="rgb(51.582336%, 30.006409%, 99.128723%)" offset="0.558594"/><stop stop-opacity="1" stop-color="rgb(51.933289%, 30.239868%, 99.221802%)" offset="0.5625"/><stop stop-opacity="1" stop-color="rgb(52.284241%, 30.471802%, 99.313354%)" offset="0.566406"/><stop stop-opacity="1" stop-color="rgb(52.636719%, 30.703735%, 99.404907%)" offset="0.570312"/><stop stop-opacity="1" stop-color="rgb(52.987671%, 30.935669%, 99.49646%)" offset="0.574219"/><stop stop-opacity="1" stop-color="rgb(53.340149%, 31.169128%, 99.589539%)" offset="0.578125"/><stop stop-opacity="1" stop-color="rgb(53.691101%, 31.401062%, 99.681091%)" offset="0.582031"/><stop stop-opacity="1" stop-color="rgb(54.042053%, 31.632996%, 99.77417%)" offset="0.585938"/><stop stop-opacity="1" stop-color="rgb(54.393005%, 31.864929%, 99.865723%)" offset="0.589844"/><stop stop-opacity="1" stop-color="rgb(54.745483%, 32.096863%, 99.958801%)" offset="0.59375"/><stop stop-opacity="1" stop-color="rgb(55.366516%, 32.241821%, 99.699402%)" offset="0.597656"/><stop stop-opacity="1" stop-color="rgb(55.989075%, 32.388306%, 99.440002%)" offset="0.601562"/><stop stop-opacity="1" stop-color="rgb(56.686401%, 32.50885%, 99.082947%)" offset="0.605469"/><stop stop-opacity="1" stop-color="rgb(57.385254%, 32.629395%, 98.725891%)" offset="0.609375"/><stop stop-opacity="1" stop-color="rgb(58.082581%, 32.749939%, 98.36731%)" offset="0.613281"/><stop stop-opacity="1" stop-color="rgb(58.781433%, 32.870483%, 98.010254%)" offset="0.617187"/><stop stop-opacity="1" stop-color="rgb(59.47876%, 32.991028%, 97.653198%)" offset="0.621094"/><stop stop-opacity="1" stop-color="rgb(60.177612%, 33.111572%, 97.296143%)" offset="0.625"/><stop stop-opacity="1" stop-color="rgb(60.874939%, 33.232117%, 96.937561%)" offset="0.628906"/><stop stop-opacity="1" stop-color="rgb(61.572266%, 33.352661%, 96.580505%)" offset="0.632812"/><stop stop-opacity="1" stop-color="rgb(62.269592%, 33.473206%, 96.22345%)" offset="0.636719"/><stop stop-opacity="1" stop-color="rgb(62.968445%, 33.595276%, 95.866394%)" offset="0.640625"/><stop stop-opacity="1" stop-color="rgb(63.665771%, 33.71582%, 95.507812%)" offset="0.644531"/><stop stop-opacity="1" stop-color="rgb(64.364624%, 33.836365%, 95.150757%)" offset="0.648438"/><stop stop-opacity="1" stop-color="rgb(65.061951%, 33.956909%, 94.793701%)" offset="0.652344"/><stop stop-opacity="1" stop-color="rgb(65.759277%, 34.077454%, 94.436646%)" offset="0.65625"/><stop stop-opacity="1" stop-color="rgb(66.456604%, 34.197998%, 94.078064%)" offset="0.660156"/><stop stop-opacity="1" stop-color="rgb(67.155457%, 34.318542%, 93.721008%)" offset="0.664062"/><stop stop-opacity="1" stop-color="rgb(67.852783%, 34.439087%, 93.363953%)" offset="0.667969"/><stop stop-opacity="1" stop-color="rgb(68.551636%, 34.559631%, 93.006897%)" offset="0.671875"/><stop stop-opacity="1" stop-color="rgb(69.248962%, 34.680176%, 92.648315%)" offset="0.675781"/><stop stop-opacity="1" stop-color="rgb(69.947815%, 34.802246%, 92.29126%)" offset="0.679688"/><stop stop-opacity="1" stop-color="rgb(70.645142%, 34.922791%, 91.934204%)" offset="0.683594"/><stop stop-opacity="1" stop-color="rgb(71.342468%, 35.043335%, 91.577148%)" offset="0.6875"/><stop stop-opacity="1" stop-color="rgb(72.039795%, 35.163879%, 91.218567%)" offset="0.691406"/><stop stop-opacity="1" stop-color="rgb(72.738647%, 35.284424%, 90.861511%)" offset="0.695312"/><stop stop-opacity="1" stop-color="rgb(73.435974%, 35.404968%, 90.504456%)" offset="0.699219"/><stop stop-opacity="1" stop-color="rgb(74.134827%, 35.525513%, 90.1474%)" offset="0.703125"/><stop stop-opacity="1" stop-color="rgb(74.832153%, 35.646057%, 89.788818%)" offset="0.707031"/><stop stop-opacity="1" stop-color="rgb(75.531006%, 35.768127%, 89.431763%)" offset="0.710937"/><stop stop-opacity="1" stop-color="rgb(76.228333%, 35.888672%, 89.074707%)" offset="0.714844"/><stop stop-opacity="1" stop-color="rgb(76.925659%, 36.009216%, 88.717651%)" offset="0.71875"/><stop stop-opacity="1" stop-color="rgb(77.622986%, 36.129761%, 88.35907%)" offset="0.722656"/><stop stop-opacity="1" stop-color="rgb(78.321838%, 36.250305%, 88.002014%)" offset="0.726562"/><stop stop-opacity="1" stop-color="rgb(79.019165%, 36.37085%, 87.644958%)" offset="0.730469"/><stop stop-opacity="1" stop-color="rgb(79.718018%, 36.491394%, 87.287903%)" offset="0.734375"/><stop stop-opacity="1" stop-color="rgb(80.415344%, 36.611938%, 86.929321%)" offset="0.738281"/><stop stop-opacity="1" stop-color="rgb(81.114197%, 36.732483%, 86.572266%)" offset="0.742188"/><stop stop-opacity="1" stop-color="rgb(81.811523%, 36.853027%, 86.21521%)" offset="0.746094"/><stop stop-opacity="1" stop-color="rgb(82.50885%, 36.975098%, 85.858154%)" offset="0.75"/><stop stop-opacity="1" stop-color="rgb(83.206177%, 37.095642%, 85.499573%)" offset="0.753906"/><stop stop-opacity="1" stop-color="rgb(83.905029%, 37.216187%, 85.142517%)" offset="0.757812"/><stop stop-opacity="1" stop-color="rgb(84.602356%, 37.336731%, 84.785461%)" offset="0.761719"/><stop stop-opacity="1" stop-color="rgb(85.301208%, 37.457275%, 84.428406%)" offset="0.765625"/><stop stop-opacity="1" stop-color="rgb(85.998535%, 37.57782%, 84.069824%)" offset="0.769531"/><stop stop-opacity="1" stop-color="rgb(86.695862%, 37.698364%, 83.712769%)" offset="0.773438"/><stop stop-opacity="1" stop-color="rgb(87.393188%, 37.818909%, 83.355713%)" offset="0.777344"/><stop stop-opacity="1" stop-color="rgb(88.092041%, 37.939453%, 82.998657%)" offset="0.78125"/><stop stop-opacity="1" stop-color="rgb(88.789368%, 38.059998%, 82.640076%)" offset="0.785156"/><stop stop-opacity="1" stop-color="rgb(89.48822%, 38.182068%, 82.28302%)" offset="0.789062"/><stop stop-opacity="1" stop-color="rgb(90.185547%, 38.302612%, 81.924438%)" offset="0.792969"/><stop stop-opacity="1" stop-color="rgb(90.884399%, 38.423157%, 81.567383%)" offset="0.796875"/><stop stop-opacity="1" stop-color="rgb(91.581726%, 38.543701%, 81.210327%)" offset="0.800781"/><stop stop-opacity="1" stop-color="rgb(92.279053%, 38.664246%, 80.853271%)" offset="0.804688"/><stop stop-opacity="1" stop-color="rgb(92.976379%, 38.78479%, 80.49469%)" offset="0.808594"/><stop stop-opacity="1" stop-color="rgb(93.675232%, 38.905334%, 80.137634%)" offset="0.8125"/><stop stop-opacity="1" stop-color="rgb(94.372559%, 39.025879%, 79.780579%)" offset="0.816406"/><stop stop-opacity="1" stop-color="rgb(95.071411%, 39.146423%, 79.423523%)" offset="0.820312"/><stop stop-opacity="1" stop-color="rgb(95.768738%, 39.266968%, 79.064941%)" offset="0.824219"/><stop stop-opacity="1" stop-color="rgb(96.46759%, 39.389038%, 78.707886%)" offset="0.828125"/><stop stop-opacity="1" stop-color="rgb(97.164917%, 39.509583%, 78.35083%)" offset="0.832031"/><stop stop-opacity="1" stop-color="rgb(97.862244%, 39.630127%, 77.993774%)" offset="0.835937"/><stop stop-opacity="1" stop-color="rgb(98.55957%, 39.750671%, 77.635193%)" offset="0.839844"/><stop stop-opacity="1" stop-color="rgb(99.258423%, 39.871216%, 77.278137%)" offset="0.84375"/><stop stop-opacity="1" stop-color="rgb(99.629211%, 39.935303%, 77.088928%)" offset="0.847656"/><stop stop-opacity="1" stop-color="rgb(100%, 39.99939%, 76.899719%)" offset="0.851562"/><stop stop-opacity="1" stop-color="rgb(100%, 39.99939%, 76.899719%)" offset="0.859375"/><stop stop-opacity="1" stop-color="rgb(100%, 39.99939%, 76.899719%)" offset="0.875"/><stop stop-opacity="1" stop-color="rgb(100%, 39.99939%, 76.899719%)" offset="1"/></linearGradient><clipPath id="74ffa5e2d6"><path d="M 69 54 L 216.230469 54 L 216.230469 321 L 69 321 Z M 69 54 " clip-rule="nonzero"/></clipPath><clipPath id="dace439fab"><path d="M 166.191406 54 L 314 54 L 314 321 L 166.191406 321 Z M 166.191406 54 " clip-rule="nonzero"/></clipPath></defs><g clip-path="url(#2aac9c4a03)"><g clip-path="url(#093ea2a008)"><g clip-path="url(#3217d50fe2)"><path fill="url(#1ab91a827c)" d="M -187.5 187.5 L 187.5 562.5 L 562.5 187.5 L 187.5 -187.5 Z M -187.5 187.5 " fill-rule="nonzero"/></g></g></g><g clip-path="url(#74ffa5e2d6)"><path fill="#f0f8ff" d="M 465.164062 316.183594 C 463.6875 317.359375 463.078125 319.097656 463.859375 320.054688 C 464.597656 321.054688 466.46875 321.011719 467.992188 320.054688 C 501.65625 294.21875 524.011719 256.382812 530.578125 214.453125 C 537.144531 172.527344 527.316406 129.6875 503.132812 94.804688 C 526.316406 129.601562 535.273438 171.917969 528.1875 213.0625 C 521.097656 254.25 498.480469 291.132812 465.035156 316.140625 Z M 488.738281 248.855469 C 482.257812 261.949219 482.386719 278.257812 492.390625 286.957031 C 503.960938 272.167969 500.523438 254.292969 488.652344 248.855469 Z M 498.480469 223.675781 C 494.738281 237.59375 498.480469 253.207031 509.832031 259.601562 C 518.007812 243.378906 511.09375 226.675781 498.394531 223.675781 Z M 503.046875 197.320312 C 502.089844 211.628906 508.484375 226.066406 521.269531 229.980469 C 525.96875 212.714844 516.007812 197.796875 503.003906 197.320312 Z M 502.394531 170.65625 C 504.265625 184.835938 513.617188 197.882812 526.621094 199.058594 C 527.882812 181.269531 515.179688 168.742188 502.351562 170.65625 Z M 496.566406 144.519531 C 501.175781 158.175781 512.875 168.917969 525.835938 167.742188 C 523.664062 150 508.699219 139.90625 496.523438 144.519531 Z M 485.695312 119.683594 C 493.042969 132.425781 506.527344 140.777344 519.140625 137.039062 C 513.398438 119.726562 496.566406 112.769531 485.519531 119.726562 Z M 469.339844 97.15625 C 479.472656 108.417969 494.433594 114.074219 506.089844 108.027344 C 497 92.109375 478.777344 88.195312 469.339844 97.15625 Z M 511.570312 59.882812 C 502.089844 68.882812 504.960938 87.542969 513.875 103.417969 C 525.402344 97.546875 526.445312 76.84375 511.570312 59.882812 Z M 534.449219 91.761719 C 523.574219 98.675781 522.011719 117.074219 527.535156 134.210938 C 539.972656 130.644531 545.277344 110.8125 534.449219 91.761719 Z M 549.976562 126.816406 C 537.667969 131.339844 532.710938 148.867188 534.710938 166.65625 C 547.671875 165.570312 556.71875 147.300781 549.976562 126.816406 Z M 558.238281 163.65625 C 545.234375 165.699219 536.972656 181.792969 535.535156 199.667969 C 548.234375 201.40625 560.804688 185.054688 558.238281 163.785156 Z M 559.109375 201.40625 C 546.019531 200.839844 534.796875 215.019531 529.882812 232.332031 C 542.277344 236.417969 557.542969 222.847656 559.109375 201.40625 Z M 552.671875 238.722656 C 539.886719 235.679688 526.097656 247.464844 517.792969 263.6875 C 529.144531 270.039062 546.976562 259.554688 552.671875 238.722656 Z M 538.886719 274.386719 C 526.96875 268.949219 511.09375 277.824219 499.351562 292.394531 C 509.222656 300.917969 529.097656 293.914062 538.886719 274.386719 Z M 463.816406 54.445312 C 470.167969 70.1875 482.824219 82.585938 498.699219 88.628906 C 498.652344 72.40625 480.953125 54.878906 463.816406 54.445312 Z M 163.414062 316.140625 C 129.964844 291.132812 107.394531 254.25 100.304688 213.0625 C 93.214844 171.917969 102.175781 129.601562 125.3125 94.804688 C 101.261719 129.6875 91.476562 172.441406 98 214.324219 C 104.566406 256.164062 126.921875 293.914062 160.5 319.792969 C 162.019531 320.96875 163.847656 321.097656 164.628906 319.792969 C 165.371094 318.488281 164.628906 317.054688 163.324219 315.921875 Z M 136.230469 286.828125 C 146.1875 278.257812 146.320312 261.949219 139.839844 248.726562 C 127.792969 254.292969 124.355469 272.167969 136.011719 286.828125 Z M 118.746094 259.601562 C 130.226562 253.207031 133.835938 237.808594 130.097656 223.675781 C 117.222656 226.675781 110.308594 243.378906 118.527344 259.601562 Z M 107.308594 230.023438 C 119.832031 226.066406 126.53125 211.628906 125.53125 197.363281 C 112.308594 197.796875 102.347656 212.714844 107.308594 230.023438 Z M 101.871094 199.058594 C 114.875 197.667969 124.226562 184.835938 126.09375 170.65625 C 113.136719 168.742188 100.433594 181.269531 101.871094 199.058594 Z M 102.523438 167.742188 C 115.570312 168.917969 127.183594 158.175781 131.792969 144.519531 C 119.617188 139.90625 104.652344 150 102.523438 167.742188 Z M 109.308594 137.039062 C 121.964844 140.777344 135.445312 132.425781 142.796875 119.683594 C 131.75 112.769531 114.917969 119.769531 109.308594 137.039062 Z M 122.226562 107.898438 C 133.878906 113.988281 148.84375 108.332031 158.976562 96.980469 C 149.539062 88.195312 131.316406 92.109375 122.226562 107.984375 Z M 114.441406 103.417969 C 123.355469 87.457031 126.269531 68.839844 116.746094 59.882812 C 101.871094 76.84375 102.914062 97.546875 114.441406 103.417969 Z M 101 133.992188 C 106.4375 116.855469 105.261719 98.460938 94.085938 91.542969 C 83.039062 110.8125 88.300781 130.644531 100.78125 134.210938 Z M 93.824219 166.65625 C 95.824219 148.867188 90.867188 131.339844 78.558594 126.816406 C 71.597656 147.300781 80.644531 165.570312 93.605469 166.65625 Z M 92.996094 199.753906 C 91.5625 181.921875 83.296875 165.785156 70.292969 163.785156 C 67.511719 185.054688 80.082031 201.40625 92.78125 199.753906 Z M 98.433594 232.417969 C 93.519531 215.105469 82.125 200.972656 69.207031 201.492188 C 70.773438 222.847656 86.039062 236.417969 98.433594 232.417969 Z M 110.523438 263.6875 C 102.175781 247.335938 88.429688 235.679688 75.644531 238.765625 C 81.339844 259.554688 99.128906 270.039062 110.523438 263.6875 Z M 129.097656 292.4375 C 117.222656 277.605469 101.347656 268.863281 89.386719 274.386719 C 99.21875 293.960938 119.136719 300.917969 129.097656 292.4375 Z M 164.542969 54.445312 C 158.191406 70.1875 145.535156 82.585938 129.617188 88.628906 C 129.660156 72.40625 147.363281 54.878906 164.542969 54.445312 " fill-opacity="1" fill-rule="nonzero"/></g><g clip-path="url(#dace439fab)"><path fill="#f0f8ff" d="M -82.828125 316.183594 C -81.347656 317.359375 -80.738281 319.097656 -81.523438 320.054688 C -82.261719 321.054688 -84.132812 321.011719 -85.652344 320.054688 C -119.316406 294.21875 -141.671875 256.382812 -148.238281 214.453125 C -154.808594 172.527344 -144.976562 129.6875 -120.796875 94.804688 C -143.976562 129.601562 -152.9375 171.917969 -145.847656 213.0625 C -138.757812 254.25 -116.140625 291.132812 -82.695312 316.140625 Z M -106.398438 248.855469 C -99.917969 261.949219 -100.050781 278.257812 -110.054688 286.957031 C -121.621094 272.167969 -118.1875 254.292969 -106.3125 248.855469 Z M -116.140625 223.675781 C -112.402344 237.59375 -116.140625 253.207031 -127.492188 259.601562 C -135.671875 243.378906 -128.753906 226.675781 -116.054688 223.675781 Z M -120.710938 197.320312 C -119.753906 211.628906 -126.144531 226.066406 -138.933594 229.980469 C -143.628906 212.714844 -133.667969 197.796875 -120.664062 197.320312 Z M -120.058594 170.65625 C -121.925781 184.835938 -131.277344 197.882812 -144.28125 199.058594 C -145.542969 181.269531 -132.84375 168.742188 -120.011719 170.65625 Z M -114.230469 144.519531 C -118.839844 158.175781 -130.539062 168.917969 -143.5 167.742188 C -141.324219 150 -126.363281 139.90625 -114.183594 144.519531 Z M -103.355469 119.683594 C -110.707031 132.425781 -124.1875 140.777344 -136.800781 137.039062 C -131.058594 119.726562 -114.230469 112.769531 -103.179688 119.726562 Z M -87.003906 97.15625 C -97.136719 108.417969 -112.097656 114.074219 -123.753906 108.027344 C -114.664062 92.109375 -96.441406 88.195312 -87.003906 97.15625 Z M -129.234375 59.882812 C -119.753906 68.882812 -122.621094 87.542969 -131.539062 103.417969 C -143.0625 97.546875 -144.109375 76.84375 -129.234375 59.882812 Z M -152.109375 91.761719 C -141.238281 98.675781 -139.671875 117.074219 -145.195312 134.210938 C -157.632812 130.644531 -162.941406 110.8125 -152.109375 91.761719 Z M -167.636719 126.816406 C -155.328125 131.339844 -150.371094 148.867188 -152.371094 166.65625 C -165.332031 165.570312 -174.378906 147.300781 -167.636719 126.816406 Z M -175.902344 163.65625 C -162.898438 165.699219 -154.632812 181.792969 -153.199219 199.667969 C -165.898438 201.40625 -178.46875 185.054688 -175.902344 163.785156 Z M -176.769531 201.40625 C -163.679688 200.839844 -152.457031 215.019531 -147.542969 232.332031 C -159.941406 236.417969 -175.207031 222.847656 -176.769531 201.40625 Z M -170.335938 238.722656 C -157.546875 235.679688 -143.761719 247.464844 -135.453125 263.6875 C -146.804688 270.039062 -164.636719 259.554688 -170.335938 238.722656 Z M -156.546875 274.386719 C -144.628906 268.949219 -128.753906 277.824219 -117.011719 292.394531 C -126.886719 300.917969 -146.761719 293.914062 -156.546875 274.386719 Z M -81.480469 54.445312 C -87.828125 70.1875 -100.484375 82.585938 -116.359375 88.628906 C -116.316406 72.40625 -98.613281 54.878906 -81.480469 54.445312 Z M 218.925781 316.140625 C 252.371094 291.132812 274.945312 254.25 282.035156 213.0625 C 289.121094 171.917969 280.164062 129.601562 257.023438 94.804688 C 281.078125 129.6875 290.863281 172.441406 284.339844 214.324219 C 277.769531 256.164062 255.414062 293.914062 221.839844 319.792969 C 220.316406 320.96875 218.492188 321.097656 217.707031 319.792969 C 216.96875 318.488281 217.707031 317.054688 219.011719 315.921875 Z M 246.109375 286.828125 C 236.148438 278.257812 236.019531 261.949219 242.5 248.726562 C 254.546875 254.292969 257.980469 272.167969 246.324219 286.828125 Z M 263.59375 259.601562 C 252.109375 253.207031 248.5 237.808594 252.242188 223.675781 C 265.113281 226.675781 272.03125 243.378906 263.808594 259.601562 Z M 275.03125 230.023438 C 262.503906 226.066406 255.808594 211.628906 256.808594 197.363281 C 270.03125 197.796875 279.988281 212.714844 275.03125 230.023438 Z M 280.46875 199.058594 C 267.464844 197.667969 258.113281 184.835938 256.242188 170.65625 C 269.203125 168.742188 281.902344 181.269531 280.46875 199.058594 Z M 279.816406 167.742188 C 266.765625 168.917969 255.15625 158.175781 250.542969 144.519531 C 262.722656 139.90625 277.683594 150 279.816406 167.742188 Z M 273.03125 137.039062 C 260.375 140.777344 246.890625 132.425781 239.542969 119.683594 C 250.589844 112.769531 267.421875 119.769531 273.03125 137.039062 Z M 260.113281 107.898438 C 248.457031 113.988281 233.496094 108.332031 223.363281 96.980469 C 232.800781 88.195312 251.023438 92.109375 260.113281 107.984375 Z M 267.898438 103.417969 C 258.980469 87.457031 256.066406 68.839844 265.59375 59.882812 C 280.46875 76.84375 279.425781 97.546875 267.898438 103.417969 Z M 281.335938 133.992188 C 275.902344 116.855469 277.074219 98.460938 288.253906 91.542969 C 299.300781 110.8125 294.039062 130.644531 281.554688 134.210938 Z M 288.515625 166.65625 C 286.511719 148.867188 291.472656 131.339844 303.78125 126.816406 C 310.738281 147.300781 301.691406 165.570312 288.730469 166.65625 Z M 289.339844 199.753906 C 290.777344 181.921875 299.039062 165.785156 312.042969 163.785156 C 314.828125 185.054688 302.257812 201.40625 289.558594 199.753906 Z M 283.902344 232.417969 C 288.816406 215.105469 300.214844 200.972656 313.128906 201.492188 C 311.566406 222.847656 296.300781 236.417969 283.902344 232.417969 Z M 271.8125 263.6875 C 280.164062 247.335938 293.90625 235.679688 306.695312 238.765625 C 300.996094 259.554688 283.207031 270.039062 271.8125 263.6875 Z M 253.242188 292.4375 C 265.113281 277.605469 280.988281 268.863281 292.949219 274.386719 C 283.121094 293.960938 263.199219 300.917969 253.242188 292.4375 Z M 217.792969 54.445312 C 224.144531 70.1875 236.800781 82.585938 252.71875 88.628906 C 252.675781 72.40625 234.972656 54.878906 217.792969 54.445312 " fill-opacity="1" fill-rule="nonzero"/></g></svg>