<svg xmlns="http://www.w3.org/2000/svg" xmlns:xlink="http://www.w3.org/1999/xlink" width="500" zoomAndPan="magnify" viewBox="0 0 375 374.999991" height="500" preserveAspectRatio="xMidYMid meet" version="1.0"><defs><clipPath id="213b2a63c7"><path d="M 67 75.742188 L 206 75.742188 L 206 299.242188 L 67 299.242188 Z M 67 75.742188 " clip-rule="nonzero"/></clipPath><clipPath id="2a0c636a44"><path d="M 169 281 L 188 281 L 188 299.242188 L 169 299.242188 Z M 169 281 " clip-rule="nonzero"/></clipPath><clipPath id="8d35a30547"><path d="M 186 75.742188 L 307.75 75.742188 L 307.75 294 L 186 294 Z M 186 75.742188 " clip-rule="nonzero"/></clipPath></defs><path fill="#b3e5f9" d="M 375 187.5 C 375 190.570312 374.925781 193.636719 374.773438 196.699219 C 374.625 199.765625 374.398438 202.824219 374.097656 205.878906 C 373.796875 208.933594 373.421875 211.976562 372.96875 215.011719 C 372.519531 218.046875 371.996094 221.070312 371.398438 224.078125 C 370.796875 227.089844 370.125 230.082031 369.378906 233.058594 C 368.636719 236.035156 367.816406 238.992188 366.925781 241.929688 C 366.035156 244.863281 365.074219 247.777344 364.039062 250.667969 C 363.003906 253.554688 361.902344 256.417969 360.726562 259.253906 C 359.554688 262.089844 358.308594 264.890625 356.996094 267.667969 C 355.6875 270.441406 354.304688 273.179688 352.859375 275.886719 C 351.414062 278.59375 349.902344 281.261719 348.324219 283.894531 C 346.746094 286.527344 345.105469 289.117188 343.402344 291.667969 C 341.695312 294.222656 339.929688 296.730469 338.101562 299.195312 C 336.273438 301.660156 334.386719 304.078125 332.4375 306.449219 C 330.492188 308.820312 328.488281 311.144531 326.429688 313.417969 C 324.367188 315.691406 322.253906 317.914062 320.082031 320.082031 C 317.914062 322.253906 315.691406 324.367188 313.417969 326.429688 C 311.144531 328.488281 308.820312 330.492188 306.449219 332.4375 C 304.078125 334.386719 301.660156 336.273438 299.195312 338.101562 C 296.730469 339.929688 294.222656 341.695312 291.667969 343.402344 C 289.117188 345.105469 286.527344 346.746094 283.894531 348.324219 C 281.261719 349.902344 278.59375 351.414062 275.886719 352.859375 C 273.179688 354.308594 270.441406 355.6875 267.667969 356.996094 C 264.890625 358.308594 262.089844 359.554688 259.253906 360.726562 C 256.417969 361.902344 253.554688 363.003906 250.667969 364.039062 C 247.777344 365.074219 244.863281 366.035156 241.929688 366.925781 C 238.992188 367.816406 236.035156 368.636719 233.058594 369.378906 C 230.082031 370.125 227.089844 370.796875 224.078125 371.398438 C 221.070312 371.996094 218.046875 372.519531 215.011719 372.96875 C 211.976562 373.421875 208.933594 373.796875 205.878906 374.097656 C 202.824219 374.398438 199.765625 374.625 196.699219 374.773438 C 193.636719 374.925781 190.570312 375 187.5 375 C 184.429688 375 181.363281 374.925781 178.300781 374.773438 C 175.234375 374.625 172.175781 374.398438 169.121094 374.097656 C 166.066406 373.796875 163.023438 373.421875 159.988281 372.96875 C 156.953125 372.519531 153.929688 371.996094 150.921875 371.398438 C 147.910156 370.796875 144.917969 370.125 141.941406 369.378906 C 138.964844 368.636719 136.007812 367.816406 133.070312 366.925781 C 130.136719 366.035156 127.222656 365.074219 124.332031 364.039062 C 121.445312 363.003906 118.582031 361.902344 115.746094 360.726562 C 112.910156 359.554688 110.105469 358.308594 107.332031 356.996094 C 104.558594 355.6875 101.820312 354.308594 99.113281 352.859375 C 96.40625 351.414062 93.738281 349.902344 91.105469 348.324219 C 88.472656 346.746094 85.882812 345.105469 83.332031 343.402344 C 80.777344 341.695312 78.269531 339.929688 75.804688 338.101562 C 73.339844 336.273438 70.921875 334.386719 68.550781 332.4375 C 66.179688 330.492188 63.855469 328.488281 61.582031 326.429688 C 59.308594 324.367188 57.085938 322.253906 54.917969 320.082031 C 52.746094 317.914062 50.632812 315.691406 48.570312 313.417969 C 46.511719 311.144531 44.507812 308.820312 42.558594 306.449219 C 40.613281 304.078125 38.726562 301.660156 36.898438 299.195312 C 35.070312 296.730469 33.304688 294.222656 31.597656 291.667969 C 29.894531 289.117188 28.253906 286.527344 26.675781 283.894531 C 25.097656 281.261719 23.585938 278.59375 22.140625 275.886719 C 20.691406 273.179688 19.3125 270.441406 18.003906 267.667969 C 16.691406 264.890625 15.445312 262.089844 14.273438 259.253906 C 13.097656 256.417969 11.996094 253.554688 10.960938 250.667969 C 9.925781 247.777344 8.964844 244.863281 8.074219 241.929688 C 7.183594 238.992188 6.363281 236.035156 5.617188 233.058594 C 4.875 230.082031 4.203125 227.089844 3.601562 224.078125 C 3.003906 221.070312 2.480469 218.046875 2.03125 215.011719 C 1.578125 211.976562 1.203125 208.933594 0.902344 205.878906 C 0.601562 202.824219 0.375 199.765625 0.226562 196.699219 C 0.0742188 193.636719 0 190.570312 0 187.5 C 0 184.429688 0.0742188 181.363281 0.226562 178.300781 C 0.375 175.234375 0.601562 172.175781 0.902344 169.121094 C 1.203125 166.066406 1.578125 163.023438 2.03125 159.988281 C 2.480469 156.953125 3.003906 153.929688 3.601562 150.921875 C 4.203125 147.910156 4.875 144.917969 5.617188 141.941406 C 6.363281 138.964844 7.183594 136.007812 8.074219 133.070312 C 8.964844 130.136719 9.925781 127.222656 10.960938 124.332031 C 11.996094 121.445312 13.097656 118.582031 14.273438 115.746094 C 15.445312 112.910156 16.691406 110.105469 18.003906 107.332031 C 19.3125 104.558594 20.691406 101.820312 22.140625 99.113281 C 23.585938 96.40625 25.097656 93.738281 26.675781 91.105469 C 28.253906 88.472656 29.894531 85.882812 31.597656 83.332031 C 33.304688 80.777344 35.070312 78.269531 36.898438 75.804688 C 38.726562 73.339844 40.613281 70.921875 42.558594 68.550781 C 44.507812 66.179688 46.511719 63.855469 48.570312 61.582031 C 50.632812 59.308594 52.746094 57.085938 54.917969 54.917969 C 57.085938 52.746094 59.308594 50.632812 61.582031 48.570312 C 63.855469 46.511719 66.179688 44.507812 68.550781 42.558594 C 70.921875 40.613281 73.339844 38.726562 75.804688 36.898438 C 78.269531 35.070312 80.777344 33.304688 83.332031 31.597656 C 85.882812 29.894531 88.472656 28.253906 91.105469 26.675781 C 93.738281 25.097656 96.40625 23.585938 99.113281 22.140625 C 101.820312 20.691406 104.558594 19.3125 107.332031 18.003906 C 110.105469 16.691406 112.910156 15.445312 115.746094 14.273438 C 118.582031 13.097656 121.445312 11.996094 124.332031 10.960938 C 127.222656 9.925781 130.136719 8.964844 133.070312 8.074219 C 136.007812 7.183594 138.964844 6.363281 141.941406 5.617188 C 144.917969 4.875 147.910156 4.203125 150.921875 3.601562 C 153.929688 3.003906 156.953125 2.480469 159.988281 2.03125 C 163.023438 1.578125 166.066406 1.203125 169.121094 0.902344 C 172.175781 0.601562 175.234375 0.375 178.300781 0.226562 C 181.363281 0.0742188 184.429688 0 187.5 0 C 190.570312 0 193.636719 0.0742188 196.699219 0.226562 C 199.765625 0.375 202.824219 0.601562 205.878906 0.902344 C 208.933594 1.203125 211.976562 1.578125 215.011719 2.03125 C 218.046875 2.480469 221.070312 3.003906 224.078125 3.601562 C 227.089844 4.203125 230.082031 4.875 233.058594 5.617188 C 236.035156 6.363281 238.992188 7.183594 241.929688 8.074219 C 244.863281 8.964844 247.777344 9.925781 250.667969 10.960938 C 253.554688 11.996094 256.417969 13.097656 259.253906 14.273438 C 262.089844 15.445312 264.890625 16.691406 267.667969 18.003906 C 270.441406 19.3125 273.179688 20.691406 275.886719 22.140625 C 278.59375 23.585938 281.261719 25.097656 283.894531 26.675781 C 286.527344 28.253906 289.117188 29.894531 291.667969 31.597656 C 294.222656 33.304688 296.730469 35.070312 299.195312 36.898438 C 301.660156 38.726562 304.078125 40.613281 306.449219 42.558594 C 308.820312 44.507812 311.144531 46.511719 313.417969 48.570312 C 315.691406 50.632812 317.914062 52.746094 320.082031 54.917969 C 322.253906 57.085938 324.367188 59.308594 326.429688 61.582031 C 328.488281 63.855469 330.492188 66.179688 332.4375 68.550781 C 334.386719 70.921875 336.273438 73.339844 338.101562 75.804688 C 339.929688 78.269531 341.695312 80.777344 343.402344 83.332031 C 345.105469 85.882812 346.746094 88.472656 348.324219 91.105469 C 349.902344 93.738281 351.414062 96.40625 352.859375 99.113281 C 354.304688 101.820312 355.6875 104.558594 356.996094 107.332031 C 358.308594 110.105469 359.554688 112.910156 360.726562 115.746094 C 361.902344 118.582031 363.003906 121.445312 364.039062 124.332031 C 365.074219 127.222656 366.035156 130.136719 366.925781 133.070312 C 367.816406 136.007812 368.636719 138.964844 369.378906 141.941406 C 370.125 144.917969 370.796875 147.910156 371.398438 150.921875 C 371.996094 153.929688 372.519531 156.953125 372.96875 159.988281 C 373.421875 163.023438 373.796875 166.066406 374.097656 169.121094 C 374.398438 172.175781 374.625 175.234375 374.773438 178.300781 C 374.925781 181.363281 375 184.429688 375 187.5 Z M 375 187.5 " fill-opacity="1" fill-rule="nonzero"/><g clip-path="url(#213b2a63c7)"><path fill="#0d131a" d="M 184.554688 277.878906 C 183.804688 277.710938 183.097656 277.472656 182.328125 277.359375 C 180.796875 277.042969 179.234375 277.007812 177.6875 277.09375 C 175.808594 277.097656 173.933594 277.039062 172.054688 276.945312 C 171.929688 276.34375 171.765625 275.664062 171.523438 274.917969 C 170.761719 272.46875 169.328125 269.574219 166.878906 266.996094 C 166.265625 266.355469 165.601562 265.820312 164.933594 265.289062 C 164.269531 264.742188 163.582031 264.25 162.898438 263.816406 C 161.527344 262.992188 160.175781 262.203125 158.964844 261.652344 C 157.738281 261.132812 156.695312 260.597656 155.925781 260.332031 C 155.164062 260.035156 154.691406 259.90625 154.691406 259.90625 C 154.691406 259.90625 154.226562 261.664062 154.292969 264.148438 C 154.328125 265.390625 154.503906 266.820312 154.96875 268.3125 C 155.199219 269.066406 155.507812 269.828125 155.902344 270.589844 C 156.304688 271.320312 156.792969 272.046875 157.40625 272.753906 C 158.007812 273.46875 158.695312 274.121094 159.433594 274.726562 C 159.984375 275.140625 160.566406 275.511719 161.164062 275.867188 C 157.53125 275.296875 153.941406 274.503906 150.410156 273.503906 C 150.4375 272.960938 150.453125 272.347656 150.421875 271.667969 C 150.378906 270.398438 150.21875 268.941406 149.851562 267.425781 C 149.480469 265.914062 148.898438 264.371094 148.058594 262.785156 C 147.199219 261.238281 146.128906 259.90625 145.046875 258.652344 C 144.5 258.042969 143.933594 257.503906 143.382812 256.972656 C 142.847656 256.429688 142.308594 255.941406 141.792969 255.503906 C 140.746094 254.660156 139.835938 253.910156 139.164062 253.417969 C 138.496094 252.925781 138.074219 252.671875 138.074219 252.671875 C 138.074219 252.671875 137.175781 254.25 136.597656 256.675781 C 136.035156 259.082031 135.757812 262.464844 137.367188 265.820312 C 138.078125 267.367188 139.128906 268.742188 140.316406 269.960938 C 136.886719 268.496094 133.554688 266.816406 130.34375 264.910156 C 130.535156 264.347656 130.726562 263.691406 130.898438 262.949219 C 131.480469 260.4375 131.738281 257.175781 130.859375 253.726562 C 130.429688 251.984375 129.703125 250.433594 128.957031 248.941406 C 128.574219 248.203125 128.160156 247.511719 127.738281 246.882812 C 127.34375 246.214844 126.941406 245.589844 126.535156 245.03125 C 126.144531 244.472656 125.75 243.972656 125.394531 243.523438 C 125.054688 243.058594 124.742188 242.660156 124.46875 242.332031 C 123.9375 241.6875 123.585938 241.328125 123.585938 241.328125 C 123.585938 241.328125 122.328125 242.644531 121.179688 244.863281 C 120.039062 247.082031 118.980469 250.273438 119.707031 253.9375 C 120.042969 255.757812 120.796875 257.492188 121.753906 259.0625 C 120.03125 257.742188 118.347656 256.378906 116.730469 254.9375 C 115.460938 253.8125 114.234375 252.640625 113.03125 251.445312 C 113.375 250.914062 113.75 250.289062 114.117188 249.550781 C 115.277344 247.277344 116.347656 244.125 116.277344 240.574219 C 116.234375 236.988281 115.082031 233.644531 114.089844 231.039062 C 113.574219 229.757812 113.035156 228.695312 112.683594 227.914062 C 112.320312 227.148438 112.054688 226.714844 112.054688 226.714844 C 112.054688 226.714844 110.535156 227.703125 108.898438 229.605469 C 108.082031 230.550781 107.246094 231.742188 106.570312 233.167969 C 105.917969 234.578125 105.460938 236.21875 105.359375 238.109375 C 105.238281 240.011719 105.652344 241.863281 106.179688 243.695312 C 106.207031 243.792969 106.246094 243.886719 106.28125 243.984375 C 103.765625 240.882812 101.441406 237.632812 99.324219 234.246094 C 99.808594 233.789062 100.371094 233.214844 100.949219 232.523438 C 102.542969 230.605469 104.390625 227.742188 105.085938 224.28125 C 105.511719 222.511719 105.570312 220.773438 105.542969 219.101562 C 105.5625 217.410156 105.289062 215.867188 105.128906 214.476562 C 104.945312 213.09375 104.636719 211.949219 104.460938 211.113281 C 104.285156 210.277344 104.136719 209.792969 104.136719 209.792969 C 104.136719 209.792969 102.429688 210.414062 100.398438 211.894531 C 98.34375 213.390625 96.082031 215.738281 95.015625 219.382812 C 94.523438 221.183594 94.433594 223.109375 94.542969 225.003906 C 94.570312 225.300781 94.617188 225.597656 94.65625 225.898438 C 92.808594 222.148438 91.210938 218.28125 89.867188 214.324219 C 90.480469 213.980469 91.214844 213.519531 92.011719 212.921875 C 93.03125 212.171875 94.101562 211.210938 95.136719 210.03125 C 96.1875 208.851562 97.167969 207.453125 97.910156 205.847656 C 98.652344 204.234375 99.226562 202.523438 99.519531 200.90625 C 99.875 199.277344 100.09375 197.699219 100.15625 196.328125 C 100.300781 194.941406 100.320312 193.75 100.304688 192.902344 C 100.285156 192.058594 100.273438 191.550781 100.273438 191.550781 C 100.273438 191.550781 98.464844 191.765625 96.148438 192.742188 C 93.878906 193.71875 91.046875 195.488281 89.222656 198.78125 C 88.101562 200.832031 87.527344 203.222656 87.320312 205.523438 C 86.667969 202.777344 86.128906 200.003906 85.71875 197.210938 C 85.496094 195.726562 85.320312 194.238281 85.171875 192.742188 C 85.878906 192.542969 86.769531 192.253906 87.765625 191.820312 C 90.121094 190.8125 92.863281 189.078125 95.148438 186.292969 C 95.707031 185.59375 96.191406 184.863281 96.628906 184.125 C 97.097656 183.378906 97.5 182.617188 97.855469 181.867188 C 98.523438 180.355469 99.113281 178.878906 99.535156 177.566406 C 99.921875 176.25 100.261719 175.105469 100.464844 174.289062 C 100.660156 173.464844 100.734375 172.96875 100.734375 172.96875 C 100.734375 172.96875 98.933594 172.753906 96.464844 173.164062 C 94.023438 173.582031 90.796875 174.644531 88.316406 177.429688 C 87.691406 178.121094 87.105469 178.894531 86.617188 179.703125 C 86.15625 180.515625 85.742188 181.371094 85.386719 182.242188 C 85.121094 182.863281 84.910156 183.484375 84.722656 184.105469 C 84.699219 179.601562 85.007812 175.089844 85.625 170.613281 C 86.367188 170.59375 87.347656 170.527344 88.476562 170.320312 C 91.003906 169.886719 94.148438 168.855469 96.957031 166.679688 C 99.800781 164.503906 101.796875 161.597656 103.28125 159.269531 C 104.007812 158.097656 104.527344 157.042969 104.945312 156.300781 C 105.339844 155.558594 105.535156 155.09375 105.535156 155.09375 C 105.535156 155.09375 103.832031 154.457031 101.335938 154.265625 C 100.089844 154.179688 98.632812 154.207031 97.078125 154.511719 C 95.566406 154.828125 93.976562 155.429688 92.402344 156.476562 C 90.800781 157.511719 89.5625 158.945312 88.414062 160.460938 C 87.914062 161.152344 87.480469 161.875 87.089844 162.589844 C 88.121094 158.027344 89.5 153.546875 91.210938 149.1875 C 91.953125 149.355469 93.011719 149.542969 94.261719 149.617188 C 96.738281 149.765625 100.152344 149.554688 103.34375 148.085938 C 105.019531 147.382812 106.445312 146.410156 107.777344 145.410156 C 109.140625 144.433594 110.222656 143.3125 111.25 142.371094 C 113.191406 140.429688 114.433594 138.851562 114.433594 138.851562 C 114.433594 138.851562 112.9375 137.832031 110.546875 137.054688 C 109.359375 136.675781 107.917969 136.347656 106.367188 136.292969 C 104.820312 136.242188 103.121094 136.449219 101.335938 137.085938 C 99.578125 137.742188 97.984375 138.8125 96.515625 140.011719 C 95.703125 140.753906 94.929688 141.539062 94.230469 142.328125 C 95.820312 139.085938 97.585938 135.933594 99.566406 132.902344 C 100.269531 131.800781 101.007812 130.71875 101.769531 129.648438 C 102.449219 130 103.480469 130.46875 104.78125 130.867188 C 107.160156 131.59375 110.503906 132.191406 113.964844 131.511719 C 115.746094 131.214844 117.394531 130.621094 118.902344 129.949219 C 120.46875 129.320312 121.777344 128.492188 123 127.808594 C 124.203125 127.121094 125.132812 126.40625 125.839844 125.929688 C 126.535156 125.449219 126.929688 125.132812 126.929688 125.132812 C 126.929688 125.132812 125.707031 123.792969 123.566406 122.472656 C 121.40625 121.140625 118.371094 119.941406 114.601562 120.34375 C 112.753906 120.582031 110.925781 121.222656 109.238281 122.058594 C 108.109375 122.675781 107.019531 123.359375 106.042969 124.066406 C 109.277344 120.140625 112.820312 116.476562 116.636719 113.113281 C 117.214844 113.613281 118.152344 114.363281 119.414062 115.109375 C 121.558594 116.382812 124.660156 117.722656 128.191406 117.886719 C 129.980469 118 131.734375 117.835938 133.351562 117.519531 C 135.019531 117.277344 136.5 116.796875 137.832031 116.402344 C 139.160156 116.019531 140.246094 115.5625 141.03125 115.25 C 141.820312 114.949219 142.277344 114.738281 142.277344 114.738281 C 142.277344 114.738281 141.402344 113.140625 139.632812 111.355469 C 137.839844 109.542969 135.183594 107.683594 131.421875 107.171875 C 129.585938 106.992188 127.636719 107.160156 125.8125 107.59375 C 124.292969 108 122.796875 108.503906 121.503906 109.113281 C 121.824219 108.863281 122.140625 108.601562 122.464844 108.363281 C 126.410156 105.394531 130.617188 102.773438 135 100.484375 C 135.421875 101.097656 136.203125 102.121094 137.328125 103.226562 C 138.230469 104.117188 139.34375 105.03125 140.65625 105.875 C 141.988281 106.734375 143.511719 107.5 145.199219 107.996094 C 146.902344 108.5 148.664062 108.800781 150.296875 108.855469 C 151.960938 108.996094 153.535156 108.933594 154.90625 108.828125 C 156.285156 108.773438 157.453125 108.617188 158.277344 108.46875 C 159.117188 108.351562 159.613281 108.269531 159.613281 108.269531 C 159.613281 108.269531 159.144531 106.5 157.847656 104.347656 C 156.542969 102.199219 154.394531 99.722656 150.863281 98.359375 C 147.359375 97.074219 143.1875 97.296875 140.011719 98.058594 C 139.972656 98.066406 139.9375 98.070312 139.902344 98.089844 C 142.5 96.910156 145.152344 95.851562 147.851562 94.921875 C 147.960938 94.949219 148.058594 94.96875 148.1875 94.996094 C 149.09375 95.1875 150.363281 95.378906 151.898438 95.621094 C 153.433594 95.851562 155.167969 95.941406 157.0625 96.023438 C 158.007812 96.050781 158.976562 96.019531 159.96875 95.941406 C 160.960938 95.902344 161.976562 95.800781 163 95.613281 C 164.023438 95.414062 165.027344 95.199219 165.984375 94.949219 C 166.945312 94.695312 167.863281 94.378906 168.75 94.027344 C 170.519531 93.429688 172.121094 92.667969 173.5 91.957031 C 176.246094 90.644531 178.050781 89.347656 178.050781 89.347656 C 178.050781 89.347656 176.28125 88.144531 173.261719 86.972656 C 171.753906 86.445312 169.925781 85.96875 167.898438 85.652344 C 166.882812 85.546875 165.816406 85.480469 164.71875 85.488281 C 163.617188 85.480469 162.484375 85.554688 161.347656 85.777344 C 160.203125 85.980469 159.101562 86.253906 158.058594 86.582031 C 157.023438 86.953125 156.039062 87.386719 155.121094 87.835938 C 153.277344 88.699219 151.742188 89.84375 150.492188 90.835938 C 149.230469 91.816406 148.316406 92.824219 147.6875 93.515625 C 147.59375 93.625 147.519531 93.714844 147.441406 93.808594 C 144.699219 94.707031 141.992188 95.734375 139.34375 96.890625 C 139.382812 96.863281 139.421875 96.835938 139.457031 96.808594 C 142.167969 94.878906 145.535156 92.367188 147.957031 89.160156 C 150.394531 86.027344 151.386719 82.664062 151.734375 80.113281 C 152.089844 77.574219 151.761719 75.785156 151.761719 75.785156 C 151.761719 75.785156 151.0625 75.949219 149.925781 76.339844 C 148.796875 76.75 147.230469 77.363281 145.503906 78.1875 C 143.796875 79.0625 141.941406 80.183594 140.214844 81.492188 C 138.519531 82.886719 136.929688 84.40625 135.785156 86.183594 C 134.644531 87.960938 134.003906 89.703125 133.683594 91.304688 C 133.375 92.925781 133.394531 94.441406 133.539062 95.707031 C 133.71875 97.296875 134.09375 98.527344 134.351562 99.234375 C 129.871094 101.492188 125.558594 104.085938 121.496094 107.042969 C 121.109375 107.3125 120.75 107.605469 120.371094 107.894531 C 121.347656 106.75 122.4375 105.523438 123.410156 104.082031 C 124.550781 102.5 125.636719 100.796875 126.414062 98.925781 C 128.050781 95.324219 128.195312 91.785156 127.949219 89.261719 C 127.691406 86.703125 126.949219 85.042969 126.949219 85.042969 C 126.949219 85.042969 126.3125 85.378906 125.289062 86.015625 C 124.28125 86.652344 122.925781 87.652344 121.445312 88.859375 C 119.96875 90.074219 118.464844 91.65625 117.089844 93.3125 C 115.761719 95.050781 114.601562 96.945312 113.890625 98.910156 C 112.515625 102.90625 113.0625 106.265625 113.957031 108.695312 C 114.472656 110.09375 115.070312 111.144531 115.484375 111.789062 C 111.484375 115.203125 107.765625 118.941406 104.367188 122.96875 C 104.957031 121.816406 105.570312 120.570312 106.078125 119.207031 C 106.832031 117.421875 107.464844 115.484375 107.796875 113.503906 C 108.53125 109.597656 107.855469 106.148438 107.015625 103.746094 C 106.160156 101.3125 105.046875 99.882812 105.046875 99.882812 C 105.046875 99.882812 104.511719 100.363281 103.667969 101.214844 C 102.824219 102.058594 101.757812 103.367188 100.601562 104.882812 C 99.441406 106.398438 98.363281 108.296875 97.417969 110.234375 C 96.519531 112.21875 95.863281 114.347656 95.617188 116.410156 C 95.226562 120.621094 96.53125 123.757812 97.976562 125.90625 C 98.738281 127.050781 99.5 127.890625 100.050781 128.425781 C 99.265625 129.507812 98.492188 130.601562 97.753906 131.714844 C 95.707031 134.746094 93.875 137.910156 92.207031 141.164062 C 92.4375 140.152344 92.644531 139.097656 92.78125 137.984375 C 93.113281 136.078125 93.238281 134.027344 93.117188 132.027344 C 93.019531 130.046875 92.597656 128.257812 92.027344 126.6875 C 91.460938 125.125 90.777344 123.808594 90.070312 122.730469 C 88.664062 120.566406 87.25 119.429688 87.25 119.429688 C 87.25 119.429688 85.5625 121.789062 84.101562 125.339844 C 83.320312 127.078125 82.722656 129.183594 82.265625 131.292969 C 81.832031 133.425781 81.722656 135.667969 81.953125 137.730469 C 82.574219 141.921875 84.5625 144.652344 86.476562 146.40625 C 87.410156 147.253906 88.285156 147.871094 88.9375 148.269531 C 87.105469 152.726562 85.617188 157.328125 84.476562 162.015625 C 84.441406 161.15625 84.386719 160.269531 84.300781 159.371094 C 84.179688 157.441406 83.765625 155.402344 83.21875 153.507812 C 82.644531 151.597656 81.808594 149.960938 80.878906 148.570312 C 79.992188 147.195312 78.988281 146.066406 78.050781 145.183594 C 76.179688 143.410156 74.53125 142.640625 74.53125 142.640625 C 74.53125 142.640625 74.277344 143.3125 73.925781 144.464844 C 73.546875 145.609375 73.179688 147.246094 72.875 149.144531 C 72.230469 152.910156 72.214844 157.78125 73.726562 161.6875 C 75.265625 165.609375 77.964844 167.808594 80.152344 169.042969 C 81.199219 169.621094 82.136719 169.988281 82.851562 170.222656 C 82.148438 174.800781 81.761719 179.417969 81.714844 184.042969 C 81.527344 183.421875 81.335938 182.792969 81.136719 182.152344 C 80.824219 181.222656 80.464844 180.304688 80.039062 179.378906 C 79.632812 178.46875 79.214844 177.574219 78.691406 176.714844 C 76.59375 173.28125 73.964844 171.125 71.691406 169.855469 C 69.445312 168.578125 67.660156 168.222656 67.660156 168.222656 C 67.660156 168.222656 67.578125 168.933594 67.523438 170.136719 C 67.460938 171.332031 67.402344 173.007812 67.601562 174.917969 C 67.757812 176.824219 68.054688 178.949219 68.703125 181.042969 C 69.015625 182.085938 69.378906 183.117188 69.804688 184.097656 C 70.265625 185.082031 70.796875 186.019531 71.398438 186.882812 C 73.746094 190.324219 76.949219 191.824219 79.371094 192.515625 C 80.410156 192.804688 81.316406 192.945312 82.035156 193.019531 C 82.164062 194.566406 82.324219 196.109375 82.53125 197.648438 C 82.910156 200.519531 83.414062 203.378906 84.039062 206.214844 C 82.851562 204.171875 81.429688 202.085938 79.691406 200.316406 C 76.914062 197.453125 73.800781 195.984375 71.28125 195.277344 C 68.816406 194.558594 67.003906 194.628906 67.003906 194.625 C 67.003906 194.625 67.042969 195.34375 67.304688 196.511719 C 67.535156 197.683594 67.914062 199.316406 68.472656 201.140625 C 69.113281 202.941406 69.898438 204.941406 70.964844 206.828125 C 72.089844 208.703125 73.34375 210.496094 74.929688 211.882812 C 76.515625 213.269531 78.136719 214.160156 79.675781 214.710938 C 81.226562 215.265625 82.730469 215.46875 84 215.523438 C 84.992188 215.566406 85.855469 215.507812 86.546875 215.425781 C 87.863281 219.503906 89.4375 223.503906 91.269531 227.386719 C 91.078125 227.199219 90.894531 227.003906 90.695312 226.8125 C 89.351562 225.429688 87.789062 224.113281 86.085938 223.042969 C 82.773438 220.878906 79.316406 220.195312 76.777344 220.054688 C 74.210938 219.929688 72.457031 220.40625 72.457031 220.40625 C 72.457031 220.40625 72.695312 221.085938 73.164062 222.179688 C 73.625 223.277344 74.414062 224.761719 75.378906 226.402344 C 76.316406 228.042969 77.660156 229.757812 79.085938 231.367188 C 80.550781 232.960938 82.292969 234.363281 84.082031 235.386719 C 87.824219 237.363281 91.203125 237.371094 93.742188 236.871094 C 94.636719 236.695312 95.410156 236.472656 96.039062 236.25 C 98.195312 239.816406 100.570312 243.25 103.148438 246.523438 C 103.046875 246.464844 102.953125 246.398438 102.847656 246.335938 C 101.226562 245.285156 99.347656 244.402344 97.5 243.707031 C 95.632812 243.039062 93.808594 242.738281 92.148438 242.652344 C 90.515625 242.550781 89.015625 242.6875 87.75 242.917969 C 85.210938 243.375 83.617188 244.242188 83.617188 244.242188 C 83.617188 244.242188 84.007812 244.851562 84.714844 245.804688 C 85.40625 246.777344 86.492188 248.054688 87.828125 249.417969 C 90.457031 252.160156 94.347656 255.070312 98.371094 256.199219 C 102.429688 257.296875 105.796875 256.46875 108.105469 255.445312 C 108.871094 255.101562 109.519531 254.738281 110.054688 254.398438 C 111.296875 255.667969 112.554688 256.914062 113.863281 258.117188 C 115.515625 259.632812 117.230469 261.066406 118.988281 262.457031 C 117.183594 261.890625 115.28125 261.4375 113.375 261.222656 C 109.375 260.828125 106.054688 261.671875 103.6875 262.707031 C 101.316406 263.742188 99.964844 264.957031 99.964844 264.957031 C 99.964844 264.957031 100.484375 265.449219 101.40625 266.21875 C 101.867188 266.605469 102.425781 267.054688 103.070312 267.546875 C 103.726562 268.019531 104.480469 268.519531 105.292969 269.027344 C 106.109375 269.539062 106.984375 270.054688 107.910156 270.535156 C 108.863281 270.996094 109.863281 271.4375 110.878906 271.824219 C 112.898438 272.625 115.117188 273.085938 117.207031 273.171875 C 121.414062 273.3125 124.515625 271.65625 126.496094 270.125 C 127.078125 269.664062 127.566406 269.207031 127.980469 268.792969 C 131.292969 270.828125 134.746094 272.640625 138.304688 274.230469 C 136.566406 274.164062 134.78125 274.207031 133.035156 274.445312 C 129.050781 275.0625 126.042969 276.652344 123.980469 278.253906 C 121.925781 279.832031 120.90625 281.339844 120.90625 281.339844 C 120.90625 281.339844 121.542969 281.691406 122.632812 282.214844 C 123.726562 282.734375 125.273438 283.445312 127.132812 284.003906 C 128.058594 284.296875 129.046875 284.582031 130.078125 284.828125 C 131.113281 285.0625 132.207031 285.222656 133.296875 285.34375 C 135.476562 285.617188 137.742188 285.527344 139.804688 285.066406 C 141.851562 284.640625 143.546875 283.773438 144.898438 282.804688 C 146.25 281.839844 147.265625 280.753906 148.03125 279.746094 C 148.441406 279.199219 148.777344 278.679688 149.054688 278.203125 C 152.660156 279.277344 156.339844 280.125 160.058594 280.726562 C 159.480469 280.871094 158.898438 281.035156 158.316406 281.21875 C 157.363281 281.484375 156.40625 281.816406 155.488281 282.214844 C 154.574219 282.621094 153.71875 283.078125 152.9375 283.578125 C 152.160156 284.046875 151.453125 284.542969 150.816406 285.066406 C 149.53125 286.109375 148.503906 287.226562 147.710938 288.261719 C 146.128906 290.320312 145.535156 292.042969 145.535156 292.042969 C 145.535156 292.042969 146.25 292.214844 147.457031 292.433594 C 148.664062 292.625 150.335938 292.960938 152.300781 292.996094 C 154.257812 293.058594 156.441406 293.078125 158.636719 292.667969 C 159.734375 292.484375 160.820312 292.242188 161.863281 291.9375 C 162.914062 291.609375 163.921875 291.164062 164.859375 290.675781 C 168.59375 288.71875 170.4375 285.671875 171.375 283.332031 C 171.59375 282.78125 171.753906 282.261719 171.886719 281.78125 C 173.890625 281.828125 175.894531 281.828125 177.890625 281.730469 C 179.039062 281.628906 180.203125 281.683594 181.328125 281.960938 L 187.046875 284.175781 C 188.527344 284.992188 189.945312 285.941406 191.253906 287.011719 C 195.203125 290.195312 198.152344 294.5 200.042969 299.210938 L 205.390625 297.074219 C 202.960938 291.578125 199.285156 286.59375 194.492188 283 C 193.867188 282.519531 193.214844 282.066406 192.558594 281.636719 L 186.699219 278.605469 C 185.996094 278.335938 185.269531 278.113281 184.554688 277.878906 " fill-opacity="1" fill-rule="nonzero"/></g><g clip-path="url(#2a0c636a44)"><path fill="#0d131a" d="M 180.296875 282.730469 C 175.523438 286.460938 171.921875 291.539062 169.613281 297.074219 L 174.957031 299.210938 C 176.746094 294.457031 179.597656 290.054688 183.527344 286.746094 C 184.625 285.796875 185.8125 284.941406 187.046875 284.175781 L 181.328125 281.960938 C 180.976562 282.214844 180.625 282.460938 180.296875 282.730469 " fill-opacity="1" fill-rule="nonzero"/></g><g clip-path="url(#8d35a30547)"><path fill="#0d131a" d="M 303.71875 195.273438 C 301.203125 195.984375 298.082031 197.453125 295.304688 200.316406 C 293.527344 202.121094 292.082031 204.261719 290.886719 206.34375 C 291.523438 203.46875 292.039062 200.5625 292.429688 197.644531 C 292.632812 196.109375 292.792969 194.566406 292.925781 193.023438 C 293.644531 192.949219 294.574219 192.808594 295.628906 192.515625 C 298.054688 191.824219 301.253906 190.324219 303.609375 186.882812 C 304.203125 186.019531 304.734375 185.082031 305.195312 184.097656 C 305.625 183.117188 305.984375 182.085938 306.292969 181.042969 C 306.945312 178.949219 307.238281 176.824219 307.402344 174.917969 C 307.597656 173.007812 307.535156 171.332031 307.480469 170.136719 C 307.417969 168.9375 307.335938 168.222656 307.335938 168.222656 C 307.335938 168.222656 305.558594 168.578125 303.308594 169.855469 C 301.03125 171.125 298.40625 173.28125 296.308594 176.714844 C 295.789062 177.574219 295.367188 178.46875 294.960938 179.378906 C 294.53125 180.296875 294.171875 181.222656 293.859375 182.152344 C 293.644531 182.835938 293.445312 183.5 293.253906 184.160156 C 293.207031 179.496094 292.824219 174.84375 292.117188 170.238281 C 292.832031 169.996094 293.78125 169.625 294.847656 169.042969 C 297.03125 167.808594 299.734375 165.609375 301.277344 161.6875 C 302.78125 157.78125 302.769531 152.910156 302.125 149.140625 C 301.820312 147.246094 301.449219 145.605469 301.074219 144.464844 C 300.726562 143.3125 300.46875 142.640625 300.46875 142.640625 C 300.46875 142.640625 298.820312 143.410156 296.949219 145.183594 C 296.003906 146.066406 295.007812 147.195312 294.121094 148.566406 C 293.195312 149.957031 292.351562 151.597656 291.78125 153.507812 C 291.230469 155.402344 290.820312 157.441406 290.695312 159.375 C 290.609375 160.308594 290.554688 161.226562 290.515625 162.117188 C 289.375 157.398438 287.878906 152.769531 286.039062 148.285156 C 286.699219 147.882812 287.578125 147.265625 288.523438 146.40625 C 290.429688 144.652344 292.417969 141.921875 293.042969 137.726562 C 293.277344 135.667969 293.171875 133.429688 292.742188 131.292969 C 292.277344 129.183594 291.679688 127.078125 290.894531 125.339844 C 289.433594 121.789062 287.75 119.425781 287.75 119.425781 C 287.75 119.425781 286.328125 120.566406 284.925781 122.730469 C 284.214844 123.808594 283.539062 125.121094 282.976562 126.6875 C 282.402344 128.257812 281.980469 130.046875 281.882812 132.027344 C 281.757812 134.019531 281.882812 136.078125 282.21875 137.984375 C 282.359375 139.125 282.582031 140.21875 282.808594 141.25 C 281.140625 137.972656 279.289062 134.78125 277.226562 131.726562 C 276.484375 130.613281 275.71875 129.523438 274.933594 128.4375 C 275.484375 127.90625 276.25 127.0625 277.023438 125.90625 C 278.46875 123.757812 279.769531 120.621094 279.386719 116.40625 C 279.132812 114.347656 278.480469 112.214844 277.578125 110.234375 C 276.628906 108.292969 275.554688 106.394531 274.390625 104.882812 C 273.242188 103.363281 272.175781 102.058594 271.324219 101.214844 C 270.488281 100.363281 269.953125 99.882812 269.953125 99.882812 C 269.953125 99.882812 268.835938 101.3125 267.984375 103.746094 C 267.144531 106.148438 266.464844 109.597656 267.199219 113.5 C 267.535156 115.484375 268.171875 117.421875 268.917969 119.207031 C 269.429688 120.59375 270.066406 121.863281 270.667969 123.035156 C 267.25 118.988281 263.523438 115.226562 259.507812 111.796875 C 259.917969 111.15625 260.523438 110.097656 261.039062 108.695312 C 261.941406 106.265625 262.484375 102.90625 261.105469 98.90625 C 260.386719 96.941406 259.238281 95.050781 257.914062 93.3125 C 256.53125 91.652344 255.027344 90.070312 253.550781 88.859375 C 252.074219 87.652344 250.714844 86.652344 249.707031 86.011719 C 248.683594 85.378906 248.050781 85.042969 248.050781 85.042969 C 248.050781 85.042969 247.304688 86.703125 247.050781 89.257812 C 246.800781 91.78125 246.945312 95.324219 248.589844 98.921875 C 249.359375 100.796875 250.449219 102.5 251.585938 104.082031 C 252.574219 105.535156 253.671875 106.773438 254.648438 107.925781 C 254.261719 107.640625 253.890625 107.335938 253.496094 107.050781 C 249.4375 104.097656 245.117188 101.496094 240.648438 99.238281 C 240.902344 98.539062 241.273438 97.300781 241.460938 95.710938 C 241.601562 94.4375 241.625 92.925781 241.3125 91.304688 C 240.996094 89.703125 240.355469 87.957031 239.210938 86.179688 C 238.070312 84.40625 236.480469 82.886719 234.785156 81.492188 C 233.058594 80.183594 231.207031 79.0625 229.492188 78.1875 C 227.765625 77.363281 226.203125 76.75 225.074219 76.335938 C 223.9375 75.949219 223.234375 75.785156 223.234375 75.785156 C 223.234375 75.785156 222.898438 77.574219 223.261719 80.113281 C 223.621094 82.664062 224.605469 86.027344 227.039062 89.15625 C 229.460938 92.367188 232.832031 94.878906 235.542969 96.808594 C 235.582031 96.839844 235.625 96.867188 235.675781 96.898438 C 233.015625 95.75 230.308594 94.710938 227.554688 93.808594 C 227.480469 93.714844 227.410156 93.625 227.304688 93.511719 C 226.679688 92.824219 225.765625 91.816406 224.503906 90.835938 C 223.257812 89.84375 221.71875 88.699219 219.875 87.828125 C 218.960938 87.382812 217.980469 86.949219 216.933594 86.578125 C 215.890625 86.253906 214.789062 85.980469 213.652344 85.777344 C 212.511719 85.554688 211.378906 85.476562 210.28125 85.488281 C 209.175781 85.480469 208.113281 85.546875 207.101562 85.652344 C 205.070312 85.96875 203.253906 86.4375 201.746094 86.972656 C 198.71875 88.144531 196.957031 89.347656 196.957031 89.347656 C 196.957031 89.347656 198.746094 90.644531 201.503906 91.957031 C 202.871094 92.667969 204.480469 93.429688 206.25 94.027344 C 207.132812 94.378906 208.054688 94.691406 209.007812 94.949219 C 209.980469 95.199219 210.96875 95.410156 211.996094 95.613281 C 213.019531 95.792969 214.035156 95.898438 215.035156 95.941406 C 216.019531 96.019531 216.992188 96.050781 217.9375 96.023438 C 219.824219 95.941406 221.566406 95.851562 223.09375 95.617188 C 224.632812 95.382812 225.898438 95.1875 226.8125 94.992188 C 226.945312 94.96875 227.035156 94.945312 227.144531 94.921875 C 229.84375 95.855469 232.484375 96.90625 235.082031 98.082031 C 235.046875 98.070312 235.019531 98.0625 234.988281 98.058594 C 231.808594 97.296875 227.636719 97.074219 224.132812 98.359375 C 220.601562 99.722656 218.457031 102.199219 217.152344 104.347656 C 215.859375 106.503906 215.386719 108.265625 215.386719 108.265625 C 215.386719 108.265625 215.882812 108.351562 216.714844 108.46875 C 217.542969 108.617188 218.714844 108.773438 220.09375 108.828125 C 221.464844 108.933594 223.035156 108.996094 224.703125 108.855469 C 226.335938 108.800781 228.097656 108.503906 229.796875 107.996094 C 231.492188 107.5 233.007812 106.734375 234.34375 105.875 C 235.660156 105.03125 236.769531 104.117188 237.671875 103.226562 C 238.792969 102.125 239.570312 101.097656 240 100.488281 C 244.375 102.78125 248.578125 105.398438 252.527344 108.367188 C 252.839844 108.601562 253.144531 108.855469 253.453125 109.09375 C 252.164062 108.492188 250.6875 108 249.1875 107.59375 C 247.359375 107.160156 245.414062 106.992188 243.574219 107.171875 C 239.808594 107.683594 237.15625 109.542969 235.363281 111.355469 C 233.59375 113.140625 232.722656 114.734375 232.722656 114.734375 C 232.722656 114.734375 233.175781 114.949219 233.964844 115.25 C 234.75 115.558594 235.835938 116.019531 237.164062 116.40625 C 238.496094 116.796875 239.976562 117.277344 241.640625 117.519531 C 243.257812 117.835938 245.019531 118 246.808594 117.882812 C 250.339844 117.722656 253.441406 116.378906 255.585938 115.109375 C 256.835938 114.363281 257.773438 113.617188 258.347656 113.117188 C 262.160156 116.46875 265.683594 120.125 268.910156 124.035156 C 267.945312 123.328125 266.875 122.667969 265.761719 122.058594 C 264.066406 121.222656 262.238281 120.582031 260.398438 120.339844 C 256.628906 119.9375 253.59375 121.140625 251.433594 122.472656 C 249.292969 123.789062 248.066406 125.132812 248.066406 125.132812 C 248.066406 125.132812 248.460938 125.449219 249.160156 125.933594 C 249.863281 126.40625 250.800781 127.121094 251.996094 127.8125 C 253.21875 128.492188 254.53125 129.316406 256.09375 129.949219 C 257.601562 130.621094 259.253906 131.210938 261.039062 131.507812 C 264.492188 132.1875 267.839844 131.59375 270.214844 130.867188 C 271.511719 130.46875 272.527344 130.003906 273.21875 129.660156 C 273.972656 130.730469 274.707031 131.8125 275.417969 132.914062 C 277.375 135.917969 279.128906 139.050781 280.703125 142.257812 C 280.019531 141.492188 279.273438 140.730469 278.480469 140.011719 C 277.011719 138.8125 275.425781 137.742188 273.660156 137.085938 C 271.878906 136.449219 270.179688 136.242188 268.628906 136.292969 C 267.085938 136.347656 265.632812 136.675781 264.445312 137.054688 C 262.058594 137.832031 260.558594 138.847656 260.558594 138.847656 C 260.558594 138.847656 261.804688 140.425781 263.746094 142.371094 C 264.777344 143.3125 265.855469 144.433594 267.21875 145.410156 C 268.554688 146.410156 269.976562 147.382812 271.652344 148.082031 C 274.84375 149.554688 278.257812 149.765625 280.734375 149.617188 C 281.972656 149.542969 283.023438 149.355469 283.765625 149.1875 C 285.457031 153.519531 286.824219 157.972656 287.859375 162.492188 C 287.476562 161.808594 287.0625 161.121094 286.585938 160.460938 C 285.433594 158.945312 284.195312 157.511719 282.59375 156.472656 C 281.023438 155.429688 279.433594 154.828125 277.914062 154.511719 C 276.363281 154.207031 274.910156 154.179688 273.664062 154.265625 C 271.167969 154.457031 269.460938 155.09375 269.460938 155.09375 C 269.460938 155.09375 269.660156 155.558594 270.050781 156.300781 C 270.472656 157.042969 270.988281 158.097656 271.722656 159.265625 C 273.207031 161.597656 275.199219 164.503906 278.039062 166.675781 C 280.847656 168.855469 283.996094 169.886719 286.527344 170.320312 C 287.632812 170.519531 288.601562 170.59375 289.339844 170.609375 C 289.953125 175.046875 290.257812 179.507812 290.238281 183.976562 C 290.054688 183.398438 289.855469 182.816406 289.613281 182.242188 C 289.253906 181.371094 288.847656 180.515625 288.378906 179.699219 C 287.898438 178.894531 287.308594 178.121094 286.683594 177.429688 C 284.199219 174.640625 280.96875 173.582031 278.53125 173.164062 C 276.074219 172.753906 274.261719 172.96875 274.261719 172.96875 C 274.261719 172.96875 274.339844 173.464844 274.539062 174.289062 C 274.734375 175.105469 275.078125 176.25 275.460938 177.566406 C 275.878906 178.878906 276.46875 180.355469 277.144531 181.867188 C 277.492188 182.617188 277.910156 183.378906 278.375 184.117188 C 278.804688 184.863281 279.289062 185.59375 279.851562 186.292969 C 282.132812 189.078125 284.882812 190.8125 287.234375 191.820312 C 288.214844 192.25 289.089844 192.535156 289.785156 192.726562 C 289.636719 194.222656 289.460938 195.714844 289.234375 197.203125 C 288.824219 199.957031 288.304688 202.695312 287.664062 205.402344 C 287.445312 203.140625 286.878906 200.796875 285.777344 198.78125 C 283.949219 195.488281 281.117188 193.71875 278.851562 192.734375 C 276.527344 191.765625 274.726562 191.550781 274.726562 191.550781 C 274.726562 191.550781 274.710938 192.058594 274.6875 192.902344 C 274.675781 193.75 274.695312 194.941406 274.84375 196.328125 C 274.902344 197.699219 275.125 199.277344 275.472656 200.90625 C 275.769531 202.523438 276.34375 204.234375 277.078125 205.847656 C 277.832031 207.453125 278.8125 208.851562 279.867188 210.03125 C 280.894531 211.210938 281.972656 212.171875 282.984375 212.921875 C 283.765625 213.507812 284.488281 213.964844 285.09375 214.296875 C 283.757812 218.214844 282.183594 222.039062 280.363281 225.742188 C 280.390625 225.5 280.429688 225.25 280.457031 225.003906 C 280.5625 223.109375 280.472656 221.183594 279.984375 219.382812 C 278.917969 215.738281 276.660156 213.390625 274.597656 211.894531 C 272.570312 210.414062 270.863281 209.792969 270.863281 209.792969 C 270.863281 209.792969 270.707031 210.277344 270.539062 211.113281 C 270.355469 211.945312 270.050781 213.089844 269.871094 214.476562 C 269.714844 215.867188 269.441406 217.410156 269.457031 219.101562 C 269.425781 220.773438 269.488281 222.511719 269.910156 224.28125 C 270.609375 227.742188 272.453125 230.605469 274.050781 232.523438 C 274.617188 233.195312 275.160156 233.753906 275.636719 234.207031 C 273.546875 237.550781 271.257812 240.761719 268.773438 243.824219 C 268.792969 243.777344 268.808594 243.738281 268.824219 243.695312 C 269.34375 241.863281 269.761719 240.011719 269.636719 238.109375 C 269.542969 236.21875 269.082031 234.578125 268.429688 233.167969 C 267.753906 231.742188 266.914062 230.550781 266.097656 229.605469 C 264.464844 227.703125 262.9375 226.714844 262.9375 226.714844 C 262.9375 226.714844 262.679688 227.148438 262.308594 227.914062 C 261.964844 228.695312 261.425781 229.757812 260.914062 231.039062 C 259.910156 233.644531 258.765625 236.988281 258.722656 240.574219 C 258.652344 244.125 259.722656 247.277344 260.878906 249.550781 C 261.242188 250.257812 261.59375 250.875 261.929688 251.386719 C 260.726562 252.589844 259.5 253.761719 258.222656 254.890625 C 256.644531 256.292969 255.003906 257.628906 253.328125 258.917969 C 254.242188 257.382812 254.964844 255.699219 255.289062 253.9375 C 256.019531 250.273438 254.957031 247.082031 253.816406 244.863281 C 252.667969 242.636719 251.410156 241.328125 251.410156 241.328125 C 251.410156 241.328125 251.058594 241.6875 250.527344 242.332031 C 250.257812 242.660156 249.945312 243.058594 249.605469 243.523438 C 249.25 243.972656 248.859375 244.472656 248.460938 245.03125 C 248.0625 245.589844 247.65625 246.214844 247.261719 246.882812 C 246.835938 247.511719 246.425781 248.203125 246.046875 248.941406 C 245.296875 250.433594 244.574219 251.984375 244.144531 253.726562 C 243.257812 257.175781 243.515625 260.4375 244.105469 262.945312 C 244.265625 263.664062 244.445312 264.289062 244.632812 264.84375 C 241.472656 266.722656 238.1875 268.378906 234.8125 269.820312 C 235.945312 268.644531 236.949219 267.3125 237.628906 265.820312 C 239.242188 262.464844 238.96875 259.082031 238.402344 256.675781 C 237.824219 254.25 236.925781 252.671875 236.925781 252.671875 C 236.925781 252.671875 236.5 252.925781 235.832031 253.417969 C 235.164062 253.910156 234.257812 254.65625 233.210938 255.503906 C 232.691406 255.941406 232.160156 256.429688 231.613281 256.972656 C 231.066406 257.5 230.492188 258.042969 229.949219 258.652344 C 228.863281 259.90625 227.796875 261.238281 226.945312 262.792969 C 226.101562 264.371094 225.519531 265.914062 225.152344 267.425781 C 224.78125 268.941406 224.617188 270.398438 224.570312 271.667969 C 224.546875 272.308594 224.558594 272.902344 224.582031 273.425781 C 221.175781 274.382812 217.71875 275.128906 214.222656 275.632812 C 214.6875 275.347656 215.132812 275.050781 215.566406 274.726562 C 216.300781 274.121094 216.992188 273.46875 217.59375 272.753906 C 218.199219 272.046875 218.695312 271.320312 219.097656 270.589844 C 219.496094 269.828125 219.796875 269.066406 220.03125 268.316406 C 220.496094 266.820312 220.667969 265.394531 220.707031 264.148438 C 220.769531 261.664062 220.308594 259.90625 220.308594 259.90625 C 220.308594 259.90625 219.839844 260.035156 219.074219 260.332031 C 218.300781 260.597656 217.257812 261.132812 216.035156 261.652344 C 214.824219 262.203125 213.472656 262.992188 212.09375 263.816406 C 211.410156 264.25 210.734375 264.742188 210.0625 265.292969 C 209.398438 265.820312 208.734375 266.359375 208.125 266.996094 C 205.664062 269.574219 204.234375 272.472656 203.46875 274.917969 C 203.300781 275.472656 203.164062 275.984375 203.050781 276.460938 C 201.152344 276.472656 199.246094 276.445312 197.34375 276.324219 C 195.738281 276.347656 194.117188 276.414062 192.550781 276.769531 C 191.761719 276.898438 191.03125 277.15625 190.28125 277.34375 C 189.546875 277.597656 188.816406 277.839844 188.109375 278.125 C 187.6875 278.292969 187.285156 278.492188 186.878906 278.679688 C 186.816406 278.65625 186.761719 278.628906 186.699219 278.605469 L 192.558594 281.636719 C 192.878906 281.53125 193.199219 281.441406 193.511719 281.382812 C 194.691406 281.054688 195.910156 280.96875 197.140625 280.960938 C 199.082031 281.167969 201.039062 281.285156 202.992188 281.324219 C 203.132812 281.921875 203.34375 282.597656 203.621094 283.332031 C 204.566406 285.671875 206.402344 288.71875 210.140625 290.675781 C 211.074219 291.167969 212.085938 291.609375 213.136719 291.9375 C 214.183594 292.246094 215.265625 292.484375 216.363281 292.667969 C 218.558594 293.078125 220.742188 293.058594 222.699219 292.996094 C 224.660156 292.960938 226.335938 292.625 227.539062 292.433594 C 228.742188 292.214844 229.460938 292.042969 229.460938 292.042969 C 229.460938 292.042969 228.863281 290.320312 227.289062 288.261719 C 226.496094 287.226562 225.472656 286.109375 224.183594 285.066406 C 223.542969 284.542969 222.839844 284.046875 222.0625 283.578125 C 221.28125 283.078125 220.425781 282.621094 219.507812 282.214844 C 218.582031 281.816406 217.632812 281.484375 216.683594 281.21875 C 215.964844 280.992188 215.253906 280.800781 214.535156 280.632812 C 218.378906 280.089844 222.1875 279.25 225.917969 278.148438 C 226.199219 278.640625 226.542969 279.179688 226.96875 279.746094 C 227.738281 280.753906 228.753906 281.839844 230.105469 282.804688 C 231.445312 283.773438 233.140625 284.640625 235.195312 285.066406 C 237.257812 285.53125 239.523438 285.617188 241.699219 285.34375 C 242.792969 285.222656 243.886719 285.0625 244.925781 284.828125 C 245.949219 284.582031 246.941406 284.296875 247.867188 284.003906 C 249.730469 283.445312 251.273438 282.734375 252.359375 282.214844 C 253.453125 281.691406 254.09375 281.339844 254.09375 281.339844 C 254.09375 281.339844 253.078125 279.828125 251.015625 278.253906 C 248.960938 276.652344 245.949219 275.0625 241.960938 274.445312 C 240.164062 274.199219 238.300781 274.160156 236.507812 274.238281 C 240.113281 272.636719 243.613281 270.804688 246.964844 268.738281 C 247.386719 269.171875 247.894531 269.640625 248.503906 270.125 C 250.488281 271.65625 253.585938 273.3125 257.792969 273.175781 C 259.878906 273.085938 262.101562 272.625 264.117188 271.824219 C 265.140625 271.4375 266.128906 270.996094 267.085938 270.535156 C 268.015625 270.054688 268.890625 269.539062 269.703125 269.027344 C 270.515625 268.519531 271.269531 268.019531 271.933594 267.546875 C 272.570312 267.054688 273.132812 266.605469 273.589844 266.21875 C 274.511719 265.449219 275.035156 264.957031 275.035156 264.957031 C 275.035156 264.957031 273.683594 263.742188 271.316406 262.707031 C 268.941406 261.671875 265.628906 260.828125 261.628906 261.222656 C 259.667969 261.4375 257.695312 261.917969 255.851562 262.503906 C 257.648438 261.082031 259.402344 259.609375 261.089844 258.070312 C 262.394531 256.871094 263.65625 255.628906 264.894531 254.367188 C 265.4375 254.714844 266.097656 255.089844 266.894531 255.445312 C 269.195312 256.46875 272.570312 257.296875 276.628906 256.199219 C 280.652344 255.070312 284.539062 252.160156 287.167969 249.417969 C 288.503906 248.054688 289.59375 246.777344 290.28125 245.804688 C 290.992188 244.851562 291.382812 244.242188 291.382812 244.242188 C 291.382812 244.242188 289.785156 243.375 287.25 242.917969 C 285.984375 242.6875 284.480469 242.550781 282.847656 242.652344 C 281.191406 242.738281 279.363281 243.039062 277.492188 243.707031 C 275.652344 244.402344 273.769531 245.289062 272.152344 246.335938 C 272 246.425781 271.855469 246.527344 271.699219 246.617188 C 274.324219 243.3125 276.730469 239.839844 278.90625 236.234375 C 279.550781 236.457031 280.339844 236.695312 281.261719 236.871094 C 283.792969 237.371094 287.171875 237.363281 290.914062 235.382812 C 292.707031 234.363281 294.449219 232.960938 295.914062 231.367188 C 297.332031 229.757812 298.683594 228.042969 299.621094 226.402344 C 300.582031 224.761719 301.371094 223.277344 301.839844 222.179688 C 302.304688 221.085938 302.546875 220.40625 302.546875 220.40625 C 302.546875 220.40625 300.785156 219.929688 298.21875 220.054688 C 295.679688 220.195312 292.230469 220.878906 288.914062 223.042969 C 287.214844 224.113281 285.648438 225.429688 284.304688 226.8125 C 284.058594 227.042969 283.84375 227.265625 283.621094 227.496094 C 285.472656 223.582031 287.070312 219.542969 288.402344 215.417969 C 289.101562 215.503906 289.988281 215.566406 290.996094 215.523438 C 292.269531 215.46875 293.769531 215.265625 295.324219 214.710938 C 296.863281 214.160156 298.484375 213.269531 300.0625 211.882812 C 301.652344 210.496094 302.910156 208.703125 304.03125 206.828125 C 305.101562 204.941406 305.886719 202.941406 306.527344 201.136719 C 307.085938 199.316406 307.460938 197.683594 307.699219 196.511719 C 307.953125 195.34375 308 194.625 308 194.625 C 308 194.625 306.183594 194.558594 303.71875 195.273438 " fill-opacity="1" fill-rule="nonzero"/></g></svg>