<svg xmlns="http://www.w3.org/2000/svg" xmlns:xlink="http://www.w3.org/1999/xlink" width="300" zoomAndPan="magnify" viewBox="0 0 224.87999 56.249996" height="75" preserveAspectRatio="xMidYMid meet" version="1.0"><defs><g/><clipPath id="2bc4cdecbf"><path d="M 5.777344 3.019531 L 55.363281 3.019531 L 55.363281 49.648438 L 5.777344 49.648438 Z M 5.777344 3.019531 " clip-rule="nonzero"/></clipPath><clipPath id="0c1179cfde"><path d="M 16.683594 12.496094 L 32.226562 12.496094 L 32.226562 40.621094 L 16.683594 40.621094 Z M 16.683594 12.496094 " clip-rule="nonzero"/></clipPath><clipPath id="93dde58e0a"><path d="M 30.503906 12.496094 L 46 12.496094 L 46 40.621094 L 30.503906 40.621094 Z M 30.503906 12.496094 " clip-rule="nonzero"/></clipPath></defs><g clip-path="url(#2bc4cdecbf)"><path fill="#f0f8ff" d="M 5.804688 26.484375 C 5.804688 13.523438 16.863281 3.019531 30.5 3.019531 C 44.140625 3.019531 55.195312 13.523438 55.195312 26.484375 C 55.195312 39.441406 44.140625 49.949219 30.5 49.949219 C 16.863281 49.949219 5.804688 39.441406 5.804688 26.484375 Z M 5.804688 26.484375 " fill-opacity="1" fill-rule="evenodd"/></g><g clip-path="url(#0c1179cfde)"><path fill="#000000" d="M 58.125 39.878906 C 57.972656 40 57.910156 40.179688 57.992188 40.28125 C 58.066406 40.382812 58.261719 40.378906 58.421875 40.28125 C 61.925781 37.589844 64.25 33.652344 64.933594 29.289062 C 65.617188 24.925781 64.59375 20.46875 62.078125 16.835938 C 64.492188 20.457031 65.421875 24.863281 64.683594 29.144531 C 63.949219 33.429688 61.59375 37.269531 58.113281 39.871094 Z M 60.578125 32.871094 C 59.90625 34.234375 59.917969 35.929688 60.960938 36.835938 C 62.164062 35.296875 61.804688 33.4375 60.570312 32.871094 Z M 61.59375 30.25 C 61.203125 31.699219 61.59375 33.324219 62.773438 33.988281 C 63.625 32.300781 62.90625 30.5625 61.585938 30.25 Z M 62.070312 27.507812 C 61.96875 28.996094 62.636719 30.5 63.964844 30.90625 C 64.453125 29.109375 63.417969 27.554688 62.066406 27.507812 Z M 62 24.730469 C 62.195312 26.207031 63.167969 27.566406 64.523438 27.6875 C 64.652344 25.835938 63.332031 24.53125 61.996094 24.730469 Z M 61.394531 22.011719 C 61.875 23.433594 63.09375 24.550781 64.441406 24.429688 C 64.214844 22.582031 62.65625 21.53125 61.390625 22.011719 Z M 60.261719 19.425781 C 61.027344 20.753906 62.429688 21.621094 63.742188 21.234375 C 63.144531 19.429688 61.394531 18.707031 60.246094 19.429688 Z M 58.5625 17.082031 C 59.617188 18.253906 61.171875 18.84375 62.386719 18.214844 C 61.441406 16.554688 59.542969 16.148438 58.5625 17.082031 Z M 62.957031 13.203125 C 61.96875 14.140625 62.269531 16.082031 63.195312 17.734375 C 64.394531 17.121094 64.503906 14.96875 62.957031 13.203125 Z M 65.335938 16.519531 C 64.207031 17.238281 64.042969 19.15625 64.617188 20.9375 C 65.914062 20.566406 66.464844 18.503906 65.335938 16.519531 Z M 66.953125 20.167969 C 65.671875 20.640625 65.15625 22.464844 65.363281 24.316406 C 66.714844 24.203125 67.65625 22.300781 66.953125 20.167969 Z M 67.8125 24.003906 C 66.460938 24.214844 65.601562 25.890625 65.449219 27.75 C 66.773438 27.933594 68.082031 26.230469 67.8125 24.015625 Z M 67.902344 27.933594 C 66.542969 27.871094 65.375 29.347656 64.863281 31.148438 C 66.152344 31.574219 67.742188 30.164062 67.902344 27.933594 Z M 67.234375 31.816406 C 65.902344 31.5 64.46875 32.726562 63.605469 34.414062 C 64.785156 35.074219 66.640625 33.984375 67.234375 31.816406 Z M 65.800781 35.527344 C 64.558594 34.960938 62.90625 35.886719 61.683594 37.402344 C 62.710938 38.289062 64.78125 37.558594 65.800781 35.527344 Z M 57.984375 12.636719 C 58.648438 14.273438 59.964844 15.566406 61.617188 16.195312 C 61.613281 14.507812 59.769531 12.683594 57.984375 12.636719 Z M 26.722656 39.871094 C 23.238281 37.269531 20.890625 33.429688 20.152344 29.144531 C 19.414062 24.863281 20.347656 20.457031 22.753906 16.835938 C 20.253906 20.46875 19.234375 24.917969 19.914062 29.277344 C 20.597656 33.628906 22.921875 37.558594 26.417969 40.253906 C 26.578125 40.375 26.765625 40.390625 26.847656 40.253906 C 26.925781 40.117188 26.847656 39.96875 26.710938 39.851562 Z M 23.890625 36.820312 C 24.929688 35.929688 24.941406 34.234375 24.269531 32.855469 C 23.015625 33.4375 22.65625 35.296875 23.871094 36.820312 Z M 22.074219 33.988281 C 23.265625 33.324219 23.644531 31.71875 23.253906 30.25 C 21.914062 30.5625 21.195312 32.300781 22.050781 33.988281 Z M 20.882812 30.910156 C 22.183594 30.5 22.882812 28.996094 22.777344 27.511719 C 21.402344 27.554688 20.367188 29.109375 20.882812 30.910156 Z M 20.316406 27.6875 C 21.667969 27.542969 22.644531 26.207031 22.835938 24.730469 C 21.488281 24.53125 20.167969 25.835938 20.316406 27.6875 Z M 20.382812 24.429688 C 21.742188 24.550781 22.949219 23.433594 23.429688 22.011719 C 22.164062 21.53125 20.605469 22.582031 20.382812 24.429688 Z M 21.089844 21.234375 C 22.40625 21.621094 23.808594 20.753906 24.574219 19.425781 C 23.425781 18.707031 21.675781 19.433594 21.089844 21.234375 Z M 22.433594 18.199219 C 23.648438 18.832031 25.203125 18.246094 26.257812 17.0625 C 25.277344 16.148438 23.378906 16.554688 22.433594 18.207031 Z M 21.625 17.734375 C 22.550781 16.070312 22.855469 14.136719 21.863281 13.203125 C 20.316406 14.96875 20.425781 17.121094 21.625 17.734375 Z M 20.226562 20.914062 C 20.792969 19.132812 20.667969 17.21875 19.503906 16.496094 C 18.355469 18.503906 18.902344 20.566406 20.203125 20.9375 Z M 19.480469 24.316406 C 19.6875 22.464844 19.171875 20.640625 17.890625 20.167969 C 17.164062 22.300781 18.105469 24.203125 19.457031 24.316406 Z M 19.390625 27.761719 C 19.242188 25.902344 18.382812 24.222656 17.03125 24.015625 C 16.738281 26.230469 18.046875 27.933594 19.371094 27.761719 Z M 19.957031 31.160156 C 19.445312 29.359375 18.261719 27.886719 16.917969 27.941406 C 17.078125 30.164062 18.667969 31.574219 19.957031 31.160156 Z M 21.214844 34.414062 C 20.347656 32.710938 18.917969 31.5 17.585938 31.820312 C 18.179688 33.984375 20.03125 35.074219 21.214844 34.414062 Z M 23.148438 37.40625 C 21.914062 35.863281 20.261719 34.953125 19.015625 35.527344 C 20.039062 37.5625 22.113281 38.289062 23.148438 37.40625 Z M 26.839844 12.636719 C 26.179688 14.273438 24.859375 15.566406 23.203125 16.195312 C 23.207031 14.507812 25.050781 12.683594 26.839844 12.636719 " fill-opacity="1" fill-rule="nonzero"/></g><g clip-path="url(#93dde58e0a)"><path fill="#000000" d="M 4.582031 39.878906 C 4.738281 40 4.800781 40.179688 4.71875 40.28125 C 4.640625 40.382812 4.445312 40.378906 4.289062 40.28125 C 0.785156 37.589844 -1.542969 33.652344 -2.226562 29.289062 C -2.910156 24.925781 -1.886719 20.46875 0.632812 16.835938 C -1.78125 20.457031 -2.714844 24.863281 -1.976562 29.144531 C -1.238281 33.429688 1.117188 37.269531 4.597656 39.871094 Z M 2.128906 32.871094 C 2.804688 34.234375 2.789062 35.929688 1.75 36.835938 C 0.546875 35.296875 0.902344 33.4375 2.136719 32.871094 Z M 1.117188 30.25 C 1.503906 31.699219 1.117188 33.324219 -0.0664062 33.988281 C -0.917969 32.300781 -0.199219 30.5625 1.125 30.25 Z M 0.640625 27.507812 C 0.738281 28.996094 0.0742188 30.5 -1.257812 30.90625 C -1.746094 29.109375 -0.707031 27.554688 0.644531 27.507812 Z M 0.707031 24.730469 C 0.511719 26.207031 -0.460938 27.566406 -1.8125 27.6875 C -1.945312 25.835938 -0.621094 24.53125 0.710938 24.730469 Z M 1.316406 22.011719 C 0.835938 23.433594 -0.382812 24.550781 -1.730469 24.429688 C -1.503906 22.582031 0.0507812 21.53125 1.320312 22.011719 Z M 2.445312 19.425781 C 1.679688 20.753906 0.277344 21.621094 -1.035156 21.234375 C -0.4375 19.429688 1.316406 18.707031 2.464844 19.429688 Z M 4.148438 17.082031 C 3.09375 18.253906 1.535156 18.84375 0.324219 18.214844 C 1.269531 16.554688 3.164062 16.148438 4.148438 17.082031 Z M -0.246094 13.203125 C 0.738281 14.140625 0.441406 16.082031 -0.488281 17.734375 C -1.6875 17.121094 -1.796875 14.96875 -0.246094 13.203125 Z M -2.628906 16.519531 C -1.496094 17.238281 -1.332031 19.15625 -1.910156 20.9375 C -3.203125 20.566406 -3.753906 18.503906 -2.628906 16.519531 Z M -4.246094 20.167969 C -2.964844 20.640625 -2.445312 22.464844 -2.65625 24.316406 C -4.003906 24.203125 -4.945312 22.300781 -4.246094 20.167969 Z M -5.105469 24.003906 C -3.75 24.214844 -2.890625 25.890625 -2.742188 27.75 C -4.0625 27.933594 -5.371094 26.230469 -5.105469 24.015625 Z M -5.195312 27.933594 C -3.832031 27.871094 -2.664062 29.347656 -2.152344 31.148438 C -3.441406 31.574219 -5.03125 30.164062 -5.195312 27.933594 Z M -4.523438 31.816406 C -3.195312 31.5 -1.757812 32.726562 -0.894531 34.414062 C -2.074219 35.074219 -3.933594 33.984375 -4.523438 31.816406 Z M -3.089844 35.527344 C -1.847656 34.960938 -0.199219 35.886719 1.023438 37.402344 C -0.00390625 38.289062 -2.070312 37.558594 -3.089844 35.527344 Z M 4.722656 12.636719 C 4.0625 14.273438 2.746094 15.566406 1.09375 16.195312 C 1.097656 14.507812 2.941406 12.683594 4.722656 12.636719 Z M 35.988281 39.871094 C 39.46875 37.269531 41.816406 33.429688 42.554688 29.144531 C 43.292969 24.863281 42.363281 20.457031 39.953125 16.835938 C 42.457031 20.46875 43.476562 24.917969 42.796875 29.277344 C 42.113281 33.628906 39.785156 37.558594 36.292969 40.253906 C 36.132812 40.375 35.941406 40.390625 35.863281 40.253906 C 35.785156 40.117188 35.863281 39.96875 35.996094 39.851562 Z M 38.816406 36.820312 C 37.78125 35.929688 37.765625 34.234375 38.441406 32.855469 C 39.695312 33.4375 40.054688 35.296875 38.839844 36.820312 Z M 40.636719 33.988281 C 39.441406 33.324219 39.066406 31.71875 39.457031 30.25 C 40.796875 30.5625 41.515625 32.300781 40.660156 33.988281 Z M 41.828125 30.910156 C 40.523438 30.5 39.828125 28.996094 39.929688 27.511719 C 41.308594 27.554688 42.34375 29.109375 41.828125 30.910156 Z M 42.394531 27.6875 C 41.039062 27.542969 40.066406 26.207031 39.871094 24.730469 C 41.222656 24.53125 42.542969 25.835938 42.394531 27.6875 Z M 42.324219 24.429688 C 40.96875 24.550781 39.757812 23.433594 39.277344 22.011719 C 40.546875 21.53125 42.105469 22.582031 42.324219 24.429688 Z M 41.621094 21.234375 C 40.300781 21.621094 38.898438 20.753906 38.132812 19.425781 C 39.285156 18.707031 41.035156 19.433594 41.621094 21.234375 Z M 40.273438 18.199219 C 39.0625 18.832031 37.503906 18.246094 36.449219 17.0625 C 37.433594 16.148438 39.328125 16.554688 40.273438 18.207031 Z M 41.085938 17.734375 C 40.15625 16.070312 39.855469 14.136719 40.84375 13.203125 C 42.394531 14.96875 42.285156 17.121094 41.085938 17.734375 Z M 42.484375 20.914062 C 41.917969 19.132812 42.039062 17.21875 43.203125 16.496094 C 44.351562 18.503906 43.804688 20.566406 42.507812 20.9375 Z M 43.230469 24.316406 C 43.023438 22.464844 43.539062 20.640625 44.820312 20.167969 C 45.542969 22.300781 44.601562 24.203125 43.253906 24.316406 Z M 43.316406 27.761719 C 43.464844 25.902344 44.324219 24.222656 45.679688 24.015625 C 45.96875 26.230469 44.660156 27.933594 43.339844 27.761719 Z M 42.75 31.160156 C 43.261719 29.359375 44.449219 27.886719 45.792969 27.941406 C 45.628906 30.164062 44.039062 31.574219 42.75 31.160156 Z M 41.492188 34.414062 C 42.363281 32.710938 43.792969 31.5 45.121094 31.820312 C 44.53125 33.984375 42.679688 35.074219 41.492188 34.414062 Z M 39.558594 37.40625 C 40.796875 35.863281 42.449219 34.953125 43.691406 35.527344 C 42.667969 37.5625 40.597656 38.289062 39.558594 37.40625 Z M 35.871094 12.636719 C 36.53125 14.273438 37.847656 15.566406 39.503906 16.195312 C 39.5 14.507812 37.660156 12.683594 35.871094 12.636719 " fill-opacity="1" fill-rule="nonzero"/></g><g fill="#a6fbb2" fill-opacity="1"><g transform="translate(83.91764, 31.113583)"><g><path d="M 28.46875 0 L 19.5625 0 L 9.46875 -12.078125 L 9.46875 0 L 1.984375 0 L 1.984375 -17.84375 L 10.890625 -17.84375 L 20.984375 -5.828125 L 20.984375 -17.84375 L 28.46875 -17.84375 Z M 28.46875 0 "/></g></g></g><g fill="#a6fbb2" fill-opacity="1"><g transform="translate(113.337209, 31.113583)"><g><path d="M 17.40625 0 L 9.921875 0 L 9.921875 -8.453125 L 0.1875 -17.84375 L 8.484375 -17.84375 L 13.671875 -12.515625 L 18.84375 -17.84375 L 27.140625 -17.84375 L 17.40625 -8.453125 Z M 17.40625 0 "/></g></g></g><g fill="#a6fbb2" fill-opacity="1"><g transform="translate(139.62473, 31.113583)"><g><path d="M 31.28125 0 L 21.5625 0 L 13.90625 -5.96875 L 9.46875 -2.953125 L 9.46875 0 L 1.984375 0 L 1.984375 -17.84375 L 9.46875 -17.84375 L 9.46875 -9.59375 L 21.484375 -17.84375 L 31.28125 -17.84375 L 18.5 -9.109375 Z M 31.28125 0 "/></g></g></g><g fill="#a6fbb2" fill-opacity="1"><g transform="translate(170.063458, 31.113583)"><g><path d="M 23.484375 0 L 1.984375 0 L 1.984375 -17.84375 L 22.5 -17.84375 L 22.5 -13.4375 L 9.46875 -13.4375 L 9.46875 -10.625 L 20.484375 -10.625 L 20.484375 -7.203125 L 9.46875 -7.203125 L 9.46875 -4.421875 L 23.484375 -4.421875 Z M 23.484375 0 "/></g></g></g><g fill="#f0f8ff" fill-opacity="1"><g transform="translate(104.323796, 43.460165)"><g><path d="M 3.0625 0 L 0.640625 0 L 0.640625 -5.765625 L 7.265625 -5.765625 L 7.265625 -4.34375 L 3.0625 -4.34375 L 3.0625 -3.4375 L 6.625 -3.4375 L 6.625 -2.328125 L 3.0625 -2.328125 Z M 3.0625 0 "/></g></g></g><g fill="#f0f8ff" fill-opacity="1"><g transform="translate(113.56203, 43.460165)"><g><path d="M 3.0625 0 L 0.640625 0 L 0.640625 -5.765625 L 3.0625 -5.765625 Z M 3.0625 0 "/></g></g></g><g fill="#f0f8ff" fill-opacity="1"><g transform="translate(118.913823, 43.460165)"><g><path d="M 9.203125 0 L 6.328125 0 L 3.0625 -3.90625 L 3.0625 0 L 0.640625 0 L 0.640625 -5.765625 L 3.515625 -5.765625 L 6.78125 -1.890625 L 6.78125 -5.765625 L 9.203125 -5.765625 Z M 9.203125 0 "/></g></g></g><g fill="#f0f8ff" fill-opacity="1"><g transform="translate(130.402734, 43.460165)"><g><path d="M 9.6875 0 L 7.234375 0 L 6.6875 -0.9375 L 3.0625 -0.9375 L 2.515625 0 L 0.0625 0 L 3.75 -5.765625 L 6 -5.765625 Z M 5.875 -2.375 L 4.875 -4.125 L 3.875 -2.375 Z M 5.875 -2.375 "/></g></g></g><g fill="#f0f8ff" fill-opacity="1"><g transform="translate(141.79519, 43.460165)"><g><path d="M 9.203125 0 L 6.328125 0 L 3.0625 -3.90625 L 3.0625 0 L 0.640625 0 L 0.640625 -5.765625 L 3.515625 -5.765625 L 6.78125 -1.890625 L 6.78125 -5.765625 L 9.203125 -5.765625 Z M 9.203125 0 "/></g></g></g><g fill="#f0f8ff" fill-opacity="1"><g transform="translate(153.284104, 43.460165)"><g><path d="M 4.359375 0.125 C 2.929688 0.125 1.882812 -0.164062 1.21875 -0.75 C 0.625 -1.269531 0.328125 -1.976562 0.328125 -2.875 C 0.328125 -3.769531 0.625 -4.476562 1.21875 -5 C 1.882812 -5.582031 2.929688 -5.875 4.359375 -5.875 C 5.191406 -5.875 5.878906 -5.78125 6.421875 -5.59375 C 6.972656 -5.40625 7.398438 -5.144531 7.703125 -4.8125 C 8.015625 -4.476562 8.21875 -4.097656 8.3125 -3.671875 L 5.765625 -3.671875 C 5.515625 -4.117188 5.046875 -4.34375 4.359375 -4.34375 C 3.773438 -4.34375 3.347656 -4.171875 3.078125 -3.828125 C 2.847656 -3.554688 2.734375 -3.238281 2.734375 -2.875 C 2.734375 -2.507812 2.847656 -2.191406 3.078125 -1.921875 C 3.347656 -1.585938 3.773438 -1.421875 4.359375 -1.421875 C 5.046875 -1.421875 5.515625 -1.644531 5.765625 -2.09375 L 8.3125 -2.09375 C 8.21875 -1.664062 8.015625 -1.285156 7.703125 -0.953125 C 7.398438 -0.617188 6.972656 -0.351562 6.421875 -0.15625 C 5.878906 0.03125 5.191406 0.125 4.359375 0.125 Z M 4.359375 0.125 "/></g></g></g><g fill="#f0f8ff" fill-opacity="1"><g transform="translate(163.563278, 43.460165)"><g><path d="M 7.59375 0 L 0.640625 0 L 0.640625 -5.765625 L 7.265625 -5.765625 L 7.265625 -4.34375 L 3.0625 -4.34375 L 3.0625 -3.4375 L 6.625 -3.4375 L 6.625 -2.328125 L 3.0625 -2.328125 L 3.0625 -1.421875 L 7.59375 -1.421875 Z M 7.59375 0 "/></g></g></g></svg>