<svg xmlns="http://www.w3.org/2000/svg" xmlns:xlink="http://www.w3.org/1999/xlink" width="300" zoomAndPan="magnify" viewBox="0 0 224.87999 56.249996" height="75" preserveAspectRatio="xMidYMid meet" version="1.0"><defs><g/><clipPath id="e649d14aba"><path d="M 7 3.085938 L 33.617188 3.085938 L 33.617188 51.195312 L 7 51.195312 Z M 7 3.085938 " clip-rule="nonzero"/></clipPath><clipPath id="be88f37c25"><path d="M 36.539062 3.085938 L 63 3.085938 L 63 51.195312 L 36.539062 51.195312 Z M 36.539062 3.085938 " clip-rule="nonzero"/></clipPath></defs><g clip-path="url(#e649d14aba)"><path fill="#a6fbb2" d="M 78.652344 50.445312 C 78.386719 50.65625 78.277344 50.96875 78.417969 51.140625 C 78.550781 51.320312 78.886719 51.3125 79.160156 51.140625 C 85.222656 46.492188 89.246094 39.679688 90.425781 32.132812 C 91.609375 24.585938 89.839844 16.871094 85.488281 10.59375 C 89.660156 16.855469 91.273438 24.472656 89.996094 31.882812 C 88.71875 39.296875 84.648438 45.933594 78.628906 50.4375 Z M 82.894531 38.324219 C 81.730469 40.679688 81.753906 43.617188 83.554688 45.183594 C 85.636719 42.523438 85.015625 39.304688 82.878906 38.324219 Z M 84.648438 33.792969 C 83.976562 36.296875 84.648438 39.109375 86.691406 40.257812 C 88.164062 37.339844 86.917969 34.332031 84.632812 33.792969 Z M 85.472656 29.046875 C 85.300781 31.621094 86.449219 34.222656 88.75 34.925781 C 89.597656 31.820312 87.804688 29.132812 85.464844 29.046875 Z M 85.355469 24.246094 C 85.691406 26.800781 87.375 29.148438 89.714844 29.359375 C 89.941406 26.15625 87.65625 23.902344 85.347656 24.246094 Z M 84.304688 19.542969 C 85.132812 22 87.242188 23.933594 89.574219 23.722656 C 89.183594 20.527344 86.488281 18.710938 84.296875 19.542969 Z M 82.347656 15.070312 C 83.671875 17.367188 86.097656 18.867188 88.367188 18.195312 C 87.335938 15.078125 84.304688 13.828125 82.316406 15.078125 Z M 79.402344 11.015625 C 81.226562 13.042969 83.921875 14.0625 86.019531 12.972656 C 84.382812 10.109375 81.101562 9.402344 79.402344 11.015625 Z M 87.003906 4.304688 C 85.300781 5.925781 85.816406 9.285156 87.421875 12.144531 C 89.496094 11.085938 89.683594 7.359375 87.003906 4.304688 Z M 91.125 10.042969 C 89.167969 11.289062 88.886719 14.601562 89.878906 17.6875 C 92.117188 17.042969 93.074219 13.472656 91.125 10.042969 Z M 93.917969 16.355469 C 91.703125 17.167969 90.8125 20.324219 91.171875 23.527344 C 93.503906 23.332031 95.132812 20.042969 93.917969 16.355469 Z M 95.40625 22.988281 C 93.066406 23.355469 91.578125 26.25 91.320312 29.46875 C 93.605469 29.78125 95.867188 26.839844 95.40625 23.011719 Z M 95.5625 29.78125 C 93.207031 29.679688 91.1875 32.234375 90.300781 35.351562 C 92.535156 36.085938 95.28125 33.644531 95.5625 29.78125 Z M 94.40625 36.5 C 92.101562 35.953125 89.621094 38.074219 88.125 40.996094 C 90.167969 42.136719 93.378906 40.25 94.40625 36.5 Z M 91.921875 42.921875 C 89.777344 41.941406 86.917969 43.539062 84.804688 46.164062 C 86.582031 47.695312 90.160156 46.4375 91.921875 42.921875 Z M 78.410156 3.328125 C 79.550781 6.160156 81.832031 8.394531 84.6875 9.480469 C 84.679688 6.5625 81.492188 3.40625 78.410156 3.328125 Z M 24.332031 50.4375 C 18.308594 45.933594 14.246094 39.296875 12.96875 31.882812 C 11.695312 24.472656 13.308594 16.855469 17.472656 10.59375 C 13.140625 16.871094 11.378906 24.570312 12.554688 32.109375 C 13.738281 39.640625 17.761719 46.4375 23.804688 51.09375 C 24.082031 51.304688 24.410156 51.328125 24.550781 51.09375 C 24.683594 50.859375 24.550781 50.601562 24.316406 50.398438 Z M 19.4375 45.160156 C 21.230469 43.617188 21.253906 40.679688 20.085938 38.300781 C 17.917969 39.304688 17.300781 42.523438 19.398438 45.160156 Z M 16.289062 40.257812 C 18.355469 39.109375 19.007812 36.335938 18.332031 33.792969 C 16.015625 34.332031 14.769531 37.339844 16.25 40.257812 Z M 14.230469 34.933594 C 16.484375 34.222656 17.691406 31.621094 17.511719 29.054688 C 15.132812 29.132812 13.339844 31.820312 14.230469 34.933594 Z M 13.253906 29.359375 C 15.59375 29.109375 17.277344 26.800781 17.613281 24.246094 C 15.28125 23.902344 12.992188 26.15625 13.253906 29.359375 Z M 13.371094 23.722656 C 15.71875 23.933594 17.808594 22 18.640625 19.542969 C 16.445312 18.710938 13.753906 20.527344 13.371094 23.722656 Z M 14.589844 18.195312 C 16.871094 18.867188 19.296875 17.367188 20.621094 15.070312 C 18.632812 13.828125 15.601562 15.085938 14.589844 18.195312 Z M 16.917969 12.949219 C 19.015625 14.046875 21.707031 13.027344 23.53125 10.984375 C 21.832031 9.402344 18.550781 10.109375 16.917969 12.964844 Z M 15.515625 12.144531 C 17.121094 9.269531 17.644531 5.917969 15.929688 4.304688 C 13.253906 7.359375 13.441406 11.085938 15.515625 12.144531 Z M 13.09375 17.648438 C 14.074219 14.5625 13.863281 11.25 11.851562 10.003906 C 9.863281 13.472656 10.808594 17.042969 13.054688 17.6875 Z M 11.804688 23.527344 C 12.164062 20.324219 11.269531 17.167969 9.054688 16.355469 C 7.804688 20.042969 9.429688 23.332031 11.765625 23.527344 Z M 11.65625 29.484375 C 11.394531 26.273438 9.910156 23.371094 7.566406 23.011719 C 7.066406 26.839844 9.328125 29.78125 11.617188 29.484375 Z M 12.632812 35.367188 C 11.75 32.25 9.699219 29.703125 7.371094 29.796875 C 7.652344 33.644531 10.402344 36.085938 12.632812 35.367188 Z M 14.808594 40.996094 C 13.308594 38.050781 10.832031 35.953125 8.53125 36.507812 C 9.554688 40.25 12.757812 42.136719 14.808594 40.996094 Z M 18.152344 46.171875 C 16.015625 43.5 13.15625 41.925781 11.003906 42.921875 C 12.773438 46.445312 16.359375 47.695312 18.152344 46.171875 Z M 24.535156 3.328125 C 23.390625 6.160156 21.113281 8.394531 18.246094 9.480469 C 18.253906 6.5625 21.441406 3.40625 24.535156 3.328125 " fill-opacity="1" fill-rule="nonzero"/></g><g fill="#a6fbb2" fill-opacity="1"><g transform="translate(90.242886, 31.840304)"><g><path d="M 28.46875 0 L 19.5625 0 L 9.46875 -12.078125 L 9.46875 0 L 1.984375 0 L 1.984375 -17.84375 L 10.890625 -17.84375 L 20.984375 -5.828125 L 20.984375 -17.84375 L 28.46875 -17.84375 Z M 28.46875 0 "/></g></g></g><g fill="#a6fbb2" fill-opacity="1"><g transform="translate(119.153216, 31.840304)"><g><path d="M 17.40625 0 L 9.921875 0 L 9.921875 -8.453125 L 0.1875 -17.84375 L 8.484375 -17.84375 L 13.671875 -12.515625 L 18.84375 -17.84375 L 27.140625 -17.84375 L 17.40625 -8.453125 Z M 17.40625 0 "/></g></g></g><g fill="#a6fbb2" fill-opacity="1"><g transform="translate(144.931498, 31.840304)"><g><path d="M 31.28125 0 L 21.5625 0 L 13.90625 -5.96875 L 9.46875 -2.953125 L 9.46875 0 L 1.984375 0 L 1.984375 -17.84375 L 9.46875 -17.84375 L 9.46875 -9.59375 L 21.484375 -17.84375 L 31.28125 -17.84375 L 18.5 -9.109375 Z M 31.28125 0 "/></g></g></g><g fill="#a6fbb2" fill-opacity="1"><g transform="translate(174.860987, 31.840304)"><g><path d="M 23.484375 0 L 1.984375 0 L 1.984375 -17.84375 L 22.5 -17.84375 L 22.5 -13.4375 L 9.46875 -13.4375 L 9.46875 -10.625 L 20.484375 -10.625 L 20.484375 -7.203125 L 9.46875 -7.203125 L 9.46875 -4.421875 L 23.484375 -4.421875 Z M 23.484375 0 "/></g></g></g><g fill="#b3e5f9" fill-opacity="1"><g transform="translate(109.620161, 44.186887)"><g><path d="M 3.0625 0 L 0.640625 0 L 0.640625 -5.765625 L 7.265625 -5.765625 L 7.265625 -4.34375 L 3.0625 -4.34375 L 3.0625 -3.4375 L 6.625 -3.4375 L 6.625 -2.328125 L 3.0625 -2.328125 Z M 3.0625 0 "/></g></g></g><g fill="#b3e5f9" fill-opacity="1"><g transform="translate(118.858394, 44.186887)"><g><path d="M 3.0625 0 L 0.640625 0 L 0.640625 -5.765625 L 3.0625 -5.765625 Z M 3.0625 0 "/></g></g></g><g fill="#b3e5f9" fill-opacity="1"><g transform="translate(124.210187, 44.186887)"><g><path d="M 9.203125 0 L 6.328125 0 L 3.0625 -3.90625 L 3.0625 0 L 0.640625 0 L 0.640625 -5.765625 L 3.515625 -5.765625 L 6.78125 -1.890625 L 6.78125 -5.765625 L 9.203125 -5.765625 Z M 9.203125 0 "/></g></g></g><g fill="#b3e5f9" fill-opacity="1"><g transform="translate(135.699099, 44.186887)"><g><path d="M 9.6875 0 L 7.234375 0 L 6.6875 -0.9375 L 3.0625 -0.9375 L 2.515625 0 L 0.0625 0 L 3.75 -5.765625 L 6 -5.765625 Z M 5.875 -2.375 L 4.875 -4.125 L 3.875 -2.375 Z M 5.875 -2.375 "/></g></g></g><g fill="#b3e5f9" fill-opacity="1"><g transform="translate(147.091555, 44.186887)"><g><path d="M 9.203125 0 L 6.328125 0 L 3.0625 -3.90625 L 3.0625 0 L 0.640625 0 L 0.640625 -5.765625 L 3.515625 -5.765625 L 6.78125 -1.890625 L 6.78125 -5.765625 L 9.203125 -5.765625 Z M 9.203125 0 "/></g></g></g><g fill="#b3e5f9" fill-opacity="1"><g transform="translate(158.580469, 44.186887)"><g><path d="M 4.359375 0.125 C 2.929688 0.125 1.882812 -0.164062 1.21875 -0.75 C 0.625 -1.269531 0.328125 -1.976562 0.328125 -2.875 C 0.328125 -3.769531 0.625 -4.476562 1.21875 -5 C 1.882812 -5.582031 2.929688 -5.875 4.359375 -5.875 C 5.191406 -5.875 5.878906 -5.78125 6.421875 -5.59375 C 6.972656 -5.40625 7.398438 -5.144531 7.703125 -4.8125 C 8.015625 -4.476562 8.21875 -4.097656 8.3125 -3.671875 L 5.765625 -3.671875 C 5.515625 -4.117188 5.046875 -4.34375 4.359375 -4.34375 C 3.773438 -4.34375 3.347656 -4.171875 3.078125 -3.828125 C 2.847656 -3.554688 2.734375 -3.238281 2.734375 -2.875 C 2.734375 -2.507812 2.847656 -2.191406 3.078125 -1.921875 C 3.347656 -1.585938 3.773438 -1.421875 4.359375 -1.421875 C 5.046875 -1.421875 5.515625 -1.644531 5.765625 -2.09375 L 8.3125 -2.09375 C 8.21875 -1.664062 8.015625 -1.285156 7.703125 -0.953125 C 7.398438 -0.617188 6.972656 -0.351562 6.421875 -0.15625 C 5.878906 0.03125 5.191406 0.125 4.359375 0.125 Z M 4.359375 0.125 "/></g></g></g><g fill="#b3e5f9" fill-opacity="1"><g transform="translate(168.859642, 44.186887)"><g><path d="M 7.59375 0 L 0.640625 0 L 0.640625 -5.765625 L 7.265625 -5.765625 L 7.265625 -4.34375 L 3.0625 -4.34375 L 3.0625 -3.4375 L 6.625 -3.4375 L 6.625 -2.328125 L 3.0625 -2.328125 L 3.0625 -1.421875 L 7.59375 -1.421875 Z M 7.59375 0 "/></g></g></g><g clip-path="url(#be88f37c25)"><path fill="#a6fbb2" d="M -8.285156 50.445312 C -8.019531 50.65625 -7.910156 50.96875 -8.050781 51.140625 C -8.183594 51.320312 -8.523438 51.3125 -8.796875 51.140625 C -14.855469 46.492188 -18.878906 39.679688 -20.0625 32.132812 C -21.246094 24.585938 -19.476562 16.871094 -15.121094 10.59375 C -19.296875 16.855469 -20.90625 24.472656 -19.632812 31.882812 C -18.355469 39.296875 -14.285156 45.933594 -8.261719 50.4375 Z M -12.53125 38.324219 C -11.363281 40.679688 -11.386719 43.617188 -13.1875 45.183594 C -15.269531 42.523438 -14.652344 39.304688 -12.515625 38.324219 Z M -14.285156 33.792969 C -13.609375 36.296875 -14.285156 39.109375 -16.328125 40.257812 C -17.800781 37.339844 -16.554688 34.332031 -14.269531 33.792969 Z M -15.105469 29.046875 C -14.933594 31.621094 -16.085938 34.222656 -18.386719 34.925781 C -19.234375 31.820312 -17.441406 29.132812 -15.097656 29.046875 Z M -14.988281 24.246094 C -15.324219 26.800781 -17.007812 29.148438 -19.351562 29.359375 C -19.578125 26.15625 -17.289062 23.902344 -14.980469 24.246094 Z M -13.941406 19.542969 C -14.769531 22 -16.875 23.933594 -19.210938 23.722656 C -18.816406 20.527344 -16.125 18.710938 -13.933594 19.542969 Z M -11.984375 15.070312 C -13.304688 17.367188 -15.734375 18.867188 -18.003906 18.195312 C -16.96875 15.078125 -13.941406 13.828125 -11.953125 15.078125 Z M -9.039062 11.015625 C -10.863281 13.042969 -13.554688 14.0625 -15.65625 12.972656 C -14.019531 10.109375 -10.738281 9.402344 -9.039062 11.015625 Z M -16.640625 4.304688 C -14.933594 5.925781 -15.449219 9.285156 -17.054688 12.144531 C -19.132812 11.085938 -19.320312 7.359375 -16.640625 4.304688 Z M -20.757812 10.042969 C -18.800781 11.289062 -18.519531 14.601562 -19.515625 17.6875 C -21.753906 17.042969 -22.707031 13.472656 -20.757812 10.042969 Z M -23.554688 16.355469 C -21.339844 17.167969 -20.445312 20.324219 -20.804688 23.527344 C -23.140625 23.332031 -24.769531 20.042969 -23.554688 16.355469 Z M -25.042969 22.988281 C -22.699219 23.355469 -21.214844 26.25 -20.957031 29.46875 C -23.242188 29.78125 -25.503906 26.839844 -25.042969 23.011719 Z M -25.199219 29.78125 C -22.84375 29.679688 -20.820312 32.234375 -19.9375 35.351562 C -22.167969 36.085938 -24.917969 33.644531 -25.199219 29.78125 Z M -24.039062 36.5 C -21.738281 35.953125 -19.257812 38.074219 -17.761719 40.996094 C -19.804688 42.136719 -23.015625 40.25 -24.039062 36.5 Z M -21.558594 42.921875 C -19.414062 41.941406 -16.554688 43.539062 -14.441406 46.164062 C -16.21875 47.695312 -19.796875 46.4375 -21.558594 42.921875 Z M -8.042969 3.328125 C -9.1875 6.160156 -11.464844 8.394531 -14.324219 9.480469 C -14.316406 6.5625 -11.128906 3.40625 -8.042969 3.328125 Z M 46.035156 50.4375 C 52.054688 45.933594 56.117188 39.296875 57.394531 31.882812 C 58.671875 24.472656 57.058594 16.855469 52.894531 10.59375 C 57.222656 16.871094 58.984375 24.570312 57.808594 32.109375 C 56.628906 39.640625 52.601562 46.4375 46.558594 51.09375 C 46.285156 51.304688 45.957031 51.328125 45.816406 51.09375 C 45.679688 50.859375 45.816406 50.601562 46.050781 50.398438 Z M 50.925781 45.160156 C 49.132812 43.617188 49.109375 40.679688 50.277344 38.300781 C 52.445312 39.304688 53.066406 42.523438 50.964844 45.160156 Z M 54.074219 40.257812 C 52.007812 39.109375 51.359375 36.335938 52.03125 33.792969 C 54.347656 34.332031 55.59375 37.339844 54.113281 40.257812 Z M 56.132812 34.933594 C 53.878906 34.222656 52.671875 31.621094 52.851562 29.054688 C 55.234375 29.132812 57.027344 31.820312 56.132812 34.933594 Z M 57.113281 29.359375 C 54.773438 29.109375 53.089844 26.800781 52.75 24.246094 C 55.085938 23.902344 57.371094 26.15625 57.113281 29.359375 Z M 56.996094 23.722656 C 54.644531 23.933594 52.554688 22 51.726562 19.542969 C 53.917969 18.710938 56.613281 20.527344 56.996094 23.722656 Z M 55.773438 18.195312 C 53.496094 18.867188 51.066406 17.367188 49.746094 15.070312 C 51.734375 13.828125 54.765625 15.085938 55.773438 18.195312 Z M 53.449219 12.949219 C 51.351562 14.046875 48.65625 13.027344 46.832031 10.984375 C 48.53125 9.402344 51.8125 10.109375 53.449219 12.964844 Z M 54.851562 12.144531 C 53.246094 9.269531 52.71875 5.917969 54.433594 4.304688 C 57.113281 7.359375 56.925781 11.085938 54.851562 12.144531 Z M 57.269531 17.648438 C 56.289062 14.5625 56.503906 11.25 58.515625 10.003906 C 60.503906 13.472656 59.554688 17.042969 57.308594 17.6875 Z M 58.5625 23.527344 C 58.199219 20.324219 59.09375 17.167969 61.308594 16.355469 C 62.5625 20.042969 60.933594 23.332031 58.601562 23.527344 Z M 58.710938 29.484375 C 58.96875 26.273438 60.457031 23.371094 62.796875 23.011719 C 63.296875 26.839844 61.035156 29.78125 58.75 29.484375 Z M 57.730469 35.367188 C 58.617188 32.25 60.667969 29.703125 62.992188 29.796875 C 62.710938 33.644531 59.960938 36.085938 57.730469 35.367188 Z M 55.554688 40.996094 C 57.058594 38.050781 59.53125 35.953125 61.832031 36.507812 C 60.808594 40.25 57.605469 42.136719 55.554688 40.996094 Z M 52.210938 46.171875 C 54.347656 43.5 57.207031 41.925781 59.359375 42.921875 C 57.589844 46.445312 54.003906 47.695312 52.210938 46.171875 Z M 45.832031 3.328125 C 46.972656 6.160156 49.25 8.394531 52.117188 9.480469 C 52.109375 6.5625 48.921875 3.40625 45.832031 3.328125 " fill-opacity="1" fill-rule="nonzero"/></g></svg>